<svg xmlns="http://www.w3.org/2000/svg" xmlns:xlink="http://www.w3.org/1999/xlink" width="225.683" height="278.17" viewBox="0 0 225.683 278.17">
  <defs>
    <clipPath id="clip-path">
      <rect id="Rectángulo_132" data-name="Rectángulo 132" width="225.683" height="278.17" fill="none"/>
    </clipPath>
  </defs>
  <g id="a" transform="translate(0)">
    <g id="Grupo_390" data-name="Grupo 390" transform="translate(0)" clip-path="url(#clip-path)">
      <path id="Trazado_1786" data-name="Trazado 1786" d="M224.409,192.11c-.851-10.209-2.083-21.165-3.66-32.565-1.612-11.646-3.592-23.519-5.505-35-.067-.405-.141-.808-.223-1.212-2.27-11.357-4.617-23.1-6.966-34.058q-.135-.635-.292-1.263-.724-2.9-1.416-5.715l-.135-.549c-2.128-8.641-4.14-16.808-6.584-24.564A173.708,173.708,0,0,0,189.563,30.93c-.088-.184-.178-.367-.271-.554-10.35-20.692-24.55-27.042-34.639-28.725a81.951,81.951,0,0,0-9.839-.9c-1.465-.074-2.98-.15-4.7-.273C133.454,0,126.688,0,119.525,0c-7.489,0-15.35.414-22.966.816C88.175,1.258,80.423,2.121,73.8,2.9A123.719,123.719,0,0,0,50.15,7.761c-.281.086-.56.176-.839.269C43.748,9.887,29.1,14.8,20.568,29.022c-.394.656-.774,1.334-1.13,2.021-5.486,10.308-7.956,22.409-9.067,31.086-2.1,10.862-3.709,23.224-5.135,34.994-1.6,13.175-2.826,27.629-3.653,42.96l-.069,1.28C.734,155.751,0,169.341,0,182.581,0,196.36.424,208.647,1.26,219.1c1.265,16.406,3.69,26.534,8.359,34.935.487.877,1.017,1.746,1.557,2.553,8.163,12.252,21.539,19.683,37.678,20.941,4.777.424,9.639.639,14.453.639,2.482,0,4.991-.057,7.4-.168a140.624,140.624,0,0,0,23.533-3.041c9.747-1.968,16.43-4.212,22.052-7.421a43.166,43.166,0,0,0,18.691,5.451,93.421,93.421,0,0,0,15.847.053c4.523-.088,8.464-.476,11.986-.822,1.654-.163,3.081-.3,4.4-.4,1.009-.071,2.032-.186,3.024-.339,5.118-.787,10.41-1.6,15.12-2.456,11.735-2.132,20.627-6.354,27.206-12.93a37.171,37.171,0,0,0,2.717-3.039c9.317-11.651,10.395-25.526,10.395-34.949,0-7.115-.428-15.863-1.274-26" fill="#161615"/>
      <path id="Trazado_1787" data-name="Trazado 1787" d="M193.169,185.5c-.814-9.76-2-20.269-3.512-31.234-1.566-11.315-3.518-23.023-5.406-34.345-.022-.131-.045-.26-.072-.39-2.26-11.3-4.6-22.993-6.912-33.792-.029-.136-.06-.271-.094-.406q-.806-3.223-1.572-6.347c-2.055-8.345-4-16.231-6.235-23.29a148.863,148.863,0,0,0-8.705-22.764c-.029-.061-.058-.121-.088-.181-1.709-3.415-6.906-13.809-16.642-15.433a61.957,61.957,0,0,0-7.02-.6c-1.517-.076-3.238-.163-5.212-.3C125.912,16,119.864,16,112.863,16c-6.843,0-14.378.4-21.666.781-7.686.406-15.038,1.227-21.336,1.969a98.968,98.968,0,0,0-19.119,3.92q-.124.038-.246.08C44.768,24.661,38.452,27.382,35.04,33.07c-.152.252-.293.51-.426.771-3.087,5.743-5.4,14.051-6.538,23.518-2.027,10.268-3.61,22.434-5.02,34.069-1.531,12.627-2.712,26.53-3.511,41.321l-.069,1.282C18.718,148.083,18,161.357,18,173.918c0,13.135.4,24.78,1.183,34.571.97,12.621,2.516,19.84,5.338,24.915q.24.435.517.848c2.755,4.136,8.321,9.226,19.189,10.038,4.116.369,8.275.555,12.418.555q3.17,0,6.322-.144a115.828,115.828,0,0,0,19.562-2.543c7.329-1.471,12.044-2.994,15.277-4.934q.262-.156.515-.327a19.882,19.882,0,0,0,8.017-10.93,53.089,53.089,0,0,0,1.865-8.609,46.391,46.391,0,0,0,5.5,11.758c3.518,6.431,9.538,10.336,16.359,10.605a68.548,68.548,0,0,0,12.849.012c3.867-.035,7.4-.382,10.823-.719,1.755-.173,3.413-.336,5.091-.456.334-.024.672-.062,1-.113,4.963-.763,10.1-1.554,14.462-2.347,9.862-1.791,13.1-5.024,14.158-6.087a12.513,12.513,0,0,0,.911-1.019c3.453-4.318,4.994-10.347,4.994-19.547,0-6.431-.4-14.488-1.189-23.95" transform="translate(-6.902 -6.135)" fill="#161615"/>
      <path id="Trazado_1788" data-name="Trazado 1788" d="M188.548,194.19c-.764-9.17-1.905-19.486-3.439-30.569s-3.443-22.544-5.354-34.007c-2.292-11.464-4.585-22.927-6.877-33.626-2.675-10.7-4.968-20.634-7.642-29.041a136.118,136.118,0,0,0-8.025-21.016c-2.674-5.347-5.347-8.4-7.642-8.786s-5.733-.383-11.081-.765S127.408,36,120.531,36c-6.5,0-13.754.381-21.015.765s-14.138,1.146-20.634,1.911a86.488,86.488,0,0,0-16.812,3.439c-4.582,1.529-7.639,3.057-8.786,4.968l.006,0c-1.915,3.439-4.207,9.934-5.354,19.869-1.911,9.553-3.44,21.017-4.968,33.626s-2.675,26.365-3.439,40.5S38,168.977,38,181.587s.382,24.073,1.146,33.626c.764,9.934,1.91,16.43,3.821,19.869,1.528,2.292,4.581,4.2,9.935,4.585a126.435,126.435,0,0,0,17.195.382,103.085,103.085,0,0,0,17.572-2.294q8.6-1.717,11.462-3.438a7.529,7.529,0,0,0,3.057-4.2,40.633,40.633,0,0,0,1.528-7.26,68.4,68.4,0,0,0,.764-8.786,57.173,57.173,0,0,1,.765-8.407c.383-2.68,1.146-4.207,3.057-5.354a10.782,10.782,0,0,1,5.731-1.528,12.77,12.77,0,0,1,5.731,1.146c1.53.763,2.676,1.528,3.058,2.673a49.668,49.668,0,0,0,1.528,7.261,65.424,65.424,0,0,0,3.062,10.694A34.112,34.112,0,0,0,132,230.489c1.528,3.057,3.822,4.585,6.5,4.585a56.172,56.172,0,0,0,11.463,0c5.35,0,10.312-.765,15.666-1.146,4.97-.765,9.935-1.529,14.14-2.292s6.877-1.91,7.641-2.674c1.528-1.911,2.293-5.733,2.293-11.846s-.382-13.755-1.147-22.925m-66.857-38.205a31.664,31.664,0,0,1-10.7,3.057,26.04,26.04,0,0,1-11.081-1.528c-3.443-1.142-5.354-3.439-5.354-6.5l.006,0c-.382-1.146-.382-3.439,0-7.642V130.382c0-4.585.382-9.935.382-15.285s0-10.316.382-14.52a7.878,7.878,0,0,1,3.82-6.5,18.169,18.169,0,0,1,8.023-2.674,12.851,12.851,0,0,1,8.406,1.528,9.227,9.227,0,0,1,4.968,6.877c.765,5.354,1.528,9.936,2.292,14.139s1.529,8.025,1.911,11.465.765,7.26,1.146,11.08a116.443,116.443,0,0,1,.765,12.227c0,3.058-1.528,5.35-4.967,7.261" transform="translate(-14.571 -13.803)" fill="#fff"/>
    </g>
  </g>
</svg>
