<?xml version="1.0" encoding="utf-8"?>
<!-- Generator: Adobe Illustrator 27.5.0, SVG Export Plug-In . SVG Version: 6.00 Build 0)  -->
<svg version="1.1" id="Capa_1" xmlns="http://www.w3.org/2000/svg" xmlns:xlink="http://www.w3.org/1999/xlink" x="0px" y="0px"
	 viewBox="0 0 3135.3 159.6" style="enable-background:new 0 0 3135.3 159.6;" xml:space="preserve">
<style type="text/css">
	.st0{enable-background:new    ;}
	.st1{fill:#D85D40;}
</style>
<g class="st0">
	<path class="st1" d="M8,7.3c0.9-1.2,2-2.1,3.1-2.8c1.1-0.7,2.6-1.2,4.4-1.5c1.8-0.3,4.1-0.6,6.8-0.7c2.7-0.1,6.1-0.3,10.1-0.4
		c4.8-0.1,8.6,0.1,11.5,0.6C46.8,3.1,49,4,50.5,5.4c1.5,1.4,2.6,3.3,3.2,5.6c0.6,2.3,1,5.2,1.3,8.5c0.4,4.7,0.7,9.7,0.9,15.2
		c0.2,5.5,0.3,11,0.3,16.5c0,5.5,0,10.9-0.1,16.2c-0.1,5.3-0.1,10-0.2,14.3c-0.1,4.3-0.1,7.9,0,10.9c0.1,3,0.2,5,0.5,6.1
		c0.7,2.8,1.7,4.6,3.2,5.4c1.5,0.8,3,1,4.5,0.6c1.5-0.4,3-1.3,4.3-2.7c1.3-1.4,2.2-2.9,2.6-4.5c0.3-1.2,0.5-3.5,0.7-7
		c0.2-3.5,0.4-7.6,0.5-12.3c0.1-4.7,0.2-10,0.3-15.7c0.1-5.7,0.1-11.5,0.1-17.2c0-5.7,0-11.2,0.1-16.5c0.1-5.3,0.2-10,0.3-14.1
		c0.1-3.1,1-5.4,2.7-7.1C77.4,6,79.6,4.8,82.3,4c2.7-0.7,5.8-1.2,9.3-1.3c3.5-0.1,7-0.2,10.6-0.2c6.7-0.1,11.7,0.3,15.1,1.3
		c3.4,1,5.2,3.4,5.5,7.1c0.4,10,0.8,20.6,1.3,31.8c0.5,11.2,0.4,22.3-0.3,33.2c-0.7,10.9-2.1,21.3-4.4,31.2
		c-2.3,9.9-5.9,18.5-10.8,26c-4.9,7.5-11.5,13.4-19.7,17.8c-8.2,4.4-18.6,6.5-31.1,6.2c-9.5-0.1-17.5-2.2-24.1-6.3
		c-6.6-4.1-12.1-9.4-16.6-16c-4.5-6.6-7.9-14.2-10.4-22.7c-2.5-8.5-4.2-17.3-5.3-26.2C0.4,77-0.1,68.1,0,59.3
		c0.1-8.8,0.6-16.8,1.5-24.1C2.4,28,3.4,21.8,4.6,16.8C5.8,11.8,7,8.7,8,7.3z"/>
	<path class="st1" d="M186.6,100.5c-0.8,0-1.3,1.2-1.5,3.7c-0.2,2.5-0.3,5.6-0.2,9.4c0.1,3.8,0.2,7.9,0.3,12.4
		c0.1,4.5,0.1,8.7,0,12.6c-0.1,3.9-0.4,7.3-0.9,10c-0.5,2.7-1.3,4.3-2.5,4.7c-1.2,0.4-3.1,0.8-5.6,1.1c-2.5,0.3-5.4,0.6-8.5,0.8
		c-3.1,0.2-6.4,0.3-9.7,0.3c-3.3,0-6.4-0.2-9.1-0.6c-2.7-0.4-5-1-6.7-1.9c-1.7-0.9-2.6-2-2.6-3.3c0-1.1-0.1-3.9-0.2-8.4
		c-0.1-4.5-0.2-10.2-0.3-16.9c-0.1-6.7-0.2-14.3-0.3-22.6c-0.1-8.3-0.2-16.8-0.3-25.3c-0.1-8.5-0.1-16.9,0-25
		c0.1-8.1,0.2-15.4,0.4-21.9c0.2-6.5,0.5-11.7,1-15.8c0.5-4.1,1.1-6.4,1.9-6.9c1.5-0.9,4.3-1.7,8.6-2.3c4.3-0.6,8.8-1,13.6-1.1
		c4.8-0.1,9.3,0.1,13.5,0.7c4.2,0.6,7,1.7,8.5,3.3c0.9,1.1,2.2,3.4,3.7,7c1.5,3.6,3.2,7.9,4.9,12.8c1.7,4.9,3.6,10.1,5.5,15.6
		c1.9,5.5,3.8,10.5,5.5,15.1c1.7,4.6,3.4,8.4,5,11.4c1.6,3,2.9,4.5,4,4.5c1.1,0.1,1.7-1.5,1.8-4.9c0.1-3.4,0-7.7-0.4-12.8
		c-0.4-5.1-0.9-10.7-1.6-16.7c-0.7-6-1.2-11.6-1.6-16.9c-0.4-5.3-0.6-9.7-0.6-13.2c0-3.5,0.5-5.4,1.6-5.7c1.5-0.4,4.3-0.7,8.4-1
		c4.1-0.3,8.5-0.3,13,0c4.5,0.3,8.7,0.9,12.4,1.8c3.7,0.9,6,2.5,6.8,4.6c0.4,1.1,0.8,3.9,1.2,8.6c0.4,4.7,0.7,10.5,1,17.4
		c0.3,6.9,0.5,14.6,0.8,23.1c0.3,8.5,0.5,17.1,0.6,25.8c0.1,8.7,0.2,17.2,0.1,25.5c-0.1,8.3-0.2,15.7-0.5,22.2
		c-0.3,6.5-0.7,11.8-1.2,15.8c-0.5,4-1.2,6.1-2,6.2c-1.6,0.4-4.6,0.8-9,1.3c-4.4,0.5-9,0.7-13.9,0.8c-4.9,0.1-9.4-0.2-13.7-0.9
		c-4.3-0.7-7.1-2-8.6-4c-0.9-1.3-1.9-3.5-3-6.5c-1.1-3-2.2-6.4-3.5-10.1c-1.3-3.7-2.5-7.6-3.8-11.6c-1.3-4-2.6-7.6-4-10.9
		c-1.4-3.3-2.8-6-4.2-8.1C189.3,101.6,188,100.5,186.6,100.5z"/>
	<path class="st1" d="M377.6,53.9c-1.1,0.4-2.7,0.6-4.8,0.6c-2.1,0-4.5,0-7.2-0.1c-2.7-0.1-5.5-0.2-8.6-0.4c-3.1-0.2-6.1-0.4-9-0.5
		c-4.1-0.1-7.6,0.7-10.5,2.4c-2.9,1.7-5.2,4-7,6.9c-1.8,2.9-3,6.2-3.7,9.9c-0.7,3.7-0.9,7.5-0.6,11.2c0.4,6.7,1.4,11.7,3,15.2
		c1.6,3.5,3.6,6,6.1,7.5c2.5,1.5,5.4,2.4,8.8,2.5c3.4,0.1,7.1,0.1,11.1-0.1c4-0.2,8.3-0.3,12.8-0.3c4.5,0,9.3,0.7,14.2,2.2
		c2.3,0.7,4.3,2.3,6.1,5c1.8,2.7,2.9,5.8,3.3,9.5c0.4,3.7-0.1,7.5-1.6,11.5c-1.5,4-4.3,7.6-8.4,10.9c-4.1,3.3-9.9,5.9-17.2,8
		c-7.3,2.1-16.6,2.9-27.8,2.5c-7.7-0.1-15.2-1.4-22.4-3.9c-7.2-2.5-13.7-6.4-19.5-11.9c-5.8-5.5-10.6-12.6-14.5-21.4
		c-3.9-8.8-6.3-19.7-7.4-32.8c-1.1-12.9-0.4-24.7,2.1-35.2c2.5-10.5,6.4-19.6,11.7-27.2c5.3-7.6,11.9-13.5,19.6-17.8
		c7.7-4.3,16.4-6.7,26-7.4c6.3-0.3,12.4,0.3,18.4,1.6c6,1.3,11.5,3.3,16.4,5.8c4.9,2.5,9.2,5.6,12.8,9.2c3.6,3.6,6,7.4,7.3,11.5
		c1.3,4.1,1.2,8.2-0.2,12.5C385.5,45.6,382.4,49.8,377.6,53.9z"/>
	<path class="st1" d="M508.2,43.7c-1.2,0.8-3.1,1.4-5.6,1.8c-2.5,0.4-5.4,0.7-8.6,1c-3.2,0.3-6.5,0.5-10,0.6
		c-3.5,0.1-6.7,0.3-9.7,0.4c-3,0.1-5.6,0.3-7.7,0.4c-2.1,0.1-3.5,0.4-4,0.8c-0.8,0.5-1.4,1.5-1.7,3c-0.3,1.5-0.5,3.1-0.5,4.8
		c0,1.7,0.2,3.4,0.5,5c0.3,1.6,0.7,2.8,1.1,3.6c0.4,0.8,1.7,1.2,3.9,1.3c2.2,0.1,4.6,0.1,7.2,0c2.6-0.1,5.1,0,7.5,0.1
		c2.4,0.1,4.1,0.6,5,1.4c0.9,0.9,1.7,2.4,2.4,4.4c0.7,2,1.1,4.2,1.4,6.6c0.3,2.4,0.3,4.9,0.2,7.4c-0.1,2.5-0.6,4.7-1.4,6.4
		c-0.5,1.2-1.9,2-4.2,2.3c-2.3,0.3-4.8,0.7-7.7,1c-2.9,0.3-5.8,0.8-8.7,1.5c-2.9,0.7-5.3,1.9-7,3.8c-0.5,0.5-0.8,1.3-0.9,2.4
		c-0.1,1.1,0,2.2,0.1,3.4c0.1,1.2,0.3,2.5,0.6,3.8c0.3,1.3,0.5,2.5,0.8,3.6c0.1,1.1,1.3,1.8,3.5,2.2c2.2,0.4,4.9,0.6,8.2,0.6
		c3.3,0,6.8-0.1,10.7-0.3c3.9-0.2,7.6-0.3,11.2-0.3c3.6,0,6.8,0.1,9.7,0.4c2.9,0.3,4.9,0.8,6.1,1.6c1.2,0.8,2.1,2.8,2.7,6.1
		c0.6,3.3,1,6.8,1.1,10.6c0.1,3.8,0.1,7.4-0.2,10.9c-0.3,3.5-0.7,5.7-1.2,6.8c-0.3,0.5-1.9,1-4.9,1.5c-3,0.5-6.9,0.9-11.6,1.4
		c-4.7,0.5-10.1,0.8-16.1,1.1s-12.1,0.5-18.4,0.7c-6.3,0.2-12.5,0.3-18.6,0.2c-6.1-0.1-11.7-0.3-16.7-0.6s-9.2-0.8-12.6-1.5
		c-3.4-0.7-5.5-1.5-6.3-2.4c-1.7-2-3-5.9-3.8-11.6c-0.8-5.7-1.3-12.7-1.6-20.9c-0.3-8.2-0.3-17.3,0-27.3c0.3-10,0.6-20.3,1-30.8
		c0.4-10.5,0.7-19.6,1-27.1c0.3-7.5,1.1-13.7,2.6-18.5c1.5-4.8,4-8.3,7.5-10.6c3.5-2.3,8.8-3.5,15.7-3.8c6-0.3,12.7-0.5,20.1-0.8
		c7.4-0.3,14.7-0.3,22-0.2c7.3,0.1,14,0.5,20.3,1.1c6.3,0.6,11.3,1.7,15,3.3c1.9,0.8,3.1,3,3.8,6.5c0.7,3.5,0.9,7.4,0.7,11.6
		c-0.2,4.2-0.7,8.2-1.5,11.9C509.8,40.1,509,42.5,508.2,43.7z"/>
	<path class="st1" d="M574.4,100.5c-0.8,0-1.3,1.2-1.5,3.7c-0.2,2.5-0.3,5.6-0.2,9.4c0.1,3.8,0.2,7.9,0.3,12.4
		c0.1,4.5,0.1,8.7,0,12.6c-0.1,3.9-0.4,7.3-0.9,10c-0.5,2.7-1.3,4.3-2.5,4.7c-1.2,0.4-3.1,0.8-5.6,1.1c-2.5,0.3-5.4,0.6-8.5,0.8
		c-3.1,0.2-6.4,0.3-9.7,0.3c-3.3,0-6.4-0.2-9.1-0.6c-2.7-0.4-5-1-6.7-1.9c-1.7-0.9-2.6-2-2.6-3.3c0-1.1-0.1-3.9-0.2-8.4
		c-0.1-4.5-0.2-10.2-0.3-16.9c-0.1-6.7-0.2-14.3-0.3-22.6c-0.1-8.3-0.2-16.8-0.3-25.3c-0.1-8.5-0.1-16.9,0-25
		c0.1-8.1,0.2-15.4,0.4-21.9c0.2-6.5,0.5-11.7,1-15.8c0.5-4.1,1.1-6.4,1.9-6.9c1.5-0.9,4.3-1.7,8.6-2.3c4.3-0.6,8.8-1,13.6-1.1
		c4.8-0.1,9.3,0.1,13.5,0.7c4.2,0.6,7,1.7,8.5,3.3c0.9,1.1,2.2,3.4,3.7,7c1.5,3.6,3.2,7.9,4.9,12.8c1.7,4.9,3.6,10.1,5.5,15.6
		c1.9,5.5,3.8,10.5,5.5,15.1c1.7,4.6,3.4,8.4,5,11.4c1.6,3,2.9,4.5,4,4.5c1.1,0.1,1.7-1.5,1.8-4.9c0.1-3.4,0-7.7-0.4-12.8
		c-0.4-5.1-0.9-10.7-1.6-16.7c-0.7-6-1.2-11.6-1.6-16.9c-0.4-5.3-0.6-9.7-0.6-13.2c0-3.5,0.5-5.4,1.6-5.7c1.5-0.4,4.3-0.7,8.4-1
		c4.1-0.3,8.5-0.3,13,0c4.5,0.3,8.7,0.9,12.4,1.8c3.7,0.9,6,2.5,6.8,4.6c0.4,1.1,0.8,3.9,1.2,8.6c0.4,4.7,0.7,10.5,1,17.4
		c0.3,6.9,0.5,14.6,0.8,23.1c0.3,8.5,0.5,17.1,0.6,25.8c0.1,8.7,0.2,17.2,0.1,25.5c-0.1,8.3-0.2,15.7-0.5,22.2
		c-0.3,6.5-0.7,11.8-1.2,15.8c-0.5,4-1.2,6.1-2,6.2c-1.6,0.4-4.6,0.8-9,1.3c-4.4,0.5-9,0.7-13.9,0.8c-4.9,0.1-9.4-0.2-13.7-0.9
		c-4.3-0.7-7.1-2-8.6-4c-0.9-1.3-1.9-3.5-3-6.5c-1.1-3-2.2-6.4-3.5-10.1c-1.3-3.7-2.5-7.6-3.8-11.6c-1.3-4-2.6-7.6-4-10.9
		c-1.4-3.3-2.8-6-4.2-8.1C577.1,101.6,575.8,100.5,574.4,100.5z"/>
	<path class="st1" d="M764.6,39.3c-1.7,1.2-3.9,1.8-6.5,1.9c-2.6,0.1-5.3-0.1-8.2-0.6c-2.9-0.5-5.8-0.9-8.9-1.4
		c-3.1-0.5-5.9-0.5-8.5-0.2c-2.6,0.3-4.9,1.3-6.9,2.8c-2,1.5-3.5,4-4.4,7.5c-1.1,3.9-0.5,7.1,1.6,9.8c2.1,2.7,5.1,5.1,8.8,7.4
		c3.7,2.3,8,4.7,12.7,7.2c4.7,2.5,9.2,5.6,13.3,9.2c4.1,3.6,7.7,8,10.6,13.3c2.9,5.3,4.5,11.8,4.8,19.7c0.3,8.8-2,16.4-6.8,22.9
		c-4.8,6.5-11.7,11.5-20.7,15s-19.9,5.4-32.8,5.7c-12.9,0.3-27.2-1.3-43.1-4.8c-3.2-0.8-5.6-3.1-7.2-6.8c-1.6-3.7-2.4-7.9-2.4-12.4
		c0-4.5,0.8-8.9,2.3-13c1.5-4.1,3.8-6.9,6.7-8.4c1.9-0.9,4.1-1.3,6.6-1.2c2.5,0.1,5.2,0.3,8,0.5c2.8,0.2,5.7,0.1,8.6-0.2
		c2.9-0.3,5.8-1.5,8.6-3.5c1.9-1.3,3.1-2.9,3.8-4.8c0.7-1.9,0.9-3.7,0.7-5.5s-0.8-3.5-1.8-5c-1-1.5-2.2-2.7-3.7-3.5
		c-5.9-3.3-11-6.6-15.5-9.7c-4.5-3.1-8.3-6.3-11.5-9.5c-3.2-3.2-5.7-6.6-7.6-10.1c-1.9-3.5-3.2-7.4-4-11.7
		c-1.7-9.9-0.9-18.1,2.4-24.8c3.3-6.7,8.2-12,14.6-15.9c6.4-3.9,13.8-6.6,22.1-7.9c8.3-1.3,16.6-1.7,24.9-1c8.3,0.7,16,2.2,23.1,4.7
		c7.1,2.5,12.6,5.6,16.5,9.5c2.8,2.9,4.3,6.7,4.4,11.4C769.3,30.6,767.8,35.1,764.6,39.3z"/>
	<path class="st1" d="M853.6,3.3c9.9,0.5,18.2,1.6,25.1,3.3c6.9,1.7,12.6,4.1,17.2,7.2c4.6,3.1,8.2,7,10.8,11.7
		c2.6,4.7,4.6,10.3,5.9,16.8c1.3,6.5,2.2,14.1,2.5,22.6c0.3,8.5,0.5,18.1,0.5,28.8c0,13.5-1,24.4-2.9,32.7
		c-1.9,8.3-5.2,14.9-9.9,19.7c-4.7,4.8-10.9,8.1-18.7,9.9c-7.8,1.8-17.6,2.8-29.3,2.9c-11.6,0.3-21.7-0.4-30.2-2.1
		c-8.5-1.7-15.7-4.9-21.4-9.8c-5.7-4.9-10.1-11.6-13.2-20.2c-3.1-8.6-5-19.7-5.8-33.3c-0.8-15.2-0.3-28.6,1.4-40.1
		c1.7-11.5,5.3-21.1,10.6-28.8c5.3-7.7,12.7-13.3,22-16.9C827.5,4.1,839.3,2.7,853.6,3.3z M838.8,110.5c0,3.2,1.4,5.5,4.3,7
		c2.9,1.5,6,2.1,9.5,1.9c3.5-0.2,6.7-1.2,9.6-3c2.9-1.8,4.5-4.3,4.8-7.5c0.4-4.4,0.7-8.5,0.9-12.4c0.2-3.9,0.3-7.7,0.2-11.6
		c-0.1-3.9-0.2-8-0.5-12.4c-0.3-4.4-0.7-9.4-1.4-15c-0.4-3.3-2.1-5.7-5-7.2c-2.9-1.5-6.1-2.1-9.6-2c-3.5,0.1-6.6,1-9.5,2.6
		c-2.9,1.6-4.4,3.9-4.7,6.8c-0.3,4.5-0.4,9.6-0.3,15.3c0.1,5.7,0.2,11.1,0.5,16.3c0.3,5.2,0.5,9.8,0.8,13.7
		C838.7,107,838.8,109.5,838.8,110.5z"/>
	<path class="st1" d="M974.6,130.7c-0.3,1.2-0.3,3-0.2,5.5c0.1,2.5,0.2,5,0.2,7.6c0,2.6-0.3,5-0.8,7.2c-0.5,2.2-1.6,3.6-3.2,4.1
		c-1.6,0.5-4.3,1-8,1.3c-3.7,0.3-7.6,0.5-11.6,0.4c-4-0.1-7.7-0.3-11.1-0.8c-3.4-0.5-5.6-1.3-6.5-2.5c-0.7-0.7-1.2-3.9-1.7-9.8
		c-0.5-5.9-0.8-13.2-1.1-22.1c-0.3-8.9-0.5-18.6-0.7-29.3c-0.2-10.7-0.3-21.1-0.3-31.4c0-10.3,0.1-19.8,0.3-28.5
		c0.2-8.7,0.5-15.5,0.9-20.3c0.3-2.7,2.1-4.8,5.6-6.3c3.5-1.5,7.8-2.7,13.1-3.5c5.3-0.8,11.1-1.3,17.4-1.4c6.3-0.1,12.5,0,18.4,0.3
		c5.9,0.3,11.3,0.8,16.2,1.4c4.9,0.6,8.4,1.2,10.7,1.9c5.6,1.6,10.2,4.1,13.7,7.4c3.5,3.3,6.3,7.3,8.3,11.9c2,4.6,3.3,9.8,4,15.5
		c0.7,5.7,0.9,11.8,0.8,18.2c-0.1,6.4-0.2,12.1-0.1,17.2c0.1,5.1-0.1,9.6-0.4,13.7c-0.3,4.1-0.9,7.7-1.6,10.8c-0.7,3.1-2,6-3.7,8.5
		c-1.7,2.4-3.2,4.2-4.4,5.5c-1.2,1.3-2.2,2.2-3,2.9c-0.8,0.7-1.3,1.2-1.6,1.7c-0.3,0.5-0.3,1.2-0.2,2.1c0,0.7,0.6,1.9,1.9,3.6
		c1.3,1.7,2.8,3.7,4.5,6c1.7,2.3,3.5,4.7,5.4,7.3c1.9,2.6,3.5,5.1,4.9,7.4c1.4,2.3,2.4,4.4,2.9,6.2c0.5,1.8,0.3,3-0.6,3.7
		c-1.5,1.1-4.4,1.9-8.8,2.4c-4.4,0.5-9.1,0.8-14.1,0.8c-5,0-9.7-0.2-14.2-0.5c-4.5-0.3-7.6-0.8-9.3-1.5c-0.4-0.1-1.1-1.1-2.2-2.8
		c-1.1-1.7-2.3-3.8-3.7-6.2c-1.4-2.4-2.9-4.9-4.4-7.4c-1.5-2.5-3.1-4.7-4.6-6.5c-1.5-1.8-2.9-3-4.2-3.5
		C976.2,128.4,975.3,129,974.6,130.7z M972,89.1c0,2.8,1.2,4.9,3.7,6.3c2.5,1.4,5.2,2,8.2,1.9c3-0.1,5.8-0.9,8.5-2.4
		c2.7-1.5,4.1-3.6,4.4-6.4c0.4-3.9,0.8-7.5,1.1-10.8c0.3-3.3,0.5-6.7,0.6-10.2c0.1-3.5,0-7.1-0.2-11c-0.2-3.9-0.5-8.3-0.9-13.2
		c-0.3-2.9-1.7-5.1-4.2-6.5c-2.5-1.4-5.3-2.1-8.3-2.1s-5.8,0.7-8.4,2.1c-2.6,1.4-4,3.4-4.3,5.9c-0.4,4-0.6,8.5-0.7,13.5
		c-0.1,5,0,9.8,0.1,14.3c0.1,4.5,0.2,8.5,0.3,12C972,86,972,88.2,972,89.1z"/>
	<path class="st1" d="M1159.2,43.7c-1.2,0.8-3.1,1.4-5.6,1.8c-2.5,0.4-5.4,0.7-8.6,1c-3.2,0.3-6.5,0.5-10,0.6
		c-3.5,0.1-6.7,0.3-9.7,0.4c-3,0.1-5.6,0.3-7.7,0.4c-2.1,0.1-3.5,0.4-4,0.8c-0.8,0.5-1.4,1.5-1.7,3c-0.3,1.5-0.5,3.1-0.5,4.8
		c0,1.7,0.2,3.4,0.5,5c0.3,1.6,0.7,2.8,1.1,3.6c0.4,0.8,1.7,1.2,3.9,1.3c2.2,0.1,4.6,0.1,7.2,0c2.6-0.1,5.1,0,7.5,0.1
		c2.4,0.1,4.1,0.6,5,1.4c0.9,0.9,1.7,2.4,2.4,4.4c0.7,2,1.1,4.2,1.4,6.6c0.3,2.4,0.3,4.9,0.2,7.4c-0.1,2.5-0.6,4.7-1.4,6.4
		c-0.5,1.2-1.9,2-4.2,2.3c-2.3,0.3-4.8,0.7-7.7,1c-2.9,0.3-5.8,0.8-8.7,1.5c-2.9,0.7-5.3,1.9-7,3.8c-0.5,0.5-0.8,1.3-0.9,2.4
		c-0.1,1.1,0,2.2,0.1,3.4c0.1,1.2,0.3,2.5,0.6,3.8c0.3,1.3,0.5,2.5,0.8,3.6c0.1,1.1,1.3,1.8,3.5,2.2c2.2,0.4,4.9,0.6,8.2,0.6
		c3.3,0,6.8-0.1,10.7-0.3c3.9-0.2,7.6-0.3,11.2-0.3c3.6,0,6.8,0.1,9.7,0.4c2.9,0.3,4.9,0.8,6.1,1.6c1.2,0.8,2.1,2.8,2.7,6.1
		c0.6,3.3,1,6.8,1.1,10.6c0.1,3.8,0.1,7.4-0.2,10.9c-0.3,3.5-0.7,5.7-1.2,6.8c-0.3,0.5-1.9,1-4.9,1.5c-3,0.5-6.9,0.9-11.6,1.4
		c-4.7,0.5-10.1,0.8-16.1,1.1s-12.1,0.5-18.4,0.7c-6.3,0.2-12.5,0.3-18.6,0.2c-6.1-0.1-11.7-0.3-16.7-0.6s-9.2-0.8-12.6-1.5
		c-3.4-0.7-5.5-1.5-6.3-2.4c-1.7-2-3-5.9-3.8-11.6c-0.8-5.7-1.3-12.7-1.6-20.9c-0.3-8.2-0.3-17.3,0-27.3c0.3-10,0.6-20.3,1-30.8
		c0.4-10.5,0.7-19.6,1-27.1c0.3-7.5,1.1-13.7,2.6-18.5c1.5-4.8,4-8.3,7.5-10.6c3.5-2.3,8.8-3.5,15.7-3.8c6-0.3,12.7-0.5,20.1-0.8
		c7.4-0.3,14.7-0.3,22-0.2c7.3,0.1,14,0.5,20.3,1.1c6.3,0.6,11.3,1.7,15,3.3c1.9,0.8,3.1,3,3.8,6.5c0.7,3.5,0.9,7.4,0.7,11.6
		c-0.2,4.2-0.7,8.2-1.5,11.9C1160.8,40.1,1160,42.5,1159.2,43.7z"/>
	<path class="st1" d="M1183.4,5.7c2-1.2,5.9-2.2,11.6-2.9c5.7-0.7,12.1-1.1,19.2-1.2c7.1-0.1,14.1,0.2,21.2,0.7
		c7.1,0.5,12.9,1.4,17.6,2.6c4.5,1.2,9,3.8,13.5,7.9c4.5,4.1,8.5,9.3,12,15.7c3.5,6.4,6.4,13.8,8.6,22.1c2.2,8.3,3.4,17.4,3.5,27.1
		c0.1,9.7-0.6,18.9-2.3,27.6c-1.7,8.7-3.9,16.4-6.7,23.1c-2.8,6.7-6.1,12.3-9.9,16.8c-3.8,4.5-7.7,7.3-11.7,8.5
		c-2.7,0.8-6.3,1.5-10.9,2c-4.6,0.5-9.6,0.9-15,1.1c-5.4,0.2-10.9,0.3-16.6,0.2c-5.7-0.1-11-0.2-15.9-0.5c-4.9-0.3-9.2-0.6-12.8-1.1
		c-3.6-0.5-6-1-7.2-1.7c-0.9-0.4-1.7-2.8-2.3-7.1c-0.6-4.3-1-9.9-1.3-16.7c-0.3-6.8-0.4-14.5-0.5-23c-0.1-8.5,0-17.3,0.1-26.3
		c0.1-9,0.4-17.8,0.7-26.4c0.3-8.6,0.8-16.4,1.3-23.3c0.5-6.9,1.1-12.7,1.7-17.2C1181.9,9.2,1182.6,6.5,1183.4,5.7z M1225.2,110.5
		c0,2.4,0.7,4.3,2,5.6c1.3,1.3,3,2.2,4.9,2.6c1.9,0.4,4,0.3,6.1-0.2c2.1-0.5,4.1-1.5,5.8-2.8c1.6-1.3,2.8-3.5,3.7-6.5
		c0.9-3,1.5-6.3,1.8-9.8c0.3-3.5,0.5-7,0.5-10.3c0-3.3,0-6.1,0-8.2c0-2-0.1-4.5-0.4-7.5c-0.3-3-0.7-6-1.4-8.9
		c-0.7-2.9-1.6-5.6-2.9-8.1c-1.3-2.5-2.9-4.2-4.9-5.3c-1.7-0.9-3.6-1.5-5.5-1.8c-1.9-0.3-3.7-0.1-5.3,0.4c-1.6,0.5-2.9,1.5-4,2.8
		c-1.1,1.3-1.7,3.1-1.8,5.2c-0.4,4.5-0.5,9.6-0.4,15.3c0.1,5.7,0.3,11.1,0.5,16.3c0.2,5.2,0.5,9.8,0.8,13.7
		C1225,107,1225.2,109.5,1225.2,110.5z"/>
	<path class="st1" d="M1401,7.1c1.1-1.3,3.4-2.4,7.1-3.3c3.7-0.9,8-1.5,13-1.8c5-0.3,10.3-0.5,16-0.5c5.7,0,11.1,0.1,16.3,0.4
		c5.2,0.3,9.8,0.6,13.8,1c4,0.4,6.8,0.8,8.4,1.2c1.9,0.5,3.7,2.9,5.5,7.2c1.8,4.3,3.5,9.8,5.1,16.5c1.6,6.7,3.1,14.3,4.5,22.8
		c1.4,8.5,2.6,17.2,3.7,26.1c1.1,8.9,1.9,17.8,2.5,26.5c0.6,8.7,1,16.6,1.2,23.7c0.2,7.1,0.1,13-0.3,17.7c-0.4,4.7-1.1,7.7-2.2,8.9
		c-0.7,0.7-2.7,1.2-6,1.7c-3.3,0.5-7,0.8-11.1,1c-4.1,0.2-8.1,0.3-12,0.2c-3.9-0.1-6.9-0.2-8.9-0.5c-2-0.3-3.6-1.5-4.9-3.8
		c-1.3-2.3-2.3-4.9-3.2-7.8c-0.9-2.9-1.5-5.7-2-8.4c-0.5-2.7-0.8-4.5-0.9-5.6c-0.3-0.8-1-1.5-2.3-2.2c-1.3-0.7-2.7-1-4.3-1.1
		c-1.6-0.1-3.1,0.2-4.5,0.9c-1.4,0.7-2.3,2-2.7,4c-0.4,2-0.7,4.2-1,6.5c-0.3,2.3-0.6,4.5-1,6.6c-0.4,2.1-0.9,3.9-1.5,5.5
		c-0.6,1.6-1.5,2.7-2.7,3.2c-1.6,0.8-4.6,1.5-8.9,2.1c-4.3,0.6-8.9,0.9-13.7,0.9s-9.2-0.4-13.2-1.2c-4-0.8-6.5-2.1-7.4-4
		c-1.2-2.8-1.9-7.9-2-15.4c-0.1-7.5,0.1-16.1,0.8-26c0.7-9.9,1.7-20.3,3-31.3c1.3-11,2.9-21.4,4.6-31.2c1.7-9.8,3.6-18.4,5.5-25.7
		C1397.2,14.6,1399.1,9.7,1401,7.1z M1427.8,89.1c0,2.4,1.3,4.2,3.8,5.3c2.5,1.1,5.3,1.7,8.4,1.6c3.1-0.1,5.9-0.7,8.5-2
		c2.6-1.3,4-3.1,4.1-5.5c0.1-3.5,0.2-6.6,0.1-9.4c-0.1-2.8-0.2-5.6-0.4-8.4c-0.2-2.8-0.5-5.8-0.9-8.9c-0.4-3.1-0.8-6.8-1.2-10.9
		c-0.3-2.4-1.4-4.2-3.4-5.4c-2-1.2-4.2-1.8-6.5-1.7c-2.3,0.1-4.5,0.7-6.4,1.8c-1.9,1.1-3,2.8-3.3,4.9c-0.4,3.3-0.8,7.1-1.1,11.2
		c-0.3,4.1-0.6,8.1-0.9,11.9c-0.3,3.8-0.5,7.1-0.6,10C1427.9,86.5,1427.8,88.3,1427.8,89.1z"/>
	<path class="st1" d="M1514.8,26.3c0.5-6.7,1.4-11.7,2.6-15c1.2-3.3,2.8-5.7,4.8-7c2-1.3,4.4-2,7.2-2s6.1,0,9.8,0
		c6.1,0,11,0.1,14.6,0.2c3.6,0.1,6.4,1,8.3,2.6c1.9,1.6,3.2,4.2,3.9,7.9c0.7,3.7,1.1,9,1.4,16.1c0.1,6.5,0.3,13.9,0.4,22
		c0.1,8.1,0.2,16.5,0.3,25c0.1,8.5,0.1,17,0.1,25.4c0,8.4,0,16.1,0,23.2c0,8.4-0.2,14.8-0.5,19.2c-0.3,4.4-1.4,7.6-3.2,9.6
		s-4.6,3.2-8.3,3.5c-3.7,0.3-9,0.6-15.8,0.9c-5.7,0.3-10.3,0-13.8-0.7c-3.5-0.7-6.2-2.2-8.1-4.4c-1.9-2.2-3.3-5.2-4.1-9.1
		c-0.8-3.9-1.3-8.8-1.6-14.8c-0.4-7.3-0.6-15.5-0.6-24.5s0.1-18.2,0.3-27.5c0.2-9.3,0.5-18.4,0.9-27.2
		C1513.8,40.9,1514.3,33.1,1514.8,26.3z"/>
	<path class="st1" d="M1667,6.7c1.3-0.8,4.1-1.5,8.2-2c4.1-0.5,8.9-0.9,14.3-1.2c5.4-0.3,11.1-0.4,17.2-0.5c6.1-0.1,11.8,0,17.1,0.1
		c5.3,0.1,10,0.3,13.9,0.6c3.9,0.3,6.5,0.5,7.7,0.8c1.1,0.3,2,1.3,2.7,3c0.7,1.7,1.3,3.8,1.8,6.3c0.5,2.5,0.8,5.2,0.9,8.1
		c0.1,2.9,0,5.8-0.3,8.5c-0.3,2.7-0.9,5.1-1.8,7.2c-0.9,2.1-2,3.4-3.3,4.1c-2.3,1.2-5.2,2-8.7,2.4c-3.5,0.4-7.1,0.6-10.7,0.6
		c-3.6,0-7,0-10.2,0s-5.6,0.3-7.2,0.8c-0.9,0.3-1.6,1.3-2,3c-0.4,1.7-0.6,3.6-0.6,5.6s0.2,3.9,0.6,5.6c0.4,1.7,1,2.8,1.8,3.2
		c2,0.9,4.7,1.5,8.2,1.7c3.5,0.2,7,0.3,10.5,0.3c3.5,0,6.7,0.1,9.6,0.2c2.9,0.1,4.7,0.6,5.5,1.4c1.1,1.1,1.9,2.8,2.5,5.3
		c0.6,2.5,1,5.2,1.1,8.1c0.1,2.9,0,5.9-0.4,9c-0.4,3.1-1.1,5.7-2.2,7.8c-1.1,2.1-3,3.7-5.9,4.6c-2.9,0.9-6,1.6-9.4,2
		c-3.4,0.4-6.7,0.7-9.9,0.9c-3.2,0.2-5.6,0.6-7.2,1.3c-1.1,0.4-1.8,1.6-2.1,3.7c-0.3,2.1-0.5,4.6-0.5,7.5c0,2.9,0.1,6.1,0.3,9.5
		c0.2,3.4,0.3,6.7,0.3,9.9s-0.2,6.1-0.7,8.8c-0.5,2.7-1.4,4.7-2.7,6.2c-2,2.3-5,3.8-8.9,4.7c-3.9,0.9-8.1,1.3-12.4,1.3
		c-4.3,0-8.5-0.3-12.4-0.9c-3.9-0.6-6.9-1.2-8.9-1.9c-0.9-0.4-1.7-2.7-2.3-6.9c-0.6-4.2-1.1-9.7-1.4-16.4
		c-0.3-6.7-0.5-14.4-0.5-22.9c0-8.5,0.1-17.2,0.4-26.1c0.3-8.9,0.6-17.6,1.1-26.3c0.5-8.7,1-16.5,1.7-23.5c0.7-7,1.4-12.8,2.3-17.4
		C1665,10.2,1665.9,7.5,1667,6.7z"/>
	<path class="st1" d="M1826.8,3.3c9.9,0.5,18.2,1.6,25.1,3.3c6.9,1.7,12.6,4.1,17.2,7.2c4.6,3.1,8.2,7,10.8,11.7
		c2.6,4.7,4.6,10.3,5.9,16.8c1.3,6.5,2.2,14.1,2.5,22.6c0.3,8.5,0.5,18.1,0.5,28.8c0,13.5-1,24.4-2.9,32.7
		c-1.9,8.3-5.2,14.9-9.9,19.7c-4.7,4.8-10.9,8.1-18.7,9.9c-7.8,1.8-17.6,2.8-29.3,2.9c-11.6,0.3-21.7-0.4-30.2-2.1
		c-8.5-1.7-15.7-4.9-21.4-9.8c-5.7-4.9-10.1-11.6-13.2-20.2c-3.1-8.6-5-19.7-5.8-33.3c-0.8-15.2-0.3-28.6,1.4-40.1
		c1.7-11.5,5.3-21.1,10.6-28.8c5.3-7.7,12.7-13.3,22-16.9C1800.7,4.1,1812.5,2.7,1826.8,3.3z M1812,110.5c0,3.2,1.4,5.5,4.3,7
		c2.9,1.5,6,2.1,9.5,1.9c3.5-0.2,6.7-1.2,9.6-3c2.9-1.8,4.5-4.3,4.8-7.5c0.4-4.4,0.7-8.5,0.9-12.4c0.2-3.9,0.3-7.7,0.2-11.6
		c-0.1-3.9-0.2-8-0.5-12.4c-0.3-4.4-0.7-9.4-1.4-15c-0.4-3.3-2.1-5.7-5-7.2c-2.9-1.5-6.1-2.1-9.6-2c-3.5,0.1-6.6,1-9.5,2.6
		c-2.9,1.6-4.4,3.9-4.7,6.8c-0.3,4.5-0.4,9.6-0.3,15.3c0.1,5.7,0.2,11.1,0.5,16.3c0.3,5.2,0.5,9.8,0.8,13.7
		C1811.9,107,1812,109.5,1812,110.5z"/>
	<path class="st1" d="M1947.8,130.7c-0.3,1.2-0.3,3-0.2,5.5c0.1,2.5,0.2,5,0.2,7.6c0,2.6-0.3,5-0.8,7.2c-0.5,2.2-1.6,3.6-3.2,4.1
		c-1.6,0.5-4.3,1-8,1.3c-3.7,0.3-7.6,0.5-11.6,0.4c-4-0.1-7.7-0.3-11.1-0.8c-3.4-0.5-5.6-1.3-6.5-2.5c-0.7-0.7-1.2-3.9-1.7-9.8
		c-0.5-5.9-0.8-13.2-1.1-22.1c-0.3-8.9-0.5-18.6-0.7-29.3c-0.2-10.7-0.3-21.1-0.3-31.4c0-10.3,0.1-19.8,0.3-28.5
		c0.2-8.7,0.5-15.5,0.9-20.3c0.3-2.7,2.1-4.8,5.6-6.3c3.5-1.5,7.8-2.7,13.1-3.5c5.3-0.8,11.1-1.3,17.4-1.4c6.3-0.1,12.5,0,18.4,0.3
		c5.9,0.3,11.3,0.8,16.2,1.4c4.9,0.6,8.4,1.2,10.7,1.9c5.6,1.6,10.2,4.1,13.7,7.4c3.5,3.3,6.3,7.3,8.3,11.9c2,4.6,3.3,9.8,4,15.5
		c0.7,5.7,0.9,11.8,0.8,18.2c-0.1,6.4-0.2,12.1-0.1,17.2c0.1,5.1-0.1,9.6-0.4,13.7c-0.3,4.1-0.9,7.7-1.6,10.8c-0.7,3.1-2,6-3.7,8.5
		c-1.7,2.4-3.2,4.2-4.4,5.5c-1.2,1.3-2.2,2.2-3,2.9c-0.8,0.7-1.3,1.2-1.6,1.7c-0.3,0.5-0.3,1.2-0.2,2.1c0,0.7,0.6,1.9,1.9,3.6
		c1.3,1.7,2.8,3.7,4.5,6c1.7,2.3,3.5,4.7,5.4,7.3c1.9,2.6,3.5,5.1,4.9,7.4c1.4,2.3,2.4,4.4,2.9,6.2c0.5,1.8,0.3,3-0.6,3.7
		c-1.5,1.1-4.4,1.9-8.8,2.4c-4.4,0.5-9.1,0.8-14.1,0.8s-9.7-0.2-14.2-0.5c-4.5-0.3-7.6-0.8-9.3-1.5c-0.4-0.1-1.1-1.1-2.2-2.8
		c-1.1-1.7-2.3-3.8-3.7-6.2c-1.4-2.4-2.9-4.9-4.4-7.4c-1.5-2.5-3.1-4.7-4.6-6.5c-1.5-1.8-2.9-3-4.2-3.5
		C1949.4,128.4,1948.5,129,1947.8,130.7z M1945.2,89.1c0,2.8,1.2,4.9,3.7,6.3c2.5,1.4,5.2,2,8.2,1.9c3-0.1,5.8-0.9,8.5-2.4
		c2.7-1.5,4.1-3.6,4.4-6.4c0.4-3.9,0.8-7.5,1.1-10.8c0.3-3.3,0.5-6.7,0.6-10.2c0.1-3.5,0-7.1-0.2-11c-0.2-3.9-0.5-8.3-0.9-13.2
		c-0.3-2.9-1.7-5.1-4.2-6.5c-2.5-1.4-5.3-2.1-8.3-2.1s-5.8,0.7-8.4,2.1c-2.6,1.4-4,3.4-4.3,5.9c-0.4,4-0.6,8.5-0.7,13.5
		c-0.1,5,0,9.8,0.1,14.3c0.1,4.5,0.2,8.5,0.3,12C1945.2,86,1945.2,88.2,1945.2,89.1z"/>
	<path class="st1" d="M2213.6,43.7c-1.2,0.8-3.1,1.4-5.6,1.8c-2.5,0.4-5.4,0.7-8.6,1c-3.2,0.3-6.5,0.5-10,0.6
		c-3.5,0.1-6.7,0.3-9.7,0.4c-3,0.1-5.6,0.3-7.7,0.4c-2.1,0.1-3.5,0.4-4,0.8c-0.8,0.5-1.4,1.5-1.7,3c-0.3,1.5-0.5,3.1-0.5,4.8
		c0,1.7,0.2,3.4,0.5,5c0.3,1.6,0.7,2.8,1.1,3.6c0.4,0.8,1.7,1.2,3.9,1.3c2.2,0.1,4.6,0.1,7.2,0c2.6-0.1,5.1,0,7.5,0.1
		c2.4,0.1,4.1,0.6,5,1.4c0.9,0.9,1.7,2.4,2.4,4.4c0.7,2,1.1,4.2,1.4,6.6c0.3,2.4,0.3,4.9,0.2,7.4c-0.1,2.5-0.6,4.7-1.4,6.4
		c-0.5,1.2-1.9,2-4.2,2.3c-2.3,0.3-4.8,0.7-7.7,1c-2.9,0.3-5.8,0.8-8.7,1.5c-2.9,0.7-5.3,1.9-7,3.8c-0.5,0.5-0.8,1.3-0.9,2.4
		c-0.1,1.1,0,2.2,0.1,3.4c0.1,1.2,0.3,2.5,0.6,3.8c0.3,1.3,0.5,2.5,0.8,3.6c0.1,1.1,1.3,1.8,3.5,2.2c2.2,0.4,4.9,0.6,8.2,0.6
		c3.3,0,6.8-0.1,10.7-0.3c3.9-0.2,7.6-0.3,11.2-0.3c3.6,0,6.8,0.1,9.7,0.4c2.9,0.3,4.9,0.8,6.1,1.6c1.2,0.8,2.1,2.8,2.7,6.1
		c0.6,3.3,1,6.8,1.1,10.6c0.1,3.8,0.1,7.4-0.2,10.9c-0.3,3.5-0.7,5.7-1.2,6.8c-0.3,0.5-1.9,1-4.9,1.5c-3,0.5-6.9,0.9-11.6,1.4
		c-4.7,0.5-10.1,0.8-16.1,1.1s-12.1,0.5-18.4,0.7c-6.3,0.2-12.5,0.3-18.6,0.2c-6.1-0.1-11.7-0.3-16.7-0.6s-9.2-0.8-12.6-1.5
		c-3.4-0.7-5.5-1.5-6.3-2.4c-1.7-2-3-5.9-3.8-11.6c-0.8-5.7-1.3-12.7-1.6-20.9c-0.3-8.2-0.3-17.3,0-27.3c0.3-10,0.6-20.3,1-30.8
		c0.4-10.5,0.7-19.6,1-27.1c0.3-7.5,1.1-13.7,2.6-18.5c1.5-4.8,4-8.3,7.5-10.6c3.5-2.3,8.8-3.5,15.7-3.8c6-0.3,12.7-0.5,20.1-0.8
		c7.4-0.3,14.7-0.3,22-0.2c7.3,0.1,14,0.5,20.3,1.1c6.3,0.6,11.3,1.7,15,3.3c1.9,0.8,3.1,3,3.8,6.5c0.7,3.5,0.9,7.4,0.7,11.6
		c-0.2,4.2-0.7,8.2-1.5,11.9C2215.2,40.1,2214.4,42.5,2213.6,43.7z"/>
	<path class="st1" d="M2233.2,5.3c1.5-1.3,4.2-2.3,8.3-2.8c4.1-0.5,8.4-0.7,13-0.6c4.6,0.1,8.9,0.5,13,1c4.1,0.5,6.8,1.1,8.3,1.8
		c1.3,0.7,2.3,2.6,2.8,5.7c0.5,3.1,0.8,7.1,0.8,11.8c0,4.7-0.1,10-0.4,15.8c-0.3,5.8-0.5,11.7-0.7,17.7c-0.2,6-0.3,11.8-0.3,17.5
		c0,5.7,0.3,10.7,1,15.1c0.7,4.4,1.7,7.9,3,10.6c1.3,2.7,3.3,4,5.8,4c2.5,0,4.4-2.2,5.7-6.6c1.3-4.4,2.1-9.9,2.5-16.6
		c0.4-6.7,0.5-14,0.3-21.9c-0.2-7.9-0.4-15.5-0.7-22.6c-0.3-7.1-0.4-13.3-0.4-18.6c0-5.3,0.3-8.6,1-9.9c0.5-1.1,1.7-1.9,3.6-2.6
		c1.9-0.7,4.2-1.2,6.9-1.6c2.7-0.4,5.7-0.6,8.8-0.7c3.1-0.1,6.2,0,9.2,0.3c3,0.3,5.8,0.7,8.4,1.2c2.6,0.5,4.6,1.2,6.1,2
		c1.5,0.8,2.5,3.8,3.1,9.1c0.6,5.3,0.9,11.7,1,19.2c0.1,7.5-0.1,15.7-0.4,24.4c-0.3,8.7-0.7,16.9-1.2,24.6
		c-0.5,7.7-0.9,14.3-1.3,19.8c-0.4,5.5-0.6,8.9-0.6,10.1c0,1.2-0.7,3-2,5.4c-1.3,2.4-3.1,5.1-5.2,8.1c-2.1,3-4.5,6.1-7.2,9.3
		c-2.7,3.2-5.4,6.1-8.2,8.8c-2.8,2.7-5.5,5-8.1,6.9c-2.6,1.9-4.8,3.1-6.7,3.5c-2.8,0.5-5.2,0.9-7.1,1.2c-1.9,0.3-3.8,0.4-5.5,0.5
		c-1.7,0.1-3.6,0.1-5.6,0c-2-0.1-4.6-0.2-7.8-0.3c-2.1,0-4.7-0.7-7.6-2c-2.9-1.3-6-3-9.2-5.1c-3.2-2.1-6.4-4.4-9.6-7.1
		c-3.2-2.7-6.1-5.4-8.7-8.3c-2.6-2.9-4.8-5.7-6.6-8.6c-1.8-2.9-2.9-5.6-3.3-8.1c-0.4-2.4-0.8-6.8-1.1-13.1
		c-0.3-6.3-0.6-13.5-0.7-21.6c-0.1-8.1-0.2-16.5-0.2-25.3c0-8.8,0.1-16.9,0.4-24.4c0.3-7.5,0.7-13.7,1.2-18.7
		C2231.5,8.6,2232.3,5.9,2233.2,5.3z"/>
	<path class="st1" d="M2463.4,43.7c-1.2,0.8-3.1,1.4-5.6,1.8c-2.5,0.4-5.4,0.7-8.6,1c-3.2,0.3-6.5,0.5-10,0.6
		c-3.5,0.1-6.7,0.3-9.7,0.4c-3,0.1-5.6,0.3-7.7,0.4c-2.1,0.1-3.5,0.4-4,0.8c-0.8,0.5-1.4,1.5-1.7,3c-0.3,1.5-0.5,3.1-0.5,4.8
		c0,1.7,0.2,3.4,0.5,5c0.3,1.6,0.7,2.8,1.1,3.6c0.4,0.8,1.7,1.2,3.9,1.3c2.2,0.1,4.6,0.1,7.2,0c2.6-0.1,5.1,0,7.5,0.1
		c2.4,0.1,4.1,0.6,5,1.4c0.9,0.9,1.7,2.4,2.4,4.4c0.7,2,1.1,4.2,1.4,6.6c0.3,2.4,0.3,4.9,0.2,7.4c-0.1,2.5-0.6,4.7-1.4,6.4
		c-0.5,1.2-1.9,2-4.2,2.3c-2.3,0.3-4.8,0.7-7.7,1c-2.9,0.3-5.8,0.8-8.7,1.5c-2.9,0.7-5.3,1.9-7,3.8c-0.5,0.5-0.8,1.3-0.9,2.4
		c-0.1,1.1,0,2.2,0.1,3.4c0.1,1.2,0.3,2.5,0.6,3.8c0.3,1.3,0.5,2.5,0.8,3.6c0.1,1.1,1.3,1.8,3.5,2.2c2.2,0.4,4.9,0.6,8.2,0.6
		c3.3,0,6.8-0.1,10.7-0.3c3.9-0.2,7.6-0.3,11.2-0.3c3.6,0,6.8,0.1,9.7,0.4c2.9,0.3,4.9,0.8,6.1,1.6c1.2,0.8,2.1,2.8,2.7,6.1
		c0.6,3.3,1,6.8,1.1,10.6c0.1,3.8,0.1,7.4-0.2,10.9c-0.3,3.5-0.7,5.7-1.2,6.8c-0.3,0.5-1.9,1-4.9,1.5c-3,0.5-6.9,0.9-11.6,1.4
		c-4.7,0.5-10.1,0.8-16.1,1.1s-12.1,0.5-18.4,0.7c-6.3,0.2-12.5,0.3-18.6,0.2c-6.1-0.1-11.7-0.3-16.7-0.6s-9.2-0.8-12.6-1.5
		c-3.4-0.7-5.5-1.5-6.3-2.4c-1.7-2-3-5.9-3.8-11.6c-0.8-5.7-1.3-12.7-1.6-20.9c-0.3-8.2-0.3-17.3,0-27.3c0.3-10,0.6-20.3,1-30.8
		c0.4-10.5,0.7-19.6,1-27.1c0.3-7.5,1.1-13.7,2.6-18.5c1.5-4.8,4-8.3,7.5-10.6c3.5-2.3,8.8-3.5,15.7-3.8c6-0.3,12.7-0.5,20.1-0.8
		c7.4-0.3,14.7-0.3,22-0.2c7.3,0.1,14,0.5,20.3,1.1c6.3,0.6,11.3,1.7,15,3.3c1.9,0.8,3.1,3,3.8,6.5c0.7,3.5,0.9,7.4,0.7,11.6
		c-0.2,4.2-0.7,8.2-1.5,11.9C2465,40.1,2464.2,42.5,2463.4,43.7z"/>
	<path class="st1" d="M2526.4,130.7c-0.3,1.2-0.3,3-0.2,5.5c0.1,2.5,0.2,5,0.2,7.6c0,2.6-0.3,5-0.8,7.2c-0.5,2.2-1.6,3.6-3.2,4.1
		c-1.6,0.5-4.3,1-8,1.3c-3.7,0.3-7.6,0.5-11.6,0.4c-4-0.1-7.7-0.3-11.1-0.8c-3.4-0.5-5.6-1.3-6.5-2.5c-0.7-0.7-1.2-3.9-1.7-9.8
		c-0.5-5.9-0.8-13.2-1.1-22.1c-0.3-8.9-0.5-18.6-0.7-29.3c-0.2-10.7-0.3-21.1-0.3-31.4c0-10.3,0.1-19.8,0.3-28.5
		c0.2-8.7,0.5-15.5,0.9-20.3c0.3-2.7,2.1-4.8,5.6-6.3c3.5-1.5,7.8-2.7,13.1-3.5c5.3-0.8,11.1-1.3,17.4-1.4c6.3-0.1,12.5,0,18.4,0.3
		c5.9,0.3,11.3,0.8,16.2,1.4c4.9,0.6,8.4,1.2,10.7,1.9c5.6,1.6,10.2,4.1,13.7,7.4c3.5,3.3,6.3,7.3,8.3,11.9c2,4.6,3.3,9.8,4,15.5
		c0.7,5.7,0.9,11.8,0.8,18.2c-0.1,6.4-0.2,12.1-0.1,17.2c0.1,5.1-0.1,9.6-0.4,13.7c-0.3,4.1-0.9,7.7-1.6,10.8c-0.7,3.1-2,6-3.7,8.5
		c-1.7,2.4-3.2,4.2-4.4,5.5c-1.2,1.3-2.2,2.2-3,2.9c-0.8,0.7-1.3,1.2-1.6,1.7c-0.3,0.5-0.3,1.2-0.2,2.1c0,0.7,0.6,1.9,1.9,3.6
		c1.3,1.7,2.8,3.7,4.5,6c1.7,2.3,3.5,4.7,5.4,7.3c1.9,2.6,3.5,5.1,4.9,7.4c1.4,2.3,2.4,4.4,2.9,6.2c0.5,1.8,0.3,3-0.6,3.7
		c-1.5,1.1-4.4,1.9-8.8,2.4c-4.4,0.5-9.1,0.8-14.1,0.8s-9.7-0.2-14.2-0.5c-4.5-0.3-7.6-0.8-9.3-1.5c-0.4-0.1-1.1-1.1-2.2-2.8
		c-1.1-1.7-2.3-3.8-3.7-6.2c-1.4-2.4-2.9-4.9-4.4-7.4c-1.5-2.5-3.1-4.7-4.6-6.5c-1.5-1.8-2.9-3-4.2-3.5
		C2528,128.4,2527.1,129,2526.4,130.7z M2523.8,89.1c0,2.8,1.2,4.9,3.7,6.3c2.5,1.4,5.2,2,8.2,1.9c3-0.1,5.8-0.9,8.5-2.4
		c2.7-1.5,4.1-3.6,4.4-6.4c0.4-3.9,0.8-7.5,1.1-10.8c0.3-3.3,0.5-6.7,0.6-10.2c0.1-3.5,0-7.1-0.2-11c-0.2-3.9-0.5-8.3-0.9-13.2
		c-0.3-2.9-1.7-5.1-4.2-6.5c-2.5-1.4-5.3-2.1-8.3-2.1s-5.8,0.7-8.4,2.1c-2.6,1.4-4,3.4-4.3,5.9c-0.4,4-0.6,8.5-0.7,13.5
		c-0.1,5,0,9.8,0.1,14.3c0.1,4.5,0.2,8.5,0.3,12C2523.8,86,2523.8,88.2,2523.8,89.1z"/>
	<path class="st1" d="M2622.2,6.1c2.4-1.3,5.6-2.3,9.6-2.9c4-0.6,8-0.8,11.9-0.7c3.9,0.1,7.4,0.5,10.5,1.2c3.1,0.7,4.9,1.5,5.6,2.6
		c1.5,2.4,2.3,5.3,2.4,8.7c0.1,3.4,0.1,7-0.2,10.7c-0.3,3.7-0.5,7.5-0.8,11.2c-0.3,3.7-0.1,7.2,0.6,10.3c0.7,3.1,2,5.8,4.1,7.9
		c2.1,2.1,5.2,3.5,9.5,4c2.1,0.3,3.8-0.8,5.1-3.1c1.3-2.3,2.2-5.3,2.8-9c0.6-3.7,1-7.7,1.2-12.2c0.2-4.5,0.4-8.7,0.5-12.7
		c0.1-4,0.4-7.5,0.7-10.4c0.3-2.9,0.9-4.8,1.7-5.6c1.2-1.2,3.6-2.1,7.2-2.7c3.6-0.6,7.5-0.9,11.6-1c4.1-0.1,8.1,0,11.8,0.3
		c3.7,0.3,6.4,0.7,8,1.4c0.8,0.3,1.4,2.1,1.8,5.5s0.7,7.9,0.9,13.4c0.2,5.5,0.3,11.9,0.3,19c0,7.1,0,14.5,0,22.1
		c-0.3,19.2-1.7,34.8-4.3,46.7c-2.6,11.9-6.4,21.3-11.3,28.1c-4.9,6.8-11,11.5-18.1,14c-7.1,2.5-15.3,3.9-24.5,4.2
		c-7.9,0.3-15.4-0.5-22.7-2.3c-7.3-1.8-13.7-4.5-19.4-8.2c-5.7-3.7-10.2-8.3-13.6-13.9c-3.4-5.6-5.1-12.1-5.1-19.6
		c0-1.9,0.8-3.5,2.3-4.8c1.5-1.3,3.5-2.4,5.9-3.3c2.4-0.9,5-1.5,7.9-1.8c2.9-0.3,5.6-0.5,8.2-0.4c2.6,0.1,4.9,0.3,6.8,0.8
		c1.9,0.5,3.2,1,3.9,1.7c0.8,1.1,1.3,2.3,1.4,3.7c0.1,1.4,0.4,2.8,0.7,4.1c0.3,1.3,1.1,2.5,2.2,3.5c1.1,1,3.1,1.6,5.9,1.9
		c4.3,0,7.9-0.2,10.8-0.5c2.9-0.3,4.5-1,4.8-2.1c0.1-0.4,0.4-1.4,0.7-3.1c0.3-1.7,0.6-3.6,0.9-5.8c0.3-2.2,0.5-4.5,0.7-6.9
		s0.2-4.6,0.1-6.6c-0.1-2-0.4-3.6-0.9-4.8c-0.5-1.2-1.2-1.7-2.3-1.6c-10.4,2-19.2,2.2-26.5,0.6c-7.3-1.6-13.2-4.4-17.9-8.4
		c-4.7-4-8.2-8.8-10.5-14.5c-2.3-5.7-3.8-11.6-4.3-17.7c-0.4-4-0.6-8-0.5-12c0.1-4,0.5-7.8,1.3-11.4c0.8-3.6,2.1-6.9,3.8-9.9
		C2617.1,10.8,2619.4,8.3,2622.2,6.1z"/>
	<path class="st1" d="M2813.2,3.3c9.9,0.5,18.2,1.6,25.1,3.3c6.9,1.7,12.6,4.1,17.2,7.2c4.6,3.1,8.2,7,10.8,11.7
		c2.6,4.7,4.6,10.3,5.9,16.8c1.3,6.5,2.2,14.1,2.5,22.6c0.3,8.5,0.5,18.1,0.5,28.8c0,13.5-1,24.4-2.9,32.7
		c-1.9,8.3-5.2,14.9-9.9,19.7c-4.7,4.8-10.9,8.1-18.7,9.9c-7.8,1.8-17.6,2.8-29.3,2.9c-11.6,0.3-21.7-0.4-30.2-2.1
		c-8.5-1.7-15.7-4.9-21.4-9.8c-5.7-4.9-10.1-11.6-13.2-20.2c-3.1-8.6-5-19.7-5.8-33.3c-0.8-15.2-0.3-28.6,1.4-40.1
		c1.7-11.5,5.3-21.1,10.6-28.8c5.3-7.7,12.7-13.3,22-16.9C2787.1,4.1,2798.9,2.7,2813.2,3.3z M2798.4,110.5c0,3.2,1.4,5.5,4.3,7
		c2.9,1.5,6,2.1,9.5,1.9c3.5-0.2,6.7-1.2,9.6-3c2.9-1.8,4.5-4.3,4.8-7.5c0.4-4.4,0.7-8.5,0.9-12.4c0.2-3.9,0.3-7.7,0.2-11.6
		c-0.1-3.9-0.2-8-0.5-12.4c-0.3-4.4-0.7-9.4-1.4-15c-0.4-3.3-2.1-5.7-5-7.2c-2.9-1.5-6.1-2.1-9.6-2c-3.5,0.1-6.6,1-9.5,2.6
		c-2.9,1.6-4.4,3.9-4.7,6.8c-0.3,4.5-0.4,9.6-0.3,15.3c0.1,5.7,0.2,11.1,0.5,16.3c0.3,5.2,0.5,9.8,0.8,13.7
		C2798.3,107,2798.4,109.5,2798.4,110.5z"/>
	<path class="st1" d="M2937.4,100.5c-0.8,0-1.3,1.2-1.5,3.7c-0.2,2.5-0.3,5.6-0.2,9.4c0.1,3.8,0.2,7.9,0.3,12.4
		c0.1,4.5,0.1,8.7,0,12.6c-0.1,3.9-0.4,7.3-0.9,10c-0.5,2.7-1.3,4.3-2.5,4.7c-1.2,0.4-3.1,0.8-5.6,1.1c-2.5,0.3-5.4,0.6-8.5,0.8
		c-3.1,0.2-6.4,0.3-9.7,0.3c-3.3,0-6.4-0.2-9.1-0.6c-2.7-0.4-5-1-6.7-1.9c-1.7-0.9-2.6-2-2.6-3.3c0-1.1-0.1-3.9-0.2-8.4
		c-0.1-4.5-0.2-10.2-0.3-16.9c-0.1-6.7-0.2-14.3-0.3-22.6c-0.1-8.3-0.2-16.8-0.3-25.3c-0.1-8.5-0.1-16.9,0-25
		c0.1-8.1,0.2-15.4,0.4-21.9c0.2-6.5,0.5-11.7,1-15.8c0.5-4.1,1.1-6.4,1.9-6.9c1.5-0.9,4.3-1.7,8.6-2.3c4.3-0.6,8.8-1,13.6-1.1
		c4.8-0.1,9.3,0.1,13.5,0.7c4.2,0.6,7,1.7,8.5,3.3c0.9,1.1,2.2,3.4,3.7,7c1.5,3.6,3.2,7.9,4.9,12.8c1.7,4.9,3.6,10.1,5.5,15.6
		c1.9,5.5,3.8,10.5,5.5,15.1c1.7,4.6,3.4,8.4,5,11.4c1.6,3,2.9,4.5,4,4.5c1.1,0.1,1.7-1.5,1.8-4.9c0.1-3.4,0-7.7-0.4-12.8
		c-0.4-5.1-0.9-10.7-1.6-16.7c-0.7-6-1.2-11.6-1.6-16.9c-0.4-5.3-0.6-9.7-0.6-13.2c0-3.5,0.5-5.4,1.6-5.7c1.5-0.4,4.3-0.7,8.4-1
		c4.1-0.3,8.5-0.3,13,0c4.5,0.3,8.7,0.9,12.4,1.8c3.7,0.9,6,2.5,6.8,4.6c0.4,1.1,0.8,3.9,1.2,8.6c0.4,4.7,0.7,10.5,1,17.4
		c0.3,6.9,0.5,14.6,0.8,23.1c0.3,8.5,0.5,17.1,0.6,25.8c0.1,8.7,0.2,17.2,0.1,25.5c-0.1,8.3-0.2,15.7-0.5,22.2
		c-0.3,6.5-0.7,11.8-1.2,15.8c-0.5,4-1.2,6.1-2,6.2c-1.6,0.4-4.6,0.8-9,1.3c-4.4,0.5-9,0.7-13.9,0.8c-4.9,0.1-9.4-0.2-13.7-0.9
		c-4.3-0.7-7.1-2-8.6-4c-0.9-1.3-1.9-3.5-3-6.5c-1.1-3-2.2-6.4-3.5-10.1c-1.3-3.7-2.5-7.6-3.8-11.6c-1.3-4-2.6-7.6-4-10.9
		c-1.4-3.3-2.8-6-4.2-8.1C2940.1,101.6,2938.7,100.5,2937.4,100.5z"/>
	<path class="st1" d="M3129,43.7c-1.2,0.8-3.1,1.4-5.6,1.8c-2.5,0.4-5.4,0.7-8.6,1c-3.2,0.3-6.5,0.5-10,0.6
		c-3.5,0.1-6.7,0.3-9.7,0.4c-3,0.1-5.6,0.3-7.7,0.4c-2.1,0.1-3.5,0.4-4,0.8c-0.8,0.5-1.4,1.5-1.7,3c-0.3,1.5-0.5,3.1-0.5,4.8
		c0,1.7,0.2,3.4,0.5,5c0.3,1.6,0.7,2.8,1.1,3.6c0.4,0.8,1.7,1.2,3.9,1.3c2.2,0.1,4.6,0.1,7.2,0c2.6-0.1,5.1,0,7.5,0.1
		c2.4,0.1,4.1,0.6,5,1.4c0.9,0.9,1.7,2.4,2.4,4.4c0.7,2,1.1,4.2,1.4,6.6c0.3,2.4,0.3,4.9,0.2,7.4c-0.1,2.5-0.6,4.7-1.4,6.4
		c-0.5,1.2-1.9,2-4.2,2.3c-2.3,0.3-4.8,0.7-7.7,1c-2.9,0.3-5.8,0.8-8.7,1.5c-2.9,0.7-5.3,1.9-7,3.8c-0.5,0.5-0.8,1.3-0.9,2.4
		c-0.1,1.1,0,2.2,0.1,3.4c0.1,1.2,0.3,2.5,0.6,3.8c0.3,1.3,0.5,2.5,0.8,3.6c0.1,1.1,1.3,1.8,3.5,2.2c2.2,0.4,4.9,0.6,8.2,0.6
		c3.3,0,6.8-0.1,10.7-0.3c3.9-0.2,7.6-0.3,11.2-0.3c3.6,0,6.8,0.1,9.7,0.4c2.9,0.3,4.9,0.8,6.1,1.6c1.2,0.8,2.1,2.8,2.7,6.1
		c0.6,3.3,1,6.8,1.1,10.6c0.1,3.8,0.1,7.4-0.2,10.9c-0.3,3.5-0.7,5.7-1.2,6.8c-0.3,0.5-1.9,1-4.9,1.5c-3,0.5-6.9,0.9-11.6,1.4
		c-4.7,0.5-10.1,0.8-16.1,1.1s-12.1,0.5-18.4,0.7c-6.3,0.2-12.5,0.3-18.6,0.2c-6.1-0.1-11.7-0.3-16.7-0.6s-9.2-0.8-12.6-1.5
		c-3.4-0.7-5.5-1.5-6.3-2.4c-1.7-2-3-5.9-3.8-11.6c-0.8-5.7-1.3-12.7-1.6-20.9c-0.3-8.2-0.3-17.3,0-27.3c0.3-10,0.6-20.3,1-30.8
		c0.4-10.5,0.7-19.6,1-27.1c0.3-7.5,1.1-13.7,2.6-18.5c1.5-4.8,4-8.3,7.5-10.6c3.5-2.3,8.8-3.5,15.7-3.8c6-0.3,12.7-0.5,20.1-0.8
		c7.4-0.3,14.7-0.3,22-0.2c7.3,0.1,14,0.5,20.3,1.1c6.3,0.6,11.3,1.7,15,3.3c1.9,0.8,3.1,3,3.8,6.5c0.7,3.5,0.9,7.4,0.7,11.6
		c-0.2,4.2-0.7,8.2-1.5,11.9C3130.6,40.1,3129.8,42.5,3129,43.7z"/>
</g>
</svg>
