<svg xmlns="http://www.w3.org/2000/svg" xmlns:xlink="http://www.w3.org/1999/xlink" width="1129.808" height="287.824" viewBox="0 0 1129.808 287.824">
  <defs>
    <clipPath id="clip-path">
      <rect id="Rectángulo_133" data-name="Rectángulo 133" width="1129.808" height="287.824" fill="none"/>
    </clipPath>
  </defs>
  <g id="burrito" transform="translate(0)">
    <g id="Grupo_392" data-name="Grupo 392" transform="translate(0)" clip-path="url(#clip-path)">
      <path id="Trazado_1789" data-name="Trazado 1789" d="M1127.51,91.807l-.082-.556a125.561,125.561,0,0,0-9.722-32.9c-.114-.252-.23-.5-.348-.749l-.043-.091a80.741,80.741,0,0,0-25.429-30.352c-.312-.226-.63-.448-.907-.634a116.676,116.676,0,0,0-33.543-15.655l-.523-.146a243.773,243.773,0,0,0-38.511-7.1c-.362-.047-.717-.088-1.052-.12-23.67-2.369-44.605-.863-62.222,4.477l-.086.027a99.38,99.38,0,0,0-22.674,10.2,45.194,45.194,0,0,0-4.624-4.219,37.242,37.242,0,0,0-14.306-6.968A92.99,92.99,0,0,0,894.985,4.5c-7.017-.409-14.692-.785-23.449-1.149-9.94-.414-20.151-.414-30.962-.414-5.688,0-11.08.1-16.293.207-4.64.091-9.023.176-13.129.176-10.088,0-18.247.406-25.739.821C774.3,4.753,766.4,5.46,758.287,9.522c-.139.069-.277.14-.415.211a56.126,56.126,0,0,0-27.346-6.807c-4.711,0-11.124,0-19.583.381-4.716,0-9.985.02-15.007.521a55.848,55.848,0,0,0-26.233,9c-.095.062-.191.126-.287.191a44.982,44.982,0,0,0-8.275,7.144A79.508,79.508,0,0,0,631.163,5.611a101.346,101.346,0,0,0-14.792-2.372c-1.177-.131-2.441-.273-3.845-.438-.687-.08-1.386-.141-2.113-.185-7.625-.448-14.406-.817-21.337-1.163-.609-.03-1.229-.046-1.846-.046-8.1,0-16.466,0-25.321.417A224.572,224.572,0,0,0,535.447,4.5a95.512,95.512,0,0,0-26.979,8.054c-.692.326-1.376.673-2,1.013q-2.4,1.311-4.6,2.784a77.083,77.083,0,0,0-21.729-9.511c-.252-.067-.506-.131-.76-.192a143.661,143.661,0,0,0-17.543-3.095c-.614-.068-1.235-.123-1.826-.159-2.22-.138-4.711-.357-7.349-.588-3.815-.334-8.139-.712-12.886-.962-8.178-.429-16.337-.432-24.231-.432a158.533,158.533,0,0,0-26.175,1.844,91.172,91.172,0,0,0-11.311,2.033l-10.649,3.32q-1.973.75-3.913,1.593c-.183.079-.364.16-.58.257q-.44.2-.873.406a48.57,48.57,0,0,0-10.013-3.948c-7.375-2.007-15.838-2.826-29.21-2.826-3.073,0-5.914.119-8.422.224-1.865.078-3.838.151-5.63.159l-.234,0a93.324,93.324,0,0,0-19.855,2.433,53.429,53.429,0,0,0-14.471,5.471,55.447,55.447,0,0,0-19.4-7.563c-.691-.138-1.4-.258-2.078-.355a120.949,120.949,0,0,0-20.791-1.129c-3.235.017-6.182.146-8.594.25-1.379.061-2.94.129-3.757.129h-.111A91.3,91.3,0,0,0,204.55,5.018a57.059,57.059,0,0,0-16,5.288,49.193,49.193,0,0,0-10.655,7.21,70.039,70.039,0,0,0-19.934-10.9A102.069,102.069,0,0,0,130.706.773a165.216,165.216,0,0,0-26.32-.448A248.224,248.224,0,0,0,79,3.007c-8.626,1.361-16.08,3.109-22.85,4.8A146.008,146.008,0,0,0,35.44,14.393q-.758.3-1.5.642l-.419.191c-5.968,2.718-14.115,6.427-20.86,13.983C4.712,37.869,2.267,47.793.81,57.256c-.13.85-.232,1.712-.3,2.54C0,65.914,0,72.47,0,80.061c0,7.9.421,16.572,1.286,26.514.75,8.622,1.5,17.672,2.233,26.421l.043.519c.039.481.088.96.141,1.393.5,4.211.951,8.535,1.384,12.746.488,4.726.991,9.609,1.6,14.572C7.568,172.5,8.84,182,9.866,189.2c1.107,9.183,2.257,17.739,3.516,26.143a113.136,113.136,0,0,0,7.935,28.267c.29.681.6,1.36.934,2.019,6.409,12.819,15.716,22.249,27.667,28.035,8.668,4.434,18.725,6.682,29.9,6.682a98.486,98.486,0,0,0,11.818-.75c3.31-.348,6.7-.7,10.091-1.044l1.3-.133c3.511-.36,7.017-.72,10.442-1.08,4.383-.461,8.548-1.017,12.625-1.561,3.172-.424,6.168-.823,8.988-1.136,7.91-.879,15.105-2.135,21.71-3.369a118.668,118.668,0,0,0,22.4-5.9,59.424,59.424,0,0,0,20.2-12.235,110.77,110.77,0,0,0,14.671,11.054c.524.33,1.058.649,1.591.949a99.583,99.583,0,0,0,48.758,12.78h.447q1.608.032,3.193.031c20.812,0,39.17-4.167,54.562-12.387a107.993,107.993,0,0,0,24.058-17.339c5.275,6.07,14.726,13.305,30.562,15.205a107.555,107.555,0,0,0,18.756,1.493c5.165,0,10.5,0,16.293-.45a78.207,78.207,0,0,0,17.3-2.861,36.971,36.971,0,0,0,3.662-1.248q.965-.386,1.9-.813a36.894,36.894,0,0,0,7.21,2.674,86.645,86.645,0,0,0,18.418,3c.773.056,1.488.113,2.185.168,4.318.342,8.4.665,17.235.665h.569a159.64,159.64,0,0,0,20.262-1.3c5.759,5.473,15.021,11.118,29.33,12.539a125.147,125.147,0,0,0,19.213.99c6.035-.025,11.679-.449,16.688-.834a74.825,74.825,0,0,0,19.688-3.742c.72-.24,1.44-.5,2.1-.773q1.647-.663,3.215-1.45a36.288,36.288,0,0,0,6.369,2.242c5.311,1.445,10.78,2.021,18.876,2.561.811.054,1.635.081,2.449.081h18.334q.292,0,.582,0a174.548,174.548,0,0,0,22.981-1.892,75.672,75.672,0,0,0,15.8-3.7,56.318,56.318,0,0,0,20.049,7.1,104.817,104.817,0,0,0,27.13.624c2.159-.186,4.173-.348,6.055-.5l.178-.014c5.967-.481,11.12-.9,16.023-1.651,11.394-1.754,20.941-6.013,28.47-12.685a41.307,41.307,0,0,0,24.7,12.455c.424.054.847.1,1.3.141,1.031.093,2.171.216,3.41.348l.264.028c3.675.392,8.709.929,14.463,1.249l1.11.059c7.405.391,14.4.761,21.923.761,7.354,0,14.3,0,20.974-.476,10.243-.731,23.347-2.916,33.848-13.422a36.779,36.779,0,0,0,8.373-12.9l0-.012q2.72,3.114,5.687,5.93c.179.171.361.34.53.494a97.578,97.578,0,0,0,44.6,23.189c13.52,3.511,29.209,5.459,47.93,5.952,4.25.252,8.562.379,12.826.379a218.159,218.159,0,0,0,34.277-2.715c.215-.034.429-.07.643-.107l.078-.014c17.844-3.182,32.935-10.484,44.856-21.7,11.6-10.917,19.951-25.412,24.826-43.081,4.08-14.786,6.572-32.3,7.407-52.05.779-14.861,1.178-28.431,1.187-40.34a222.1,222.1,0,0,0-2.259-36" transform="translate(0 0)" fill="#161615"/>
      <path id="Trazado_1790" data-name="Trazado 1790" d="M1096.4,86.423c0-.015,0-.031-.007-.046a100.91,100.91,0,0,0-7.834-26.552c-.041-.092-.084-.183-.128-.274a56.036,56.036,0,0,0-17.664-21.074q-.144-.1-.292-.2a92.042,92.042,0,0,0-26.464-12.351l-.175-.048a218.959,218.959,0,0,0-35.007-6.419c-.2-.03-.4-.055-.6-.075-20.423-2.045-38.109-.857-52.612,3.539a74.217,74.217,0,0,0-37,25.537c-.969,1.2-1.9,2.445-2.8,3.711-.133-1.736-.293-3.469-.5-5.192a67.693,67.693,0,0,0-2.211-10.789,20.9,20.9,0,0,0-7.341-11.533,12.338,12.338,0,0,0-4.77-2.323,68.219,68.219,0,0,0-13.805-1.861c-6.985-.409-14.623-.783-23.343-1.146-9.427-.393-19.389-.393-29.936-.393-5.43,0-10.709.1-15.814.2-4.77.093-9.277.18-13.608.18-9.462,0-17.23.387-24.374.784-9.816.544-13.927,1.051-17.448,2.813a12.384,12.384,0,0,0-2.122,1.347c-2.606,1.98-5.256,5.473-6.329,11.629-.682,2.45-1.3,4.983-1.876,7.66-.112-.585-.221-1.17-.34-1.754q-.056-.276-.125-.548c-1.252-4.984-3.623-12.09-9.776-16.694-4.559-3.63-11.013-5.625-18.238-5.625-4.584,0-10.841,0-19.013.381-4.64,0-9.413.009-13.391.426a31.109,31.109,0,0,0-14.885,5.048l-.053.036c-4.4,2.934-7.829,7.913-10.482,15.223-1.9,5.222-2.912,12.095-3.393,22.951,0,.072-.009.144-.012.216-.149,3.444-.3,7.2-.457,11.243a87.829,87.829,0,0,0-6.519-22.185,56.976,56.976,0,0,0-14.117-19.472c-.055-.051-.112-.1-.17-.15a54.662,54.662,0,0,0-22.956-11.794,79.732,79.732,0,0,0-11.44-1.763c-1.226-.137-2.543-.284-3.951-.45q-.359-.042-.719-.064c-7.612-.447-14.325-.812-21.124-1.152q-.307-.016-.614-.015c-7.835,0-15.936,0-24.24.393a200.057,200.057,0,0,0-23.839,2.418,70.8,70.8,0,0,0-20.2,5.993c-.229.108-.455.221-.677.343-9.894,5.4-12.656,12.7-13.23,17.873-.022.2-.039.394-.051.593-.006.1-.011.2-.017.3a54.81,54.81,0,0,0-8.944-11.109c-.064-.062-.128-.122-.194-.181a52.37,52.37,0,0,0-22.016-12.008c-.078-.021-.158-.041-.237-.06a118.929,118.929,0,0,0-14.5-2.559c-.2-.023-.409-.041-.615-.054-2.519-.157-5.163-.388-7.963-.633-3.8-.332-7.728-.676-12.028-.9-7.554-.4-15.457-.4-23.1-.4a133.776,133.776,0,0,0-22.728,1.631,66.488,66.488,0,0,0-19.339,5.121l-.191.085c-7.176,3.262-10.735,7.845-12.486,11.837a21.359,21.359,0,0,0-15.084-14.034c-5.048-1.374-11.847-1.961-22.732-1.961-2.55,0-5.012.1-7.392.2-2.291.1-4.431.171-6.541.181A68.537,68.537,0,0,0,287.458,22.3a28.751,28.751,0,0,0-14.492,7.967l-.109.112a24.849,24.849,0,0,0-6.672,13.906q-.289-1.676-.642-3.335c-.032-.149-.066-.3-.1-.446a27.554,27.554,0,0,0-7.526-13.057c-4.749-4.7-10.616-6.309-14.624-7.112q-.342-.068-.689-.117a96.392,96.392,0,0,0-16.869-.887c-2.892.006-5.587.125-7.973.229-1.8.079-3.491.153-4.839.153a66.292,66.292,0,0,0-10.831.945,32.409,32.409,0,0,0-9.155,3.038,24.4,24.4,0,0,0-8.1,6.5c-3.017,3.432-5.127,8.684-7.137,17.665-1,3.839-1.856,7.731-2.573,11.65a88.344,88.344,0,0,0-6.591-15.955A45.09,45.09,0,0,0,143,21.181a77.357,77.357,0,0,0-21.06-4.495,140.562,140.562,0,0,0-22.777-.4,223.666,223.666,0,0,0-22.984,2.423c-7.721,1.218-14.589,2.834-20.86,4.4a121.284,121.284,0,0,0-17.357,5.511c-.171.068-.34.142-.508.218l-.38.173c-4.878,2.221-9.5,4.326-12.8,8.09-3.4,3.639-4.7,8.38-5.755,15.228q-.065.425-.1.853C18,58.276,18,64.357,18,71.4c0,7.179.39,15.152,1.192,24.377.747,8.584,1.507,17.7,2.241,26.514l.047.572q.018.223.045.445c.53,4.415.987,8.845,1.428,13.129.491,4.765,1,9.69,1.606,14.575.836,9.925,2.09,19.253,3.1,26.312,1.09,9.071,2.224,17.508,3.466,25.789a88.441,88.441,0,0,0,6.216,22.156q.144.339.309.668c4.016,8.032,9.45,13.592,16.606,16.987,5.243,2.74,11.481,4.1,18.9,4.1a73.629,73.629,0,0,0,9.027-.592c3.67-.387,7.436-.773,11.2-1.159,3.646-.374,7.29-.747,10.842-1.12,4.058-.427,8.066-.962,11.942-1.48,3.325-.444,6.465-.862,9.529-1.2,7.2-.8,13.973-1.99,20.221-3.159a93.91,93.91,0,0,0,18.164-4.765,34.676,34.676,0,0,0,14.69-10.055q.335-.389.638-.806a44.452,44.452,0,0,0,6.825-14.112,56.557,56.557,0,0,0,2.089-10.424,111.273,111.273,0,0,0,7.167,12.329c.02.03.039.06.06.089a85.2,85.2,0,0,0,25,24.1c.176.11.355.218.536.32a74.9,74.9,0,0,0,37.3,9.609q1.516.034,3.006.034c16.741,0,31.19-3.192,42.986-9.5a83.3,83.3,0,0,0,30.009-26.879c7.009-10.3,12.367-22.973,15.927-37.655l.023-.1q.661-2.829,1.25-5.677.18,6.233.4,12.1c.253,7.08.665,13.294,1.028,18.776.194,2.921.377,5.68.511,8.216.661,11.875,2.233,16.226,4.868,19.2,3.37,4.062,8.638,6.494,15.677,7.235A82.366,82.366,0,0,0,389.2,231.6c5.068,0,9.863,0,14.848-.4a53.531,53.531,0,0,0,12.15-1.974,12.4,12.4,0,0,0,1.216-.415c3.8-1.52,8.8-5.013,11.094-13.026.014-.049.028-.1.041-.149.02-.075.04-.149.061-.224,1.125,1.783,2.018,3.211,2.611,4.4,3.262,6.523,7.3,9.081,10.775,9.912a61.886,61.886,0,0,0,13.649,2.233c.93.068,1.778.134,2.6.2,3.987.315,7.43.588,15.29.588h.569a134.7,134.7,0,0,0,18.426-1.272,45.558,45.558,0,0,0,13.514-3.727c1.194,5.279,2.648,7.606,4.11,9.213,3.456,4.095,8.941,6.509,16.324,7.181a100.387,100.387,0,0,0,13.241.877c.942,0,1.886-.013,2.826-.039,5.294-.009,10.443-.4,15.477-.787a50.136,50.136,0,0,0,13.463-2.525q.352-.117.7-.256c3.733-1.5,8.684-5.046,11.074-13.4.068-.236.128-.474.181-.713l.17.28c1.065,1.759,2.072,3.42,3.143,5.028q.3.448.635.868l.635.8c2.032,2.559,4.69,5.907,9.162,6.945,3.365.953,7.6,1.376,14.294,1.822.273.018.546.027.819.027h18.334l.195,0a149.634,149.634,0,0,0,19.886-1.649c8.231-1.107,13.607-2.964,17.424-6.016a12.412,12.412,0,0,0,1.024-.916,16.508,16.508,0,0,0,2.848-3.8,35.575,35.575,0,0,0,3.808,4.956c.123.133.247.263.375.391a31.578,31.578,0,0,0,17.561,8.811,79.71,79.71,0,0,0,21.021.46c2.385-.207,4.6-.385,6.656-.551,5.721-.461,10.239-.826,14.251-1.443,8.029-1.236,13.977-4.223,18.184-9.129,5.291-6.171,6.4-14.266,6.765-19.818q.027-.41.027-.82c0-5.717,0-14.357-.39-25.276,0-.024,0-.048,0-.072-.331-7.961-.694-17.529-1.143-30.115-.382-10.694-.764-21.77-1.146-32.845-.2-5.8-.5-11.509-.8-17.031-.161-3.04-.316-5.982-.454-8.9,2.963,2.2,6.836,3.59,11.759,4.215a93.284,93.284,0,0,0,11.366.87q1.262.019,2.529.091-.062,1.033-.126,2.177c-.252,4.512-.674,9.746-1.165,15.806q-.351,4.339-.729,9.152c-.919,11.936-1.628,21.755-2.3,31.835-.788,11.807-1.172,22.43-1.173,32.474a153.692,153.692,0,0,0,2.078,26.539c.007.04.014.08.021.12a34.248,34.248,0,0,0,3.833,11.518,17.333,17.333,0,0,0,12.9,8.888c.137.018.275.032.412.045,1.216.11,2.566.255,4.04.412,3.609.385,8.1.864,13.238,1.149l1.026.054c7.077.374,13.761.727,20.64.727,6.9,0,13.423,0,19.219-.413,6.658-.475,13.467-1.562,18.16-6.256a12.335,12.335,0,0,0,2.791-4.3,29.76,29.76,0,0,0,1.965-11.966V206.664q0-.363-.021-.724c-.374-6.366-.747-13.447-1.139-21.646l0-.076c-.384-8-.779-16.276-1.564-24.918-.735-8.088-1.1-15.707-1.485-23.773l-.118-2.475c-.329-6.822-.639-13.266-.639-18.489q0-.471-.036-.94c-.221-2.895-.3-5.815-.232-8.728,3.733.219,7.344.219,10.86.219h.121a121.557,121.557,0,0,0,13.079-.838q.926-.1,1.787-.239a297.888,297.888,0,0,0-2.869,44.684l0,.113c.4,19.45,2.492,35.819,6.218,48.654,3.94,13.575,10.784,25.262,19.793,33.794l.163.152a72.863,72.863,0,0,0,33.725,17.411c11.865,3.13,26.011,4.862,43.224,5.294q5.875.36,11.768.36a193.031,193.031,0,0,0,30.451-2.416l.218-.037c13.047-2.326,23.909-7.5,32.282-15.383,8.259-7.773,14.3-18.434,17.955-31.683,3.592-13.016,5.794-28.709,6.546-46.641.767-14.592,1.157-27.858,1.16-39.432a197.3,197.3,0,0,0-2.042-32.483" transform="translate(-6.902 -6.135)" fill="#161615"/>
      <path id="Trazado_1791" data-name="Trazado 1791" d="M183.206,184.518q-1.718-16.049-5.731-24.073c-3.056-4.966-6.113-9.17-9.17-11.463a26.268,26.268,0,0,0-8.786-4.968c-2.674-1.146-4.2-2.292-4.585-4.2,0,0,1.529-1.146,3.822-3.057A43.558,43.558,0,0,0,166.4,127.2c3.056-4.2,4.968-9.942,6.877-17.195s1.91-16.048.382-26.747a76.212,76.212,0,0,0-8.406-26.365,33.013,33.013,0,0,0-18.723-16.431,65.1,65.1,0,0,0-17.958-3.82,127.924,127.924,0,0,0-21.016-.382,210.505,210.505,0,0,0-21.78,2.293c-7.259,1.146-13.754,2.675-19.869,4.2a108.717,108.717,0,0,0-15.666,4.968c-4.2,1.915-7.642,3.443-9.17,5.354l-.012.007c-1.146,1.143-1.91,3.817-2.674,8.786C38,66.456,38,72.189,38,79.066s.382,14.52,1.146,23.308,1.528,17.96,2.292,27.13c1.146,9.553,1.911,18.725,3.058,27.894.765,9.172,1.911,17.96,3.057,25.984,1.146,9.551,2.292,17.958,3.439,25.6a76.165,76.165,0,0,0,5.354,19.1c2.674,5.348,6.113,9.17,11.081,11.463,4.966,2.674,11.846,3.439,21.016,2.292,7.259-.765,14.9-1.529,22.161-2.292s14.516-1.91,21.4-2.674,13.379-1.911,19.494-3.058a81.389,81.389,0,0,0,16.049-4.2,22.3,22.3,0,0,0,9.548-6.505,32.3,32.3,0,0,0,4.968-10.316,44.311,44.311,0,0,0,1.911-12.992,107.666,107.666,0,0,0-.765-15.284m-76.046-69.912c-1.529-.765-2.675-1.53-3.057-3.058-.382-1.906-1.146-4.586-1.528-7.26a57.015,57.015,0,0,1-.765-8.024v-10.7a4.944,4.944,0,0,1,.765-3.058,6.868,6.868,0,0,1,4.2-1.146,14.862,14.862,0,0,1,5.731.765,14.126,14.126,0,0,1,5.354,2.674,16.258,16.258,0,0,1,6.5,11.463,31.76,31.76,0,0,1-3.439,13.757,8.362,8.362,0,0,1-3.439,3.82,28.139,28.139,0,0,1-5.354,1.528,10.491,10.491,0,0,1-4.968-.765m22.549,75.278a15.288,15.288,0,0,1-4.585,3.82,46.262,46.262,0,0,1-5.354,1.911,7.591,7.591,0,0,1-4.2-.381,3.021,3.021,0,0,1-1.911-3.058v0a11.042,11.042,0,0,1,0-3.82,30.639,30.639,0,0,1-1.528-6.878,57.905,57.905,0,0,1-1.146-8.023,23.091,23.091,0,0,1,0-7.261,4.084,4.084,0,0,1,2.292-3.439,12.871,12.871,0,0,1,4.585-1.528,8.764,8.764,0,0,1,5.354.381,8.633,8.633,0,0,1,4.2,3.058,27.547,27.547,0,0,1,6.114,12.61c.765,4.2-.763,8.407-3.82,12.61" transform="translate(-14.57 -13.803)" fill="#fff"/>
      <path id="Trazado_1792" data-name="Trazado 1792" d="M297.216,47.86a11.945,11.945,0,0,1,4.2-3.439,20.116,20.116,0,0,1,5.732-1.911,53.649,53.649,0,0,1,8.786-.765c3.439,0,8.024-.382,12.992-.382a83.421,83.421,0,0,1,14.9.765c3.82.765,6.5,1.911,8.407,3.822a15.243,15.243,0,0,1,4.2,7.261,77.563,77.563,0,0,1,1.528,11.081q.572,9.17,1.146,19.493c.382,7.261.382,14.139.382,21.4V126.2c0,6.878,0,12.992-.382,18.342V158.68a34.772,34.772,0,0,0,.765,8.024c.765,3.439,2.292,6.114,4.2,6.877a7.632,7.632,0,0,0,5.731.765,11.53,11.53,0,0,0,5.732-3.439,11.121,11.121,0,0,0,3.439-5.731,41.9,41.9,0,0,0,.765-9.17c.382-4.585.382-9.935.765-16.049,0-6.115.382-12.992.382-20.253V76.131c0-6.877.382-12.992.382-18.341a12.4,12.4,0,0,1,3.439-9.17,16.518,16.518,0,0,1,8.407-4.585,56.129,56.129,0,0,1,12.237-1.529c4.585,0,9.17-.382,13.756-.382,8.786,0,15.284.382,19.493,1.528s6.878,4.2,7.261,9.17c.382,12.992,1.146,26.747,1.528,41.268a398.761,398.761,0,0,1-.382,42.8,229.893,229.893,0,0,1-5.731,40.5c-3.057,12.61-7.642,24.073-14.139,33.626a70.726,70.726,0,0,1-25.6,22.925q-16.049,8.6-40.122,8.023a62.478,62.478,0,0,1-31.333-8.023,73.365,73.365,0,0,1-21.4-20.634,98.879,98.879,0,0,1-13.373-29.423,243.475,243.475,0,0,1-6.877-34.007,282.912,282.912,0,0,1,0-65.722,149.045,149.045,0,0,1,4.2-23.691q2.293-10.317,4.585-12.61" transform="translate(-109.862 -15.837)" fill="#fff"/>
      <path id="Trazado_1793" data-name="Trazado 1793" d="M716.888,220.156a26.381,26.381,0,0,0-3.439-7.642c-1.911-3.056-3.822-6.115-6.115-9.17s-4.2-6.111-6.5-8.786c-1.915-2.676-3.826-4.968-5.354-7.261a9.1,9.1,0,0,1-2.293-4.2c0-1.147,0-2.292.382-2.675a8.633,8.633,0,0,1,1.911-1.911,27.886,27.886,0,0,0,3.822-3.439c1.532-1.91,3.061-3.82,5.354-6.877a25.218,25.218,0,0,0,4.585-10.316,105.366,105.366,0,0,0,1.911-12.992c.382-4.967.382-10.7.382-16.812-.382-6.113,0-13.373,0-21.016a204.672,204.672,0,0,0-1.146-22.162,70.89,70.89,0,0,0-4.968-18.723,42.74,42.74,0,0,0-9.935-14.52,39.838,39.838,0,0,0-16.812-9.17,106.125,106.125,0,0,0-12.992-2.292c-6.113-.382-12.609-1.146-19.869-1.528s-14.9-.382-22.545-.382a120.718,120.718,0,0,0-21.016,1.528,54.207,54.207,0,0,0-16.049,4.2c-4.2,1.911-6.5,4.585-6.878,7.642-.382,6.115-.765,14.138-1.146,24.837s-.382,22.162-.382,34.772,0,25.219.382,38.211c0,12.992.383,24.839.765,35.537s1.146,19.486,1.528,26.747c.383,6.877,1.147,11.081,1.911,11.846,1.146,1.529,3.82,2.675,8.023,3.057a69.778,69.778,0,0,0,13.373,1.146c4.97,0,9.554,0,14.14-.382a41.1,41.1,0,0,0,9.552-1.528c1.91-.765,3.056-2.294,3.82-4.968a32.573,32.573,0,0,0,1.147-8.786c0-3.056-.382-6.113-.382-9.17a33.094,33.094,0,0,1,.382-6.878l-.007-.012c.765-1.911,1.911-2.674,3.822-2.292,1.529.765,2.1.765,4.968,4.2a72.916,72.916,0,0,1,5.732,8.024c1.914,3.439,3.442,6.113,5.354,9.17s3.439,5.349,4.585,7.642,2.292,3.439,2.674,3.439a49.475,49.475,0,0,0,11.464,1.911c5.349.384,8.025.765,17.2.765a121.794,121.794,0,0,0,17.195-1.146c5.346-.765,8.789-1.911,10.7-3.058,1.146-.765,1.529-2.292.765-4.585M661.1,131.888a121.448,121.448,0,0,0-1.528,12.992c-.386,3.439-2.3,5.731-5.354,7.642a19.22,19.22,0,0,1-10.316,3.057,22.3,22.3,0,0,1-9.935-2.292,8.021,8.021,0,0,1-4.585-7.642l0-7.635c0-4.2-.382-9.166-.382-14.52V105.918c0-6.114.383-11.462.765-16.43a9.425,9.425,0,0,1,5.354-7.261,19.833,19.833,0,0,1,10.316-2.674,22.692,22.692,0,0,1,9.934,2.674,10.22,10.22,0,0,1,4.964,8.012q.572,9.171,1.146,16.049c.382,4.588.382,9.17.382,13.373s-.383,8.024-.765,12.227" transform="translate(-221.545 -14.672)" fill="#fff"/>
      <path id="Trazado_1794" data-name="Trazado 1794" d="M967.318,229.331a37.068,37.068,0,0,0-3.821-8.024,106.449,106.449,0,0,0-6.5-9.553c-2.675-3.056-4.968-6.113-7.261-9.17s-4.586-5.349-6.114-7.642c-1.909-2.292-2.674-3.82-2.674-4.585a3.228,3.228,0,0,1,0-2.674,5.091,5.091,0,0,1,1.911-2.292,35.6,35.6,0,0,0,3.821-3.821c1.532-1.529,3.061-4.2,5.354-7.26a28.467,28.467,0,0,0,4.585-11.081,147.729,147.729,0,0,0,1.527-31.711c0-6.5-.382-13.755-.382-22.162a154.174,154.174,0,0,0-1.527-23.691A75.609,75.609,0,0,0,950.5,65.792,45.03,45.03,0,0,0,939.42,50.508a42.114,42.114,0,0,0-17.958-9.17c-2.676-.764-7.261-1.146-13.757-1.911-6.5-.382-13.373-.765-21.015-1.146-7.642,0-15.668,0-23.691.382a186.926,186.926,0,0,0-22.545,2.292,58.526,58.526,0,0,0-16.812,4.968c-4.2,2.292-6.5,4.968-6.878,8.407-.382,6.113-.382,14.9-.382,26.365.383,11.464.383,23.691.765,37.065.382,12.992.763,26.747,1.528,40.5s1.146,26.366,1.911,37.829,1.529,21.015,2.292,28.658,1.91,11.846,2.674,12.61c1.146,1.529,3.822,2.675,8.407,3.057a87.742,87.742,0,0,0,14.52.765c4.968,0,9.934-.383,14.9-.765a37.791,37.791,0,0,0,10.316-1.911c1.909-.769,3.056-2.68,3.82-5.354a34.247,34.247,0,0,0,.765-9.17,83,83,0,0,0-.382-9.935,22.242,22.242,0,0,1,0-7.261h.009c.765-2.292,1.911-3.056,2.292-2.674,1.91.382,3.82,1.911,5.731,4.2a80.022,80.022,0,0,1,6.115,8.407c2.292,3.439,4.2,6.5,6.114,9.553s3.44,5.731,4.968,8.023c1.529,1.911,2.675,3.439,3.057,3.439,2.292.763,6.5,1.146,12.227,1.528h18.334a136.968,136.968,0,0,0,18.342-1.528q8.595-1.147,11.463-3.439c1.146-1.147,1.529-2.675.765-4.968M906.19,137.241c-.382,4.586-.765,9.172-1.146,14.139a9.576,9.576,0,0,1-5.354,8.407,28.821,28.821,0,0,1-11.081,3.439c-3.822,0-7.642-.382-10.7-2.293a9.357,9.357,0,0,1-4.968-8.023l0-8.8c0-4.585-.382-9.935-.765-15.666s-.765-11.851-.765-18.341,0-12.218.382-17.572a9.731,9.731,0,0,1,5.354-7.642,20.541,20.541,0,0,1,10.7-3.058,17.623,17.623,0,0,1,10.7,2.292,10.255,10.255,0,0,1,5.732,8.407c.763,6.5,1.145,12.226,1.528,17.2s.765,9.551.765,14.139,0,9.17-.382,13.373" transform="translate(-313.024 -14.678)" fill="#fff"/>
      <path id="Trazado_1795" data-name="Trazado 1795" d="M1082.679,73.229c.381-8.786,1.146-15.284,2.673-19.493s3.439-7.642,5.732-9.17a18.721,18.721,0,0,1,9.17-3.057c3.439-.382,8.024-.382,12.609-.382,8.023-.382,14.139-.382,18.722-.382s8.407,1.146,10.7,3.057c2.674,1.911,4.2,5.354,5.353,9.935a145.171,145.171,0,0,1,2.675,20.634c.382,8.407,1.147,17.959,1.528,28.279.382,10.7,1.147,21.4,1.527,32.48s.766,22.161,1.147,32.861.765,21.016,1.146,30.187c.382,10.7.382,19.1.382,24.837-.382,5.731-1.528,9.935-3.822,12.61s-5.731,4.2-10.7,4.968-11.461,1.146-20.251,1.911a67.363,67.363,0,0,1-17.96-.382,19.039,19.039,0,0,1-10.7-5.354,23.194,23.194,0,0,1-5.731-11.462,92.123,92.123,0,0,1-2.675-19.106c-.765-9.553-1.527-19.869-1.911-31.711-.382-11.464-.765-23.691-.765-35.537,0-12.227-.382-23.691,0-35.153s.765-21.78,1.146-30.569" transform="translate(-414.624 -15.623)" fill="#fff"/>
      <path id="Trazado_1796" data-name="Trazado 1796" d="M1230.656,43.431c1.528-.765,5.731-1.146,12.61-1.528s14.52-.765,23.691-.765,19.1-.382,29.422-.382,20.253,0,29.422.382,16.813.765,23.308,1.146a55.756,55.756,0,0,1,11.464,1.528,8.525,8.525,0,0,1,3.058,4.968,55.134,55.134,0,0,1,1.911,9.17,108.255,108.255,0,0,1,.765,11.463c0,4.2,0,8.023-.383,12.227a81.448,81.448,0,0,1-.765,10.316c-.382,3.058-.765,4.968-1.528,6.115-.765,1.911-2.674,3.057-6.5,3.439a108.679,108.679,0,0,1-11.846.765c-4.2,0-8.407,0-12.61-.381a51.656,51.656,0,0,0-8.786.381c-.765.382-1.528,2.293-1.528,6.5a100.225,100.225,0,0,0,0,15.284c0,6.115.382,13.373.765,21.4s.765,16.049,1.528,24.454,1.146,16.443,1.531,24.468.765,15.284,1.146,21.78V232.2a17.649,17.649,0,0,1-1.146,7.261c-1.529,1.528-4.968,2.292-10.317,2.674s-11.464.382-18.342.382-13.756-.382-21.015-.765c-6.878-.382-12.61-1.146-16.813-1.528-3.057-.382-4.966-3.822-6.114-10.316a140.947,140.947,0,0,1-1.911-24.454c0-9.935.382-20.253,1.147-31.711s1.528-21.78,2.292-31.711,1.528-18.341,1.911-25.219.765-10.7.382-11.846c-.382-1.528-2.292-2.674-5.354-2.674a74.513,74.513,0,0,0-9.553-.765,80.691,80.691,0,0,1-9.935-.765c-3.057-.382-5.354-1.146-6.5-2.292-.765-.765-1.528-2.674-1.528-5.731a86.4,86.4,0,0,1-.382-10.316c0-3.822.382-8.024.765-12.61s1.146-8.407,1.528-12.227c.765-3.822,1.528-6.878,2.292-9.553.382-2.674,1.146-4.2,1.911-4.585" transform="translate(-469.37 -15.627)" fill="#fff"/>
      <path id="Trazado_1797" data-name="Trazado 1797" d="M1637.2,97.381a88.594,88.594,0,0,0-6.877-23.308A43.528,43.528,0,0,0,1616.56,57.65a79.882,79.882,0,0,0-22.925-10.7,205.939,205.939,0,0,0-33.625-6.114L1560,40.82c-19.106-1.911-35.155-.765-47.764,3.057a62.271,62.271,0,0,0-30.95,21.4c-8.024,9.932-13.374,22.545-16.43,38.211a284.72,284.72,0,0,0-4.585,54.26c.377,18.341,2.292,33.623,5.731,45.471s9.17,21.4,16.431,28.279a60.474,60.474,0,0,0,28.278,14.52c11.463,3.057,25.219,4.586,40.885,4.968a180.3,180.3,0,0,0,39.739-1.911c10.707-1.91,19.5-6.109,25.994-12.223s11.463-14.9,14.52-25.984,5.349-25.6,6.114-43.942q1.147-21.779,1.146-38.975a184.312,184.312,0,0,0-1.911-30.568m-63.049,54.64c-.382,5.349-.763,10.316-1.146,15.666s-1.146,10.7-1.911,16.812c-.382,4.581-2.675,7.642-6.878,9.935a27.878,27.878,0,0,1-13.374,3.439,23.749,23.749,0,0,1-12.61-3.057,10.073,10.073,0,0,1-5.354-9.935h0c0-1.528,0-4.966-.382-9.935V156.222c0-7.259,0-14.52.382-22.162s.763-14.52,1.528-20.634a12.247,12.247,0,0,1,6.877-8.786,25.127,25.127,0,0,1,12.992-3.057,24.434,24.434,0,0,1,12.992,3.439c3.822,1.911,5.733,5.35,6.115,9.935.383,7.642.765,14.138.765,20.253.382,6.113,0,11.458,0,16.812" transform="translate(-559.903 -15.304)" fill="#fff"/>
    </g>
  </g>
</svg>
