<svg xmlns="http://www.w3.org/2000/svg" xmlns:xlink="http://www.w3.org/1999/xlink" width="183.955" height="185.861" viewBox="0 0 183.955 185.861">
  <defs>
    <clipPath id="clip-path">
      <rect id="Rectángulo_140" data-name="Rectángulo 140" width="141.466" height="144.78" fill="none"/>
    </clipPath>
  </defs>
  <g id="feel-the-vibes" transform="translate(51.885) rotate(21)">
    <g id="Grupo_402" data-name="Grupo 402" clip-path="url(#clip-path)">
      <path id="Trazado_1856" data-name="Trazado 1856" d="M70.611,3.461a70.611,70.611,0,1,0,70.611,70.611A70.691,70.691,0,0,0,70.611,3.461" transform="translate(0 0.097)"/>
      <path id="Trazado_1857" data-name="Trazado 1857" d="M70.848,0A70.611,70.611,0,1,0,141.46,70.611,70.691,70.691,0,0,0,70.848,0" transform="translate(0.007)"/>
      <path id="Trazado_1858" data-name="Trazado 1858" d="M70.806,1.5a69.069,69.069,0,1,0,69.069,69.069A69.148,69.148,0,0,0,70.806,1.5" transform="translate(0.049 0.042)" fill="#fff"/>
      <path id="Trazado_1859" data-name="Trazado 1859" d="M137.235,70.5A66.5,66.5,0,1,1,70.736,4a66.5,66.5,0,0,1,66.5,66.5" transform="translate(0.119 0.113)" fill="#c8b5f1"/>
      <path id="Trazado_1860" data-name="Trazado 1860" d="M15.7,47.077a1.377,1.377,0,0,1,1.235-.284,2.4,2.4,0,0,1,.668.248l2.232,1.17a1.621,1.621,0,0,1,.819.788,1.893,1.893,0,0,1,.053,1.132,1.778,1.778,0,0,1-.486.964,1.585,1.585,0,0,1-1,.374l-1.542.1a1.027,1.027,0,0,0-.564.147,1.094,1.094,0,0,0-.264.611l-.543,2.553,4.751,2.506.1-.484a1.786,1.786,0,0,0,.032-.648,1.917,1.917,0,0,0-.26-.656l-.5-.933a3.691,3.691,0,0,1-.382-.9,1.677,1.677,0,0,1-.01-.763,1.191,1.191,0,0,1,.451-.744,1.024,1.024,0,0,1,.86-.151,1.9,1.9,0,0,1,.469.18l3.641,1.949q1.171.649.958,1.645a1.441,1.441,0,0,1-1.115,1.1l-.965.275a1.242,1.242,0,0,0-.531.234.862.862,0,0,0-.2.438l-.157.74,3.577,1.881a1.316,1.316,0,0,0,.4.138,1,1,0,0,0,.623-.04,2.537,2.537,0,0,0,.591-.395,2.393,2.393,0,0,1,.45-.3.586.586,0,0,1,.367-.029.656.656,0,0,1,.552.545,3.207,3.207,0,0,1-.077,1.238l-1.363,6.407a1.719,1.719,0,0,1-.455.944.611.611,0,0,1-.725.086.75.75,0,0,1-.329-.27,2.574,2.574,0,0,1-.23-.489,2.966,2.966,0,0,0-.39-.8,2.09,2.09,0,0,0-.781-.593L15.326,61.5a2.1,2.1,0,0,0-.59-.232,1.293,1.293,0,0,0-.531-.02,2.148,2.148,0,0,0-.491.176,1.057,1.057,0,0,1-.584.115,1.339,1.339,0,0,1-.27-.111.736.736,0,0,1-.374-.559,3.037,3.037,0,0,1,.082-1.076L14.98,48.458a2.392,2.392,0,0,1,.721-1.381" transform="translate(0.351 1.315)" fill="#060606"/>
      <path id="Trazado_1861" data-name="Trazado 1861" d="M30.026,26.662a1.374,1.374,0,0,1,1.236.276,2.389,2.389,0,0,1,.5.512l1.511,2.016a1.766,1.766,0,0,1,.45,1.021,1.607,1.607,0,0,1-.395.964,1.562,1.562,0,0,1-.813.609,1.7,1.7,0,0,1-1.04-.124l-1.434-.575a1.3,1.3,0,0,0-.687-.133,1.13,1.13,0,0,0-.554.464l-1.669,2.173,2.889,3.865.7-.911a.915.915,0,0,0,.1-.552l-.081-1.181a4.053,4.053,0,0,1,.02-.84,1.459,1.459,0,0,1,.305-.654,1.169,1.169,0,0,1,.665-.461.791.791,0,0,1,.69.152,1.429,1.429,0,0,1,.217.232l2.226,3.059a1.475,1.475,0,0,1,.346.941,1.364,1.364,0,0,1-.283.819,1.17,1.17,0,0,1-1.269.408l-.994-.2a.6.6,0,0,0-.66.217l-.62.807,3.45,4.593,1.4-1.822a1.879,1.879,0,0,0,.377-.813,3.1,3.1,0,0,0-.047-1.073l-.413-2.292a3.084,3.084,0,0,1-.022-1.021,2.011,2.011,0,0,1,.408-.854,1.6,1.6,0,0,1,.779-.586.9.9,0,0,1,.844.187,1.953,1.953,0,0,1,.345.364l1.63,2.206a2.469,2.469,0,0,1,.588,1.505,2.709,2.709,0,0,1-.658,1.5l-7.584,9.875a1.636,1.636,0,0,1-.662.561.555.555,0,0,1-.576-.064.857.857,0,0,1-.221-.269.873.873,0,0,1-.146-.539q.02-.282.031-.339a3.513,3.513,0,0,0-.011-.865,2.217,2.217,0,0,0-.444-.9l-6.968-9.4a2.136,2.136,0,0,0-.433-.465,1.305,1.305,0,0,0-.47-.246,2.165,2.165,0,0,0-.519-.052,1.057,1.057,0,0,1-.577-.148,1.421,1.421,0,0,1-.2-.216.741.741,0,0,1-.1-.667,3.115,3.115,0,0,1,.539-.936L28.78,27.6a2.391,2.391,0,0,1,1.246-.937" transform="translate(0.595 0.749)" fill="#060606"/>
      <path id="Trazado_1862" data-name="Trazado 1862" d="M52.58,13.724a1.38,1.38,0,0,1,.991.79,2.387,2.387,0,0,1,.22.678l.475,2.476a1.764,1.764,0,0,1-.043,1.115,1.6,1.6,0,0,1-.777.693,1.561,1.561,0,0,1-1,.191,1.7,1.7,0,0,1-.88-.568L50.53,17.952a1.3,1.3,0,0,0-.559-.421,1.134,1.134,0,0,0-.7.174l-2.453,1.221.9,4.741,1.028-.512a.9.9,0,0,0,.328-.454l.445-1.1a4.006,4.006,0,0,1,.387-.747,1.456,1.456,0,0,1,.561-.453,1.169,1.169,0,0,1,.8-.121.794.794,0,0,1,.554.439,1.492,1.492,0,0,1,.093.3l.659,3.725a1.484,1.484,0,0,1-.1,1,1.382,1.382,0,0,1-.614.613,1.173,1.173,0,0,1-1.319-.19l-.805-.62a.6.6,0,0,0-.689-.094l-.91.453,1.087,5.639,2.056-1.023a1.883,1.883,0,0,0,.7-.565,3.073,3.073,0,0,0,.428-.986l.633-2.239a3.112,3.112,0,0,1,.428-.927,2,2,0,0,1,.743-.588,1.586,1.586,0,0,1,.957-.186.9.9,0,0,1,.677.539,1.926,1.926,0,0,1,.15.479l.5,2.7a2.483,2.483,0,0,1-.131,1.611,2.729,2.729,0,0,1-1.251,1.06L43.96,36.968a1.636,1.636,0,0,1-.841.215.556.556,0,0,1-.489-.31.844.844,0,0,1-.081-.338.88.88,0,0,1,.106-.549c.094-.162.152-.26.176-.291a3.473,3.473,0,0,0,.369-.781,2.236,2.236,0,0,0,0-1l-2.141-11.5a2.1,2.1,0,0,0-.186-.608,1.31,1.31,0,0,0-.314-.427,2.194,2.194,0,0,0-.443-.275,1.063,1.063,0,0,1-.454-.387,1.373,1.373,0,0,1-.081-.28.739.739,0,0,1,.206-.642,3.061,3.061,0,0,1,.893-.606L51.05,14.019a2.392,2.392,0,0,1,1.53-.3" transform="translate(1.113 0.385)" fill="#060606"/>
      <path id="Trazado_1863" data-name="Trazado 1863" d="M76.114,22.479a1.021,1.021,0,0,1,.393.842,2.012,2.012,0,0,1-.071.523l-.811,3.068a2.891,2.891,0,0,1-.927,1.581,3.084,3.084,0,0,1-1.806.473l-12.266.2A1.636,1.636,0,0,1,59.772,29a.56.56,0,0,1-.307-.491.876.876,0,0,1,.073-.34.786.786,0,0,1,.255-.356,4.5,4.5,0,0,1,.387-.281,3.47,3.47,0,0,0,.67-.547,2.215,2.215,0,0,0,.429-.907l3-11.3a2.228,2.228,0,0,0,.094-.654,1.132,1.132,0,0,0-.1-.482,4.9,4.9,0,0,0-.255-.452,1.064,1.064,0,0,1-.244-.544,1.416,1.416,0,0,1,.048-.288.738.738,0,0,1,.448-.49,3.055,3.055,0,0,1,1.081-.161l6.134-.1a1.746,1.746,0,0,1,.85.156.533.533,0,0,1,.308.478,1.044,1.044,0,0,1-.073.34,1.031,1.031,0,0,1-.216.33,1.23,1.23,0,0,1-.258.213.828.828,0,0,0-.168.12,2.7,2.7,0,0,0-.67.533,2.352,2.352,0,0,0-.43.894L67.656,26.545l1.618-.027a2.345,2.345,0,0,0,1.028-.225,2.852,2.852,0,0,0,.887-.8l1.766-2.169a3.827,3.827,0,0,1,.939-.85A2.191,2.191,0,0,1,75,22.2a1.755,1.755,0,0,1,1.113.282" transform="translate(1.673 0.326)" fill="#060606"/>
      <path id="Trazado_1864" data-name="Trazado 1864" d="M113.409,32.288a3.445,3.445,0,0,1-.685.625L110.932,34.2a3.045,3.045,0,0,1-1.39.639,1.688,1.688,0,0,1-1.187-.428,1.389,1.389,0,0,1-.585-.884,3.272,3.272,0,0,1,.132-1.254l.305-1.117a1.689,1.689,0,0,0,.067-.808,1.189,1.189,0,0,0-.465-.593l-.474-.368-9.779,7.176a2.819,2.819,0,0,0-.431.426,1.3,1.3,0,0,0-.248.469,2.136,2.136,0,0,0-.057.518,1.2,1.2,0,0,1-.183.618,1.46,1.46,0,0,1-.2.175.867.867,0,0,1-.705.078,2.911,2.911,0,0,1-.951-.541l-4.844-3.765a1.642,1.642,0,0,1-.557-.665.578.578,0,0,1,.083-.6.7.7,0,0,1,.254-.2.933.933,0,0,1,.412-.126,4.694,4.694,0,0,1,.524.028,2.892,2.892,0,0,0,.836-.011,2.361,2.361,0,0,0,.894-.429l9.758-7.193-.474-.368a2.1,2.1,0,0,0-.854-.433,2.646,2.646,0,0,0-1.034.054l-1.338.317a5.244,5.244,0,0,1-1.565.121,2.246,2.246,0,0,1-1.175-.466,1.34,1.34,0,0,1-.55-.825,1.114,1.114,0,0,1,.261-.888,2.357,2.357,0,0,1,.414-.405L97.82,21a3.919,3.919,0,0,1,1.052-.588,1.457,1.457,0,0,1,.924.025,4.293,4.293,0,0,1,1.185.707L113,30.479q1.132.882.412,1.808" transform="translate(2.514 0.572)" fill="#060606"/>
      <path id="Trazado_1865" data-name="Trazado 1865" d="M127.034,59.756a.541.541,0,0,1-.325.452,1.007,1.007,0,0,1-.73-.034,1.217,1.217,0,0,1-.291-.166.785.785,0,0,0-.172-.114,2.656,2.656,0,0,0-.735-.438,2.318,2.318,0,0,0-.988-.085l-11.642,1.167a2.223,2.223,0,0,0-.646.144,1.12,1.12,0,0,0-.427.267q-.136.153-.335.429c-.01.023-.053.092-.13.206a.606.606,0,0,1-.284.239,1.527,1.527,0,0,1-.262.048.823.823,0,0,1-.656-.273,3.173,3.173,0,0,1-.538-.965l-2.263-5.7a1.643,1.643,0,0,1-.144-.855.561.561,0,0,1,.351-.463.868.868,0,0,1,.344-.051,1.018,1.018,0,0,1,.434.137,2.98,2.98,0,0,1,.365.248,2.555,2.555,0,0,0,.747.434,2.488,2.488,0,0,0,1.025.07l4.514-.443-1.7-4.295-4.514.444a2.226,2.226,0,0,0-.645.143,1.118,1.118,0,0,0-.428.268,5.35,5.35,0,0,0-.336.429,2.062,2.062,0,0,1-.129.2.613.613,0,0,1-.284.24,1.7,1.7,0,0,1-.262.048.825.825,0,0,1-.656-.273,3.181,3.181,0,0,1-.538-.966l-2.263-5.7a1.634,1.634,0,0,1-.144-.855.56.56,0,0,1,.351-.463.887.887,0,0,1,.344-.052,1.038,1.038,0,0,1,.433.137,2.943,2.943,0,0,1,.365.249,2.568,2.568,0,0,0,.748.433,2.5,2.5,0,0,0,1.025.071L117.253,42.9a2.227,2.227,0,0,0,.645-.144,1.142,1.142,0,0,0,.416-.263c.1-.1.21-.237.333-.4a1.851,1.851,0,0,1,.186-.27.627.627,0,0,1,.251-.184,1.572,1.572,0,0,1,.261-.047.741.741,0,0,1,.623.258,3.168,3.168,0,0,1,.538.966l2.264,5.7a1.649,1.649,0,0,1,.142.855.537.537,0,0,1-.325.452,1.009,1.009,0,0,1-.344.053,1.051,1.051,0,0,1-.386-.086,1.223,1.223,0,0,1-.29-.166.811.811,0,0,0-.172-.114,2.722,2.722,0,0,0-.736-.439,2.337,2.337,0,0,0-.988-.084l-4.432.439,1.706,4.293,4.43-.438a2.208,2.208,0,0,0,.646-.145,1.114,1.114,0,0,0,.414-.262,5.005,5.005,0,0,0,.334-.4,1.906,1.906,0,0,1,.186-.27.631.631,0,0,1,.251-.183,1.55,1.55,0,0,1,.261-.048.743.743,0,0,1,.623.259,3.174,3.174,0,0,1,.538.965l2.263,5.7a1.645,1.645,0,0,1,.143.856" transform="translate(2.879 1.17)" fill="#060606"/>
      <path id="Trazado_1866" data-name="Trazado 1866" d="M123.987,86.98a1.376,1.376,0,0,1-1.214.362,2.393,2.393,0,0,1-.682-.206l-2.3-1.025a1.763,1.763,0,0,1-.89-.672,1.6,1.6,0,0,1-.124-1.033,1.551,1.551,0,0,1,.413-.928,1.707,1.707,0,0,1,.969-.4l1.533-.2a1.28,1.28,0,0,0,.665-.219,1.133,1.133,0,0,0,.258-.673l.4-2.712L118.6,77.309l-.167,1.136a.9.9,0,0,0,.185.528l.646.992a4.022,4.022,0,0,1,.392.744,1.451,1.451,0,0,1,.052.72,1.165,1.165,0,0,1-.358.726.79.79,0,0,1-.675.2,1.442,1.442,0,0,1-.3-.1l-3.433-1.587a1.491,1.491,0,0,1-.762-.653,1.373,1.373,0,0,1-.151-.853,1.171,1.171,0,0,1,.908-.975l.97-.305a.6.6,0,0,0,.471-.512l.148-1.007-5.251-2.33-.334,2.272a1.878,1.878,0,0,0,.066.894,3.075,3.075,0,0,0,.565.914l1.475,1.8a3.086,3.086,0,0,1,.517.88,2,2,0,0,1,.059.946,1.585,1.585,0,0,1-.395.891.9.9,0,0,1-.829.248,1.911,1.911,0,0,1-.478-.15l-2.5-1.133a2.48,2.48,0,0,1-1.247-1.028,2.719,2.719,0,0,1-.155-1.632l1.813-12.318a1.646,1.646,0,0,1,.3-.812.561.561,0,0,1,.535-.225,1.07,1.07,0,0,1,.714.527c.08.171.126.273.14.311a3.477,3.477,0,0,0,.43.75,2.22,2.22,0,0,0,.827.57l10.663,4.816a2.2,2.2,0,0,0,.6.194,1.31,1.31,0,0,0,.529-.015,2.165,2.165,0,0,0,.479-.206,1.073,1.073,0,0,1,.577-.153,1.511,1.511,0,0,1,.276.094.744.744,0,0,1,.41.536,3.1,3.1,0,0,1-.014,1.08l-1.688,11.466a2.39,2.39,0,0,1-.631,1.424" transform="translate(3.038 1.845)" fill="#060606"/>
      <path id="Trazado_1867" data-name="Trazado 1867" d="M96.534,116.009a2.784,2.784,0,0,1,.045-1.457,2.522,2.522,0,0,1,.672-1.114,2.445,2.445,0,0,1,2.107-.655l-2.67-12.031A7.05,7.05,0,0,1,96.46,98.6a2.016,2.016,0,0,1,.632-1.31,1.66,1.66,0,0,1,1.308-.5,3.456,3.456,0,0,1,1.675.773l9.854,7.288a1.765,1.765,0,0,0,.728.356,5.591,5.591,0,0,0,.829.081,2.682,2.682,0,0,1,.525.026.58.58,0,0,1,.318.185q.757.614-.177,1.49l-4.756,4.468a1.448,1.448,0,0,1-.835.445.748.748,0,0,1-.666-.289.785.785,0,0,1-.2-.348,2.7,2.7,0,0,1-.049-.491,2.747,2.747,0,0,0-.073-.612,1.176,1.176,0,0,0-.3-.508,1.118,1.118,0,0,0-.2-.173l-4.887-3.754,1.686,6.867a7.647,7.647,0,0,1,.305,2.955,3.46,3.46,0,0,1-1.126,2.006,2.648,2.648,0,0,1-1.871.809,2.536,2.536,0,0,1-1.836-.907,3.106,3.106,0,0,1-.813-1.457" transform="translate(2.714 2.723)" fill="#060606"/>
      <path id="Trazado_1868" data-name="Trazado 1868" d="M82.014,125.036a.532.532,0,0,1-.448-.35,1.032,1.032,0,0,1-.043-.345,1.058,1.058,0,0,1,.1-.382,1.256,1.256,0,0,1,.174-.287.754.754,0,0,0,.118-.169,2.635,2.635,0,0,0,.458-.724,2.344,2.344,0,0,0,.111-.986l-.912-11.649a2.164,2.164,0,0,0-.126-.649,1.314,1.314,0,0,0-.265-.46,2.235,2.235,0,0,0-.41-.322,1.061,1.061,0,0,1-.409-.433,1.472,1.472,0,0,1-.041-.263.743.743,0,0,1,.265-.639,3.146,3.146,0,0,1,.98-.513l5.759-2.114a1.633,1.633,0,0,1,.86-.12.557.557,0,0,1,.452.362,1.065,1.065,0,0,1-.122.879c-.111.152-.18.242-.207.27a3.445,3.445,0,0,0-.452.736,2.22,2.22,0,0,0-.107,1l.887,11.658a2.177,2.177,0,0,0,.127.649,1.105,1.105,0,0,0,.252.422,4.8,4.8,0,0,0,.391.343,1.073,1.073,0,0,1,.408.434,1.407,1.407,0,0,1,.05.288.74.74,0,0,1-.262.611,3.054,3.054,0,0,1-.967.508L82.869,124.9a1.752,1.752,0,0,1-.855.133" transform="translate(2.26 2.943)" fill="#060606"/>
      <path id="Trazado_1869" data-name="Trazado 1869" d="M56.974,124.9a4.578,4.578,0,0,1-1.895-1.608,3.465,3.465,0,0,1-.529-2.173,4.112,4.112,0,0,1,.277-1.236q.953-2.571,4.6-3a4.04,4.04,0,0,1-1.889-1.359,3.105,3.105,0,0,1-.569-2.15,5.278,5.278,0,0,1,.308-1.338,4.809,4.809,0,0,1,2.529-2.834,10.137,10.137,0,0,1,4.981-.606l10.826.815a1.619,1.619,0,0,1,.833.246.557.557,0,0,1,.263.517,1.087,1.087,0,0,1-.476.75c-.163.092-.263.145-.3.16a3.5,3.5,0,0,0-.717.482,2.226,2.226,0,0,0-.511.865L70.685,123.4a2.212,2.212,0,0,0-.154.643,1.129,1.129,0,0,0,.056.488,4.816,4.816,0,0,0,.213.474,1.054,1.054,0,0,1,.192.564,1.364,1.364,0,0,1-.073.283.74.74,0,0,1-.491.447,3.059,3.059,0,0,1-1.091.062l-9.318-.7a8.169,8.169,0,0,1-3.044-.766m4.311-2.855q-.1,1.353,1.433,1.469l1.172.088,1.746-4.764-1.145-.085a2.621,2.621,0,0,0-1.771.4,3.822,3.822,0,0,0-1.171,1.835,3.572,3.572,0,0,0-.263,1.054m2.472-7.431q-.1,1.407,1.507,1.527l1.3.1,1.87-5.016-1.327-.1a2.728,2.728,0,0,0-1.838.425,4.024,4.024,0,0,0-1.245,1.934,4.1,4.1,0,0,0-.267,1.132" transform="translate(1.535 3.054)" fill="#060606"/>
      <path id="Trazado_1870" data-name="Trazado 1870" d="M31.144,112.254A1.379,1.379,0,0,1,31.291,111a2.352,2.352,0,0,1,.459-.545l1.851-1.712a1.769,1.769,0,0,1,.969-.553,1.609,1.609,0,0,1,1,.294,1.557,1.557,0,0,1,.69.746,1.712,1.712,0,0,1-.016,1.048l-.425,1.486a1.312,1.312,0,0,0-.063.7,1.137,1.137,0,0,0,.518.5l2.334,1.437,3.548-3.272-.978-.6a.91.91,0,0,0-.559-.038l-1.167.2a4.089,4.089,0,0,1-.837.067,1.468,1.468,0,0,1-.683-.236,1.174,1.174,0,0,1-.525-.615.794.794,0,0,1,.079-.7,1.5,1.5,0,0,1,.209-.24l2.814-2.528a1.488,1.488,0,0,1,.9-.441,1.371,1.371,0,0,1,.844.2,1.169,1.169,0,0,1,.536,1.219l-.1,1.011a.6.6,0,0,0,.283.634l.867.534,4.213-3.9-1.956-1.2a1.864,1.864,0,0,0-.847-.292,3.048,3.048,0,0,0-1.063.157l-2.237.646a3.1,3.1,0,0,1-1.014.127,2,2,0,0,1-.891-.32,1.582,1.582,0,0,1-.662-.715.9.9,0,0,1,.1-.858,1.942,1.942,0,0,1,.327-.381L41.833,101a2.488,2.488,0,0,1,1.437-.74,2.724,2.724,0,0,1,1.562.5l10.6,6.529a1.649,1.649,0,0,1,.626.6.558.558,0,0,1,0,.58.865.865,0,0,1-.246.249.882.882,0,0,1-.521.2c-.187.006-.3.008-.34.005a3.511,3.511,0,0,0-.858.1,2.226,2.226,0,0,0-.85.534l-8.632,7.9a2.1,2.1,0,0,0-.417.478,1.309,1.309,0,0,0-.2.492,2.2,2.2,0,0,0,0,.521,1.065,1.065,0,0,1-.087.59,1.364,1.364,0,0,1-.194.217.742.742,0,0,1-.654.166,3.092,3.092,0,0,1-.986-.44L32.2,113.4a2.386,2.386,0,0,1-1.059-1.142" transform="translate(0.874 2.821)" fill="#060606"/>
      <path id="Trazado_1871" data-name="Trazado 1871" d="M18.869,95.979a10.7,10.7,0,0,1-.382-2.726L17.748,93a5.4,5.4,0,0,1-1.12-.519,2.238,2.238,0,0,1-.643-.692,1.616,1.616,0,0,1-.289-.987.935.935,0,0,1,.484-.73,1.4,1.4,0,0,1,.418-.167l3.64-.964a2,2,0,0,1,1-.078,1.151,1.151,0,0,1,.654.561,1.541,1.541,0,0,1,.229,1.039,12.163,12.163,0,0,1-.524,1.906,7.106,7.106,0,0,0-.381,2.186,3.01,3.01,0,0,0,.438,1.525,1.337,1.337,0,0,0,.83.622,1.24,1.24,0,0,0,.993-.155,1.529,1.529,0,0,0,.659-1.144,15.994,15.994,0,0,0,.112-2.372q-.025-1.579.062-2.678a6.118,6.118,0,0,1,.58-2.139,3.986,3.986,0,0,1,1.556-1.7,5.248,5.248,0,0,1,1.514-.629,5.356,5.356,0,0,1,3.974.394,8,8,0,0,1,3.133,3A9.468,9.468,0,0,1,36.3,92.079a8.7,8.7,0,0,1,.12,2.873l1.161.387a5.412,5.412,0,0,1,1.2.518,2.2,2.2,0,0,1,.661.7,1.461,1.461,0,0,1,.257.96.956.956,0,0,1-.48.713,1.635,1.635,0,0,1-.521.2l-3.98.959a1.9,1.9,0,0,1-1.124.021,1.475,1.475,0,0,1-.738-.648,1.606,1.606,0,0,1-.215-1.141,9.175,9.175,0,0,1,.62-1.873,6.253,6.253,0,0,0,.6-2.2,3.054,3.054,0,0,0-.5-1.7,2.177,2.177,0,0,0-.76-.8,1.213,1.213,0,0,0-.892-.077,1.1,1.1,0,0,0-.36.161,1.513,1.513,0,0,0-.66,1.115,12.8,12.8,0,0,0-.09,2.235,24.66,24.66,0,0,1-.092,2.605,6.1,6.1,0,0,1-.6,2.076,4.137,4.137,0,0,1-1.608,1.717,5.817,5.817,0,0,1-1.682.7,5.185,5.185,0,0,1-3.646-.383,7,7,0,0,1-2.979-2.73,9.856,9.856,0,0,1-1.123-2.483" transform="translate(0.442 2.411)" fill="#060606"/>
      <path id="Trazado_1872" data-name="Trazado 1872" d="M54.744,59.117c-.275.4-.537.787-.826,1.211-.082-.143-.148-.259-.214-.374a3.706,3.706,0,0,0-1.779-1.642,2.311,2.311,0,0,0-1.619-.1,3.844,3.844,0,0,0-2.283,1.858,6.79,6.79,0,0,0-.795,2.454,15.75,15.75,0,0,0,.006,5c.07.405.173.8.259,1.2.026.122.047.246.073.373-.322.153-.632.286-.929.445a6.093,6.093,0,0,0-2.984,3.608,4,4,0,0,0,.114,2.751,9.5,9.5,0,0,0,1.619,2.632A15.817,15.817,0,0,0,49,81.67c.545.356,1.126.656,1.7.986.118.486.242.98.359,1.475a13.01,13.01,0,0,0,.685,2.007,16.227,16.227,0,0,0,2.361,3.97c.6.748,1.3,1.423,1.958,2.126a1.641,1.641,0,0,0,.3.243,13.371,13.371,0,0,0,4.9,2.167,13.027,13.027,0,0,0,3.474.126,15.11,15.11,0,0,0,3.256-.593,12.891,12.891,0,0,0,5.712-3.7l.253-.28c.443.089.869.191,1.3.259a6.067,6.067,0,0,0,3.906-.67,8.463,8.463,0,0,0,3.492-3.611c.253-.473.445-.978.656-1.472a.424.424,0,0,1,.284-.285,4,4,0,0,0,2.416-2.012c.028-.048.061-.094.1-.157a1.2,1.2,0,0,1,.2.059,11.5,11.5,0,0,0,3.423,1.11,7.258,7.258,0,0,0,3.614-.192,3.043,3.043,0,0,0,1.746-1.467c.167-.313.335-.625.476-.949a3.343,3.343,0,0,0,.04-2.368,8.165,8.165,0,0,0-2-3.32c-.168-.174-.319-.362-.488-.534a.42.42,0,0,1-.1-.527,8.958,8.958,0,0,0,.667-2.93,7.9,7.9,0,0,0-1.43-5.391A6.4,6.4,0,0,0,88.7,63.257a6.149,6.149,0,0,0-1.691-.127c-.123,0-.248,0-.415,0a3.677,3.677,0,0,1,.036-.562,21.086,21.086,0,0,0,.444-4.1,11.9,11.9,0,0,0-.3-2.742,22.277,22.277,0,0,0-1.064-3.8,13.45,13.45,0,0,0-1.721-3.021,5.744,5.744,0,0,0-1.448-1.3,51.9,51.9,0,0,0-5.116-2.954c-.909-.462-1.8-.958-2.7-1.434-.212-.112-.435-.2-.67-.312a1.761,1.761,0,0,1,.017-.252,1.427,1.427,0,0,0-.241-1.174,4.592,4.592,0,0,0-.817-.853,1.35,1.35,0,0,0-1.413-.117,2,2,0,0,0-.863.671c-.075.1-.157.2-.214.269-.675-.081-1.321-.146-1.964-.239A4.038,4.038,0,0,0,67,41.293c-.427.1-.854.2-1.28.313A24.612,24.612,0,0,0,62.3,42.624a14.9,14.9,0,0,0-4.929,3.345,8.3,8.3,0,0,0-1.97,3.241c-.545,1.615-.924,3.272-1.331,4.922-.231.936-.49,1.864-.735,2.8-.036.137-.056.278-.092.414a.424.424,0,0,0,.092.471.091.091,0,0,1,.022.036,1.847,1.847,0,0,0,1.319,1.212c.012,0,.023.017.071.057m8.015,7.368a.251.251,0,0,0,.323-.146c.135-.233.282-.461.4-.7A12.7,12.7,0,0,1,66.9,61.293a6.808,6.808,0,0,1,3.12-1.465,4.633,4.633,0,0,1,2.629.245,6.714,6.714,0,0,1,2.535,1.886,6.235,6.235,0,0,1,1.466,4.331,10.507,10.507,0,0,1-1.154,4.75c-.416.805-.906,1.57-1.353,2.359a.744.744,0,0,1-.514.391,3.883,3.883,0,0,0-1.8,1.082,1.483,1.483,0,0,0-.253.338c-.029.052,0,.14.01.265.222-.152.395-.271.569-.389a4.121,4.121,0,0,1,1.426-.644,6.745,6.745,0,0,1,5.6,1.2,8.708,8.708,0,0,1,2.78,3.437,7.025,7.025,0,0,1,.628,4.017,7.714,7.714,0,0,1-1.369,3.443,7.34,7.34,0,0,1-2.151,2.091,7,7,0,0,1-4.361.981,3.027,3.027,0,0,1-.308-.064c.124-.211.228-.376.324-.547.27-.482.546-.962.8-1.452a.627.627,0,0,0,.081-.607,3.831,3.831,0,0,0-.4.418,18.982,18.982,0,0,1-2.318,2.6,16.5,16.5,0,0,1-3.3,2.532,11.956,11.956,0,0,1-11.073.409,11.286,11.286,0,0,1-3.749-3.019,12.882,12.882,0,0,1-2.01-3.192,13.993,13.993,0,0,1-1.043-3.095c-.028-.148-.038-.3-.065-.511l.76.253a5.322,5.322,0,0,0,.5,1.914,12.593,12.593,0,0,0,2.024,3.08,11.623,11.623,0,0,0,2.549,2.237,9.335,9.335,0,0,0,4.954,1.457,8.426,8.426,0,0,0,4.135-.966,16.89,16.89,0,0,0,3.05-2.158A17.759,17.759,0,0,0,73.69,83.92a14.233,14.233,0,0,0,1.134-2.607c.069-.226.115-.458.19-.761L76.65,82.1c.008-.066.022-.1.013-.118a2.145,2.145,0,0,0-.1-.235,7.479,7.479,0,0,0-1.985-2.412,4.6,4.6,0,0,0-1.609-.84.7.7,0,0,0-.522-.019,9.254,9.254,0,0,1,1.9,1.475c-.386.172-.735.322-1.08.482a31.824,31.824,0,0,1-6.313,2.38,24.037,24.037,0,0,1-3.35.555,29.063,29.063,0,0,1-5.014.019,28.511,28.511,0,0,1-4.706-.671,12.744,12.744,0,0,1-2.523-.881c-.631-.318-1.533-.708-2.137-1.075a10.812,10.812,0,0,1-2.118-1.846,12.018,12.018,0,0,1-2.171-2.873,3.25,3.25,0,0,1-.288-2.665,5.491,5.491,0,0,1,3.767-3.619,10.55,10.55,0,0,1,3.951-.436c.349.024.7.036,1.034.053a.666.666,0,0,1,.038.113c0,.084.007.17,0,.255a3.59,3.59,0,0,0,.71,2.143.6.6,0,0,0,.576.345,1.736,1.736,0,0,0-.019-.332c-.08-.3-.172-.6-.266-.9a3.18,3.18,0,0,1-.023-2.006.988.988,0,0,1,1-.774,2.466,2.466,0,0,1,1.528.437c.513.324.987.711,1.481,1.067.391.281.777.571,1.183.828a2.555,2.555,0,0,0,1.2.4,4.748,4.748,0,0,0,2.205-.349c.222-.094.441-.193.664-.286a1.613,1.613,0,0,1,1.58.057,2.619,2.619,0,0,1,1.183,1.648,2.108,2.108,0,0,1-1.223,2.521c-.07.032-.138.07-.236.119.069.038.106.078.135.072a2.275,2.275,0,0,0,1.854-1.44c.053-.142.127-.276.182-.393,1.222.541,2.272,1.323,3.44,1.887l.062-.074-.832-.936c.211-.289.426-.57.624-.861a11.855,11.855,0,0,0,2.2-5.374A4.855,4.855,0,0,0,71.773,64a2.2,2.2,0,0,0-2.444-.863,3.551,3.551,0,0,0-1.352.694,7.893,7.893,0,0,0-1.818,2.122c-.606,1.037-1.149,2.112-1.74,3.208a3.706,3.706,0,0,0-1.788.6c-.085.051-.176.093-.263.14a2.665,2.665,0,0,1-1.606.294,3.042,3.042,0,0,1-1.67-.812,8.42,8.42,0,0,0,.489-.84,8.763,8.763,0,0,0,.757-5.383,4.145,4.145,0,0,0-1.312-2.376,1.779,1.779,0,0,0-1.78-.4,2.789,2.789,0,0,0-1,.544,6.1,6.1,0,0,0-1.686,2.315,18.255,18.255,0,0,0-1.2,4.421c-.069.414-.087.837-.132,1.288l-.848-.135c.045-.3.081-.558.124-.819.109-.671.181-1.351.34-2.01.218-.908.482-1.807.765-2.7.21-.661.463-1.31.729-1.951a6.341,6.341,0,0,1,1.511-2.035,2.945,2.945,0,0,1,3.259-.671,4.769,4.769,0,0,1,2.253,1.873,7.668,7.668,0,0,1,1.08,2.529,7.331,7.331,0,0,1,.288,3.192.969.969,0,0,0,.028.248m8.669-23.964a13.132,13.132,0,0,1,2.093.982,12.019,12.019,0,0,1,3.584,3.755,7.083,7.083,0,0,1,1.11,3.18,33.575,33.575,0,0,1,.075,3.952c-.028.694-.113,1.385-.135,2.079-.025.779.007,1.561-.009,2.34-.014.715-.059,1.428-.09,2.168l-1.712-.707c.028-.07.04-.109.058-.146a2.544,2.544,0,0,0,.174-2.017.938.938,0,0,0-.613-.652c-.632-.206-1.258-.429-1.885-.653-.251-.089-.495-.2-.732-.3a3.594,3.594,0,0,0-.032-.573c-.151-.692-.317-1.381-.484-2.07a1.824,1.824,0,0,0-.84-1.132,7.739,7.739,0,0,0-2.932-1.195c-1.258-.2-2.519-.4-3.784-.56a9.9,9.9,0,0,0-3.3.069,3.07,3.07,0,0,0-1.579.681,3.9,3.9,0,0,0-1.418,2.531,7.732,7.732,0,0,0-.808.123.688.688,0,0,0-.377.235,2.284,2.284,0,0,0-.448,1.265c0,.122-.011.246-.016.37l-1.108.059a4.032,4.032,0,0,0,.282-1.629,14.147,14.147,0,0,1,.388-2.989c.212-.853.431-1.7.634-2.559A5.7,5.7,0,0,1,59.154,46.3a18.411,18.411,0,0,1,1.977-1.61,14.517,14.517,0,0,1,3.554-1.981c.838-.306,1.666-.642,2.5-.96a1.75,1.75,0,0,1,.876-.11,16.657,16.657,0,0,1,2.725.653.916.916,0,0,1,.165.1l-.287.213c-.648.482-1.3.958-1.942,1.449a3.534,3.534,0,0,0-1.346,1.816,12.835,12.835,0,0,0-.381,1.7,15.932,15.932,0,0,1-.548,2.838,1.4,1.4,0,0,0-.359-.015c-.077.016-.139.112-.208.172.054.06.1.143.165.171a1.06,1.06,0,0,0,.289.037l.335.034c.09-.522.2-1.048.266-1.579a6.076,6.076,0,0,1,.356-1.394c.226-.611.446-1.226.627-1.851a2.822,2.822,0,0,1,.954-1.475c.832-.66,1.68-1.3,2.557-1.978m8.753,32.773a11.226,11.226,0,0,0,.74-4.431,14.021,14.021,0,0,0-.279-2.831.437.437,0,0,1,.073-.4c.12-.157.222-.331.353-.479a9.183,9.183,0,0,1,2.718-2.205,11.126,11.126,0,0,1,3.042-1.042,4.186,4.186,0,0,1,3.029.533,6.038,6.038,0,0,1,3.077,5.089,10.43,10.43,0,0,1-1.615,6.032,12.4,12.4,0,0,1-3.2,3.488,7.818,7.818,0,0,1-1.668,1.013c-.361.151-.351.14-.614-.132a5.72,5.72,0,0,0-.7-.606.37.37,0,0,0-.4-.075c.182.259.373.49.518.747a1.786,1.786,0,0,1,.043,2,4.435,4.435,0,0,1-1.114,1.212c-.144.1-.307.182-.537.316.016-.223.035-.358.035-.492,0-.5.019-.992-.022-1.485a6.905,6.905,0,0,0-.694-2.44.968.968,0,0,1,.033-.878c.182.013.336.032.49.033a2.892,2.892,0,0,0,.509-.024A6.332,6.332,0,0,0,89,74.669a8.226,8.226,0,0,0,.61-5.025,3.072,3.072,0,0,0-.173-.569c-.041-.1-.118-.2-.278-.119a.4.4,0,0,0-.028.152,7.877,7.877,0,0,1,.053,2.034,7.209,7.209,0,0,1-1.374,3.96,5.213,5.213,0,0,1-2.338,1.85c-.841.32-1.733.506-2.637.761a3.848,3.848,0,0,1-.112-1.207,2.432,2.432,0,0,1,.249-.116,3.433,3.433,0,0,0,1.289-.8,9.133,9.133,0,0,0,1.567-1.9,4.964,4.964,0,0,0,.715-1.853,3.343,3.343,0,0,0-.587-2.7c-.12-.153-.253-.3-.39-.455a3,3,0,0,1,.236-.208,4.9,4.9,0,0,1,2.07-.837,8.412,8.412,0,0,1,1.909-.035,1.1,1.1,0,0,0,.588-.035.773.773,0,0,0-.479-.424,4.266,4.266,0,0,0-2.493-.316,4.89,4.89,0,0,0-1.947.805,6.546,6.546,0,0,0-2.3,2.568,11.925,11.925,0,0,0-.862,2.618,15.433,15.433,0,0,0-.344,4.014c0,.133,0,.265,0,.423l-1.768-1.962M78.4,61.087c.052-.486.129-.988.157-1.492.088-1.527.163-3.055.234-4.582a27.582,27.582,0,0,0-.066-4.458,7.382,7.382,0,0,0-.452-1.982,11.278,11.278,0,0,0-2.343-3.616c-.184-.189-.362-.384-.543-.576a1.282,1.282,0,0,1,.484.145c1.012.51,2.015,1.036,3.035,1.531a16.391,16.391,0,0,1,3.528,2.421,3.346,3.346,0,0,1,1,1.451c.264.762.531,1.525.756,2.3a30.1,30.1,0,0,1,.755,3.961c.1.7.2,1.4.245,2.107a19.222,19.222,0,0,1-.17,3.773c-.069.546-.167,1.088-.249,1.619l-1.222.508c-.853-.549-1.685-1.112-2.546-1.632s-1.744-.991-2.606-1.477m-10,27.976a8.686,8.686,0,0,1-1.251.845,9.169,9.169,0,0,1-2.977,1.213,8.229,8.229,0,0,1-5.605-.807,10.261,10.261,0,0,1-2.584-1.987,6.864,6.864,0,0,1-1.045-1.267,7.022,7.022,0,0,1,5.993-.727,4.548,4.548,0,0,0-.811,2.465c-.012.158-.005.291.168.337s.241-.075.279-.2a1.585,1.585,0,0,1,.638-.773,5.27,5.27,0,0,1,2.155-.957,4.934,4.934,0,0,1,3.067.4,5.212,5.212,0,0,1,1.974,1.458M58.166,54.882c.4,0,.763-.007,1.13,0,.808.02,1.619.006,2.422.081,1.707.16,3.41.362,5.1.688,1.071.207,2.144.41,3.209.645a46.7,46.7,0,0,1,4.61,1.342c.35.116.7.234,1.038.376a.441.441,0,0,1,.247.255,3.753,3.753,0,0,1-.175,1.76c-.363-.131-.7-.248-1.027-.368a35.585,35.585,0,0,0-4.432-1.325c-1.2-.27-2.407-.538-3.614-.787s-2.44-.525-3.67-.708c-1.345-.2-2.7-.306-4.056-.452-.335-.036-.671-.065-1.012-.1a1.69,1.69,0,0,1,.234-1.412M48.29,68.914a.6.6,0,0,1-.068-.108,1.28,1.28,0,0,1-.04-.165,18.485,18.485,0,0,1-.219-4.995,10.643,10.643,0,0,1,.293-1.972,4.418,4.418,0,0,1,1.455-2.347,1.946,1.946,0,0,1,2.023-.417,4.6,4.6,0,0,1,1.971,1.784c-.1.218-.194.395-.272.576a14.879,14.879,0,0,0-.918,2.87.868.868,0,0,1-.163.462c-.917-1.622-1.839-2.637-2.633-2.885.085.477.564.664.726,1.011a4.531,4.531,0,0,0-.5.77,5.451,5.451,0,0,0-.373,1.3,11.674,11.674,0,0,0,.026,2.841c.04.335.076.67.117,1.034l-1.42.241m16.806.349a11.363,11.363,0,0,1,1.58-3.06,6.818,6.818,0,0,1,1.575-1.653,3.407,3.407,0,0,1,1.339-.619,1.475,1.475,0,0,1,1.564.518,4,4,0,0,1,.817,3.438,11.539,11.539,0,0,1-.924,2.995c-.41.9-.908,1.761-1.369,2.638-.016.031-.064.045-.11.076l-.5-.412c.349-.639.7-1.238,1-1.856A8.537,8.537,0,0,0,71.05,68.4a4.173,4.173,0,0,0-.232-2.048,1.883,1.883,0,0,0-3.186-.508.546.546,0,0,1,.45.554,2.067,2.067,0,0,1-.812,1.9c-.474.346-.69.3-1.091-.13-.015-.016-.051-.015-.114-.031-.179.418-.361.842-.552,1.29l-.416-.172m-11.3-.99c.043-.35.057-.62.112-.881a20.507,20.507,0,0,1,.924-3.224,7.9,7.9,0,0,1,.962-1.841,3.647,3.647,0,0,1,1.509-1.2,1.114,1.114,0,0,1,1.3.2,3.89,3.89,0,0,1,1.076,1.506,5.825,5.825,0,0,1,.333,2.425,12.433,12.433,0,0,1-.942,3.736,2.257,2.257,0,0,1-.168.284l-.5-.443c.025-.077.031-.1.041-.131.034-.078.07-.155.1-.233a7.863,7.863,0,0,0,.69-3.935,2.968,2.968,0,0,0-.686-1.793,1.363,1.363,0,0,0-2.222.235.962.962,0,0,1,.6,1.02,2.522,2.522,0,0,1-.491,1.379.816.816,0,0,1-1.185.189c-.045-.031-.094-.057-.157-.1-.037.093-.075.168-.1.248-.173.6-.34,1.2-.516,1.8a.718.718,0,0,1-.141.294c-.145.15-.316.275-.549.471M62.317,43.3c.008.019.017.037.026.057l-.388.245a22.67,22.67,0,0,0-2.6,1.839,6.317,6.317,0,0,0-2.186,3.365c-.234.978-.473,1.957-.653,2.946-.159.877-.249,1.767-.356,2.655-.077.629-.133,1.262-.2,1.913-.282.041-.6.076-.921.137s-.638.147-1,.232c.051-.191.094-.34.132-.489.155-.619.325-1.234.461-1.857.321-1.468.68-2.926,1.109-4.368A8.639,8.639,0,0,1,58.676,45.5a15.881,15.881,0,0,1,3.335-2.1,3.131,3.131,0,0,1,.305-.1m21.194,5.928.053-.03c.071.079.148.153.21.238a12.09,12.09,0,0,1,1.675,3.185,20.263,20.263,0,0,1,.637,2.419,15.954,15.954,0,0,1,.232,5.363c-.095.757-.124,1.522-.228,2.277a1.2,1.2,0,0,1-.335.654,1.079,1.079,0,0,1-.648.2c.019-.122.028-.2.044-.285.093-.458.206-.911.277-1.373a11.705,11.705,0,0,0,.176-2.791c-.062-.705-.124-1.411-.213-2.113-.13-1.025-.3-2.046-.424-3.071a12.294,12.294,0,0,0-1.011-3.539c-.167-.37-.3-.756-.446-1.134M82.767,75.7c-.046-.28-.035-.5.209-.657a.885.885,0,0,0,.174-.186,5.679,5.679,0,0,0,1.277-3.1,2.17,2.17,0,0,0-.1-1.133.631.631,0,0,1,.079-.677c.184-.251.363-.506.553-.752a1.258,1.258,0,0,1,.221-.182,3.276,3.276,0,0,1,.408,3.4,7.079,7.079,0,0,1-1.822,2.535,4.645,4.645,0,0,1-1,.743m-32-12.523a.782.782,0,0,1,.136.121,4.416,4.416,0,0,1,.632,1.333.594.594,0,0,1-.036.319,6.55,6.55,0,0,0-.307,3.458c.016.075.017.154.03.271l-.79-.052a9.43,9.43,0,0,1-.313-2.674c.026-.466.059-.931.12-1.393a2.924,2.924,0,0,1,.527-1.383m5.809-6.093-1.538,1.47c-.627-.355-.723-.446-.885-.9a4.8,4.8,0,0,1,2.423-.571m38.2,20.6c-.33-.436-.658-.915-1.034-1.352s-.8-.829-1.211-1.25l.206-.288a8.407,8.407,0,0,1,2.04,2.89M63.212,65.209l-.1-.032.074-.253.085.024c-.021.087-.04.175-.061.261M56.5,71.841c-.05-.1-.1-.2-.143-.3a.287.287,0,0,1,.212-.425.657.657,0,0,1,.6.13c.153.122.287.268.465.439a1.876,1.876,0,0,0-.617,2.6,2.77,2.77,0,0,0,1.85,1.379,3.551,3.551,0,0,0,1.557.046,1.845,1.845,0,0,0,1.448-2.469,4.375,4.375,0,0,0-.381-.674,2.262,2.262,0,0,1,1.271-.186.789.789,0,0,1,.61.964,1.287,1.287,0,0,1-.329.632c-.05.05-.1.18-.069.216a.31.31,0,0,0,.239.126,2.559,2.559,0,0,0,.808-.218,1.184,1.184,0,0,0,.165-1.9,1.724,1.724,0,0,0-1.461-.546,14.808,14.808,0,0,0-1.664.325,5.708,5.708,0,0,1-1.586.241,1.111,1.111,0,0,1-.858-.391c-.22-.258-.438-.518-.643-.789a2.723,2.723,0,0,0-1.631-1.073.8.8,0,0,0-1.006.938,1.18,1.18,0,0,0,1.022.992c.035,0,.074-.031.143-.062m4.1,1a3.422,3.422,0,0,1,.182.4.9.9,0,0,1-.446,1.223,1.854,1.854,0,0,1-1.485.085.973.973,0,0,1-.7-.69,1.5,1.5,0,0,1,.334-1.25,2.219,2.219,0,0,0,2.11.234M58.23,74.809a1.334,1.334,0,0,1-.449-2.206,1.842,1.842,0,0,0,.449,2.206m1.647-23.08a.389.389,0,0,1-.372.375c-.136-.011-.186-.108-.188-.233a.355.355,0,0,1,.312-.38.262.262,0,0,1,.249.239M58.7,53.238a.364.364,0,0,1,.2-.535c.066-.008.189.044.2.093a.432.432,0,0,1-.019.307,1.054,1.054,0,0,1-.261.231.69.69,0,0,1-.129-.1m14.986,2.586a.339.339,0,0,1,.266.33.226.226,0,0,1-.233.241.308.308,0,0,1-.265-.322.253.253,0,0,1,.232-.249M60.711,50.849c.041.141-.175.344-.353.332a.237.237,0,0,1-.17-.139c-.044-.16.133-.377.358-.4.041.048.139.115.165.2m.952-.594c.069.012.173.093.175.145a.294.294,0,0,1-.111.237.361.361,0,0,1-.5-.1.356.356,0,0,1,.434-.278m12.148,4.99c0,.133-.029.257-.185.285-.137.024-.272-.132-.277-.305a.244.244,0,0,1,.215-.262.262.262,0,0,1,.247.283m-2.47-3.433a.239.239,0,0,1-.006-.192.172.172,0,0,1,.138-.072c.212,0,.338.1.376.37a.378.378,0,0,1-.508-.106m-4.206-.983a.282.282,0,0,1-.121-.191c-.005-.035.083-.106.141-.124.181-.059.27-.005.424.226a.326.326,0,0,1-.443.089m2.63.192c0,.136-.09.192-.217.2s-.253-.04-.276-.19a.187.187,0,0,1,.169-.224c.159-.011.325.1.324.218m3.566,3.09c.008-.118.051-.239.187-.227s.192.136.185.275c-.007.122-.051.214-.181.234a.249.249,0,0,1-.191-.282m-.881-2.038c.132-.02.246.115.254.269.007.125-.065.174-.181.163a.285.285,0,0,1-.263-.32c.046-.029.113-.1.19-.113m.667.719c.124-.021.245.135.223.3a.231.231,0,0,1-.144.161c-.117.021-.234-.147-.234-.34.038-.031.092-.106.155-.117m-4.392-1.852c-.354.095-.37.089-.54-.2.415-.1.476-.079.54.2m-5.806-.766c.123-.015.235.007.252.153a.171.171,0,0,1-.162.206c-.152.023-.3-.044-.309-.149s.084-.193.22-.21m1.192.043a.206.206,0,0,1,.111.151.2.2,0,0,1-.11.147.24.24,0,0,1-.344-.13.231.231,0,0,1,.343-.169m6.272,1.074a.217.217,0,0,1,.138-.131c.142-.026.315.111.3.231-.008.053-.077.1-.1.131-.188,0-.357-.12-.328-.231M64.9,50.606a.183.183,0,0,1-.107-.144.2.2,0,0,1,.126-.133c.147-.034.271.012.371.258a2.169,2.169,0,0,1-.391.019m-6.468,3.4c-.008,0-.039-.056-.032-.063a.365.365,0,0,1,.084-.06c.013.023.028.045.049.082a.55.55,0,0,1-.1.04m1.7,1.207a.448.448,0,0,1,.391.467.38.38,0,0,1-.411.332.4.4,0,0,1-.393-.408.42.42,0,0,1,.413-.391M67.2,56.22a.373.373,0,0,1,.385.4.391.391,0,0,1-.385.369.385.385,0,0,1-.412-.381.411.411,0,0,1,.412-.392m7.3,2.061a.388.388,0,0,1,.422.327.349.349,0,0,1-.328.368.362.362,0,0,1-.393-.352.32.32,0,0,1,.3-.343m-1.7-.633a.4.4,0,0,1,.4.356.35.35,0,0,1-.358.343.335.335,0,0,1-.341-.355.31.31,0,0,1,.3-.344m-4.087-.619a.31.31,0,0,1,.324-.315.316.316,0,1,1,.013.628.34.34,0,0,1-.337-.314m2.28.042a.319.319,0,0,1,.313.329.349.349,0,0,1-.332.32.319.319,0,0,1-.332-.308.337.337,0,0,1,.352-.34m-5.544-1.115a.318.318,0,0,1,.341.3.3.3,0,0,1-.329.3.319.319,0,0,1-.321-.322.3.3,0,0,1,.308-.281m-3.207-.221a.281.281,0,0,1-.273.3.264.264,0,0,1-.272-.258.283.283,0,0,1,.271-.307.28.28,0,0,1,.275.262m1.472.071a.228.228,0,0,1,.225.251.241.241,0,0,1-.25.236.232.232,0,0,1-.257-.22.3.3,0,0,1,.282-.267" transform="translate(1.223 1.136)" fill="#060606"/>
    </g>
  </g>
</svg>
