<svg xmlns="http://www.w3.org/2000/svg" xmlns:xlink="http://www.w3.org/1999/xlink" width="176.136" height="171.831" viewBox="0 0 176.136 171.831">
  <defs>
    <clipPath id="clip-path">
      <rect id="Rectángulo_141" data-name="Rectángulo 141" width="147.94" height="142.196" fill="none"/>
    </clipPath>
  </defs>
  <g id="heart" transform="translate(31.987) rotate(13)">
    <g id="Grupo_404" data-name="Grupo 404" transform="translate(0 0)" clip-path="url(#clip-path)">
      <path id="Trazado_1873" data-name="Trazado 1873" d="M108.956,6.236c-15.092,0-28.507,9.566-34.986,24.378C67.492,15.8,54.077,6.236,38.985,6.236,17.489,6.236,0,25.826,0,49.905,0,84.56,27.686,119.27,72.253,140.49l1.717.817,1.719-.818c44.566-21.219,72.252-55.929,72.252-90.584,0-24.08-17.489-43.669-38.985-43.669" transform="translate(0 0.889)" fill="#060606"/>
      <path id="Trazado_1874" data-name="Trazado 1874" d="M108.956,0C93.865,0,80.449,9.566,73.97,24.378,67.492,9.566,54.077,0,38.985,0,17.489,0,0,19.59,0,43.669c0,34.655,27.686,69.365,72.253,90.585l1.717.817,1.719-.818c44.566-21.219,72.252-55.929,72.252-90.584C147.941,19.59,130.453,0,108.956,0" transform="translate(0 0)" fill="#060606"/>
      <path id="Trazado_1875" data-name="Trazado 1875" d="M108.671,2.107C92.3,2.107,78.4,14.258,73.685,30.98,68.971,14.258,55.069,2.107,38.7,2.107,18.463,2.107,2,20.672,2,43.491c0,33.765,27.186,67.684,70.948,88.521l.737.351.737-.351c43.762-20.837,70.948-54.756,70.948-88.521,0-22.82-16.464-41.384-36.7-41.384M73.685,43.491Z" transform="translate(0.285 0.3)" fill="#fff"/>
      <path id="Trazado_1876" data-name="Trazado 1876" d="M108.458,3.688c-19.322,0-34.986,17.76-34.986,39.671,0-21.91-15.663-39.671-34.985-39.671S3.5,21.448,3.5,43.359c0,33.913,27.393,66.7,69.971,86.973,42.579-20.273,69.972-53.06,69.972-86.973,0-21.91-15.664-39.671-34.986-39.671" transform="translate(0.499 0.526)" fill="#cc622b"/>
      <path id="Trazado_1877" data-name="Trazado 1877" d="M63.945,52.349A20.417,20.417,0,1,1,43.527,31.931,20.418,20.418,0,0,1,63.945,52.349" transform="translate(3.294 4.551)" fill="#e7e5de"/>
      <path id="Trazado_1878" data-name="Trazado 1878" d="M111.471,52.349A20.417,20.417,0,1,1,91.053,31.931a20.418,20.418,0,0,1,20.418,20.418" transform="translate(10.067 4.551)" fill="#e7e5de"/>
      <path id="Trazado_1879" data-name="Trazado 1879" d="M66.241,84.93A12.02,12.02,0,0,1,54.234,72.923a1.742,1.742,0,1,1,3.485,0,8.522,8.522,0,1,0,17.044,0,1.742,1.742,0,1,1,3.485,0A12.02,12.02,0,0,1,66.241,84.93" transform="translate(7.729 10.145)" fill="#060606"/>
      <path id="Trazado_1880" data-name="Trazado 1880" d="M40.992,31.932V72.767a20.417,20.417,0,0,0,0-40.835" transform="translate(5.842 4.551)" fill="#060606"/>
      <path id="Trazado_1881" data-name="Trazado 1881" d="M88.518,31.932V72.767a20.417,20.417,0,0,0,0-40.835" transform="translate(12.616 4.551)" fill="#060606"/>
    </g>
  </g>
</svg>
