<svg id="like" xmlns="http://www.w3.org/2000/svg" xmlns:xlink="http://www.w3.org/1999/xlink" width="471.879" height="229.145" viewBox="0 0 471.879 229.145">
  <defs>
    <clipPath id="clip-path">
      <rect id="Rectángulo_131" data-name="Rectángulo 131" width="471.879" height="229.145" fill="none"/>
    </clipPath>
  </defs>
  <g id="Grupo_388" data-name="Grupo 388" clip-path="url(#clip-path)">
    <path id="Trazado_1780" data-name="Trazado 1780" d="M471.689,167.476a114.73,114.73,0,0,0-1.675-14.756c-.089-.491-.187-.98-.29-1.438-1.189-5.362-4.347-19.607-18.284-28.9a36.971,36.971,0,0,0-3.364-1.992,81.12,81.12,0,0,0-.489-9.557,37.128,37.128,0,0,0,11.872-11.3c.8-1.2,1.459-2.336,1.992-3.322a36.829,36.829,0,0,0,6.934-15.348,130.126,130.126,0,0,0,2.138-16.035l0-.067c.024-.355.043-.713.057-1.07l0-.071a89.387,89.387,0,0,0-1.308-18.928c-.091-.514-.192-1.022-.313-1.57-3.439-15.464-12.454-26.992-25.392-32.482-8.062-3.487-16.507-4.752-24.47-5.748l-.22-.027a200.741,200.741,0,0,0-24.3-1.406h-.007c-7.745,0-15.062,0-23.282.433-2.99.158-5.99.246-8.9.332l-.077,0c-3.706.109-7.207.212-10.831.449a82.154,82.154,0,0,0-18.069,2.877,48.96,48.96,0,0,0-8.482-3.726,37.237,37.237,0,0,0-5.617-1.393c-2.775-.462-5.972-.92-9.52-1.364-.835-.1-1.685-.181-2.519-.226A130.332,130.332,0,0,0,293.528.807c-4.254.1-8.549.416-12.78.934A83.213,83.213,0,0,0,266,4.4c-.109.03-.227.062-.368.1-.819.234-2.066.59-3.6,1.126q-2.3-.757-4.748-1.354a72.818,72.818,0,0,0-20.668-2.734,100.829,100.829,0,0,0-17.03,1.052,58.33,58.33,0,0,0-16.6,4.344,49.952,49.952,0,0,0-19.841-4.973c-4.859-.414-9.928-.414-16.246-.414h-9.577a50.183,50.183,0,0,0-26.006,7.262,37.213,37.213,0,0,0-5.05,3.674,52.525,52.525,0,0,0-5.522,5.554A42.583,42.583,0,0,0,102.188,4.751,61.658,61.658,0,0,0,83.165.492c-4.777-.4-9.624-.555-14.42-.47A148.451,148.451,0,0,0,53.569.587C49.5.992,46.147,1.407,43.164,1.78A72.11,72.11,0,0,0,31.146,4.087a37.009,37.009,0,0,0-6.513,2.524C15.7,11.085,4.6,20.877,2.475,42.129c-.4,4.051-.814,9.215-1.251,15.786l-.006.095C.793,64.785.41,71.545.383,79.653,0,87.879,0,95.658,0,103.884c0,8.046,0,16.36.384,24.951.024,8.309.385,15.492.82,23.336.424,7.636.816,13.766,1.2,18.742.446,5.8.922,10.149,1.5,13.671,2.6,16.581,14.591,29.952,32.071,35.776.463.155.928.3,1.368.428a122.98,122.98,0,0,0,22.978,4.378l.081.007c.178.016.354.031.531.044a213.584,213.584,0,0,0,23.737.489,207.745,207.745,0,0,0,23.855-1.393l.317-.038c6.59-.824,12.494-1.668,17.54-2.51,2.206-.368,4.437-.789,6.669-1.323a52.862,52.862,0,0,0,14.642,5.284,83.608,83.608,0,0,0,22.154,1.505c5.712-.029,11.474-.333,17.147-.9A50.026,50.026,0,0,0,202.92,222.3q1.323.452,2.673.828a87.234,87.234,0,0,0,14.311,3.044,131.636,131.636,0,0,0,14.739,1.058,127.064,127.064,0,0,0,14.46-.541l.586-.061a91.693,91.693,0,0,0,9.463-1.6c.388-.083.736-.16,1.031-.217a44.916,44.916,0,0,0,7.771-2.036q.4.113.8.217c.222.058.443.114.665.167A97.3,97.3,0,0,0,279.29,225a37.26,37.26,0,0,0,4.809.328c.281.011.97.059,1.515.1,1.755.121,4.158.285,7,.285H301.4a37.048,37.048,0,0,0,4.59-.286c.456-.057,1.263-.113,2.06-.17,1.847-.132,4.131-.295,6.789-.7,2.055-.287,4.117-.642,6.163-1.063a67.016,67.016,0,0,0,8.669,2.48l.1.022c.248.054.5.106.8.166a125.806,125.806,0,0,0,16.778,2.135c5.165.425,11.4.852,18.686.852,6.079,0,12.968,0,20.219-.454,2.44-.153,5.188-.24,7.884-.326,3.284-.1,6.681-.213,10.22-.449,6.6-.44,11.922-.829,16.26-1.191,1.012-.084,2.032-.211,3.017-.376,3.087-.513,5.607-.822,8.054-1.122l.872-.107a46.879,46.879,0,0,0,20.75-7.249A37.019,37.019,0,0,0,468.669,197.4a65.63,65.63,0,0,0,2.511-13.232,86.472,86.472,0,0,0,.508-16.692" transform="translate(0 0)" fill="#161615"/>
    <path id="Trazado_1781" data-name="Trazado 1781" d="M440.4,160.228a89.7,89.7,0,0,0-1.321-11.783q-.044-.245-.1-.488c-1.143-5.155-2.888-10.382-7.874-13.706a12.35,12.35,0,0,0-1.376-.794,27.225,27.225,0,0,0-10.156-2.762,89.6,89.6,0,0,0-10.628-.425l-.649-.007a14.7,14.7,0,0,0,5.846-6.718,26.912,26.912,0,0,0,2.581-10.786,56.348,56.348,0,0,0-.483-9.225,44.8,44.8,0,0,0-2.087-8.868,25.922,25.922,0,0,0-4.335-7.919,12.5,12.5,0,0,0-.872-.977c.265-.028.531-.06.8-.092,3.08-.385,6.264-.784,8.787-1.2a26.523,26.523,0,0,0,9.208-3.181,12.28,12.28,0,0,0,4.512-4.08,22.268,22.268,0,0,0,1.589-2.911c.067-.142.152-.321.231-.481a12.33,12.33,0,0,0,3.448-6.4,105.313,105.313,0,0,0,1.732-12.986c.009-.134.016-.268.022-.4a64.728,64.728,0,0,0-.945-13.694c-.031-.176-.066-.351-.1-.525C436.512,32.1,432.8,27,427.2,24.65c-5.095-2.223-11.338-3.137-17.822-3.947l-.073-.009a175.909,175.909,0,0,0-21.327-1.233h-.068c-7.412,0-14.412,0-21.98.4-3.281.173-6.43.265-9.474.355-3.539.1-6.883.2-10.121.416-9.364.527-16.157,2.392-21.372,5.867q-.153.1-.3.208a30.95,30.95,0,0,0-2.853,2.3c-1.048-3.675-3.939-7.978-11.328-10.44a12.382,12.382,0,0,0-1.874-.465c-2.449-.408-5.315-.818-8.518-1.218q-.421-.053-.845-.076a105.459,105.459,0,0,0-11.462-.013,106.3,106.3,0,0,0-11.127.819,58.493,58.493,0,0,0-10.8,1.911l-.109.03c-3.238.925-7.033,2.341-9.843,5.261-2.813-2.435-6.623-4.2-11.539-5.34a48.368,48.368,0,0,0-14.538-1.928,76.2,76.2,0,0,0-13.788.856,33.806,33.806,0,0,0-12.548,3.752c-3.978,1.789-6.16,5.021-7.6,8.643a20.816,20.816,0,0,0-5.784-7.491L190,23.22a25.021,25.021,0,0,0-14.977-5.288c-3.955-.382-8.554-.382-14.779-.382h-9.577a25.525,25.525,0,0,0-13.232,3.7,12.377,12.377,0,0,0-1.681,1.223,27.879,27.879,0,0,0-8.208,12.291,63.977,63.977,0,0,0-3.294,17.611c0,.045-.006.091-.008.136-.1,1.861-.238,3.775-.38,5.8-.363,5.174-.774,11.029-.786,17.907-.194,4.354-.287,8.662-.387,13.218-.091,4.207-.186,8.559-.367,12.917-.289,6.945-.365,13.689-.385,20.262a37.025,37.025,0,0,0-10.373-.3c-4.064.405-7.706.772-11.038,1.141-1.136.107-2.281.189-3.427.243a58.613,58.613,0,0,1-1.334-10.259c0-.048,0-.1-.006-.144-.361-6.862-.359-14.092,0-22.1l.052-1.162c.361-7.994.736-16.26,1.448-25.159.8-9.977.8-19.985.8-30.575q0-.106,0-.213c0-5.3-3-11.966-11.386-14.97a37.038,37.038,0,0,0-11.939-2.683,120.145,120.145,0,0,0-12.434-.409,127.609,127.609,0,0,0-12.952.443c-3.9.39-7.04.781-10.073,1.159h0a47.377,47.377,0,0,0-8.093,1.534A12.367,12.367,0,0,0,29.013,20c-7.443,3.727-8.327,12.581-8.66,15.915-.375,3.759-.762,8.641-1.183,14.975-.41,6.542-.779,13.053-.788,20.715C18,79.448,18,87.113,18,95.221c0,7.94,0,16.147.382,24.366.008,7.938.36,14.914.782,22.552.414,7.454.795,13.414,1.164,18.22.39,5.067.8,8.887,1.26,11.672.681,4.449,3.623,12.306,15.544,16.278q.221.074.445.139a98.191,98.191,0,0,0,18.359,3.5l.2.017c4.769.365,9.585.549,14.393.549q3.518,0,7.023-.131h.3a183.185,183.185,0,0,0,21.16-1.229l.1-.012c6.255-.782,11.823-1.578,16.546-2.366,6.595-1.1,11.107-2.355,14.377-5.412.222.3.437.61.67.9a12.357,12.357,0,0,0,1.1,1.216,28.341,28.341,0,0,0,14.112,7.409,58.671,58.671,0,0,0,11.78,1.194q2.281,0,4.564-.178h0a156.035,156.035,0,0,0,15.841-.809,25.376,25.376,0,0,0,15.354-6.686,12.337,12.337,0,0,0,1.629-1.86c.121.131.236.266.364.394s.236.232.358.344a23.724,23.724,0,0,0,9.961,5.479,62.587,62.587,0,0,0,10.579,2.275,106.879,106.879,0,0,0,12.068.865q1.015.02,2.036.02c3.223,0,6.462-.152,9.656-.455l.2-.02a68.072,68.072,0,0,0,7.012-1.206c.816-.174,1.52-.325,2.06-.414a18.5,18.5,0,0,0,10.914-5.828,18.434,18.434,0,0,0,8.036,4.459c.067.017.133.035.2.05A72.409,72.409,0,0,0,275.9,191.9a12.348,12.348,0,0,0,1.639.11c.868,0,1.89.07,3.073.152,1.561.107,3.329.229,5.333.229h8.786a12.371,12.371,0,0,0,1.533-.1c1.094-.137,2.194-.216,3.36-.3,1.588-.113,3.227-.23,4.95-.5a72.682,72.682,0,0,0,7.19-1.356l.106-.027a18.506,18.506,0,0,0,4.872-1.972c2.59,2.353,6.032,3.855,11.616,5.1.1.022.2.043.3.063a101.2,101.2,0,0,0,13.75,1.731c4.748.395,10.458.793,16.958.793,5.717,0,12.2,0,18.676-.406,2.823-.177,5.768-.27,8.615-.361,3.083-.1,6.272-.2,9.392-.407,6.45-.43,11.641-.81,15.869-1.162q.5-.042,1-.125c3.606-.6,6.52-.956,9.091-1.271l1.215-.149a22.092,22.092,0,0,0,10.029-3.442,12.328,12.328,0,0,0,5.121-6.827,40.886,40.886,0,0,0,1.606-8.757,61.719,61.719,0,0,0,.419-12.685m-133.246-49.3c.168-.139.329-.285.5-.425-.01.274-.021.545-.031.819-.157-.13-.307-.266-.466-.393" transform="translate(-6.901 -6.135)" fill="#161615"/>
    <path id="Trazado_1782" data-name="Trazado 1782" d="M93.4,41.752c0,10.316,0,20.253-.765,29.8S91.492,89.9,91.11,98.3s-.382,16.049,0,23.308a70.929,70.929,0,0,0,3.439,19.1c.765,1.911,2.292,3.058,5.354,3.058a86.544,86.544,0,0,0,9.553-.382c3.439-.382,7.261-.765,11.081-1.146a24.871,24.871,0,0,1,9.553.765,15.655,15.655,0,0,1,2.674,4.968,62.3,62.3,0,0,1,2.674,10.7,35.008,35.008,0,0,1-.382,12.61,18.413,18.413,0,0,1-5.731,10.7q-1.147,1.147-8.024,2.292t-16.049,2.293A170.209,170.209,0,0,1,85,187.718a175.884,175.884,0,0,1-20.253-.382A85.7,85.7,0,0,1,48.7,184.279c-4.585-1.528-6.877-3.82-7.26-6.5-.382-2.292-.765-5.732-1.147-10.7S39.527,156,39.145,149.126s-.765-14.14-.765-22.162C38,118.94,38,110.915,38,102.891s0-15.666.382-23.308c0-7.642.382-14.139.765-20.252.382-5.732.765-10.7,1.146-14.52S41.438,39.079,42.2,38.7a34.833,34.833,0,0,1,6.113-1.146c3.057-.382,6.115-.765,9.935-1.146s7.642-.382,11.846-.382a107.445,107.445,0,0,1,11.463.382,24.8,24.8,0,0,1,8.406,1.911q3.44,1.146,3.439,3.439" transform="translate(-14.57 -13.804)" fill="#fff"/>
    <path id="Trazado_1783" data-name="Trazado 1783" d="M208.853,61.825A51.707,51.707,0,0,1,211.534,47.3a15.547,15.547,0,0,1,4.585-6.877A13.2,13.2,0,0,1,223,38.514h9.541c6.114,0,10.7,0,14.139.382A12.616,12.616,0,0,1,254.7,41.57c1.911,1.528,3.057,4.2,3.822,7.642a112.749,112.749,0,0,1,1.528,15.666c0,6.5.382,13.373.382,21.4s.382,16.049.382,24.454v47.381c0,8.023,0,14.52-.382,18.723a17.2,17.2,0,0,1-3.057,9.17,12.976,12.976,0,0,1-8.024,3.439,142.831,142.831,0,0,1-15.284.765,46.405,46.405,0,0,1-13.373-.765,16.11,16.11,0,0,1-8.023-4.2,18.642,18.642,0,0,1-3.821-8.786,113.266,113.266,0,0,1-1.528-14.52c-.382-7.261-.765-14.9-.765-23.691s0-17.572.382-26.747.382-17.959.765-26.365c0-9.17.765-16.431,1.146-23.308" transform="translate(-79.199 -14.767)" fill="#fff"/>
    <path id="Trazado_1784" data-name="Trazado 1784" d="M322.885,41.39a21.722,21.722,0,0,1,8.786-2.674,63.713,63.713,0,0,1,12.227-.765,36.189,36.189,0,0,1,11.463,1.528c3.439.765,6.114,1.911,7.261,3.439.765,1.146,1.528,3.439,1.528,7.261.382,3.439.382,7.26.765,11.081a60.688,60.688,0,0,0,1.528,9.934c.765,3.058,1.911,4.2,3.822,4.2A3.673,3.673,0,0,0,373.7,73.1a34.854,34.854,0,0,0,2.292-6.115,24.637,24.637,0,0,0,1.147-7.642c.382-2.674.382-5.354.765-8.023,0-2.292.382-4.585.382-6.5a14.423,14.423,0,0,1,.382-3.057q.573-1.146,4.585-2.292a46.049,46.049,0,0,1,8.786-1.528,93.613,93.613,0,0,1,10.318-.765,92.6,92.6,0,0,1,10.318,0q4.585.573,8.024,1.146c2.292.765,3.439,1.528,3.439,2.674a218.976,218.976,0,0,1,1.911,25.6A95.912,95.912,0,0,1,424.521,86.1,59.267,59.267,0,0,1,420.7,99.857c-1.528,3.439-3.057,6.115-4.966,7.642a72.947,72.947,0,0,1-8.407,6.5,10.335,10.335,0,0,0-4.2,3.439c-.765,1.146,0,2.292,1.528,3.822a79.4,79.4,0,0,0,8.786,7.261c5.731,4.585,9.553,11.081,11.846,20.634s2.292,21.016.383,35.154c0,.765-1.146,1.528-2.675,1.911a59.867,59.867,0,0,1-6.115,1.146c-2.292.382-4.966.382-8.023.765h-8.786c-3.057,0-5.731-.382-8.407-.382a60.162,60.162,0,0,1-6.114-1.146,6.162,6.162,0,0,1-4.585-5.354,65.529,65.529,0,0,1-1.528-9.17,70.369,70.369,0,0,0-1.911-9.553,7.364,7.364,0,0,0-5.731-5.731c-1.911-.382-3.439-.382-4.2.382a7.127,7.127,0,0,0-1.911,3.82,30.9,30.9,0,0,0-.382,6.114c.382,2.292.382,4.585.765,6.878a39.191,39.191,0,0,1,.382,6.5,14.238,14.238,0,0,1-.765,4.585c-.382,1.146-1.911,2.292-4.2,2.674s-4.966,1.146-8.407,1.528a89.758,89.758,0,0,1-10.316.382,94.088,94.088,0,0,1-10.7-.765,50.3,50.3,0,0,1-8.786-1.911A11.31,11.31,0,0,1,318.3,184.3c-.765-.765-1.146-3.439-1.528-7.642-.382-4.585-.765-9.935-.765-16.431-.382-6.5-.382-14.139-.382-22.161V112.842c0-8.406.382-16.812.765-25.219s.765-15.666,1.528-22.161a140.074,140.074,0,0,1,1.911-16.431c1.146-4.585,1.911-7.26,3.057-7.642" transform="translate(-121.018 -14.203)" fill="#fff"/>
    <path id="Trazado_1785" data-name="Trazado 1785" d="M609.344,80.206a14.341,14.341,0,0,1-5.354,1.911c-2.292.382-5.354.765-8.407,1.146s-6.5.382-9.553.765c-3.439,0-6.5.382-9.553.382s-5.354.382-7.642.382a7.091,7.091,0,0,0-3.82.765c-.765.382-1.146,1.528-1.528,3.058a18.555,18.555,0,0,0-.382,4.585,21.768,21.768,0,0,0,.382,4.968,17.786,17.786,0,0,0,1.146,3.439c.382.765,1.528,1.146,3.822,1.146h14.139a8.509,8.509,0,0,1,4.967,1.528,13.687,13.687,0,0,1,2.292,4.2,32.332,32.332,0,0,1,1.529,6.5,43.845,43.845,0,0,1,.382,7.26,14.4,14.4,0,0,1-1.528,6.115c-.383,1.146-1.911,1.911-4.2,2.292s-4.585.765-7.642,1.146a64.817,64.817,0,0,0-8.407,1.528,15.283,15.283,0,0,0-6.877,3.822,3.228,3.228,0,0,0-.765,2.292v3.439a16.817,16.817,0,0,0,.765,3.82c.382,1.528.382,2.292.765,3.439q0,1.72,3.439,2.293a47.786,47.786,0,0,0,8.024.765,100.365,100.365,0,0,0,10.316-.382,103.629,103.629,0,0,1,10.7-.382,76.746,76.746,0,0,1,9.553.382,15.056,15.056,0,0,1,5.732,1.528c1.146.765,1.911,2.674,2.674,6.114a77.286,77.286,0,0,1,1.146,10.316,49.293,49.293,0,0,1-.382,10.7,28.527,28.527,0,0,1-1.146,6.5,9.692,9.692,0,0,1-4.585,1.528c-3.057.382-6.5.765-11.081,1.528-4.585.382-9.934.765-15.666,1.146s-11.846.382-17.958.765-12.227.382-17.958.382c-6.115,0-11.463-.382-16.049-.765a88.447,88.447,0,0,1-12.227-1.528c-3.439-.765-5.354-1.528-6.115-2.293-1.528-1.911-3.057-5.731-3.82-11.08-.765-5.732-1.146-12.227-1.528-20.253s-.382-16.812,0-26.365.765-19.87,1.146-29.8q.573-15.476,1.146-26.365A71.487,71.487,0,0,1,511.907,56.9a18.912,18.912,0,0,1,7.261-10.316c3.439-2.293,8.407-3.439,15.284-3.821,5.732-.382,12.227-.382,19.494-.765s14.139-.382,21.4-.382a163.724,163.724,0,0,1,19.87,1.146c6.114.765,11.081,1.528,14.52,3.058,1.911.765,3.057,3.057,3.822,6.5a52.292,52.292,0,0,1,.765,11.081,92.928,92.928,0,0,1-1.528,11.463c-1.911,1.528-2.674,4.2-3.439,5.354" transform="translate(-194.265 -15.956)" fill="#fff"/>
  </g>
</svg>
