<svg id="nothing" xmlns="http://www.w3.org/2000/svg" xmlns:xlink="http://www.w3.org/1999/xlink" width="904.867" height="238.989" viewBox="0 0 904.867 238.989">
  <defs>
    <clipPath id="clip-path">
      <rect id="Rectángulo_130" data-name="Rectángulo 130" width="904.867" height="238.989" fill="none"/>
    </clipPath>
  </defs>
  <g id="Grupo_386" data-name="Grupo 386" clip-path="url(#clip-path)">
    <path id="Trazado_1771" data-name="Trazado 1771" d="M904.768,149.159c-.038-1.458-.073-2.834-.073-4.023,0-6.47-.473-12.22-.916-17.093-.1-1.089-.248-2.19-.447-3.289-.206-1.13-.379-2.218-.548-3.267-.39-2.424-.826-5.137-1.523-8.047a45.122,45.122,0,0,0-7.316-17.729,54.376,54.376,0,0,0,1.818-7.781,100.507,100.507,0,0,0,1.667-18.587l-.007-.6a100.507,100.507,0,0,0-2.337-19.608c-2.762-13.262-9.477-23.937-19.435-30.9-7.628-5.427-15.8-7.5-22.826-8.788a153.61,153.61,0,0,0-18.406-2.467c-6.325-.452-12.63-.858-20.213-.858-6.579,0-13.382,0-20.643.453-6.2.387-12.288.809-18.463,1.694a78.874,78.874,0,0,0-20.786,4.9c-.738.284-1.478.6-2.181.921l-.463.215A49.5,49.5,0,0,0,737.147,8.34a95.821,95.821,0,0,0-18.119-2.884,92.492,92.492,0,0,0-19.2.058,102.347,102.347,0,0,0-11.3,1.612,38.341,38.341,0,0,0-10.059,3.346,66.445,66.445,0,0,0-11.565-2.984c-.363-.067-.724-.128-1.093-.184a107.2,107.2,0,0,0-19.869-1.169c-.517.017-1.033.046-1.565.087-1.107.085-2.278.151-3.517.22l-.092.006a109.455,109.455,0,0,0-12.806,1.278,71.465,71.465,0,0,0-11.173,2.619,49.957,49.957,0,0,0-19.818-4.961c-4.859-.414-9.926-.414-16.243-.414h-9.557a50.477,50.477,0,0,0-23.2,5.664,68.447,68.447,0,0,0-9.358-3.442c-.6-.173-1.215-.334-1.829-.477a96.231,96.231,0,0,0-19.18-2.482q-.433-.013-.872-.015a87.824,87.824,0,0,0-17.081,1.57,53.427,53.427,0,0,0-18.548,6.137q-.948-.432-1.921-.819a66.067,66.067,0,0,0-20.526-4.852A110.173,110.173,0,0,0,440.8,5.769a100.2,100.2,0,0,0-18.777,2.407q-1.22.277-2.469.648-.953.287-1.884.595a37.045,37.045,0,0,0-5.3-1.626,84.81,84.81,0,0,0-14.825-2.005c-3.227-.229-6.515-.335-9.736-.44-2.574-.083-5.235-.168-7.806-.319-7.58-.445-15.531-.445-23.95-.445-4.639,0-8.826.108-12.92.215-3.3.086-6.423.167-9.242.167-.676,0-1.365.019-2.057.057-2.709.152-5.424.237-8.049.321l-.064,0c-3.278.1-6.663.21-9.964.446a91.731,91.731,0,0,0-14.682,1.893,36.933,36.933,0,0,0-9.978,3.679,90.792,90.792,0,0,0-26.944-8.871C253.4.747,243.371,0,228.812,0c-.295,0-.589,0-.924.012-19.847.494-36.476,3.683-50.838,9.747a84.364,84.364,0,0,0-10.141,5.083A49.37,49.37,0,0,0,152.124,8.72,95.67,95.67,0,0,0,133.6,5.812a106.768,106.768,0,0,0-18.349.046A102.013,102.013,0,0,0,103.532,7.5a38.367,38.367,0,0,0-9.878,3.254A63.894,63.894,0,0,0,81.8,7.472c-.329-.06-.658-.115-.995-.166a107.2,107.2,0,0,0-19.87-1.17c-.516.017-1.033.046-1.565.087-1.106.085-2.275.151-3.511.22l-.092.006A107.575,107.575,0,0,0,42.609,7.788,77.619,77.619,0,0,0,26.918,12.11,36.777,36.777,0,0,0,14.3,20.367C7.4,27.254,3.337,36.326,1.9,48.08A113.379,113.379,0,0,0,.686,61.853c-.067,1.475-.136,3-.231,4.524-.049.77-.073,1.555-.073,2.332,0,2.574-.08,5.481-.163,8.575C.112,81.267,0,85.385,0,90.108v24.453c0,4.452.1,8.843.2,13.086.089,3.825.181,7.781.181,11.368,0,.576.013,1.151.041,1.758.34,7.145.34,13.987.34,20.023,0,4.188.133,7.933.239,10.956.076,2.166.142,4.037.142,5.474,0,1.114.051,2.24.152,3.346.229,2.535.229,3.982.229,4.679,0,14.692,8.416,28.284,21.988,35.557a51.905,51.905,0,0,0,19.142,6.123,100.148,100.148,0,0,0,12.7,1.039,115.242,115.242,0,0,0,12.431-.411,90.046,90.046,0,0,0,12.069-1.183,77.824,77.824,0,0,0,9.7-2.111c.51-.146,1.015-.3,1.54-.476q1.451-.484,2.842-1.069a59.368,59.368,0,0,0,14,4.28q1.6.291,3.267.446c4.872.443,10.583.917,16.728.917,6,0,11.567-.451,16.339-.882a109.311,109.311,0,0,0,12.858-1.7,37.043,37.043,0,0,0,7.879-2.465A83.952,83.952,0,0,0,203.6,237.675a184.784,184.784,0,0,0,21.984,1.315c5.674,0,11.405-.265,17.045-.789a182.707,182.707,0,0,0,37.9-6.161l.479-.133a80.017,80.017,0,0,0,24.313-11.4,40.567,40.567,0,0,0,16.341,6.584c.52.087,1.041.163,1.522.222,3.726.466,8.486.9,14.56,1.338l.957.068c5.4.389,10.985.79,17.393.79,5.507,0,11.2,0,17.069-.534,6.325-.576,16.749-1.526,26.526-8.867a40.118,40.118,0,0,0,3.648,2.072c.478.237.962.467,1.454.686a63.63,63.63,0,0,0,20.712,5.314,109.722,109.722,0,0,0,17.648.942c5.067-.062,10.186-.366,15.229-.906a61.2,61.2,0,0,0,18.389-4.4q.739-.292,1.459-.61a40.467,40.467,0,0,0,11.181,4.061,37.13,37.13,0,0,0,4.941.645c1.149.131,2.957.323,5.257.409a93.371,93.371,0,0,0,11.366.424c2.381-.017,4.5-.141,6.408-.253.819-.048,1.813-.107,2.37-.122a105.04,105.04,0,0,0,11.735-.435,71.615,71.615,0,0,0,11.421-1.357,42.01,42.01,0,0,0,6.128-1.612,52.854,52.854,0,0,0,12.483,4.184,83.456,83.456,0,0,0,22.155,1.505c5.863-.03,11.777-.35,17.6-.951.167-.016.334-.035.5-.054a53.432,53.432,0,0,0,16.887-4.722,59,59,0,0,0,8.649,1.9,99.965,99.965,0,0,0,13.466,1.152,114.136,114.136,0,0,0,12.417-.412,90.054,90.054,0,0,0,11.783-1.136,69.518,69.518,0,0,0,10.584-2.334c.327-.1.654-.2.925-.294q1.359-.452,2.667-1a59.475,59.475,0,0,0,13.816,4.2q1.6.291,3.267.446c4.872.443,10.584.917,16.729.917,6,0,11.568-.451,16.34-.882a109.222,109.222,0,0,0,12.852-1.7,36.983,36.983,0,0,0,9.542-3.246c.464-.233.934-.479,1.409-.742A59.568,59.568,0,0,0,785.962,233.3c.5.02,1,.031,1.5.031h13.373c6.238,0,12.106-.393,17.77-.772l1.116-.074c5.864-.39,12.5-.832,19.362-1.736a177.532,177.532,0,0,0,17.682-3.035,77.587,77.587,0,0,0,20.119-6.275c.29-.135.58-.276.863-.416,16.2-8.1,22.168-20.087,24.322-28.718a37.1,37.1,0,0,0,.729-3.73c.557-3.9.979-7.547,1.366-11.812.1-1.109.152-2.236.152-3.351,0-3.748,0-6.985.273-10.538a128.609,128.609,0,0,0,.181-13.715" fill="#161615"/>
    <path id="Trazado_1772" data-name="Trazado 1772" d="M873.451,141.127c-.041-1.622-.081-3.155-.081-4.655,0-5.439-.4-10.329-.815-14.871-.033-.366-.083-.731-.149-1.093-.237-1.3-.439-2.556-.634-3.768-.383-2.384-.749-4.653-1.314-6.85-.922-5.637-3.591-10.146-7.486-12.691a15.888,15.888,0,0,0-7.22-2.479c-.388-.052-.853-.114-1.4-.2a60.124,60.124,0,0,0-9.963-.943q-2-.035-4.015.013A52.509,52.509,0,0,0,854.3,90.458a12.608,12.608,0,0,0,3.485-1.847c3.756-2.781,6.052-7.21,7-13.507a75.8,75.8,0,0,0,1.316-14.331c0-.067,0-.133,0-.2a75.82,75.82,0,0,0-1.8-14.935c-1.453-7.106-4.744-12.6-9.533-15.909-3.533-2.543-7.851-3.733-13.215-4.714A128.5,128.5,0,0,0,826,22.918c-5.856-.419-11.674-.8-18.453-.8-6.2,0-12.612,0-19.109.406-5.894.367-11.639.766-17.091,1.579A54.232,54.232,0,0,0,756.5,27.528q-.366.141-.723.305a28.01,28.01,0,0,0-13,12.307c-.578,1.089-1.118,2.2-1.63,3.318a59.419,59.419,0,0,0-1.05-6.047q-.132-.576-.319-1.138c-1.236-3.707-4.857-10.252-15.245-12.662a71.093,71.093,0,0,0-14.171-2.231,67.7,67.7,0,0,0-14.807.02,77.582,77.582,0,0,0-9.031,1.284,13.713,13.713,0,0,0-10.922,10.393,20.818,20.818,0,0,0-.561,3.165,40.019,40.019,0,0,0-2.918-4.97,12.366,12.366,0,0,0-1.438-1.728c-4.236-4.235-9.693-5.518-14.917-6.468-.114-.021-.228-.039-.341-.057a82.434,82.434,0,0,0-15.282-.9c-.174.006-.348.016-.522.029-1.4.108-2.785.185-4.127.26a84.888,84.888,0,0,0-10.261,1.005,46.656,46.656,0,0,0-11.175,3.08,12.342,12.342,0,0,0-3.986,2.662,14.472,14.472,0,0,0-1.872,2.317,19.811,19.811,0,0,0-4.257-4.746l-.108-.086a25.023,25.023,0,0,0-14.98-5.29c-3.955-.382-8.553-.382-14.779-.382h-9.516a25.674,25.674,0,0,0-13.307,3.7,12.356,12.356,0,0,0-1.679,1.222,27.87,27.87,0,0,0-6.376,8.039,22.662,22.662,0,0,0-3.326-4.106,12.372,12.372,0,0,0-1.482-1.233,43.968,43.968,0,0,0-13.266-6.367c-.2-.057-.4-.109-.6-.156A71.526,71.526,0,0,0,510.2,20.221c-.092,0-.186,0-.279,0a64.042,64.042,0,0,0-13.006,1.273,28.489,28.489,0,0,0-12.347,4.445,17.806,17.806,0,0,0-8.15,11.637c-.284,1.2-.512,2.419-.68,3.644q-.209-1.175-.483-2.34c-.041-.171-.085-.342-.133-.511A19.85,19.85,0,0,0,463.267,25.3,41.459,41.459,0,0,0,449.8,22.16a85.482,85.482,0,0,0-14.595-.412A75.435,75.435,0,0,0,420.8,23.569c-.277.063-.551.135-.823.216a30.726,30.726,0,0,0-11.177,5.69,14.85,14.85,0,0,0-5.759-5.3,12.339,12.339,0,0,0-2.781-.993,60.093,60.093,0,0,0-10.8-1.434c-2.846-.212-5.883-.31-9.093-.413-2.746-.088-5.587-.179-8.464-.349-6.857-.4-14.457-.4-22.5-.4-4.326,0-8.356.1-12.254.206-3.477.091-6.761.176-9.908.176q-.343,0-.686.02c-3.029.168-5.915.259-8.708.348-3.287.1-6.4.2-9.283.417a67.016,67.016,0,0,0-11.014,1.4,12.335,12.335,0,0,0-3.9,1.556,15.658,15.658,0,0,0-5.573,6.084c-.055.1-.112.2-.174.308a12.315,12.315,0,0,0-1.291,2.561q-.428,1.171-.8,2.363a48.8,48.8,0,0,0-11.92-9.9l-.157-.091a66.275,66.275,0,0,0-22.631-7.92c-7.166-1.474-15.857-2.1-28.943-2.1-.1,0-.2,0-.308,0-16.728.417-30.448,2.985-41.91,7.834a59.26,59.26,0,0,0-24.021,18.39c-.224-1.49-.5-2.972-.834-4.436q-.133-.578-.321-1.141c-1.237-3.707-4.86-10.251-15.245-12.658A70.976,70.976,0,0,0,125.2,21.754a81.9,81.9,0,0,0-14.523.016,77.041,77.041,0,0,0-9.172,1.3A13.713,13.713,0,0,0,90.581,33.458a20.855,20.855,0,0,0-.56,3.159A39.913,39.913,0,0,0,87.1,31.652a12.3,12.3,0,0,0-1.44-1.728c-3.452-3.448-8.191-5.624-14.914-6.846q-.17-.031-.341-.057a82.573,82.573,0,0,0-15.282-.9q-.261.009-.522.029c-1.4.108-2.784.185-4.126.26A83.974,83.974,0,0,0,40.1,23.436,52.938,52.938,0,0,0,29.267,26.4a12.322,12.322,0,0,0-4.208,2.752c-2.969,2.964-4.693,7.361-5.409,13.805a88.026,88.026,0,0,0-.988,11.354c-.074,1.607-.15,3.269-.255,4.962q-.025.384-.025.768c0,2.91-.083,5.981-.171,9.234C18.107,73.1,18,77.054,18,81.444V105.9c0,4.156.1,8.4.195,12.514.092,3.969.187,8.072.187,11.94,0,.2,0,.391.014.586.368,7.731.368,14.883.368,21.195,0,3.748.118,7.107.223,10.071.085,2.406.158,4.484.158,6.359q0,.559.051,1.115c.331,3.647.331,5.933.331,6.909,0,5.725,3.4,10.894,9.121,13.9A26.938,26.938,0,0,0,39.139,193.8a75.318,75.318,0,0,0,10.06.848,89.677,89.677,0,0,0,10.49-.388,65.311,65.311,0,0,0,9.635-.907,53.055,53.055,0,0,0,6.811-1.471c.171-.049.34-.1.509-.157,2.985-.995,7.947-3.788,10-11.536a47.831,47.831,0,0,0,2.287,4.284,12.349,12.349,0,0,0,.941,1.35c4.508,5.632,11.191,7.4,15.826,8.247q.541.1,1.088.149c4.331.395,9.38.816,14.492.816,5.038,0,9.853-.4,14.357-.8a84.532,84.532,0,0,0,10.148-1.333,12.327,12.327,0,0,0,3.176-1.08c5.785-2.9,7.607-8.891,8.289-12.984a60.332,60.332,0,0,0,12.988,13.972c.057.045.115.089.173.133a59.266,59.266,0,0,0,29.331,11.569,159.7,159.7,0,0,0,19.186,1.155c5.081,0,10.164-.242,15.216-.726a158,158,0,0,0,33.295-5.372l.134-.037c10.52-3.006,18.958-8.152,25.08-15.3a52.273,52.273,0,0,0,10.443-20.52c.293,4.468.665,8.706,1.243,12.46,2.127,13.818,10.153,17.165,14.748,17.93.165.028.33.052.5.072,3.3.412,7.632.808,13.258,1.21l.97.069c5.2.374,10.106.727,15.623.727,5.184,0,10.08,0,14.829-.432,4.777-.435,10.134-.923,14.419-4.387,5.964-4.423,5.964-12.376,5.964-15.158V164.358c0-4.384-.3-9.068-.642-14.493l-2.58-41.23c-.322-5.058-.6-9.426-.6-13.059,0-.209-.006-.419-.016-.628q-.081-1.562-.11-3.135c1.656.06,3.314.077,4.965.049a76.521,76.521,0,0,0,10.182-.461c.219-.025.437-.055.654-.091.179-.03.351-.064.526-.1-.088,3.41-.18,6.935-.349,10.664-.2,4.264-.3,8.77-.4,13.128-.091,4.112-.186,8.363-.367,12.525-.4,9.189-.4,17.564,0,25.6.387,7.751.778,14.631,1.645,20.3.6,4.223,2.033,13.959,10.117,18.006.165.081.331.16.5.235a39.032,39.032,0,0,0,13.307,3.307,84.577,84.577,0,0,0,11.991.855q1.263,0,2.524-.038c4.478-.048,9-.321,13.455-.81a36.561,36.561,0,0,0,11.457-2.724c4.038-1.551,8.81-5.412,10-14.911.01-.08.02-.16.028-.239a86.518,86.518,0,0,0,.449-10.989V155.518q0-.486.012-.972l.165-.006c.012,3.506.074,7,.411,11.1a102.6,102.6,0,0,0,1.729,13.337c.019.1.039.195.06.292,2.6,11.7,10.538,14.491,13.828,15.147a12.359,12.359,0,0,0,2.118.235c.144.014.3.033.463.054a43.344,43.344,0,0,0,4.416.324,69.083,69.083,0,0,0,9.36.388c1.826-.007,3.6-.111,5.316-.212,1.426-.084,2.776-.163,3.915-.169a80.493,80.493,0,0,0,10.065-.393,46.765,46.765,0,0,0,8.369-.957,17.725,17.725,0,0,0,9.529-4.936,12.445,12.445,0,0,0,2.128-2.8c.406.593.829,1.174,1.276,1.739a12.313,12.313,0,0,0,1.1,1.215,28.343,28.343,0,0,0,14.113,7.411,58.726,58.726,0,0,0,11.778,1.194q2.284,0,4.566-.178a156.077,156.077,0,0,0,16.06-.831l.084-.009c7.11-.787,12.745-3.552,16.3-7.994.174-.218.341-.443.5-.672.1-.141.191-.285.287-.428a19.152,19.152,0,0,0,4.7,3.282c.086.044.173.086.26.126a34.291,34.291,0,0,0,9.969,2.958,75.169,75.169,0,0,0,10.338.892,89.251,89.251,0,0,0,10.49-.388,65.3,65.3,0,0,0,9.537-.89,44.757,44.757,0,0,0,7.11-1.546q.152-.045.3-.1c2.923-.972,7.74-3.669,9.866-11.045q.941,1.94,2.051,3.788a12.344,12.344,0,0,0,.94,1.35c4.508,5.632,11.191,7.4,15.826,8.247q.541.1,1.089.149c4.331.395,9.38.816,14.493.816,5.036,0,9.851-.4,14.355-.8A84.558,84.558,0,0,0,730.8,192.9a12.337,12.337,0,0,0,3.179-1.082c7.438-3.728,8.323-12.58,8.656-15.912.273-2.732.531-5.861.781-9.452q1.241,3.487,2.7,6.886a50.523,50.523,0,0,0,12.1,17.6c.068.064.137.127.207.189A34.9,34.9,0,0,0,780.315,200c.161.006.321.009.482.009h13.373c5.412,0,10.621-.348,16.134-.718l1.115-.074c5.8-.386,11.8-.785,17.914-1.6a152.741,152.741,0,0,0,16.057-2.787,53.064,53.064,0,0,0,14.391-4.4c.091-.043.183-.088.273-.133,6.268-3.133,10.11-7.382,11.42-12.63a12.141,12.141,0,0,0,.242-1.243c.5-3.467.872-6.724,1.22-10.562.034-.37.051-.743.051-1.115,0-4.08,0-7.932.346-12.429a107.084,107.084,0,0,0,.117-11.193" transform="translate(-6.902 -6.135)" fill="#161615"/>
    <path id="Trazado_1773" data-name="Trazado 1773" d="M85,139.875c-.765,0-1.146,1.146-1.528,3.439a62.247,62.247,0,0,0-.382,9.17c0,3.82,0,7.642.382,12.227v12.227a64.444,64.444,0,0,1-.765,9.553q-.574,4.013-2.292,4.585a40.712,40.712,0,0,1-5.354,1.146,52.717,52.717,0,0,1-8.407.765,76.754,76.754,0,0,1-9.553.382,62.783,62.783,0,0,1-8.786-.765,14.42,14.42,0,0,1-6.115-1.911c-1.528-.765-2.674-1.911-2.674-3.058s0-3.82-.382-8.023c0-4.585-.382-9.935-.382-16.43s0-13.757-.382-21.78c0-8.024-.382-16.431-.382-24.454V92.494c0-8.023.382-14.9.382-21.4.382-6.115.382-11.463,1.146-15.285.382-3.82,1.146-6.114,1.911-6.877a40.528,40.528,0,0,1,8.406-2.292c4.2-.765,8.407-.765,13.373-1.146a69.876,69.876,0,0,1,12.992.765c4.2.765,6.878,1.911,8.407,3.439a27.623,27.623,0,0,1,3.439,6.877,114.179,114.179,0,0,1,4.58,12.609c1.528,4.968,3.439,9.935,5.354,15.285s3.82,10.316,5.354,14.52a78.231,78.231,0,0,0,4.968,11.08c1.528,3.058,2.675,4.2,3.822,4.2s1.528-1.528,1.911-4.585c0-3.439,0-7.261-.382-12.611-.382-4.968-.765-10.316-1.528-16.049s-1.146-11.463-1.528-16.43-.765-9.553-.765-12.992.382-5.354,1.528-5.354a64.462,64.462,0,0,1,8.024-1.146,69.473,69.473,0,0,1,12.61,0,58.521,58.521,0,0,1,12.227,1.911c3.439.765,5.731,2.292,6.5,4.585a47.067,47.067,0,0,1,1.146,8.407,91.174,91.174,0,0,1,1.141,16.436c.382,6.877.382,14.139.765,22.545s.382,16.43.765,25.219v24.836c0,8.023-.382,15.284-.382,21.4-.382,6.5-.765,11.463-1.146,15.285s-1.147,5.731-1.911,6.114a71.875,71.875,0,0,1-8.786,1.146c-4.2.382-8.786.765-13.373.765s-9.17-.382-13.373-.765c-4.2-.765-6.877-1.911-8.407-3.822a35.407,35.407,0,0,1-3.057-6.5c-1.146-3.057-2.292-6.114-3.439-9.934-1.146-3.439-2.292-7.261-3.82-11.081-1.146-3.82-2.674-7.261-3.821-10.7a77.007,77.007,0,0,0-4.2-8.024c-1.146-1.911-2.292-3.057-3.82-3.057" transform="translate(-14.571 -17.185)" fill="#fff"/>
    <path id="Trazado_1774" data-name="Trazado 1774" d="M377.167,127.705c-.764-11.464-1.528-21.4-2.292-30.57a177.239,177.239,0,0,0-4.2-23.691,59.712,59.712,0,0,0-7.261-17.195A36.248,36.248,0,0,0,351.183,44.4a54.162,54.162,0,0,0-18.723-6.5C325.207,36.379,316.03,36,305.714,36c-15.284.382-27.511,2.675-37.446,6.878a47.338,47.338,0,0,0-22.161,19.1c-5.349,8.4-8.406,18.722-9.553,30.949a202.83,202.83,0,0,0,1.147,42.419c1.911,14.137,4.586,25.986,8.406,34.772a48,48,0,0,0,15.28,20.635,46.921,46.921,0,0,0,23.308,9.17,147.165,147.165,0,0,0,32.1.381,145.405,145.405,0,0,0,30.956-4.965c8.023-2.292,14.519-6.113,19.105-11.462s7.641-12.611,9.17-21.4,1.911-20.634,1.146-34.772m-50.434,19.1a9.592,9.592,0,0,1-4.585,8.408,18.736,18.736,0,0,1-9.935,3.821,18.467,18.467,0,0,1-10.316-1.527,8.464,8.464,0,0,1-4.968-7.261h0c0-1.147-.383-3.822-.765-7.261-.381-4.2-.764-9.17-1.528-14.52s-1.146-11.081-1.528-17.195c-.383-5.733-.764-11.082-.764-16.049,0-3.438,1.528-5.73,4.585-7.642a22.058,22.058,0,0,1,9.934-3.439,18.463,18.463,0,0,1,10.316,1.528,9.451,9.451,0,0,1,5.731,7.261c.765,5.73,1.911,11.08,2.292,15.665s.765,8.789,1.146,12.992c0,4.2.382,8.023.382,12.227.382,3.822,0,8.406,0,12.992" transform="translate(-90.466 -13.802)" fill="#fff"/>
    <path id="Trazado_1775" data-name="Trazado 1775" d="M471.946,45.726a54.443,54.443,0,0,1,9.17-1.146c4.968-.382,11.08-.382,17.958-.765,6.877,0,14.139-.382,22.162-.382s15.284,0,21.78.382,12.611.382,17.572.765a47.656,47.656,0,0,1,8.786,1.146c.765.382,1.528,1.911,2.292,3.82a30.637,30.637,0,0,1,1.528,6.878v9.17a73.581,73.581,0,0,1-.382,9.17,42.915,42.915,0,0,1-.765,7.642,19.032,19.032,0,0,1-1.146,4.585c-.382,1.528-2.292,2.292-4.585,2.674a64.732,64.732,0,0,1-8.786.382,79.838,79.838,0,0,1-9.553-.382,27.338,27.338,0,0,0-6.5.382q-1.146.573-1.146,4.585a112.829,112.829,0,0,0,0,11.463c0,4.585.382,9.935.765,16.049l1.146,18.342,1.146,18.341c.382,6.115.765,11.463.765,16.049v11.846c0,3.057-.382,4.968-1.147,5.354-1.146,1.146-3.82,1.528-8.023,1.911s-8.786.382-13.756.382c-5.354,0-10.317-.382-15.666-.765s-9.553-.765-12.611-1.146c-2.292-.382-3.82-2.674-4.585-7.642s-1.146-11.081-1.528-18.341c0-7.261.382-15.285.765-23.691.765-8.407,1.146-16.431,1.911-24.073.765-7.261,1.147-13.756,1.529-19.105s.381-8.023.381-8.786c-.381-1.146-1.528-1.911-3.822-2.292s-4.585-.382-7.261-.765c-2.674,0-4.968-.382-7.642-.382-2.292-.382-4.2-.765-4.968-1.528s-1.146-1.911-1.146-4.2a46.306,46.306,0,0,1-.382-7.642,74.381,74.381,0,0,1,.765-9.17q.574-5.159,1.146-9.17a40.293,40.293,0,0,1,1.911-7.261c.765-1.146,1.146-2.292,1.911-2.674" transform="translate(-178.747 -16.654)" fill="#fff"/>
    <path id="Trazado_1776" data-name="Trazado 1776" d="M657.983,50.471q2.293-2.866,8.024-4.585a62.9,62.9,0,0,1,12.227-1.528,72.713,72.713,0,0,1,12.992.382,29.271,29.271,0,0,1,9.934,2.292A7.457,7.457,0,0,1,705.746,52a29.982,29.982,0,0,1,.765,8.407,74.369,74.369,0,0,1-.765,9.17,16.274,16.274,0,0,0,.382,7.642c.765,2.674,1.911,4.585,4.2,5.354a21.618,21.618,0,0,0,6.877,1.146,24.266,24.266,0,0,0,6.878-2.292,7.109,7.109,0,0,0,3.439-4.2,90.593,90.593,0,0,0,2.292-11.846,73.6,73.6,0,0,0,.382-8.786,26.58,26.58,0,0,1,.765-6.115,5.522,5.522,0,0,1,2.674-3.82,16.083,16.083,0,0,1,7.642-2.674,51.886,51.886,0,0,1,11.081-1.146,59.079,59.079,0,0,1,11.846,1.528,31.726,31.726,0,0,1,9.553,4.585,10.385,10.385,0,0,1,3.057,6.115,52.161,52.161,0,0,1,.765,7.26V81.416c0,8.024,0,16.813-.382,25.984,0,9.553,0,18.723-.382,28.278,0,9.553-.382,18.342-.382,26.365-.382,8.024-.382,14.52-.765,19.87s-.382,8.023-.765,8.407a5.335,5.335,0,0,1-3.057,1.528,34.3,34.3,0,0,1-6.878.765,67.785,67.785,0,0,1-9.17.382c-3.058,0-6.5.382-9.553.382a56.575,56.575,0,0,1-8.407-.382c-2.674,0-4.2-.382-5.354-.382-1.911-.382-3.439-2.292-4.2-5.732a90.076,90.076,0,0,1-1.528-11.846c-.382-4.585-.382-8.406-.382-12.61,0-3.82,0-6.5-.382-7.26,0-.765-1.528-1.528-3.822-1.911a24.765,24.765,0,0,0-7.642-.765,29.1,29.1,0,0,0-8.024,1.146,5.832,5.832,0,0,0-4.2,4.2,40.52,40.52,0,0,0-.765,8.023v10.7a73.779,73.779,0,0,1-.382,9.553c-.382,3.057-1.147,4.585-2.293,4.968a24.352,24.352,0,0,1-8.023,1.911,124.18,124.18,0,0,1-12.61.765,72.061,72.061,0,0,1-12.992-.765,26.845,26.845,0,0,1-9.553-2.292c-1.528-.765-2.674-3.439-3.439-8.786-.765-4.968-1.147-11.463-1.528-19.1s-.382-15.666,0-24.454.381-17.571.765-25.6c.382-8.407.382-15.666.765-22.162s.382-11.08.765-14.139a143.432,143.432,0,0,1,1.528-16.049,17.289,17.289,0,0,1,3.439-9.935" transform="translate(-249.394 -16.425)" fill="#fff"/>
    <path id="Trazado_1777" data-name="Trazado 1777" d="M880.028,67.368a51.7,51.7,0,0,1,2.674-14.52,15.541,15.541,0,0,1,4.585-6.878,13.2,13.2,0,0,1,6.878-1.911h9.553c6.114,0,10.7,0,14.139.382a12.616,12.616,0,0,1,8.024,2.674c1.911,1.528,3.057,4.2,3.822,7.642a112.731,112.731,0,0,1,1.528,15.666c0,6.5.382,13.373.382,21.4s.382,16.049.382,24.454v47.38c0,8.024,0,14.52-.382,18.723a17.2,17.2,0,0,1-3.057,9.17c-1.528,1.911-4.585,3.058-8.024,3.439a143.142,143.142,0,0,1-15.284.765,46.447,46.447,0,0,1-13.373-.765,16.12,16.12,0,0,1-8.024-4.2,18.652,18.652,0,0,1-3.82-8.786,113.26,113.26,0,0,1-1.528-14.52c-.382-7.261-.765-14.9-.765-23.691s0-17.571.382-26.747.382-17.958.765-26.365.765-16.43,1.146-23.308" transform="translate(-336.549 -16.894)" fill="#fff"/>
    <path id="Trazado_1778" data-name="Trazado 1778" d="M1034.192,139.6c-.765,0-1.146,1.146-1.528,3.439a62.153,62.153,0,0,0-.382,9.17c0,3.82,0,7.642.382,12.227v12.227a64.461,64.461,0,0,1-.765,9.553q-.573,4.012-2.292,4.585a32.459,32.459,0,0,1-5.355,1.146,52.691,52.691,0,0,1-8.406.765,76.754,76.754,0,0,1-9.553.382,62.771,62.771,0,0,1-8.786-.765,22.025,22.025,0,0,1-6.5-1.911c-1.528-.765-2.674-1.911-2.674-3.058s0-3.82-.382-8.023c0-4.585-.382-9.935-.382-16.43s0-13.757-.382-21.78c0-8.024-.382-16.431-.382-24.454V92.212c0-8.024.382-14.9.382-21.4.382-6.115.382-11.463,1.146-15.284.382-3.82,1.146-6.115,1.911-6.878a34.346,34.346,0,0,1,8.407-2.292c4.2-.765,8.407-.765,13.373-1.146a69.928,69.928,0,0,1,12.992.765c4.2.765,6.878,1.528,8.407,3.057a27.626,27.626,0,0,1,3.439,6.878,114.076,114.076,0,0,1,4.585,12.61c1.528,4.968,3.439,9.935,5.354,15.284s3.822,10.317,5.354,14.52a104.421,104.421,0,0,0,4.968,11.081c1.527,3.057,2.674,4.2,3.82,4.2s1.528-1.528,1.911-4.585c0-3.439,0-7.261-.382-12.61-.382-4.968-.765-10.316-1.528-16.048s-1.146-11.463-1.528-16.432-.765-9.552-.765-12.991.382-5.354,1.528-5.354a64.7,64.7,0,0,1,8.024-1.146,55.287,55.287,0,0,1,12.61,0,58.6,58.6,0,0,1,12.227,1.911c3.439.765,5.731,2.294,6.5,4.585a47.07,47.07,0,0,1,1.147,8.406c.381,4.586.765,10.316,1.146,16.813.382,6.877.382,14.14.764,22.545s.382,16.43.765,25.218v24.84c0,8.024-.382,15.284-.382,21.4-.382,6.5-.765,11.463-1.146,15.284s-1.146,5.731-1.911,6.115a72.112,72.112,0,0,1-8.786,1.146c-4.2.382-8.785.765-13.373.765s-9.17-.382-13.374-.765c-4.2-.765-6.877-1.911-8.407-3.822a35.432,35.432,0,0,1-3.057-6.5c-1.146-3.058-2.292-6.115-3.439-9.935-1.146-3.439-2.292-7.261-3.821-11.081-1.146-3.82-2.675-7.261-3.821-10.7a77.076,77.076,0,0,0-4.2-8.023c-.765-1.911-1.911-3.058-3.439-3.058" transform="translate(-378.371 -16.902)" fill="#fff"/>
    <path id="Trazado_1779" data-name="Trazado 1779" d="M1302.534,90.243a40.427,40.427,0,0,1-14.52,2.674c-4.585,0-9.17-.765-13.756-1.146-4.2-.765-8.024-1.146-11.846-1.528a14.691,14.691,0,0,0-9.17,1.528c-2.674,1.146-4.2,3.822-5.354,8.024q-1.72,5.731-1.146,18.341a83.533,83.533,0,0,0,1.146,13.756,99.862,99.862,0,0,0,2.292,12.227,37.661,37.661,0,0,0,4.2,8.786,7.343,7.343,0,0,0,6.1,3.447c2.675,0,4.2-.382,5.354-1.911a12.947,12.947,0,0,0,2.292-5.732,25.568,25.568,0,0,0,0-7.642c-.382-2.674-.382-5.354-.765-8.024a11.571,11.571,0,0,1,1.911-8.407,16.475,16.475,0,0,1,7.261-4.968,27.054,27.054,0,0,1,9.934-1.911,89.672,89.672,0,0,1,9.935-.382,47.666,47.666,0,0,1,8.024.765c2.292.382,3.439.382,3.822.765.765.382,1.911,1.911,2.292,4.968.765,2.674,1.146,6.114,1.911,10.316.382,4.2.765,8.786.765,13.756s.382,9.935,0,14.9-.381,9.17-.381,13.373c-.382,4.2-.765,7.26-1.147,9.934-.382,1.528-1.911,3.058-4.968,4.585a40.746,40.746,0,0,1-11.463,3.439,139.614,139.614,0,0,1-15.284,2.674c-5.731.765-11.464,1.146-17.195,1.528s-11.081.765-16.431.765h-13.373a22.494,22.494,0,0,1-14.139-5.731,37.841,37.841,0,0,1-9.17-13.373,102.271,102.271,0,0,1-6.114-19.1,197.709,197.709,0,0,1-3.82-22.545c-.765-4.968-1.528-10.7-1.911-16.813a147.1,147.1,0,0,1-.382-18.341,137.168,137.168,0,0,1,1.147-17.958,147.4,147.4,0,0,1,2.674-15.666,50.929,50.929,0,0,1,4.585-12.227,15.548,15.548,0,0,1,7.261-6.878,41.894,41.894,0,0,1,11.846-2.674c4.968-.765,10.316-1.146,16.43-1.528s12.227-.382,18.341-.382c6.5,0,12.227.382,17.572.765a115.771,115.771,0,0,1,14.139,1.911c4.2.765,6.878,1.528,8.407,2.674,2.292,1.528,3.82,4.585,4.585,8.407a63.277,63.277,0,0,1,1.528,12.61,63.231,63.231,0,0,1-1.146,12.227c-.382,2.674-1.146,4.968-2.292,5.732" transform="translate(-459.085 -17.61)" fill="#fff"/>
  </g>
</svg>
