<svg xmlns="http://www.w3.org/2000/svg" xmlns:xlink="http://www.w3.org/1999/xlink" width="249.71" height="155.167" viewBox="0 0 249.71 155.167">
  <defs>
    <clipPath id="clip-path">
      <rect id="Rectángulo_139" data-name="Rectángulo 139" width="240.62" height="138.721" fill="none"/>
    </clipPath>
  </defs>
  <g id="omg" transform="matrix(0.998, -0.07, 0.07, 0.998, 0, 16.784)">
    <g id="Grupo_400" data-name="Grupo 400" transform="translate(0 0)" clip-path="url(#clip-path)">
      <path id="Trazado_1817" data-name="Trazado 1817" d="M237.152,35.107V18.719a10.955,10.955,0,0,0-7.358-10.343,60.568,60.568,0,0,0-11.913-2.808,99.426,99.426,0,0,0-12.8-.756c-14.181,0-25.761,3.173-34.447,9.433a10.953,10.953,0,0,0-10.645-8.413H136.531a11.016,11.016,0,0,0-9.837,6.142l-3.463,7.085-3.5-7.115A10.883,10.883,0,0,0,109.9,5.832H86.44a10.9,10.9,0,0,0-10.1,6.719,36.81,36.81,0,0,0-6.966-3.859C62.8,5.921,54.99,4.516,46.143,4.516s-16.662,1.4-23.231,4.177A35.161,35.161,0,0,0,5.6,24.1C1.831,30.766,0,39.021,0,49.335v42.2c0,10.1,1.879,18.557,5.583,25.15a35.073,35.073,0,0,0,17.328,15.491c6.563,2.772,14.381,4.177,23.233,4.177s16.667-1.4,23.231-4.175a36.692,36.692,0,0,0,6.789-3.743,10.94,10.94,0,0,0,10.276,7.2h24.689a10.96,10.96,0,0,0,10.948-10.948v-.274h2.28v.274a10.962,10.962,0,0,0,10.95,10.948h24.687a10.879,10.879,0,0,0,10.56-8.086c8.353,6.044,19.379,9.106,32.8,9.106a66.348,66.348,0,0,0,18.722-2.39,55.779,55.779,0,0,0,13.3-5.64,11.01,11.01,0,0,0,5.247-9.347V43.1a10.96,10.96,0,0,0-3.468-7.994" transform="translate(0 2.072)"/>
      <path id="Trazado_1818" data-name="Trazado 1818" d="M236.193,30.684V13.974a10.218,10.218,0,0,0-6.87-9.654,59.844,59.844,0,0,0-11.767-2.775A98.674,98.674,0,0,0,204.857.8c-14.608,0-26.334,3.384-34.956,9.988a10.215,10.215,0,0,0-10.134-8.969H136.3a10.218,10.218,0,0,0-9.182,5.732L123,15.969l-4.162-8.448a10.216,10.216,0,0,0-9.167-5.705H86.211a10.222,10.222,0,0,0-9.748,7.148,35.734,35.734,0,0,0-7.6-4.346C62.383,1.886,54.661.5,45.916.5s-16.47,1.386-22.95,4.118a34.452,34.452,0,0,0-16.96,15.1C2.3,26.267.5,34.4.5,44.589v42.2c0,9.968,1.848,18.311,5.489,24.794a34.372,34.372,0,0,0,16.976,15.174c6.474,2.734,14.2,4.12,22.95,4.12s16.471-1.386,22.947-4.118a35.549,35.549,0,0,0,7.466-4.257,10.215,10.215,0,0,0,9.882,7.653H110.9a10.219,10.219,0,0,0,10.219-10.219v-1h3.739v1a10.221,10.221,0,0,0,10.22,10.219h24.689a10.213,10.213,0,0,0,10.082-8.622c8.293,6.372,19.446,9.641,33.272,9.641a65.619,65.619,0,0,0,18.515-2.36,55.092,55.092,0,0,0,13.128-5.562,10.217,10.217,0,0,0,4.9-8.724V38.356a10.193,10.193,0,0,0-3.468-7.672" transform="translate(0.229 0.229)" fill="#fff"/>
      <path id="Trazado_1819" data-name="Trazado 1819" d="M203.35,132.133c-13.417,0-24.442-3.062-32.8-9.106a10.88,10.88,0,0,1-10.56,8.086H135.307a10.961,10.961,0,0,1-10.95-10.948v-.274h-2.28v.274a10.959,10.959,0,0,1-10.948,10.948H86.44a10.943,10.943,0,0,1-10.277-7.2,36.558,36.558,0,0,1-6.788,3.743c-6.565,2.77-14.379,4.175-23.231,4.175s-16.67-1.4-23.233-4.177a35.077,35.077,0,0,1-17.328-15.49C1.879,105.575,0,97.114,0,87.018v-42.2C0,34.505,1.831,26.251,5.6,19.584A35.165,35.165,0,0,1,22.912,4.177C29.481,1.4,37.3,0,46.143,0S62.8,1.4,69.373,4.177a36.81,36.81,0,0,1,6.966,3.859,10.9,10.9,0,0,1,10.1-6.719H109.9a10.881,10.881,0,0,1,9.824,6.114l3.5,7.113,3.463-7.085a11.013,11.013,0,0,1,9.837-6.142h23.463a10.953,10.953,0,0,1,10.645,8.413C179.325,3.469,190.905.3,205.085.3a99.433,99.433,0,0,1,12.8.756A60.48,60.48,0,0,1,229.792,3.86a10.954,10.954,0,0,1,7.36,10.343V30.591a10.96,10.96,0,0,1,3.468,7.994v76.172a11.01,11.01,0,0,1-5.247,9.347,55.778,55.778,0,0,1-13.3,5.64,66.348,66.348,0,0,1-18.722,2.39m-33.272-11.1a.726.726,0,0,1,.445.152c8.2,6.3,19.24,9.49,32.827,9.49a64.9,64.9,0,0,0,18.308-2.33,54.366,54.366,0,0,0,12.956-5.485,9.546,9.546,0,0,0,4.547-8.1V38.585a9.494,9.494,0,0,0-3.221-7.123.728.728,0,0,1-.247-.547V14.2a9.494,9.494,0,0,0-6.379-8.964A59.1,59.1,0,0,0,217.692,2.5a98.079,98.079,0,0,0-12.607-.743c-14.377,0-25.987,3.31-34.511,9.84a.729.729,0,0,1-1.167-.49,9.491,9.491,0,0,0-9.412-8.33H136.531A9.548,9.548,0,0,0,128,8.1l-4.115,8.423a.73.73,0,0,1-.654.408h0a.729.729,0,0,1-.655-.407l-4.162-8.448a9.427,9.427,0,0,0-8.514-5.3H86.44a9.453,9.453,0,0,0-9.053,6.639.729.729,0,0,1-1.133.365A35.175,35.175,0,0,0,68.807,5.52c-6.39-2.694-14.013-4.061-22.664-4.061S29.868,2.826,23.478,5.52A33.74,33.74,0,0,0,6.87,20.3c-3.641,6.441-5.411,14.46-5.411,24.515v42.2c0,9.843,1.815,18.064,5.4,24.436a33.637,33.637,0,0,0,16.623,14.859c6.382,2.7,14.009,4.063,22.665,4.063s16.28-1.365,22.664-4.06a35.007,35.007,0,0,0,7.314-4.169.72.72,0,0,1,.678-.1.729.729,0,0,1,.464.5,9.484,9.484,0,0,0,9.176,7.106h24.689a9.5,9.5,0,0,0,9.49-9.49v-1a.73.73,0,0,1,.729-.729h3.739a.729.729,0,0,1,.729.729v1a9.5,9.5,0,0,0,9.491,9.49h24.687a9.434,9.434,0,0,0,9.363-8.006.73.73,0,0,1,.721-.616" transform="translate(0 0)"/>
      <path id="Trazado_1820" data-name="Trazado 1820" d="M42.7,104.376q-11.12,0-18.975-3.316A24.247,24.247,0,0,1,11.688,90.3Q7.5,82.852,7.506,70.507q0-12.447,4.182-19.844A24.328,24.328,0,0,1,23.726,39.952Q31.58,36.637,42.7,36.636t18.975,3.316a24.35,24.35,0,0,1,12.04,10.711q4.182,7.4,4.182,19.844,0,12.344-4.182,19.79a24.269,24.269,0,0,1-12.04,10.763q-7.856,3.317-18.975,3.316m0-20.913q5.407,0,7.7-2.907t2.3-10.048q0-7.14-2.3-10.05t-7.7-2.907q-5.407,0-7.7,2.907T32.7,70.507q0,7.14,2.295,10.048t7.7,2.907" transform="translate(3.444 16.808)" fill="#9a7eff"/>
      <path id="Trazado_1821" data-name="Trazado 1821" d="M42.931,105.334c-7.479,0-13.959-1.135-19.259-3.373A25.077,25.077,0,0,1,11.281,90.884C8.443,85.836,7.005,79.057,7.005,70.736c0-8.388,1.44-15.185,4.277-20.2a25.162,25.162,0,0,1,12.39-11.026c5.306-2.238,11.784-3.373,19.259-3.373s13.952,1.135,19.259,3.373A25.165,25.165,0,0,1,74.578,50.534c2.839,5.02,4.277,11.816,4.277,20.2,0,8.318-1.438,15.1-4.276,20.148a25.086,25.086,0,0,1-12.39,11.078c-5.3,2.238-11.781,3.373-19.259,3.373m0-67.74c-7.278,0-13.567,1.1-18.692,3.258a23.732,23.732,0,0,0-11.688,10.4C9.839,56.047,8.464,62.6,8.464,70.736c0,8.069,1.376,14.606,4.089,19.433a23.644,23.644,0,0,0,11.686,10.448c5.119,2.162,11.408,3.259,18.692,3.259s13.571-1.1,18.692-3.258A23.661,23.661,0,0,0,73.308,90.17C76.023,85.339,77.4,78.8,77.4,70.736c0-8.13-1.374-14.686-4.088-19.484a23.735,23.735,0,0,0-11.687-10.4c-5.126-2.16-11.415-3.258-18.692-3.258m0,46.826c-3.822,0-6.605-1.071-8.274-3.185-1.65-2.089-2.452-5.523-2.452-10.5s.8-8.41,2.452-10.5c1.669-2.115,4.452-3.186,8.274-3.186s6.607,1.071,8.276,3.186c1.65,2.09,2.452,5.525,2.452,10.5s-.8,8.411-2.452,10.5c-1.669,2.114-4.452,3.185-8.276,3.185m0-25.913c-3.352,0-5.752.885-7.129,2.63-1.419,1.8-2.139,5.027-2.139,9.6s.719,7.8,2.139,9.6c1.377,1.746,3.777,2.63,7.129,2.63s5.752-.884,7.131-2.629c1.418-1.8,2.139-5.026,2.139-9.6s-.721-7.8-2.139-9.6c-1.379-1.745-3.777-2.63-7.131-2.63" transform="translate(3.214 16.579)"/>
      <path id="Trazado_1822" data-name="Trazado 1822" d="M59.254,103.034v-65.7H82.719L96.083,64.472l13.262-27.137H132.81v65.7H108.121V79.979l-5.815,11.832H89.758L83.943,79.979v23.055Z" transform="translate(27.186 17.129)" fill="#9a7eff"/>
      <path id="Trazado_1823" data-name="Trazado 1823" d="M133.769,103.994H107.621V83.348l-4.63,9.424H89.533L84.9,83.348v20.646H58.754V36.835H83.4l12.908,26.21,12.81-26.21h24.649Zm-24.689-1.459h23.23V38.294H110.03L96.315,66.358,82.495,38.294H60.213v64.241h23.23V77.07l7,14.242h11.64l7-14.242Z" transform="translate(26.957 16.9)"/>
      <path id="Trazado_1824" data-name="Trazado 1824" d="M151.428,104.375q-18.569,0-28.412-8.569t-9.845-25.3q0-16.731,10.3-25.3t29.688-8.569a88.292,88.292,0,0,1,11.374.661,49.3,49.3,0,0,1,9.743,2.3V60.61a41.6,41.6,0,0,0-9.539-2.5,73.071,73.071,0,0,0-9.946-.664q-7.142,0-11.783,2.805T138.37,70.506q0,7.449,3.316,10.254t9.538,2.8a25.2,25.2,0,0,0,6.121-.713v-3.98H146.43V63.976h31.318V97.948a45.589,45.589,0,0,1-10.711,4.49,55.369,55.369,0,0,1-15.609,1.937" transform="translate(51.923 16.809)" fill="#9a7eff"/>
      <path id="Trazado_1825" data-name="Trazado 1825" d="M151.658,105.334c-12.5,0-22.223-2.944-28.892-8.748-6.7-5.831-10.095-14.527-10.095-25.85s3.555-20.032,10.566-25.862c6.972-5.8,17.116-8.738,30.155-8.738a89.386,89.386,0,0,1,11.469.668,50.37,50.37,0,0,1,9.888,2.33l.49.171v22.6l-.995-.39a41.009,41.009,0,0,0-9.373-2.455,72.6,72.6,0,0,0-9.847-.658,21.854,21.854,0,0,0-11.406,2.7c-2.886,1.745-4.289,4.894-4.289,9.628,0,4.718,1.028,7.978,3.058,9.7,2.061,1.746,5.112,2.632,9.066,2.632a24.942,24.942,0,0,0,5.392-.562V79.83H145.929V63.477h32.778V98.587l-.35.213a46.621,46.621,0,0,1-10.884,4.566,56.288,56.288,0,0,1-15.815,1.968m1.735-67.74c-12.689,0-22.52,2.826-29.221,8.4-6.662,5.539-10.041,13.863-10.041,24.74s3.228,19.21,9.595,24.75c6.394,5.565,15.792,8.39,27.933,8.39a54.836,54.836,0,0,0,15.4-1.908,46.128,46.128,0,0,0,10.19-4.2V64.936h-29.86V78.371H158.3v5.278l-.553.137a26,26,0,0,1-6.3.735c-4.311,0-7.678-1-10.01-2.977-2.371-2.006-3.573-5.643-3.573-10.808,0-5.215,1.681-8.874,4.993-10.877a23.274,23.274,0,0,1,12.161-2.912,74.344,74.344,0,0,1,10.045.671,42.3,42.3,0,0,1,8.711,2.166V40.345a48.88,48.88,0,0,0-9.109-2.093,87.77,87.77,0,0,0-11.279-.656" transform="translate(51.694 16.579)"/>
      <path id="Trazado_1826" data-name="Trazado 1826" d="M42.7,98.59q-11.12,0-18.975-3.316A24.247,24.247,0,0,1,11.688,84.511Q7.5,77.066,7.506,64.721q0-12.447,4.182-19.843A24.324,24.324,0,0,1,23.726,34.166Q31.58,30.853,42.7,30.85t18.975,3.316a24.346,24.346,0,0,1,12.04,10.712q4.182,7.4,4.182,19.843,0,12.344-4.182,19.79a24.268,24.268,0,0,1-12.04,10.763Q53.82,98.591,42.7,98.59m0-20.913q5.407,0,7.7-2.907t2.3-10.048q0-7.14-2.3-10.05t-7.7-2.907q-5.407,0-7.7,2.907T32.7,64.721q0,7.14,2.295,10.048t7.7,2.907" transform="translate(3.444 14.154)" fill="#00a5da"/>
      <path id="Trazado_1827" data-name="Trazado 1827" d="M42.931,99.548c-7.478,0-13.958-1.135-19.259-3.373A25.09,25.09,0,0,1,11.281,85.1C8.443,80.05,7.005,73.271,7.005,64.949c0-8.388,1.44-15.185,4.277-20.2a25.158,25.158,0,0,1,12.39-11.024c5.306-2.239,11.784-3.373,19.259-3.373s13.952,1.133,19.259,3.371A25.164,25.164,0,0,1,74.578,44.748c2.839,5.021,4.277,11.818,4.277,20.2,0,8.318-1.438,15.1-4.276,20.148a25.1,25.1,0,0,1-12.39,11.08c-5.3,2.236-11.783,3.371-19.259,3.371m0-67.738c-7.278,0-13.567,1.1-18.692,3.256a23.744,23.744,0,0,0-11.688,10.4c-2.712,4.8-4.088,11.351-4.088,19.484,0,8.069,1.376,14.606,4.089,19.433A23.66,23.66,0,0,0,24.239,94.832c5.12,2.162,11.409,3.258,18.692,3.258s13.57-1.1,18.692-3.258A23.654,23.654,0,0,0,73.308,84.384c2.715-4.832,4.089-11.37,4.089-19.434,0-8.13-1.374-14.686-4.088-19.484a23.741,23.741,0,0,0-11.687-10.4C56.5,32.905,50.208,31.81,42.931,31.81m0,46.825c-3.822,0-6.605-1.071-8.274-3.185-1.65-2.09-2.452-5.524-2.452-10.5s.8-8.41,2.452-10.5c1.669-2.115,4.452-3.186,8.274-3.186s6.607,1.071,8.276,3.185c1.65,2.092,2.452,5.527,2.452,10.5s-.8,8.41-2.452,10.5c-1.669,2.114-4.452,3.185-8.276,3.185m0-25.913c-3.352,0-5.751.884-7.129,2.63-1.419,1.8-2.139,5.027-2.139,9.6s.719,7.8,2.139,9.6c1.377,1.746,3.777,2.63,7.129,2.63s5.752-.884,7.131-2.63c1.418-1.8,2.139-5.024,2.139-9.6s-.721-7.8-2.139-9.6c-1.379-1.746-3.778-2.63-7.131-2.63" transform="translate(3.214 13.925)"/>
      <path id="Trazado_1828" data-name="Trazado 1828" d="M59.254,97.249v-65.7H82.719L96.083,58.687l13.262-27.138H132.81v65.7H108.121V74.194l-5.815,11.832H89.758L83.943,74.194V97.249Z" transform="translate(27.186 14.474)" fill="#00a5da"/>
      <path id="Trazado_1829" data-name="Trazado 1829" d="M133.769,98.208H107.621V77.562l-4.63,9.424H89.533L84.9,77.562V98.208H58.754V31.049H83.4L96.309,57.261l12.81-26.212h24.649ZM109.08,96.749h23.23V32.508H110.03L96.315,60.572,82.495,32.508H60.213V96.749h23.23V71.284l7,14.242h11.64l7-14.242Z" transform="translate(26.957 14.245)"/>
      <path id="Trazado_1830" data-name="Trazado 1830" d="M151.428,98.589q-18.569,0-28.412-8.569t-9.845-25.3q0-16.731,10.3-25.3t29.688-8.569a88.293,88.293,0,0,1,11.374.661,49.3,49.3,0,0,1,9.743,2.3V54.824a41.6,41.6,0,0,0-9.539-2.5,73.072,73.072,0,0,0-9.946-.664q-7.142,0-11.783,2.805T138.37,64.72q0,7.449,3.316,10.252t9.538,2.805a25.2,25.2,0,0,0,6.121-.713v-3.98H146.43V58.19h31.318V92.162a45.589,45.589,0,0,1-10.711,4.49,55.316,55.316,0,0,1-15.609,1.937" transform="translate(51.923 14.154)" fill="#00a5da"/>
      <path id="Trazado_1831" data-name="Trazado 1831" d="M151.658,99.549c-12.5,0-22.223-2.944-28.892-8.75-6.7-5.829-10.095-14.527-10.095-25.849s3.555-20.032,10.566-25.862c6.97-5.8,17.116-8.738,30.155-8.738a89.321,89.321,0,0,1,11.469.668,50.321,50.321,0,0,1,9.888,2.33l.49.171v22.6l-.995-.389a41.1,41.1,0,0,0-9.373-2.454,72.487,72.487,0,0,0-9.847-.658,21.861,21.861,0,0,0-11.406,2.7c-2.886,1.745-4.289,4.894-4.289,9.63,0,4.716,1.028,7.978,3.058,9.7,2.061,1.748,5.112,2.632,9.066,2.632a24.942,24.942,0,0,0,5.392-.562V74.045H145.929V57.69h32.778V92.8l-.35.213a46.507,46.507,0,0,1-10.884,4.565,56.3,56.3,0,0,1-15.815,1.969m1.735-67.74c-12.689,0-22.521,2.826-29.221,8.4-6.662,5.541-10.041,13.864-10.041,24.741s3.228,19.208,9.595,24.749c6.394,5.567,15.793,8.391,27.933,8.391a54.793,54.793,0,0,0,15.4-1.91,46.071,46.071,0,0,0,10.19-4.2V59.149h-29.86V72.586H158.3v5.278l-.553.137a26,26,0,0,1-6.3.737c-4.311,0-7.678-1-10.01-2.979-2.371-2.006-3.573-5.643-3.573-10.808,0-5.215,1.681-8.875,4.993-10.877a23.27,23.27,0,0,1,12.161-2.912,74.248,74.248,0,0,1,10.045.671A42.347,42.347,0,0,1,173.78,54V34.56a48.945,48.945,0,0,0-9.109-2.095,87.956,87.956,0,0,0-11.279-.655" transform="translate(51.694 13.925)"/>
      <path id="Trazado_1832" data-name="Trazado 1832" d="M42.7,92.8q-11.12,0-18.975-3.316A24.247,24.247,0,0,1,11.688,78.726Q7.5,71.281,7.506,58.936q0-12.447,4.182-19.843A24.324,24.324,0,0,1,23.726,28.381Q31.58,25.066,42.7,25.065t18.975,3.316a24.346,24.346,0,0,1,12.04,10.712q4.182,7.4,4.182,19.843,0,12.344-4.182,19.79a24.268,24.268,0,0,1-12.04,10.763Q53.82,92.806,42.7,92.8m0-20.913q5.407,0,7.7-2.907t2.3-10.048q0-7.14-2.3-10.05t-7.7-2.907q-5.407,0-7.7,2.907T32.7,58.936q0,7.14,2.295,10.048t7.7,2.907" transform="translate(3.444 11.5)" fill="#00bf9f"/>
      <path id="Trazado_1833" data-name="Trazado 1833" d="M42.931,93.763c-7.479,0-13.959-1.135-19.259-3.373A25.09,25.09,0,0,1,11.281,79.313C8.443,74.265,7.005,67.486,7.005,59.165c0-8.388,1.44-15.185,4.277-20.2a25.166,25.166,0,0,1,12.39-11.024c5.306-2.238,11.784-3.373,19.259-3.373S56.883,25.7,62.19,27.938A25.169,25.169,0,0,1,74.578,38.962c2.839,5.021,4.277,11.818,4.277,20.2,0,8.318-1.438,15.1-4.276,20.148A25.093,25.093,0,0,1,62.19,90.391c-5.3,2.238-11.781,3.373-19.259,3.373m0-67.74c-7.278,0-13.567,1.1-18.692,3.258a23.736,23.736,0,0,0-11.688,10.4c-2.712,4.8-4.088,11.352-4.088,19.485,0,8.067,1.376,14.606,4.089,19.433A23.65,23.65,0,0,0,24.239,89.046C29.358,91.208,35.647,92.3,42.931,92.3s13.571-1.1,18.692-3.258A23.667,23.667,0,0,0,73.308,78.6c2.715-4.832,4.089-11.37,4.089-19.434,0-8.13-1.374-14.686-4.088-19.485a23.745,23.745,0,0,0-11.687-10.4c-5.126-2.16-11.415-3.258-18.692-3.258m0,46.826c-3.822,0-6.605-1.071-8.274-3.185-1.65-2.09-2.452-5.524-2.452-10.5s.8-8.41,2.452-10.5c1.669-2.114,4.452-3.185,8.274-3.185s6.607,1.071,8.276,3.185c1.65,2.092,2.452,5.526,2.452,10.5s-.8,8.41-2.452,10.5c-1.669,2.114-4.454,3.185-8.276,3.185m0-25.913c-3.352,0-5.752.885-7.129,2.63-1.419,1.8-2.139,5.027-2.139,9.6s.719,7.8,2.139,9.6c1.379,1.745,3.777,2.629,7.129,2.629s5.752-.884,7.131-2.63c1.418-1.8,2.139-5.026,2.139-9.6s-.721-7.8-2.139-9.6c-1.379-1.743-3.777-2.629-7.131-2.629" transform="translate(3.214 11.27)"/>
      <path id="Trazado_1834" data-name="Trazado 1834" d="M59.254,91.464v-65.7H82.719L96.083,52.9l13.262-27.138H132.81v65.7H108.121V68.409l-5.815,11.832H89.758L83.943,68.409V91.464Z" transform="translate(27.186 11.82)" fill="#00bf9f"/>
      <path id="Trazado_1835" data-name="Trazado 1835" d="M133.769,92.423H107.621V71.777l-4.63,9.424H89.533L84.9,71.777V92.423H58.754V25.264H83.4l12.908,26.21,12.81-26.21h24.649ZM109.08,90.964h23.23V26.723H110.03L96.315,54.787,82.495,26.723H60.213V90.964h23.23V65.5l7,14.241h11.64l7-14.241Z" transform="translate(26.957 11.591)"/>
      <path id="Trazado_1836" data-name="Trazado 1836" d="M151.428,92.8q-18.569,0-28.412-8.569t-9.845-25.3q0-16.731,10.3-25.3t29.688-8.568a88.032,88.032,0,0,1,11.374.661,49.4,49.4,0,0,1,9.743,2.295V49.039a41.6,41.6,0,0,0-9.539-2.5,73.072,73.072,0,0,0-9.946-.664q-7.142,0-11.783,2.805T138.37,58.935q0,7.449,3.316,10.254t9.538,2.8a25.2,25.2,0,0,0,6.121-.713V67.3H146.43V52.4h31.318V86.377a45.589,45.589,0,0,1-10.711,4.49A55.316,55.316,0,0,1,151.428,92.8" transform="translate(51.923 11.5)" fill="#00bf9f"/>
      <path id="Trazado_1837" data-name="Trazado 1837" d="M151.658,93.763c-12.5,0-22.223-2.944-28.892-8.748-6.7-5.831-10.095-14.528-10.095-25.85s3.555-20.032,10.566-25.862c6.972-5.8,17.116-8.738,30.155-8.738a89.385,89.385,0,0,1,11.469.668,50.37,50.37,0,0,1,9.888,2.33l.49.171v22.6l-.995-.389a41.1,41.1,0,0,0-9.373-2.454,72.6,72.6,0,0,0-9.847-.658,21.854,21.854,0,0,0-11.406,2.7c-2.886,1.745-4.289,4.894-4.289,9.628,0,4.716,1.028,7.978,3.058,9.7,2.061,1.746,5.112,2.632,9.066,2.632a24.942,24.942,0,0,0,5.392-.562V68.259H145.929V51.906h32.778V87.016l-.35.213A46.62,46.62,0,0,1,167.472,91.8a56.288,56.288,0,0,1-15.815,1.968m1.735-67.74c-12.689,0-22.52,2.826-29.221,8.4-6.662,5.539-10.041,13.863-10.041,24.74s3.228,19.21,9.595,24.75c6.394,5.565,15.792,8.39,27.933,8.39a54.836,54.836,0,0,0,15.4-1.908,46.127,46.127,0,0,0,10.19-4.2V53.365h-29.86V66.8H158.3v5.278l-.553.137a26,26,0,0,1-6.3.735c-4.311,0-7.678-1-10.01-2.977-2.371-2.006-3.573-5.643-3.573-10.808,0-5.215,1.681-8.874,4.993-10.877a23.273,23.273,0,0,1,12.161-2.912,74.344,74.344,0,0,1,10.045.671,42.417,42.417,0,0,1,8.711,2.165V28.774a48.88,48.88,0,0,0-9.109-2.093,87.771,87.771,0,0,0-11.279-.656" transform="translate(51.694 11.27)"/>
      <path id="Trazado_1838" data-name="Trazado 1838" d="M42.7,87.019q-11.12,0-18.975-3.316A24.247,24.247,0,0,1,11.688,72.94Q7.5,65.5,7.506,53.15q0-12.447,4.182-19.844A24.328,24.328,0,0,1,23.726,22.595Q31.58,19.282,42.7,19.279t18.975,3.316a24.35,24.35,0,0,1,12.04,10.711Q77.9,40.7,77.9,53.15q0,12.344-4.182,19.79A24.269,24.269,0,0,1,61.676,83.7Q53.82,87.02,42.7,87.019m0-20.913q5.407,0,7.7-2.907T52.7,53.15q0-7.14-2.3-10.05t-7.7-2.907q-5.407,0-7.7,2.907T32.7,53.15Q32.7,60.29,35,63.2t7.7,2.907" transform="translate(3.444 8.845)" fill="#ffd70e"/>
      <path id="Trazado_1839" data-name="Trazado 1839" d="M42.931,87.977c-7.479,0-13.958-1.135-19.259-3.373A25.077,25.077,0,0,1,11.281,73.526C8.443,68.479,7.005,61.7,7.005,53.378c0-8.388,1.44-15.185,4.277-20.2a25.168,25.168,0,0,1,12.39-11.026c5.306-2.238,11.786-3.371,19.259-3.371s13.952,1.133,19.259,3.371A25.165,25.165,0,0,1,74.578,33.177c2.839,5.02,4.277,11.816,4.277,20.2,0,8.318-1.438,15.1-4.276,20.148A25.08,25.08,0,0,1,62.19,84.6c-5.3,2.238-11.781,3.373-19.259,3.373m0-67.738c-7.278,0-13.567,1.094-18.692,3.256a23.738,23.738,0,0,0-11.688,10.4c-2.712,4.8-4.088,11.351-4.088,19.484,0,8.069,1.376,14.606,4.089,19.433A23.654,23.654,0,0,0,24.239,83.261c5.12,2.162,11.408,3.258,18.692,3.258s13.57-1.1,18.692-3.258A23.661,23.661,0,0,0,73.308,72.813c2.715-4.832,4.089-11.37,4.089-19.434,0-8.13-1.374-14.686-4.088-19.484a23.741,23.741,0,0,0-11.687-10.4c-5.126-2.162-11.415-3.256-18.692-3.256m0,46.825c-3.822,0-6.605-1.071-8.274-3.185-1.65-2.09-2.452-5.524-2.452-10.5s.8-8.41,2.452-10.5c1.669-2.115,4.452-3.186,8.274-3.186s6.607,1.071,8.276,3.186c1.65,2.09,2.452,5.526,2.452,10.5s-.8,8.41-2.452,10.5c-1.669,2.114-4.452,3.185-8.276,3.185m0-25.913c-3.352,0-5.752.884-7.129,2.63-1.419,1.8-2.139,5.029-2.139,9.6s.719,7.8,2.139,9.6c1.377,1.746,3.777,2.63,7.129,2.63s5.752-.884,7.131-2.63c1.418-1.8,2.139-5.024,2.139-9.6s-.721-7.8-2.139-9.6c-1.379-1.746-3.777-2.63-7.131-2.63" transform="translate(3.214 8.616)"/>
      <path id="Trazado_1840" data-name="Trazado 1840" d="M59.254,85.678v-65.7H82.719L96.083,47.116l13.262-27.137H132.81v65.7H108.121V62.623l-5.815,11.832H89.758L83.943,62.623V85.678Z" transform="translate(27.186 9.166)" fill="#ffd70e"/>
      <path id="Trazado_1841" data-name="Trazado 1841" d="M133.769,86.637H107.621V65.991l-4.63,9.424H89.533L84.9,65.991V86.637H58.754V19.478H83.4L96.309,45.69l12.81-26.212h24.649ZM109.08,85.178h23.23V20.937H110.03L96.315,49,82.495,20.937H60.213V85.178h23.23V59.713l7,14.242h11.64l7-14.242Z" transform="translate(26.957 8.936)"/>
      <path id="Trazado_1842" data-name="Trazado 1842" d="M151.428,87.018q-18.569,0-28.412-8.569t-9.845-25.3q0-16.731,10.3-25.3t29.688-8.569a88.293,88.293,0,0,1,11.374.661,49.3,49.3,0,0,1,9.743,2.3V43.253a41.6,41.6,0,0,0-9.539-2.5,73.071,73.071,0,0,0-9.946-.664q-7.142,0-11.783,2.805T138.37,53.149q0,7.449,3.316,10.254t9.538,2.8a25.2,25.2,0,0,0,6.121-.713v-3.98H146.43V46.619h31.318V80.591a45.59,45.59,0,0,1-10.711,4.49,55.369,55.369,0,0,1-15.609,1.937" transform="translate(51.923 8.845)" fill="#ffd70e"/>
      <path id="Trazado_1843" data-name="Trazado 1843" d="M151.658,87.977c-12.5,0-22.223-2.942-28.892-8.748-6.7-5.829-10.095-14.527-10.095-25.849s3.555-20.032,10.566-25.862c6.97-5.8,17.116-8.738,30.155-8.738a89.321,89.321,0,0,1,11.469.668,50.321,50.321,0,0,1,9.888,2.33l.49.171v22.6l-.995-.389a41.176,41.176,0,0,0-9.373-2.455,72.773,72.773,0,0,0-9.847-.656,21.861,21.861,0,0,0-11.406,2.7c-2.886,1.746-4.289,4.894-4.289,9.63,0,4.716,1.028,7.978,3.058,9.7,2.061,1.746,5.112,2.632,9.066,2.632a24.962,24.962,0,0,0,5.392-.562V62.474H145.929V46.119h32.778V81.231l-.35.213a46.56,46.56,0,0,1-10.884,4.565,56.288,56.288,0,0,1-15.815,1.968m1.735-67.738c-12.689,0-22.521,2.826-29.221,8.4C117.508,34.179,114.13,42.5,114.13,53.38s3.228,19.208,9.595,24.749c6.394,5.567,15.792,8.39,27.933,8.39a54.836,54.836,0,0,0,15.4-1.908,46.09,46.09,0,0,0,10.19-4.2V47.578h-29.86V61.015H158.3v5.278l-.553.139a26.089,26.089,0,0,1-6.3.734c-4.311,0-7.678-1-10.01-2.977-2.371-2.007-3.573-5.643-3.573-10.808,0-5.215,1.681-8.875,4.993-10.877a23.27,23.27,0,0,1,12.161-2.912,74.283,74.283,0,0,1,10.045.67,42.516,42.516,0,0,1,8.711,2.166V22.989a48.945,48.945,0,0,0-9.109-2.095,87.955,87.955,0,0,0-11.279-.655" transform="translate(51.694 8.616)"/>
      <path id="Trazado_1844" data-name="Trazado 1844" d="M42.7,81.234q-11.12,0-18.975-3.316A24.247,24.247,0,0,1,11.688,67.155Q7.5,59.71,7.506,47.365q0-12.447,4.182-19.843A24.324,24.324,0,0,1,23.726,16.81Q31.58,13.5,42.7,13.494T61.676,16.81a24.346,24.346,0,0,1,12.04,10.712q4.182,7.4,4.182,19.843,0,12.344-4.182,19.79a24.269,24.269,0,0,1-12.04,10.763Q53.82,81.235,42.7,81.234m0-20.913q5.407,0,7.7-2.907t2.3-10.048q0-7.14-2.3-10.05t-7.7-2.907q-5.407,0-7.7,2.907T32.7,47.365Q32.7,54.5,35,57.413t7.7,2.907" transform="translate(3.444 6.191)" fill="#ff991e"/>
      <path id="Trazado_1845" data-name="Trazado 1845" d="M42.931,82.192c-7.478,0-13.958-1.135-19.259-3.373A25.09,25.09,0,0,1,11.281,67.741C8.443,62.694,7.005,55.915,7.005,47.593c0-8.388,1.44-15.185,4.277-20.2a25.158,25.158,0,0,1,12.39-11.024c5.306-2.239,11.784-3.373,19.259-3.373s13.952,1.133,19.259,3.371A25.164,25.164,0,0,1,74.578,27.392c2.839,5.021,4.277,11.818,4.277,20.2,0,8.318-1.438,15.1-4.276,20.148a25.1,25.1,0,0,1-12.39,11.08c-5.3,2.236-11.783,3.371-19.259,3.371m0-67.738c-7.278,0-13.567,1.1-18.692,3.256a23.744,23.744,0,0,0-11.688,10.4C9.839,32.9,8.464,39.461,8.464,47.593c0,8.069,1.376,14.606,4.089,19.433A23.66,23.66,0,0,0,24.239,77.476c5.12,2.162,11.409,3.258,18.692,3.258s13.57-1.1,18.692-3.258A23.654,23.654,0,0,0,73.308,67.028C76.023,62.2,77.4,55.658,77.4,47.593c0-8.13-1.374-14.686-4.088-19.484a23.741,23.741,0,0,0-11.687-10.4c-5.126-2.16-11.415-3.256-18.692-3.256m0,46.825c-3.822,0-6.605-1.071-8.274-3.183C33.007,56,32.2,52.569,32.2,47.593s.8-8.41,2.452-10.5c1.669-2.115,4.452-3.186,8.274-3.186s6.607,1.071,8.276,3.185c1.65,2.092,2.452,5.527,2.452,10.5s-.8,8.41-2.452,10.5c-1.669,2.114-4.454,3.185-8.276,3.185m0-25.913c-3.352,0-5.751.884-7.129,2.63-1.419,1.8-2.139,5.027-2.139,9.6s.719,7.8,2.139,9.6c1.377,1.745,3.777,2.629,7.129,2.629s5.752-.884,7.131-2.63c1.418-1.8,2.139-5.024,2.139-9.6s-.721-7.8-2.139-9.6c-1.379-1.746-3.778-2.63-7.131-2.63" transform="translate(3.214 5.962)"/>
      <path id="Trazado_1846" data-name="Trazado 1846" d="M59.254,79.893v-65.7H82.719L96.083,41.331l13.262-27.138H132.81v65.7H108.121V56.838L102.306,68.67H89.758L83.943,56.838V79.893Z" transform="translate(27.186 6.511)" fill="#ff991e"/>
      <path id="Trazado_1847" data-name="Trazado 1847" d="M133.769,80.851H107.621V60.2l-4.63,9.425H89.533L84.9,60.2V80.851H58.754V13.693H83.4L96.309,39.9l12.81-26.21h24.649ZM109.08,79.392h23.23V15.152H110.03L96.315,43.216,82.495,15.152H60.213v64.24h23.23V53.93l7,14.241h11.64l7-14.241Z" transform="translate(26.957 6.282)"/>
      <path id="Trazado_1848" data-name="Trazado 1848" d="M151.428,81.233q-18.569,0-28.412-8.569t-9.845-25.3q0-16.731,10.3-25.3t29.688-8.569a88.293,88.293,0,0,1,11.374.661,49.3,49.3,0,0,1,9.743,2.3V37.468a41.6,41.6,0,0,0-9.539-2.5,73.072,73.072,0,0,0-9.946-.664q-7.142,0-11.783,2.805T138.37,47.364q0,7.449,3.316,10.252t9.538,2.805a25.2,25.2,0,0,0,6.121-.713v-3.98H146.43V40.834h31.318V74.806a45.59,45.59,0,0,1-10.711,4.49,55.369,55.369,0,0,1-15.609,1.937" transform="translate(51.923 6.191)" fill="#ff991e"/>
      <path id="Trazado_1849" data-name="Trazado 1849" d="M151.658,82.192c-12.5,0-22.223-2.944-28.892-8.75-6.7-5.829-10.095-14.527-10.095-25.849s3.555-20.032,10.566-25.862c6.97-5.8,17.116-8.738,30.155-8.738a89.435,89.435,0,0,1,11.469.668,50.321,50.321,0,0,1,9.888,2.33l.49.171v22.6l-.995-.389a41.1,41.1,0,0,0-9.373-2.454,72.6,72.6,0,0,0-9.847-.658,21.861,21.861,0,0,0-11.406,2.7c-2.886,1.745-4.289,4.894-4.289,9.63,0,4.716,1.028,7.978,3.058,9.7,2.061,1.746,5.112,2.632,9.066,2.632a24.942,24.942,0,0,0,5.392-.562V56.688H145.929V40.333h32.778V75.445l-.35.213a46.507,46.507,0,0,1-10.884,4.565,56.3,56.3,0,0,1-15.815,1.969m1.735-67.74c-12.689,0-22.521,2.826-29.221,8.4-6.662,5.541-10.041,13.864-10.041,24.741s3.228,19.208,9.595,24.749c6.394,5.567,15.793,8.391,27.933,8.391a54.793,54.793,0,0,0,15.4-1.91,46.072,46.072,0,0,0,10.19-4.2V41.792h-29.86V55.229H158.3v5.278l-.553.137a26,26,0,0,1-6.3.735c-4.311,0-7.678-1-10.01-2.977-2.371-2.006-3.573-5.643-3.573-10.808,0-5.215,1.681-8.875,4.993-10.877a23.27,23.27,0,0,1,12.161-2.912,74.346,74.346,0,0,1,10.045.671,42.347,42.347,0,0,1,8.711,2.165V17.2a48.945,48.945,0,0,0-9.109-2.095,88.085,88.085,0,0,0-11.279-.655" transform="translate(51.694 5.961)"/>
      <path id="Trazado_1850" data-name="Trazado 1850" d="M42.7,75.449q-11.12,0-18.975-3.317A24.251,24.251,0,0,1,11.688,61.37Q7.5,53.923,7.506,41.58q0-12.447,4.182-19.843A24.327,24.327,0,0,1,23.726,11.023Q31.58,7.708,42.7,7.709t18.975,3.314a24.349,24.349,0,0,1,12.04,10.713Q77.9,29.131,77.9,41.58q0,12.344-4.182,19.79a24.272,24.272,0,0,1-12.04,10.762Q53.82,75.451,42.7,75.449m0-20.915q5.407,0,7.7-2.907T52.7,41.58q0-7.14-2.3-10.051t-7.7-2.906q-5.407,0-7.7,2.906T32.7,41.58q0,7.138,2.295,10.047t7.7,2.907" transform="translate(3.444 3.536)" fill="#ff7ec8"/>
      <path id="Trazado_1851" data-name="Trazado 1851" d="M42.931,76.407c-7.479,0-13.959-1.135-19.259-3.373A25.09,25.09,0,0,1,11.281,61.957C8.443,56.909,7.005,50.13,7.005,41.809c0-8.388,1.44-15.185,4.277-20.2a25.162,25.162,0,0,1,12.39-11.026c5.306-2.238,11.784-3.373,19.259-3.373S56.883,8.344,62.19,10.582A25.165,25.165,0,0,1,74.578,21.607c2.839,5.02,4.277,11.816,4.277,20.2,0,8.318-1.438,15.1-4.276,20.148A25.093,25.093,0,0,1,62.19,73.035c-5.3,2.238-11.781,3.373-19.259,3.373m0-67.74c-7.278,0-13.567,1.1-18.692,3.258a23.732,23.732,0,0,0-11.688,10.4c-2.712,4.8-4.088,11.35-4.088,19.484,0,8.067,1.376,14.606,4.089,19.433A23.65,23.65,0,0,0,24.239,71.69c5.119,2.162,11.408,3.259,18.692,3.259s13.571-1.1,18.692-3.258A23.667,23.667,0,0,0,73.308,61.243c2.715-4.832,4.089-11.37,4.089-19.434,0-8.13-1.374-14.686-4.088-19.484a23.735,23.735,0,0,0-11.687-10.4C56.5,9.763,50.208,8.668,42.931,8.668m0,46.826c-3.822,0-6.605-1.071-8.274-3.185-1.65-2.09-2.452-5.524-2.452-10.5s.8-8.41,2.452-10.5c1.669-2.115,4.452-3.186,8.274-3.186s6.607,1.071,8.276,3.186c1.65,2.09,2.452,5.524,2.452,10.5s-.8,8.41-2.452,10.5c-1.669,2.114-4.454,3.185-8.276,3.185m0-25.913c-3.352,0-5.752.884-7.129,2.63-1.419,1.8-2.139,5.027-2.139,9.6s.719,7.8,2.139,9.6c1.379,1.746,3.777,2.63,7.129,2.63s5.752-.884,7.131-2.63c1.418-1.8,2.139-5.026,2.139-9.6s-.721-7.8-2.139-9.6c-1.379-1.746-3.777-2.63-7.131-2.63" transform="translate(3.214 3.307)"/>
      <path id="Trazado_1852" data-name="Trazado 1852" d="M59.254,74.107V8.407H82.719L96.083,35.545,109.345,8.407H132.81v65.7H108.121V51.052l-5.815,11.832H89.758L83.943,51.052V74.107Z" transform="translate(27.186 3.857)" fill="#ff7ec8"/>
      <path id="Trazado_1853" data-name="Trazado 1853" d="M133.039,75.066H108.35a.73.73,0,0,1-.729-.729V54.42l-4.43,9.017a.729.729,0,0,1-.655.407H89.987a.73.73,0,0,1-.655-.407L84.9,54.42V74.337a.729.729,0,0,1-.729.729H59.483a.73.73,0,0,1-.729-.729V8.636a.73.73,0,0,1,.729-.729H82.948a.733.733,0,0,1,.655.408l12.706,25.8,12.61-25.8a.729.729,0,0,1,.655-.41h23.465a.73.73,0,0,1,.729.729v65.7a.73.73,0,0,1-.729.729M109.08,73.607h23.23V9.366H110.03L96.967,36.094a.73.73,0,0,1-.654.408h0a.732.732,0,0,1-.655-.407L82.495,9.366H60.213V73.607h23.23V51.282a.73.73,0,0,1,1.384-.322l5.615,11.425h11.64L107.7,50.959a.73.73,0,0,1,1.384.322Z" transform="translate(26.957 3.627)"/>
      <path id="Trazado_1854" data-name="Trazado 1854" d="M151.428,75.448q-18.569,0-28.412-8.569t-9.845-25.3q0-16.731,10.3-25.3t29.688-8.57a88.276,88.276,0,0,1,11.374.662,49.3,49.3,0,0,1,9.743,2.3V31.682a41.6,41.6,0,0,0-9.539-2.5,73.071,73.071,0,0,0-9.946-.664q-7.142,0-11.783,2.805T138.37,41.579q0,7.449,3.316,10.252t9.538,2.805a25.2,25.2,0,0,0,6.121-.713v-3.98H146.43V35.049h31.318V69.02a45.59,45.59,0,0,1-10.711,4.49,55.369,55.369,0,0,1-15.609,1.937" transform="translate(51.923 3.536)" fill="#ff7ec8"/>
      <path id="Trazado_1855" data-name="Trazado 1855" d="M151.658,76.407c-12.5,0-22.223-2.944-28.892-8.748-6.7-5.831-10.095-14.527-10.095-25.85s3.555-20.032,10.566-25.862c6.972-5.8,17.116-8.738,30.155-8.738a89.386,89.386,0,0,1,11.469.668,50.37,50.37,0,0,1,9.888,2.33.729.729,0,0,1,.49.689V31.912a.731.731,0,0,1-.995.68,41.028,41.028,0,0,0-9.373-2.455,72.6,72.6,0,0,0-9.847-.658,21.854,21.854,0,0,0-11.406,2.7c-2.886,1.745-4.289,4.894-4.289,9.628,0,4.716,1.028,7.978,3.058,9.7,2.061,1.748,5.112,2.633,9.066,2.633a24.941,24.941,0,0,0,5.392-.563V50.9H146.658a.729.729,0,0,1-.729-.729V35.279a.729.729,0,0,1,.729-.729h31.319a.729.729,0,0,1,.729.729V69.251a.731.731,0,0,1-.35.623,46.62,46.62,0,0,1-10.884,4.566,56.288,56.288,0,0,1-15.815,1.968m1.735-67.74c-12.689,0-22.52,2.826-29.221,8.4-6.662,5.539-10.041,13.863-10.041,24.74s3.228,19.21,9.595,24.75c6.394,5.567,15.792,8.39,27.933,8.39a54.836,54.836,0,0,0,15.4-1.908,46.127,46.127,0,0,0,10.19-4.2V36.009h-29.86V49.444h10.187a.73.73,0,0,1,.729.729v3.978a.729.729,0,0,1-.553.708,26,26,0,0,1-6.3.737c-4.311,0-7.678-1-10.01-2.977-2.371-2.007-3.573-5.644-3.573-10.81,0-5.214,1.681-8.874,4.993-10.877a23.273,23.273,0,0,1,12.161-2.912,74.345,74.345,0,0,1,10.045.671,42.417,42.417,0,0,1,8.711,2.165V11.418a48.88,48.88,0,0,0-9.109-2.093,87.77,87.77,0,0,0-11.279-.656" transform="translate(51.694 3.307)"/>
    </g>
  </g>
</svg>
