<?xml version="1.0" encoding="utf-8"?>
<!-- Generator: Adobe Illustrator 27.5.0, SVG Export Plug-In . SVG Version: 6.00 Build 0)  -->
<svg version="1.1" id="stay-weird" xmlns="http://www.w3.org/2000/svg" xmlns:xlink="http://www.w3.org/1999/xlink" x="0px" y="0px"
	 viewBox="0 0 213.5 210.9" style="enable-background:new 0 0 213.5 210.9;" xml:space="preserve">
<style type="text/css">
	.st0{clip-path:url(#SVGID_00000116942005312230613700000006797789076872101822_);}
	.st1{fill:#FFFFFF;}
	.st2{clip-path:url(#SVGID_00000064333995807810679480000005395514788253550499_);}
	.st3{fill:#FF7EC8;}
	.st4{fill:#9A7EFF;}
	.st5{clip-path:url(#SVGID_00000181796496077993459440000005184362975722407869_);}
	.st6{fill:#FFD70E;}
	.st7{fill:#FF5B2B;}
</style>
<g id="Grupo_407">
	<g>
		<defs>
			<rect id="SVGID_1_" x="-45" width="304.9" height="210.9"/>
		</defs>
		<clipPath id="SVGID_00000177442844910850552690000012258771886456376704_">
			<use xlink:href="#SVGID_1_"  style="overflow:visible;"/>
		</clipPath>
		<g id="Grupo_406" style="clip-path:url(#SVGID_00000177442844910850552690000012258771886456376704_);">
			<path id="Trazado_1882" d="M205.2,92.1c-1.5-3-2.7-6.1-3.7-9.3c-0.8-3.4-1.3-6.8-1.5-10.3c-0.5-5.5-1-11.2-3.7-15.8
				c-2.7-4.7-7.4-8-11.9-11.3c-2.9-1.9-5.5-4-8-6.4c-2.3-2.5-4.5-5.2-6.4-8.1c-3.2-4.5-6.5-9.2-11.2-12c-4.7-2.7-10.3-3.3-15.8-3.8
				c-3.5-0.2-6.9-0.8-10.3-1.6c-3.2-1-6.3-2.2-9.3-3.7c-5.1-2.4-10.3-4.8-15.9-4.8S96.6,7.6,91.5,9.9c-3,1.5-6.1,2.7-9.3,3.7
				c-3.4,0.8-6.8,1.3-10.3,1.6c-5.5,0.5-11.2,1.1-15.8,3.8c-4.7,2.8-8,7.4-11.2,12c-1.9,2.9-4,5.6-6.3,8.1c-2.5,2.4-5.2,4.5-8,6.4
				c-4.5,3.2-9.2,6.5-11.9,11.3C16,61.3,15.4,67,14.9,72.5c-0.2,3.5-0.7,6.9-1.5,10.3c-1,3.2-2.2,6.3-3.7,9.3
				c-2.3,5.1-4.8,10.3-4.8,15.9s2.4,10.9,4.8,15.9c1.5,3,2.7,6.1,3.7,9.3c0.8,3.4,1.3,6.8,1.5,10.3c0.5,5.5,1,11.2,3.7,15.8
				c2.7,4.7,7.4,8.1,11.9,11.3c2.9,1.9,5.5,4,8,6.4c2.3,2.5,4.5,5.2,6.4,8.1c3.2,4.5,6.5,9.2,11.2,12c4.7,2.7,10.3,3.3,15.8,3.8
				c3.5,0.2,6.9,0.8,10.3,1.6c3.2,1,6.3,2.2,9.3,3.7c5.1,2.4,10.3,4.8,15.9,4.8s10.9-2.4,15.9-4.8c3-1.5,6.1-2.7,9.3-3.7
				c3.4-0.8,6.8-1.3,10.3-1.6c5.5-0.5,11.2-1.1,15.8-3.8c4.7-2.8,8-7.4,11.2-12c1.9-2.9,4-5.6,6.4-8.1c2.5-2.4,5.2-4.5,8-6.4
				c4.5-3.2,9.2-6.5,11.9-11.3c2.7-4.7,3.2-10.3,3.7-15.8c0.2-3.5,0.7-6.9,1.5-10.3c1-3.2,2.2-6.3,3.7-9.3
				c2.3-5.1,4.8-10.3,4.8-15.9S207.6,97.1,205.2,92.1"/>
			<path id="Trazado_1883" class="st1" d="M107.5,205.1c-8.9,0-16.9-6.3-25.1-8.5c-8.5-2.3-18.5-0.9-25.9-5.3
				c-7.5-4.4-11.3-13.8-17.4-19.9s-15.5-10-19.8-17.5c-4.3-7.4-2.9-17.5-5.2-26c-2.2-8.2-8.4-16.2-8.4-25.1S11.8,86,14,77.8
				c2.3-8.5,0.9-18.5,5.2-26c4.4-7.6,13.7-11.4,19.8-17.5s9.9-15.6,17.4-19.9c7.4-4.3,17.4-3,25.9-5.3c8.2-2.2,16.2-8.5,25.1-8.5
				s16.9,6.3,25.1,8.5c8.5,2.3,18.5,0.9,25.9,5.3c7.5,4.4,11.3,13.8,17.4,19.9s15.5,10,19.8,17.5c4.3,7.4,2.9,17.5,5.2,26
				c2.2,8.2,8.4,16.2,8.4,25.1s-6.2,16.9-8.4,25.1c-2.3,8.5-0.9,18.5-5.2,26c-4.4,7.6-13.7,11.4-19.8,17.5s-9.9,15.6-17.4,19.9
				c-7.4,4.3-17.4,3-25.9,5.3C124.3,198.9,116.4,205.1,107.5,205.1"/>
			<path id="Trazado_1884" d="M107.5,205.8c-5.6,0-10.9-2.4-15.9-4.8c-3-1.5-6.1-2.7-9.3-3.7c-3.4-0.8-6.8-1.3-10.3-1.6
				c-5.5-0.5-11.2-1.1-15.8-3.8c-4.7-2.8-8-7.4-11.2-12c-1.9-2.9-4-5.6-6.4-8.1c-2.5-2.4-5.2-4.5-8-6.4c-4.5-3.2-9.2-6.5-11.9-11.3
				c-2.7-4.7-3.2-10.3-3.7-15.8c-0.2-3.5-0.7-6.9-1.5-10.3c-1-3.2-2.2-6.3-3.7-9.3c-2.3-5.1-4.8-10.3-4.8-15.9S7.4,92,9.7,87
				c1.5-3,2.7-6.1,3.7-9.3c0.8-3.4,1.3-6.8,1.5-10.3c0.5-5.5,1-11.2,3.7-15.8c2.7-4.7,7.4-8,11.9-11.3c2.9-1.9,5.5-4,8-6.4
				c2.3-2.5,4.5-5.2,6.4-8.1c3.2-4.5,6.5-9.2,11.2-12c4.7-2.7,10.3-3.3,15.8-3.8c3.5-0.2,6.9-0.8,10.3-1.6c3.2-1,6.3-2.2,9.3-3.7
				C96.6,2.4,101.8,0,107.5,0s10.9,2.4,15.9,4.8c3,1.5,6.1,2.7,9.3,3.7c3.4,0.8,6.8,1.3,10.3,1.6c5.5,0.5,11.2,1.1,15.8,3.8
				c4.7,2.8,8,7.4,11.2,12c1.9,2.9,4,5.6,6.4,8.1c2.5,2.4,5.2,4.5,8,6.4c4.5,3.2,9.2,6.5,11.9,11.3c2.7,4.7,3.2,10.3,3.7,15.8
				c0.2,3.5,0.7,6.9,1.5,10.3c1,3.2,2.2,6.3,3.7,9.3c2.3,5.1,4.8,10.3,4.8,15.9s-2.4,10.9-4.8,15.9c-1.5,3-2.7,6.1-3.7,9.3
				c-0.8,3.4-1.3,6.8-1.5,10.3c-0.5,5.5-1,11.2-3.7,15.8c-2.7,4.7-7.4,8.1-11.9,11.3c-2.9,1.9-5.5,4-8,6.4c-2.3,2.5-4.5,5.2-6.4,8.1
				c-3.2,4.5-6.5,9.2-11.2,12c-4.7,2.7-10.3,3.3-15.8,3.8c-3.5,0.2-6.9,0.8-10.3,1.6c-3.2,1-6.3,2.2-9.3,3.7
				C118.3,203.3,113.1,205.8,107.5,205.8 M107.5,1.3C102.1,1.3,97,3.7,92.1,6c-3.1,1.5-6.2,2.8-9.5,3.8c-3.4,0.8-6.9,1.4-10.5,1.6
				c-5.6,0.5-10.9,1.1-15.3,3.6c-4.5,2.6-7.7,7.2-10.8,11.6c-1.9,2.9-4.1,5.7-6.5,8.2c-2.5,2.4-5.3,4.6-8.2,6.5
				c-4.4,3.1-8.9,6.3-11.5,10.8c-2.5,4.4-3,9.7-3.6,15.3C16,71,15.5,74.5,14.7,78c-1,3.3-2.3,6.5-3.8,9.5c-2.3,4.9-4.6,10-4.6,15.4
				s2.4,10.4,4.6,15.4c1.5,3.1,2.8,6.3,3.8,9.5c0.8,3.5,1.3,7,1.6,10.5c0.5,5.6,1,10.9,3.6,15.3c2.6,4.5,7.1,7.7,11.5,10.8
				c2.9,1.9,5.7,4.1,8.2,6.5c2.4,2.6,4.6,5.3,6.5,8.2c3.1,4.4,6.3,9,10.8,11.6c4.4,2.6,9.7,3.1,15.3,3.6c3.5,0.2,7,0.8,10.5,1.6
				c3.3,1,6.4,2.3,9.5,3.8c4.9,2.3,10.1,4.7,15.4,4.7s10.5-2.4,15.4-4.7c3.1-1.5,6.2-2.8,9.5-3.8c3.4-0.8,6.9-1.3,10.5-1.6
				c5.6-0.5,10.9-1.1,15.3-3.6c4.5-2.6,7.7-7.2,10.8-11.6c1.9-2.9,4.1-5.7,6.5-8.2c2.5-2.4,5.3-4.6,8.2-6.5
				c4.4-3.1,8.9-6.3,11.5-10.8c2.5-4.4,3-9.7,3.6-15.3c0.2-3.5,0.8-7.1,1.6-10.5c1-3.3,2.3-6.5,3.8-9.5c2.3-4.9,4.6-10,4.6-15.4
				s-2.4-10.4-4.6-15.4c-1.5-3.1-2.8-6.3-3.8-9.5c-0.8-3.5-1.3-7-1.6-10.5c-0.5-5.6-1-10.9-3.6-15.3c-2.6-4.5-7.1-7.7-11.5-10.8
				c-2.9-1.9-5.7-4.1-8.2-6.5c-2.4-2.6-4.6-5.3-6.5-8.2c-3.1-4.4-6.3-9-10.8-11.6c-4.4-2.6-9.7-3.1-15.3-3.6
				c-3.5-0.2-7-0.8-10.5-1.6c-3.3-1-6.4-2.3-9.5-3.8C117.9,3.7,112.8,1.3,107.5,1.3"/>
		</g>
	</g>
</g>
<g id="Grupo_409" transform="translate(58.812 8.905)">
	<g>
		<defs>
			<path id="SVGID_00000065756733821290675560000014678859083924881579_" d="M25.7,8.2c-7.8,2.1-17.1,0.5-24,4.4
				c-6.9,4-10.1,13-15.7,18.6S-28.5,40.1-32.5,47c-3.9,6.8-2.3,16.2-4.3,24c-2,7.5-8.2,14.8-8.2,23s6.2,15.4,8.2,23
				c2.1,7.8,0.4,17.1,4.3,24c4,6.9,12.9,10.2,18.5,15.8s8.8,14.6,15.7,18.6c6.8,4,16.2,2.3,24,4.4c7.5,2,14.8,8.2,22.9,8.2
				s15.4-6.2,22.9-8.2c7.8-2.1,17.1-0.5,24-4.4c6.9-4,10.1-13,15.7-18.6s14.5-8.9,18.5-15.8c3.9-6.8,2.3-16.2,4.3-24
				c2-7.5,8.2-14.8,8.2-23s-6.2-15.4-8.2-23c-2.1-7.8-0.4-17.1-4.3-24c-4-6.9-12.9-10.2-18.5-15.8s-8.8-14.6-15.7-18.6
				c-6.8-4-16.2-2.3-24-4.4C64.1,6.2,56.8,0,48.7,0S33.2,6.2,25.7,8.2"/>
		</defs>
		<clipPath id="SVGID_00000151507650312012852280000010216952819956348310_">
			<use xlink:href="#SVGID_00000065756733821290675560000014678859083924881579_"  style="overflow:visible;"/>
		</clipPath>
		<g id="Grupo_408" style="clip-path:url(#SVGID_00000151507650312012852280000010216952819956348310_);">
			<path id="Trazado_1885" class="st3" d="M48.7,96c1.7-19.6,6.3-39.1,18-56.2c15.1-22,39-39.7,50.2-47.5H65.2
				c-6,9.2-11.8,18.5-16,28.5C39.2,44.9,40.4,71.8,48.7,96"/>
			<path id="Trazado_1886" class="st3" d="M98.3,39.6C75,51.2,58.3,72.3,48.7,96c14.1-13.7,30.4-25.4,50.4-30.6
				c31.1-8.2,67.8-3.1,75.2-2.3c8.9,1.1,18,0.9,26.9-0.5V-7.7h-8.3C179.3,5.5,161,19.7,141.4,25.1C126.7,29.2,111.8,32.9,98.3,39.6"
				/>
			<path id="Trazado_1887" class="st3" d="M-0.2,38.9C8,63.6,26.6,83.1,48.7,96C37.1,80.1,27.8,62.3,25.4,41.8
				c-2-17.1,0-35.2,2.6-49.4H-8.7C-8.6-7-8.5-6.4-8.4-5.8C-6.5,9.3-4.9,24.6-0.2,38.9"/>
			<path id="Trazado_1888" class="st3" d="M123.1,85.9C97.9,79.4,71.5,84.5,48.7,96c19.6-1.1,39.6,0.8,58.2,9.9
				c28.9,14.2,53.3,42.1,58.3,47.6c10,11,22.3,19.6,36,25.2V112c-12.4-1-25.1-3.6-36-8.8C151.4,96.7,137.7,89.7,123.1,85.9"/>
			<path id="Trazado_1889" class="st3" d="M48.7,96c3.8,19.3,4.8,39.3-1.6,59c-4.9,14.9-13.1,29.2-20.8,40.6h36.9
				c2.8-8.9,4.8-18,6-27.3C72,142.5,63.3,117,48.7,96"/>
			<path id="Trazado_1890" class="st3" d="M16.7,164.1C35.9,146.4,46,121.5,48.7,96c-9,17.5-20.6,33.9-37.8,45.3
				C-16,159-52.3,166.1-59.6,167.7c-16.7,3.4-31.4,11.3-44.2,21.8v6.1h75.3c2.5-2,5.2-3.9,8-5.7C-7.6,182,5.6,174.2,16.7,164.1"/>
			<path id="Trazado_1891" class="st3" d="M111.5,137.2c-14.8-21.4-38-35-62.9-41.2c15.5,12.1,29.4,26.5,37.4,45.6
				c7.6,18.1,10.6,38.8,11.9,54h44.6c-4.2-5.5-7.8-11.5-10.7-17.8C125.8,163.9,120,149.6,111.5,137.2"/>
			<path id="Trazado_1892" class="st3" d="M-63.9,126.8c15.1,1.8,30.3,3.9,45.3,2.8c26-2,49.4-15.3,67.3-33.6
				c-17.5,8.9-36.5,15.4-57.2,14.6c-32.1-1.3-65.8-16.8-72.6-19.8c-7.3-3.2-14.9-5.6-22.7-6.9v47C-90.9,127.3-76.9,125.3-63.9,126.8
				"/>
			<path id="Trazado_1893" class="st3" d="M-25.5,83.9c22.2,13.6,49,16.5,74.2,12.1C29.5,91.5,10.8,84.2-4.4,70.3
				C-28.2,48.5-43.8,15-47.1,8.3c-2.7-5.6-6-11-9.8-16h-47v39.9c15.3,4.8,31.3,12.1,43.2,22.9C-49.4,65.4-38.4,76-25.5,83.9"/>
			<path id="Trazado_1894" class="st4" d="M10.8,141.3C28,129.9,39.7,113.5,48.7,96c-17.9,18.3-41.3,31.6-67.3,33.6
				c-15,1.1-30.2-1.1-45.3-2.8c-13-1.5-27,0.5-39.9,4.1v58.6c12.8-10.6,27.6-18.4,44.2-21.8C-52.3,166.1-16,159,10.8,141.3"/>
			<path id="Trazado_1895" class="st4" d="M48.7,96c-2.7,25.5-12.8,50.4-31.9,68.1C5.6,174.2-7.6,182-20.6,190
				c-2.8,1.7-5.4,3.6-8,5.7h54.8c7.7-11.4,15.9-25.7,20.8-40.6C53.5,135.4,52.5,115.3,48.7,96"/>
			<path id="Trazado_1896" class="st4" d="M48.7,96c14.7,21,23.4,46.5,20.5,72.3c-1.2,9.3-3.2,18.4-6,27.3H98
				c-1.3-15.2-4.3-36-11.9-54C78.1,122.6,64.2,108.1,48.7,96"/>
			<path id="Trazado_1897" class="st4" d="M201.1,178.7c-13.7-5.6-26-14.2-36-25.2c-5-5.5-29.4-33.3-58.3-47.6
				C88.3,96.8,68.3,95,48.7,96c24.8,6.2,48.1,19.8,62.9,41.2c8.5,12.4,14.3,26.7,20.4,40.6c2.8,6.3,6.4,12.3,10.7,17.8h58.6
				L201.1,178.7z"/>
			<path id="Trazado_1898" class="st4" d="M174.2,63.1c-7.4-0.9-44.1-5.9-75.2,2.3c-20,5.2-36.3,17-50.4,30.6
				c22.8-11.6,49.3-16.6,74.5-10.1c14.6,3.8,28.3,10.8,42,17.3c10.9,5.2,23.6,7.8,36,8.8V62.6C192.2,64.1,183.2,64.2,174.2,63.1"/>
			<path id="Trazado_1899" class="st4" d="M66.7,39.8C55,56.9,50.4,76.4,48.7,96C58.3,72.3,75,51.2,98.3,39.6
				c13.5-6.7,28.4-10.4,43-14.4c19.6-5.4,38-19.6,51.5-32.8h-76C105.7,0.1,81.7,17.8,66.7,39.8"/>
			<path id="Trazado_1900" class="st4" d="M25.4,41.8C27.8,62.3,37.1,80.1,48.7,96c-8.2-24.2-9.4-51.1,0.5-75.2
				c4.2-10,10-19.3,16-28.5H28C25.4,6.6,23.5,24.7,25.4,41.8"/>
			<path id="Trazado_1901" class="st4" d="M-4.4,70.3C10.8,84.2,29.5,91.5,48.7,96C26.6,83.1,8,63.6-0.2,38.9
				C-4.9,24.6-6.5,9.3-8.4-5.8C-8.5-6.4-8.6-7-8.7-7.7h-48.1c3.8,5,7,10.3,9.8,16C-43.8,15-28.2,48.5-4.4,70.3"/>
			<path id="Trazado_1902" class="st4" d="M-8.5,110.6c20.6,0.8,39.6-5.6,57.2-14.6c-25.2,4.4-52,1.5-74.2-12.1
				C-38.3,76-49.4,65.4-60.6,55.1C-72.5,44.3-88.5,37-103.8,32.2v51.7c7.8,1.3,15.5,3.7,22.7,6.9C-74.3,93.8-40.7,109.3-8.5,110.6"
				/>
		</g>
	</g>
</g>
<g id="Grupo_411">
	<g>
		<defs>
			<rect id="SVGID_00000181074291389804269360000017524926146640247731_" x="-45" width="304.9" height="210.9"/>
		</defs>
		<clipPath id="SVGID_00000155146698536752409380000016573782534306621568_">
			<use xlink:href="#SVGID_00000181074291389804269360000017524926146640247731_"  style="overflow:visible;"/>
		</clipPath>
		<g id="Grupo_410" style="clip-path:url(#SVGID_00000155146698536752409380000016573782534306621568_);">
			<path id="Trazado_1904" class="st6" d="M147.6,102.9c0,22.2-18,40.1-40.1,40.1s-40.1-18-40.1-40.1s18-40.1,40.1-40.1l0,0
				C129.6,62.7,147.6,80.7,147.6,102.9C147.6,102.9,147.6,102.9,147.6,102.9"/>
			<path id="Trazado_1905" d="M107.5,143.7c-22.5,0-40.8-18.3-40.8-40.8s18.3-40.8,40.8-40.8s40.8,18.3,40.8,40.8
				C148.2,125.4,130,143.6,107.5,143.7 M107.5,63.4C85.7,63.4,68,81.1,68,102.9s17.7,39.5,39.5,39.5s39.5-17.7,39.5-39.5
				c0,0,0,0,0,0C146.9,81.1,129.3,63.4,107.5,63.4"/>
			<path id="Trazado_1906" class="st1" d="M110.6,86.1h-6.3c-2.8,0-5-2.3-5-5s2.3-5,5-5h6.3c2.8,0,5,2.3,5,5S113.4,86.1,110.6,86.1"
				/>
			<path id="Trazado_1907" d="M110.6,75.4h-6.3c-3.1,0-5.7,2.5-5.7,5.7c0,3.1,2.5,5.7,5.7,5.7h6.3c3.1,0,5.7-2.5,5.7-5.7
				C116.3,78,113.8,75.4,110.6,75.4 M99.9,81.1c0-2.4,2-4.4,4.4-4.4h0.2c-0.3,0.2-0.5,0.4-0.8,0.6c-0.3,0.3-0.3,0.7,0,0.9l2.4,2.4
				l-3.4,0.6c-0.4,0.1-0.6,0.4-0.5,0.8c0.2,1.1,0.7,2,1.5,2.8c0.2,0.2,0.5,0.5,0.8,0.6h-0.2C101.9,85.5,99.9,83.5,99.9,81.1
				 M110.6,85.5h-0.2c0.3-0.2,0.5-0.4,0.8-0.6c2.1-2.1,2.1-5.4,0-7.5c-0.2-0.2-0.5-0.5-0.8-0.6h0.2c2.4,0,4.4,2,4.3,4.4
				C114.9,83.5,113,85.4,110.6,85.5"/>
			<path id="Trazado_1908" class="st1" d="M99.6,102.5h-6.3c-2.8,0-5-2.3-5-5s2.3-5,5-5h6.3c2.8,0,5,2.3,5,5S102.4,102.5,99.6,102.5
				"/>
			<path id="Trazado_1909" d="M105.2,96.4c-0.5-2.7-2.8-4.6-5.6-4.6h-6.3c-3.1,0-5.7,2.5-5.7,5.7c0,3.1,2.5,5.7,5.7,5.7c0,0,0,0,0,0
				h6.3c2.7,0,5.1-1.9,5.6-4.6C105.3,97.9,105.3,97.2,105.2,96.4 M88.9,97.5c0-2.4,2-4.4,4.4-4.4h3.8c-0.3,0.2-0.5,0.4-0.8,0.6
				c-0.3,0.3-0.3,0.7,0,0.9l2.4,2.4l-3.4,0.6c-0.4,0.1-0.6,0.4-0.5,0.8c0.3,1.4,1.1,2.6,2.2,3.4h-3.8
				C90.9,101.9,88.9,99.9,88.9,97.5"/>
			<path id="Trazado_1910" class="st1" d="M121.6,102.5h-6.3c-2.8,0-5-2.3-5-5s2.3-5,5-5h6.3c2.8,0,5,2.3,5,5
				S124.4,102.5,121.6,102.5"/>
			<path id="Trazado_1911" d="M127.3,97.5c0-0.4,0-0.7-0.1-1.1c-0.5-2.7-2.8-4.6-5.6-4.6h-6.3c-3.1,0-5.7,2.5-5.7,5.7
				c0,3.1,2.5,5.7,5.7,5.7h6.3c2.7,0,5.1-1.9,5.6-4.6C127.2,98.2,127.3,97.9,127.3,97.5 M110.9,97.5c0-2.4,2-4.4,4.4-4.4h3.8
				c-0.3,0.2-0.5,0.4-0.8,0.6c-0.3,0.3-0.3,0.7,0,0.9l2.4,2.4l-3.4,0.6c-0.4,0.1-0.6,0.4-0.5,0.8c0.3,1.4,1.1,2.6,2.2,3.4h-3.8
				C112.9,101.9,110.9,99.9,110.9,97.5"/>
			<path id="Trazado_1912" d="M135.5,109.7c-0.3-0.1-0.7,0.1-0.8,0.4c-0.5,1.8-2.5,2.9-4.3,2.3s-2.9-2.5-2.3-4.3l0,0
				c0.1-0.3-0.1-0.7-0.4-0.8c-0.3-0.1-0.7,0.1-0.8,0.4l0,0c-0.7,2.4,0.5,4.9,2.8,5.8c0,0,0,0,0,0.1c-4.9,11.7-18.3,17.1-30,12.3
				c-5.5-2.3-9.9-6.7-12.3-12.3c0,0,0,0,0-0.1c2.3-0.9,3.5-3.4,2.8-5.8c-0.1-0.3-0.4-0.5-0.8-0.5c-0.3,0.1-0.5,0.4-0.5,0.8
				c0,0,0,0,0,0c0.5,1.8-0.5,3.8-2.3,4.3c-1.8,0.5-3.8-0.5-4.3-2.3c-0.1-0.3-0.5-0.5-0.8-0.4s-0.5,0.5-0.4,0.8
				c0.6,2.2,2.8,3.7,5.1,3.4c0,0.1,0,0.2,0,0.2c5.2,12.3,19.3,18.1,31.7,13c5.9-2.5,10.5-7.1,13-13c0-0.1,0-0.2,0-0.2
				c2.3,0.3,4.5-1.1,5.1-3.4C136,110.2,135.8,109.9,135.5,109.7"/>
			<path id="Trazado_1913" class="st1" d="M51.4,81c-0.4,0.5-0.9,1-1.4,1.4c-0.4,0.2-0.6,0.4-0.8,0.5c-0.4,0.2-0.8,0.2-1.1,0
				c-0.3-0.1-0.6-0.3-0.9-0.5c-0.5-0.4-0.6-0.8-0.5-1.1c0.3-0.4,0.6-0.7,0.9-1c0.4-0.4,0.8-0.9,1.1-1.4c0.3-0.6,0.2-0.9-0.3-1.1
				c-0.3-0.1-0.6-0.1-0.9,0.1c-0.4,0.2-0.8,0.4-1.1,0.7c-0.4,0.3-0.8,0.6-1.3,0.8c-0.5,0.3-1,0.4-1.6,0.5c-0.6,0-1.3-0.1-1.9-0.4
				C40.7,79,40,77.9,40,76.8c-0.1-1.5,0.2-3,0.9-4.4c0.6-1.3,1.3-2.6,2.3-3.7c0.8-0.8,1.5-1.1,2-0.8c0.4,0.2,0.7,0.5,1,0.8
				c0.2,0.2,0.3,0.5,0.2,0.8c-0.2,0.2-0.4,0.5-0.6,0.6c-0.3,0.3-0.6,0.7-0.8,1.1c-0.3,0.7-0.2,1.2,0.3,1.4c0.3,0.1,0.7,0.1,0.9-0.2
				c0.4-0.3,0.8-0.6,1.2-0.9c0.4-0.4,0.9-0.7,1.3-1.1c0.5-0.4,1-0.6,1.6-0.7c0.6-0.1,1.3,0,1.8,0.2c0.6,0.3,1.1,0.8,1.4,1.4
				c0.3,0.7,0.5,1.4,0.5,2.1c-0.1,1.7-0.5,3.4-1.2,4.9C52.5,79.4,52,80.2,51.4,81"/>
			<path id="Trazado_1914" class="st1" d="M61.7,62c0.2,0.2,0.3,0.4,0.4,0.7c0,0.3,0,0.7-0.2,0.9c-0.4,0.6-0.9,1.2-1.5,2
				c-0.6,0.8-1.2,1.4-1.7,2c-0.2,0.3-0.5,0.4-0.8,0.5c-0.3,0-0.6,0-0.8-0.2c-1.5-1.1-2.7-2.1-3.7-2.9c-1-0.8-1.8-1.4-2.2-1.8
				c-0.4-0.3-0.7-0.3-0.9,0.1l-1,1.3C49,64.9,48.8,65,48.6,65c-0.2,0-0.5,0-0.7-0.2c-0.2-0.2-0.5-0.4-0.8-0.6
				c-0.3-0.2-0.5-0.4-0.6-0.5c-0.2-0.1-0.3-0.3-0.2-0.6c0-0.2,0.1-0.4,0.2-0.6c0.9-1.2,2.2-2.9,3.9-5c1.7-2.1,2.8-3.6,3.6-4.5
				c0.1-0.2,0.3-0.3,0.5-0.3c0.2-0.1,0.4,0,0.6,0.1c0.2,0.1,0.4,0.3,0.7,0.5s0.5,0.4,0.7,0.6c0.4,0.3,0.4,0.7,0.2,1.1
				c0,0-0.1,0.1-0.1,0.1l-1,1.3c-0.2,0.2-0.2,0.6,0,0.8c0,0,0.1,0.1,0.1,0.1c1.2,0.9,2.3,1.7,3.3,2.5C59.9,60.5,60.8,61.3,61.7,62"
				/>
			<path id="Trazado_1915" class="st1" d="M67.4,43l10.7,4.6c0.3,0.1,0.6,0.3,0.9,0.6c0.2,0.2,0.2,0.5,0.1,0.7
				c-0.1,0.2-0.3,0.5-0.5,0.6l-4.7,3.4c-0.5,0.4-0.8,0.5-1.1,0.4c-0.1-0.1-0.3-0.1-0.4-0.2l-1.1-0.6c-0.4-0.2-0.9-0.1-1.2,0.2
				l-2.8,2c-0.2,0.1-0.3,0.2-0.4,0.4c-0.1,0.1-0.1,0.3-0.1,0.5l0.3,1.6c0,0.2,0,0.4-0.1,0.6c-0.1,0.2-0.3,0.4-0.4,0.5l-1.3,1
				c-0.4,0.3-0.7,0.3-0.9,0c0,0-0.1-0.1-0.1-0.1c-0.2-0.2-0.3-0.5-0.3-0.8l-1.3-11.4c-0.1-1.1,0.4-2.1,1.3-2.7l1.2-0.9
				C65.7,42.8,66.6,42.7,67.4,43 M65.4,50.2l0.3,1.8c0,0.1,0.1,0.2,0.1,0.3c0.1,0.2,0.3,0.3,0.5,0.2c0,0,0.1,0,0.1-0.1l1.3-1
				c0.2-0.1,0.3-0.3,0.3-0.5c0-0.1,0-0.2-0.1-0.4c-0.1-0.1-0.1-0.1-0.2-0.2l-1.5-0.8c-0.2-0.2-0.5-0.2-0.7,0
				C65.4,49.7,65.3,49.9,65.4,50.2"/>
			<path id="Trazado_1916" class="st1" d="M90.3,31.6c0.2-0.1,0.4,0,0.4,0.1c0,0,0,0.1,0,0.1c0.1,0.2,0,0.4,0,0.5L89,39.8
				c0.3,0.9,0.8,2.3,1.3,4.1c0.1,0.3,0,0.6-0.1,0.8c-0.1,0.3-0.4,0.5-0.7,0.6c-0.6,0.3-1.4,0.6-2.3,0.9c-0.9,0.3-1.8,0.6-2.5,0.8
				c-0.3,0.1-0.6,0.1-0.9-0.1c-0.3-0.1-0.5-0.3-0.6-0.6c-0.4-1.1-0.9-2.3-1.3-3.6l-5.5-4.6c-0.2-0.1-0.4-0.3-0.5-0.6
				c-0.2-0.4-0.1-0.9,0.3-1.1c0.1,0,0.1-0.1,0.2-0.1l5.8-2.1c0.3-0.1,0.5-0.1,0.8-0.1c0.3,0.1,0.6,0.2,0.8,0.4l1.8,1.9
				c0.3,0.2,0.5,0.3,0.6,0.2s0.2-0.2,0.3-0.5l0.8-3.3c0.1-0.3,0.3-0.5,0.6-0.6L90.3,31.6z"/>
			<path id="Trazado_1917" class="st1" d="M117.1,31.5l2.5,0.3c0.3,0,0.6,0.1,0.8,0.3c0.2,0.2,0.3,0.5,0.4,0.8l0.7,3.8
				c0,0.1,0,0.2,0.1,0.2c0.1,0,0.1,0.1,0.2,0c0.1,0,0.1-0.1,0.1-0.2l2.1-4.7c0.1-0.2,0.2-0.4,0.4-0.5c0.2-0.1,0.5-0.1,0.7-0.1l2,0.2
				c0.2,0,0.4,0.2,0.4,0.4c0,0.1,0,0.2,0,0.3c-0.1,0.3-0.3,0.7-0.4,1c-0.3,0.5-0.9,1.9-2,4.2c-0.8,1.8-1.7,3.5-2.6,5.1
				c-0.6,1-1.8,1.4-3,1.2c-0.7-0.1-1.4-0.3-2-0.8c-0.5-0.3-1-0.8-1.2-1.4c-0.2-0.5-0.4-1.3-0.6-2.3c-0.3-1-0.4-1.7-0.5-2.1
				c-0.6,1.5-1.4,2.9-2.2,4.4c-0.3,0.5-0.8,0.8-1.4,1c-0.7,0.2-1.4,0.3-2.1,0.2c-1.5,0-2.8-0.9-3.3-2.3c-1.3-4.4-2.2-7.6-2.7-9.6
				c-0.1-0.3-0.1-0.5-0.1-0.8c0.1-0.7,0.4-1,1.1-0.9l5.1,0.5c0.3,0,0.7,0.1,1,0.3c0.2,0.3,0.4,0.6,0.4,1l0.7,4.6
				c0,0.1,0,0.2,0.1,0.2c0.1,0.1,0.2,0,0.3-0.2l1.6-3.5c0.2-0.5,0.7-0.8,1.2-0.8C115.9,31.4,116.6,31.5,117.1,31.5"/>
			<path id="Trazado_1918" class="st1" d="M127.7,45.5c-0.1-0.4-0.1-0.8,0.1-1.2c0.2-0.5,0.8-1.9,1.9-4.2c1.1-2.3,1.9-3.8,2.3-4.5
				c0.5-0.9,1.1-1.2,1.8-0.9c0.8,0.4,4.1,1.9,9.8,4.6c0.6,0.3,0.8,0.9,0.4,1.7c-0.3,0.6-0.7,0.8-1.3,0.6l-3.6-1.7
				c-0.2-0.1-0.4-0.1-0.7,0c-0.2,0.1-0.4,0.3-0.5,0.5l-0.6,1.2c-0.2,0.3-0.1,0.6,0.2,0.7l3,1.4c0.1,0.1,0.3,0.1,0.4,0.2
				c0.1,0.1,0.1,0.3,0.1,0.4c0,0.3-0.1,0.6-0.3,0.8c-0.2,0.4-0.3,0.6-0.5,0.6c-0.2,0.1-0.5,0-0.7-0.1l-2.7-1.3
				c-0.2-0.1-0.4-0.1-0.7-0.1c-0.2,0.1-0.4,0.3-0.5,0.6l-0.4,0.8c-0.2,0.3-0.1,0.7,0.2,0.9c0.1,0,0.1,0.1,0.2,0.1l4.1,1.9
				c0.2,0.1,0.3,0.2,0.4,0.4c0.1,0.3,0,0.6-0.1,0.9c-0.2,0.4-0.4,0.7-0.8,0.9c-0.2,0.2-0.6,0.3-0.9,0.1l-10.1-4.8
				C128.1,46,127.9,45.8,127.7,45.5"/>
			<path id="Trazado_1919" class="st1" d="M148.9,42.9l3.9,2.9c0.4,0.3,0.6,0.6,0.6,0.9c-0.1,0.5-0.3,1-0.7,1.4
				c-0.4,0.7-1.3,1.9-2.7,3.7c-1.4,1.8-2.4,3.1-3.1,3.9c-0.2,0.2-0.5,0.3-0.7,0.4c-0.3,0-0.6,0-0.9-0.2c-0.6-0.4-1.2-0.8-2-1.4
				s-1.4-1.1-2-1.6c-0.2-0.2-0.4-0.5-0.5-0.8c0-0.3,0-0.6,0.1-0.8c0.6-0.9,1.5-2.3,2.9-4.1c1.4-1.8,2.3-3,2.8-3.6
				c0.3-0.4,0.7-0.8,1.2-1.1C148.3,42.5,148.7,42.6,148.9,42.9"/>
			<path id="Trazado_1920" class="st1" d="M158.4,64.5c0,0.3-0.2,1.5-0.4,3.6c0,0.1-0.1,0.2-0.1,0.3c-0.2,0.2-0.4,0.2-0.6,0
				c-0.4-0.5-0.9-1-1.3-1.4c-0.4-0.5-0.8-1-1.3-1.5c-0.2-0.3-0.4-0.6-0.3-1l0.7-2.7c0-0.1,0-0.2,0-0.3c-0.1-0.2-0.2-0.2-0.4-0.1
				l-1.4,1.2c-0.4,0.3-0.8,0.3-1.3-0.2c-0.5-0.5-1-1-1.5-1.6c-0.5-0.6-1.2-1.4-1.9-2.3c-0.2-0.2-0.3-0.6-0.3-0.9
				c0-0.3,0.1-0.6,0.3-0.8c0.7-0.8,2-1.9,3.7-3.4s3-2.6,3.8-3.2c0.6-0.6,1.5-0.6,2.1,0c0.1,0.1,0.1,0.1,0.2,0.2
				c0.6,0.7,1.4,1.6,2.5,2.8s1.9,2.2,2.6,3c0.9,1,1.4,2.5,1.2,3.9c-0.1,1.4-0.8,2.6-1.8,3.5c-0.6,0.5-1.3,0.9-2,1
				C160,64.8,159.2,64.7,158.4,64.5 M159.3,57.3l-2.5,2.2c-0.1,0.1-0.2,0.3-0.1,0.5c0,0,0,0,0.1,0.1c0.4,0.5,1,0.8,1.6,0.9
				c0.6,0.1,1.1-0.1,1.5-0.5c0.4-0.4,0.7-0.9,0.7-1.4c0-0.7-0.2-1.3-0.7-1.7C159.8,57.1,159.6,57.1,159.3,57.3"/>
			<path id="Trazado_1921" class="st1" d="M161.8,77.1c-0.4-0.7-1-1.7-1.6-3.1s-1.1-2.3-1.3-2.8c-0.2-0.4-0.3-0.8-0.3-1.2
				c0-0.3,0.2-0.6,0.5-0.7c1.1-0.6,2.4-1.3,3.9-2.1c1.5-0.7,3.1-1.5,4.8-2.3c0.7-0.5,1.7-0.3,2.3,0.4c0,0.1,0.1,0.1,0.1,0.2
				c0.4,0.6,0.9,1.6,1.6,3c0.7,1.4,1.2,2.4,1.5,3.2c0.3,0.8,0.5,1.6,0.6,2.5c0.1,0.8-0.1,1.6-0.4,2.3c-0.6,1.4-1.6,2.5-3,3.2
				c-1.4,0.7-3.1,0.9-4.6,0.5c-0.8-0.2-1.6-0.6-2.2-1.1C162.9,78.6,162.3,77.9,161.8,77.1 M169.2,72.4l-3.9,2
				c-0.1,0-0.2,0.1-0.2,0.2c0,0.1,0,0.2,0,0.3c0.3,0.6,0.8,1.1,1.5,1.2c0.7,0.1,1.4,0,2-0.3c0.6-0.3,1.1-0.8,1.4-1.4
				c0.3-0.5,0.3-1.2,0-1.7c-0.1-0.1-0.1-0.2-0.2-0.3C169.8,72.3,169.5,72.3,169.2,72.4"/>
			<path id="Trazado_1922" class="st1" d="M41,129.8c-0.2-0.7-0.2-1.3-0.2-2c0-0.3,0.1-0.6,0.1-0.9c0.1-0.4,0.4-0.7,0.7-0.9
				c0.3-0.1,0.6-0.3,0.9-0.3c0.6-0.1,1,0,1.2,0.4c0.1,0.4,0.2,0.9,0.2,1.3c0,0.6,0.2,1.2,0.4,1.7c0.3,0.6,0.6,0.7,1.1,0.5
				c0.3-0.2,0.5-0.4,0.5-0.8c0.1-0.4,0.1-0.9,0.2-1.3c0-0.5,0.1-1,0.1-1.5c0.2-1.2,1-2.2,2.1-2.7c1-0.5,2.3-0.4,3.2,0.3
				c1.2,0.9,2.2,2.1,2.8,3.5c0.7,1.3,1.1,2.7,1.4,4.1c0.1,1.1-0.1,1.8-0.7,2.1c-0.4,0.2-0.8,0.3-1.3,0.3c-0.4,0-0.7-0.2-0.8-0.4
				c-0.1-0.3-0.1-0.6-0.1-0.9c0-0.4-0.1-0.9-0.3-1.3c-0.3-0.7-0.8-0.9-1.3-0.6c-0.3,0.2-0.5,0.5-0.5,0.8c-0.1,0.5-0.1,1,0,1.5
				c0,0.6,0,1.1,0,1.7c0,0.6-0.2,1.2-0.4,1.7c-0.3,0.6-0.8,1-1.3,1.3c-0.6,0.3-1.3,0.4-2,0.2c-0.7-0.2-1.4-0.5-2-1
				c-1.3-1.1-2.3-2.5-3-4.1C41.5,131.7,41.2,130.8,41,129.8"/>
			<path id="Trazado_1923" class="st1" d="M54.8,149.3c-0.2,0.2-0.5,0.2-0.8,0.2c-0.3,0-0.6-0.2-0.8-0.4c-0.5-0.5-1-1.1-1.6-1.9
				c-0.6-0.7-1.2-1.4-1.6-2.1c-0.2-0.3-0.3-0.6-0.3-0.9c0-0.3,0.1-0.5,0.3-0.7c1.4-1.2,2.6-2.2,3.6-3c1-0.8,1.7-1.4,2.2-1.8
				c0.4-0.3,0.4-0.6,0.1-0.9l-1-1.3c-0.1-0.2-0.2-0.4-0.2-0.6c0-0.2,0.1-0.5,0.3-0.6c0.2-0.2,0.5-0.4,0.7-0.6
				c0.3-0.2,0.5-0.4,0.7-0.5c0.2-0.1,0.4-0.2,0.6-0.1c0.2,0,0.4,0.2,0.5,0.3c1,1.2,2.4,2.8,4.1,4.9s2.9,3.6,3.6,4.5
				c0.1,0.2,0.2,0.4,0.2,0.6c0,0.2-0.1,0.4-0.2,0.6c-0.2,0.2-0.4,0.3-0.6,0.5c-0.2,0.2-0.5,0.4-0.7,0.6c-0.3,0.3-0.8,0.3-1.1-0.1
				c0,0-0.1-0.1-0.1-0.1l-1-1.3c-0.2-0.3-0.5-0.3-0.8-0.2c0,0-0.1,0.1-0.1,0.1c-1.2,1-2.2,1.9-3.2,2.7
				C56.6,147.9,55.7,148.6,54.8,149.3"/>
			<path id="Trazado_1924" class="st1" d="M75,152.4L74,164c0,0.4-0.1,0.7-0.3,1c-0.1,0.2-0.4,0.3-0.6,0.3c-0.3,0-0.5-0.1-0.7-0.3
				l-4.8-3.4c-0.5-0.3-0.7-0.7-0.7-0.9c0-0.1,0-0.3,0.1-0.4l0.2-1.2c0-0.4-0.2-0.9-0.6-1.1l-2.8-2c-0.2-0.1-0.3-0.2-0.5-0.3
				c-0.2,0-0.3,0-0.5,0.1l-1.4,0.8c-0.2,0.1-0.4,0.1-0.6,0.1c-0.2,0-0.4-0.1-0.6-0.3l-1.3-0.9c-0.4-0.3-0.5-0.6-0.3-0.9
				c0,0,0-0.1,0.1-0.1c0.2-0.2,0.4-0.4,0.7-0.5l10.4-4.9c1-0.5,2.1-0.3,3,0.4l1.2,0.8C74.6,150.8,75,151.6,75,152.4 M67.5,152.8
				l-1.6,0.9c-0.1,0-0.2,0.1-0.2,0.2c-0.2,0.2-0.2,0.4,0,0.6c0,0,0.1,0.1,0.1,0.1l1.3,1c0.1,0.1,0.3,0.2,0.5,0.1
				c0.1,0,0.2-0.1,0.3-0.2c0.1-0.1,0.1-0.2,0.1-0.3l0.3-1.7c0.1-0.3,0-0.5-0.2-0.7C68,152.6,67.7,152.6,67.5,152.8"/>
			<path id="Trazado_1925" class="st1" d="M95.2,160.2c0.2,0,0.3,0.2,0.3,0.4c0,0,0,0.1,0,0.1c-0.1,0.2-0.2,0.3-0.4,0.4l-5.9,4.8
				c-0.3,0.9-0.8,2.3-1.5,4c-0.1,0.3-0.3,0.5-0.6,0.6c-0.3,0.1-0.6,0.2-0.9,0.1c-0.7-0.2-1.5-0.4-2.4-0.7s-1.7-0.6-2.5-0.9
				c-0.3-0.1-0.6-0.3-0.7-0.6c-0.1-0.2-0.2-0.5-0.1-0.8c0.4-1.2,0.8-2.4,1.2-3.6l-1.5-7c-0.1-0.2-0.1-0.5,0-0.7
				c0.1-0.4,0.5-0.7,0.9-0.6c0.1,0,0.1,0,0.2,0.1l5.9,2c0.3,0.1,0.5,0.2,0.7,0.4c0.2,0.3,0.3,0.5,0.4,0.8l0.3,2.6
				c0.1,0.3,0.2,0.5,0.3,0.5c0.2,0,0.4,0,0.5-0.2l2.7-2.1c0.3-0.2,0.6-0.2,0.9-0.1L95.2,160.2z"/>
			<path id="Trazado_1926" class="st1" d="M115.9,161.4l2.5-0.3c0.3-0.1,0.6,0,0.9,0.1c0.2,0.2,0.4,0.4,0.5,0.7l1.5,3.5
				c0,0.1,0.1,0.1,0.1,0.2c0.1,0,0.1,0,0.2,0c0.1,0,0.1-0.1,0.1-0.2l0.9-5.1c0-0.2,0.1-0.4,0.3-0.5c0.2-0.1,0.4-0.2,0.7-0.2l2-0.2
				c0.2,0,0.4,0.1,0.5,0.3c0.1,0.1,0.1,0.2,0.1,0.3c0,0.4-0.1,0.7-0.2,1.1c-0.2,0.6-0.5,2.1-1,4.6c-0.4,1.9-0.8,3.8-1.4,5.6
				c-0.4,1.1-1.4,1.8-2.6,1.8c-0.7,0.1-1.5,0-2.2-0.3c-0.6-0.2-1.1-0.6-1.5-1.1c-0.3-0.5-0.7-1.2-1.1-2.1c-0.5-0.9-0.8-1.6-1-2
				c-0.3,1.6-0.7,3.2-1.1,4.7c-0.2,0.5-0.6,1-1.1,1.3c-0.6,0.3-1.3,0.6-2,0.6c-1.4,0.3-2.9-0.3-3.7-1.5c-2.3-4-3.9-6.9-4.8-8.7
				c-0.1-0.2-0.2-0.5-0.2-0.8c-0.1-0.5,0.1-0.9,0.6-1.1c0.1,0,0.2,0,0.2,0l5.1-0.7c0.3-0.1,0.7,0,1,0.1c0.3,0.2,0.5,0.5,0.6,0.8
				l1.8,4.3c0,0.1,0.1,0.2,0.2,0.2c0.1,0.1,0.2,0,0.3-0.2l0.8-3.8c0.1-0.5,0.5-1,1-1C114.8,161.5,115.4,161.4,115.9,161.4"/>
			<path id="Trazado_1927" class="st1" d="M132.4,169.1c-0.4-0.2-0.7-0.4-0.9-0.8c-0.3-0.4-1-1.8-2-4.1c-1.1-2.3-1.8-3.9-2-4.6
				c-0.3-1-0.2-1.6,0.5-2c0.8-0.4,4-1.9,9.8-4.6c0.6-0.3,1.2,0,1.5,0.8c0.3,0.6,0.2,1.1-0.4,1.4l-3.6,1.7c-0.2,0.1-0.4,0.3-0.4,0.5
				c-0.1,0.2,0,0.5,0.1,0.7l0.6,1.2c0.2,0.3,0.4,0.4,0.7,0.3l3-1.4c0.1-0.1,0.3-0.1,0.4-0.1c0.1,0,0.3,0.1,0.4,0.2
				c0.2,0.2,0.4,0.5,0.5,0.7c0.2,0.2,0.2,0.5,0.1,0.8c-0.1,0.2-0.3,0.4-0.5,0.5l-2.7,1.3c-0.2,0.1-0.4,0.2-0.5,0.5
				c0,0.2,0,0.5,0.1,0.7l0.4,0.8c0.1,0.4,0.5,0.6,0.8,0.5c0.1,0,0.1,0,0.2-0.1l4.1-1.9c0.2-0.1,0.4-0.1,0.6-0.1
				c0.2,0,0.4,0.3,0.6,0.6c0.2,0.4,0.2,0.8,0.2,1.2c0,0.3-0.2,0.6-0.4,0.8l-10.1,4.7C133,169.2,132.7,169.2,132.4,169.1"/>
			<path id="Trazado_1928" class="st1" d="M140.7,150.9l3.9-2.9c0.3-0.3,0.7-0.4,1-0.3c0.5,0.3,0.9,0.6,1.2,1.1
				c0.5,0.6,1.4,1.8,2.8,3.7c1.3,1.8,2.3,3.2,2.8,4.1c0.1,0.2,0.2,0.5,0.1,0.8c0,0.3-0.2,0.6-0.5,0.8c-0.5,0.4-1.2,0.9-1.9,1.5
				c-0.7,0.5-1.4,1-2.1,1.5c-0.3,0.2-0.6,0.3-0.9,0.2c-0.3,0-0.5-0.2-0.7-0.4c-0.7-0.8-1.7-2.1-3.1-3.9c-1.3-1.8-2.2-3.1-2.7-3.8
				c-0.3-0.4-0.6-0.9-0.7-1.5C140.1,151.5,140.3,151.2,140.7,150.9"/>
			<path id="Trazado_1929" class="st1" d="M161.9,143.7c0.3,0,1.6,0,3.7,0c0.1,0,0.2,0,0.3,0.1c0.2,0.2,0.3,0.4,0.1,0.6
				c-0.4,0.5-0.8,1-1.3,1.4s-0.9,1-1.3,1.4c-0.2,0.3-0.6,0.4-1,0.4l-2.8-0.4c-0.1,0-0.2,0-0.3,0.1c-0.2,0.1-0.2,0.2,0,0.4l1.4,1.2
				c0.4,0.3,0.4,0.8-0.1,1.3c-0.4,0.5-0.9,1.1-1.5,1.7c-0.5,0.6-1.2,1.3-2,2.1c-0.2,0.2-0.5,0.4-0.8,0.4c-0.3,0-0.6-0.1-0.8-0.2
				c-0.9-0.6-2.1-1.7-3.8-3.2c-1.7-1.5-2.9-2.7-3.6-3.4c-0.6-0.5-0.8-1.4-0.3-2.1c0-0.1,0.1-0.1,0.1-0.2c0.6-0.7,1.4-1.6,2.5-2.8
				s1.9-2.1,2.7-2.9c0.9-1.1,2.3-1.7,3.7-1.6c1.4,0,2.7,0.5,3.7,1.4c0.6,0.5,1,1.2,1.3,1.9C162,142.1,162.1,142.9,161.9,143.7
				 M154.7,143.6l2.5,2.2c0.1,0.1,0.3,0.1,0.5,0c0,0,0,0,0.1-0.1c0.5-0.5,0.7-1.1,0.7-1.7c0-1.1-1-2-2.1-2c0,0-0.1,0-0.1,0
				c-0.7,0.1-1.2,0.4-1.7,0.9C154.4,143.2,154.4,143.4,154.7,143.6"/>
			<path id="Trazado_1930" class="st1" d="M172.1,133.5c-0.3,0.8-0.8,1.8-1.5,3.1s-1.2,2.2-1.5,2.7c-0.2,0.4-0.5,0.7-0.8,1
				c-0.3,0.2-0.6,0.2-0.9,0.1c-1.2-0.5-2.5-1.2-4-2c-1.5-0.8-3-1.6-4.7-2.5c-0.8-0.3-1.3-1.2-1-2.1c0-0.1,0.1-0.1,0.1-0.2
				c0.3-0.7,0.8-1.7,1.5-3s1.3-2.4,1.7-3.1c0.4-0.7,1-1.4,1.7-1.9c0.6-0.5,1.3-0.9,2.1-1.1c1.5-0.4,3-0.2,4.3,0.5
				c1.4,0.7,2.5,1.9,3.1,3.4c0.3,0.8,0.5,1.6,0.4,2.4C172.7,131.7,172.5,132.7,172.1,133.5 M164,130.2l3.9,2c0.1,0,0.2,0.1,0.3,0
				c0.1,0,0.2-0.1,0.2-0.2c0.4-0.6,0.4-1.3,0.1-1.9c-0.3-0.6-0.8-1.1-1.4-1.4c-0.6-0.3-1.3-0.5-1.9-0.4c-0.6,0.1-1.1,0.4-1.4,1
				c-0.1,0.1-0.1,0.2-0.1,0.3C163.6,129.8,163.7,130,164,130.2"/>
			<path id="Trazado_1931" d="M107.5,197.5c-5.1,0-9.8-2.3-14.4-4.6c-2.8-1.5-5.7-2.7-8.7-3.6c-3.2-0.7-6.4-1.2-9.7-1.3
				c-5-0.4-10.2-0.7-14.4-3.2c-4.3-2.5-7.2-6.8-10-11c-1.7-2.7-3.7-5.3-5.9-7.7c-2.4-2.2-4.9-4.2-7.6-5.9c-4.2-2.8-8.5-5.8-11-10.1
				c-2.4-4.2-2.8-9.4-3.1-14.4c-0.1-3.3-0.5-6.5-1.3-9.7c-0.9-3-2.1-5.9-3.6-8.7c-2.2-4.6-4.6-9.3-4.6-14.4s2.3-9.8,4.6-14.4
				c1.5-2.8,2.7-5.7,3.6-8.7c0.7-3.2,1.2-6.4,1.3-9.7c0.3-5,0.7-10.2,3.1-14.4c2.5-4.3,6.8-7.2,11-10.1c2.7-1.7,5.3-3.7,7.6-5.9
				c2.2-2.4,4.1-4.9,5.9-7.7c2.8-4.2,5.7-8.5,10-11c4.2-2.5,9.4-2.8,14.4-3.2c3.3-0.1,6.5-0.6,9.7-1.3c3-0.9,5.9-2.1,8.7-3.6
				c4.6-2.2,9.3-4.6,14.4-4.6s9.8,2.3,14.4,4.6c2.8,1.5,5.7,2.7,8.7,3.6c3.2,0.7,6.4,1.2,9.7,1.3c5,0.4,10.2,0.7,14.4,3.2
				c4.3,2.5,7.2,6.8,10,11c1.7,2.7,3.7,5.3,5.9,7.7c2.4,2.2,4.9,4.2,7.6,5.9c4.2,2.8,8.5,5.8,11,10.1c2.4,4.2,2.8,9.4,3.1,14.4
				c0.1,3.3,0.5,6.5,1.3,9.7c0.9,3,2.1,5.9,3.6,8.7c2.2,4.6,4.6,9.3,4.6,14.4s-2.3,9.8-4.6,14.4c-1.5,2.8-2.7,5.7-3.6,8.7
				c-0.7,3.2-1.2,6.4-1.3,9.7c-0.3,5-0.7,10.2-3.1,14.4c-2.5,4.3-6.8,7.2-11,10.1c-2.7,1.7-5.3,3.7-7.6,5.9
				c-2.2,2.4-4.1,4.9-5.9,7.7c-2.8,4.2-5.7,8.5-10,11c-4.2,2.5-9.4,2.8-14.4,3.2c-3.3,0.1-6.5,0.6-9.7,1.3c-3,0.9-5.9,2.1-8.7,3.6
				C117.3,195.2,112.6,197.5,107.5,197.5 M107.5,9.6c-4.8,0-9.4,2.3-13.8,4.4c-2.9,1.5-5.8,2.8-8.9,3.7c-3.3,0.8-6.6,1.2-9.9,1.3
				c-5.1,0.4-9.9,0.7-13.9,3c-4,2.3-6.8,6.6-9.6,10.6c-1.7,2.8-3.8,5.4-6,7.9c-2.4,2.3-5,4.3-7.8,6c-4.1,2.7-8.3,5.6-10.6,9.6
				c-2.3,4-2.6,8.8-3,13.9c-0.1,3.4-0.6,6.7-1.3,10c-0.9,3.1-2.2,6.1-3.7,9c-2.2,4.4-4.4,9-4.4,13.8s2.2,9.4,4.4,13.8
				c1.5,2.9,2.8,5.9,3.7,9c0.7,3.3,1.2,6.6,1.3,10c0.3,5.1,0.7,9.9,3,13.9c2.3,4,6.5,6.9,10.6,9.6c2.8,1.8,5.4,3.8,7.8,6
				c2.2,2.4,4.3,5.1,6,7.9c2.7,4.1,5.5,8.3,9.6,10.6c4,2.3,8.8,2.7,13.9,3c3.3,0.1,6.7,0.6,9.9,1.3c3.1,1,6.1,2.2,8.9,3.7
				c4.4,2.2,9,4.4,13.8,4.4s9.4-2.3,13.8-4.4c2.9-1.5,5.8-2.8,8.9-3.7c3.3-0.8,6.6-1.2,9.9-1.3c5.1-0.4,9.9-0.7,13.9-3
				c4-2.3,6.9-6.6,9.6-10.6c1.7-2.8,3.8-5.4,6-7.9c2.4-2.3,5-4.3,7.8-6c4.1-2.7,8.3-5.6,10.6-9.6c2.3-4,2.6-8.8,3-13.9
				c0.1-3.4,0.6-6.7,1.3-10c0.9-3.1,2.2-6.1,3.7-9c2.2-4.4,4.4-9,4.4-13.8s-2.2-9.4-4.4-13.8c-1.5-2.9-2.8-5.9-3.7-9
				c-0.7-3.3-1.2-6.6-1.3-10c-0.4-5.1-0.7-9.9-3-13.9c-2.3-4-6.5-6.9-10.6-9.6c-2.8-1.8-5.4-3.8-7.8-6c-2.2-2.4-4.3-5.1-6-7.9
				c-2.7-4.1-5.5-8.3-9.6-10.6c-4-2.3-8.8-2.7-13.9-3c-3.3-0.1-6.7-0.6-9.9-1.3c-3.1-1-6.1-2.2-8.9-3.7
				C116.9,11.8,112.3,9.6,107.5,9.6"/>
			<path id="Trazado_1932" d="M107.5,197.5c-5.1,0-9.8-2.3-14.4-4.6c-2.8-1.5-5.7-2.7-8.7-3.6c-3.2-0.7-6.4-1.2-9.7-1.3
				c-5-0.4-10.2-0.7-14.4-3.2c-4.3-2.5-7.2-6.8-10-11c-1.7-2.7-3.7-5.3-5.9-7.7c-2.4-2.2-4.9-4.2-7.6-5.9c-4.2-2.8-8.5-5.8-11-10.1
				c-2.4-4.2-2.8-9.4-3.1-14.4c-0.1-3.3-0.5-6.5-1.3-9.7c-0.9-3-2.1-5.9-3.6-8.7c-2.2-4.6-4.6-9.3-4.6-14.4s2.3-9.8,4.6-14.4
				c1.5-2.8,2.7-5.7,3.6-8.7c0.7-3.2,1.2-6.4,1.3-9.7c0.3-5,0.7-10.2,3.1-14.4c2.5-4.3,6.8-7.2,11-10.1c2.7-1.7,5.3-3.7,7.6-5.9
				c2.2-2.4,4.1-4.9,5.9-7.7c2.8-4.2,5.7-8.5,10-11c4.2-2.5,9.4-2.8,14.4-3.2c3.3-0.1,6.5-0.6,9.7-1.3c3-0.9,5.9-2.1,8.7-3.6
				c4.6-2.2,9.3-4.6,14.4-4.6s9.8,2.3,14.4,4.6c2.8,1.5,5.7,2.7,8.7,3.6c3.2,0.7,6.4,1.2,9.7,1.3c5,0.4,10.2,0.7,14.4,3.2
				c4.3,2.5,7.2,6.8,10,11c1.7,2.7,3.7,5.3,5.9,7.7c2.4,2.2,4.9,4.2,7.6,5.9c4.2,2.8,8.5,5.8,11,10.1c2.4,4.2,2.8,9.4,3.1,14.4
				c0.1,3.3,0.5,6.5,1.3,9.7c0.9,3,2.1,5.9,3.6,8.7c2.2,4.6,4.6,9.3,4.6,14.4s-2.3,9.8-4.6,14.4c-1.5,2.8-2.7,5.7-3.6,8.7
				c-0.7,3.2-1.2,6.4-1.3,9.7c-0.3,5-0.7,10.2-3.1,14.4c-2.5,4.3-6.8,7.2-11,10.1c-2.7,1.7-5.3,3.7-7.6,5.9
				c-2.2,2.4-4.1,4.9-5.9,7.7c-2.8,4.2-5.7,8.5-10,11c-4.2,2.5-9.4,2.8-14.4,3.2c-3.3,0.1-6.5,0.6-9.7,1.3c-3,0.9-5.9,2.1-8.7,3.6
				C117.3,195.2,112.6,197.5,107.5,197.5 M107.5,9.6c-4.8,0-9.4,2.3-13.8,4.4c-2.9,1.5-5.8,2.8-8.9,3.7c-3.3,0.8-6.6,1.2-9.9,1.3
				c-5.1,0.4-9.9,0.7-13.9,3c-4,2.3-6.8,6.6-9.6,10.6c-1.7,2.8-3.8,5.4-6,7.9c-2.4,2.3-5,4.3-7.8,6c-4.1,2.7-8.3,5.6-10.6,9.6
				c-2.3,4-2.6,8.8-3,13.9c-0.1,3.4-0.6,6.7-1.3,10c-0.9,3.1-2.2,6.1-3.7,9c-2.2,4.4-4.4,9-4.4,13.8s2.2,9.4,4.4,13.8
				c1.5,2.9,2.8,5.9,3.7,9c0.7,3.3,1.2,6.6,1.3,10c0.3,5.1,0.7,9.9,3,13.9c2.3,4,6.5,6.9,10.6,9.6c2.8,1.8,5.4,3.8,7.8,6
				c2.2,2.4,4.3,5.1,6,7.9c2.7,4.1,5.5,8.3,9.6,10.6c4,2.3,8.8,2.7,13.9,3c3.3,0.1,6.7,0.6,9.9,1.3c3.1,1,6.1,2.2,8.9,3.7
				c4.4,2.2,9,4.4,13.8,4.4s9.4-2.3,13.8-4.4c2.9-1.5,5.8-2.8,8.9-3.7c3.3-0.8,6.6-1.2,9.9-1.3c5.1-0.4,9.9-0.7,13.9-3
				c4-2.3,6.9-6.6,9.6-10.6c1.7-2.8,3.8-5.4,6-7.9c2.4-2.3,5-4.3,7.8-6c4.1-2.7,8.3-5.6,10.6-9.6c2.3-4,2.6-8.8,3-13.9
				c0.1-3.4,0.6-6.7,1.3-10c0.9-3.1,2.2-6.1,3.7-9c2.2-4.4,4.4-9,4.4-13.8s-2.2-9.4-4.4-13.8c-1.5-2.9-2.8-5.9-3.7-9
				c-0.7-3.3-1.2-6.6-1.3-10c-0.4-5.1-0.7-9.9-3-13.9c-2.3-4-6.5-6.9-10.6-9.6c-2.8-1.8-5.4-3.8-7.8-6c-2.2-2.4-4.3-5.1-6-7.9
				c-2.7-4.1-5.5-8.3-9.6-10.6c-4-2.3-8.8-2.7-13.9-3c-3.3-0.1-6.7-0.6-9.9-1.3c-3.1-1-6.1-2.2-8.9-3.7
				C116.9,11.8,112.3,9.6,107.5,9.6"/>
			<path id="Trazado_1933" class="st7" d="M47.4,105.1c0,2.2-1.8,4.1-4.1,4.1s-4.1-1.8-4.1-4.1s1.8-4.1,4.1-4.1l0,0
				C45.6,101.1,47.4,102.9,47.4,105.1"/>
			<path id="Trazado_1934" d="M43.4,109.8c-2.6,0-4.7-2.1-4.7-4.7c0-2.6,2.1-4.7,4.7-4.7c2.6,0,4.7,2.1,4.7,4.7l0,0
				C48,107.7,45.9,109.8,43.4,109.8 M43.4,101.7c-1.9,0-3.4,1.5-3.4,3.4c0,1.9,1.5,3.4,3.4,3.4c1.9,0,3.4-1.5,3.4-3.4
				C46.8,103.3,45.2,101.7,43.4,101.7"/>
			<path id="Trazado_1935" class="st7" d="M167.5,105.1c0,2.2,1.8,4.1,4.1,4.1s4.1-1.8,4.1-4.1s-1.8-4.1-4.1-4.1l0,0
				C169.3,101.1,167.5,102.9,167.5,105.1"/>
			<path id="Trazado_1936" d="M171.6,109.8c-2.6,0-4.7-2.1-4.7-4.7c0-2.6,2.1-4.7,4.7-4.7c2.6,0,4.7,2.1,4.7,4.7l0,0
				C176.3,107.7,174.2,109.8,171.6,109.8 M171.6,101.7c-1.9,0-3.4,1.5-3.4,3.4c0,1.9,1.5,3.4,3.4,3.4c1.9,0,3.4-1.5,3.4-3.4
				C175,103.3,173.5,101.7,171.6,101.7"/>
		</g>
	</g>
</g>
</svg>
