<svg width="41" height="84" viewBox="0 0 41 84" fill="none" xmlns="http://www.w3.org/2000/svg">
<path fill-rule="evenodd" clip-rule="evenodd" d="M0 37.2056C0 32.6738 3.69122 29 8.24457 29H32.7554C37.3088 29 41 32.6738 41 37.2056V75.7944C41 80.3262 37.3088 84 32.7554 84H8.24457C3.69122 84 0 80.3262 0 75.7944V37.2056ZM8.24457 36.5403C7.87537 36.5403 7.57609 36.8382 7.57609 37.2056V75.7944C7.57609 76.1618 7.87538 76.4597 8.24457 76.4597H32.7554C33.1246 76.4597 33.4239 76.1618 33.4239 75.7944V37.2056C33.4239 36.8382 33.1246 36.5403 32.7554 36.5403H8.24457Z" fill="black"/>
<path fill-rule="evenodd" clip-rule="evenodd" d="M0 33.4224C0 30.98 1.9988 29 4.46444 29C18.5673 29 30 40.3251 30 54.2953V58.7047C30 72.6749 18.5673 84 4.46444 84C1.9988 84 0 82.02 0 79.5776V33.4224ZM7.61194 36.8132V76.1868C16.01 74.7132 22.3881 67.4468 22.3881 58.7047V54.2953C22.3881 45.5532 16.01 38.2868 7.61194 36.8132Z" fill="black"/>
<path d="M13 17.5C13 20.5376 10.5376 23 7.5 23C4.46243 23 2 20.5376 2 17.5C2 14.4624 4.46243 12 7.5 12C10.5376 12 13 14.4624 13 17.5Z" fill="black"/>
<path d="M34 12.5C34 15.5376 31.5376 18 28.5 18C25.4624 18 23 15.5376 23 12.5C23 9.46243 25.4624 7 28.5 7C31.5376 7 34 9.46243 34 12.5Z" fill="black"/>
<path d="M23 5.5C23 8.53757 20.5376 11 17.5 11C14.4624 11 12 8.53757 12 5.5C12 2.46243 14.4624 0 17.5 0C20.5376 0 23 2.46243 23 5.5Z" fill="black"/>
<path d="M15 46.5C15 47.8807 13.8807 49 12.5 49C11.1193 49 10 47.8807 10 46.5C10 45.1193 11.1193 44 12.5 44C13.8807 44 15 45.1193 15 46.5Z" fill="black"/>
<path d="M18 61.5C18 62.8807 16.8807 64 15.5 64C14.1193 64 13 62.8807 13 61.5C13 60.1193 14.1193 59 15.5 59C16.8807 59 18 60.1193 18 61.5Z" fill="black"/>
<path fill-rule="evenodd" clip-rule="evenodd" d="M5 32V18H10V32H5Z" fill="black"/>
<path fill-rule="evenodd" clip-rule="evenodd" d="M15 36L15 6L21 6L21 36L15 36Z" fill="black"/>
<path fill-rule="evenodd" clip-rule="evenodd" d="M26 32L26 13L32 13L32 32L26 32Z" fill="black"/>
</svg>
