<svg width="168" height="149" viewBox="0 0 168 149" fill="none" xmlns="http://www.w3.org/2000/svg">
<circle cx="74.5" cy="74.5" r="74.5" fill="#27A17C"/>
<path d="M75.4798 31C86.7328 31 98.0093 31 109.262 31C110.157 31 110.604 31.4578 110.604 32.3733C110.604 37.7479 110.604 43.0989 110.604 48.4735C110.604 49.2943 110.188 49.7047 109.356 49.7047C101.517 49.7047 93.6776 49.7047 85.8617 49.7047C85.1398 49.7047 84.7788 50.0757 84.7788 50.8175C84.7788 53.3747 84.7788 55.9554 84.7788 58.5125C84.7788 59.3412 84.7788 59.3649 85.6028 59.4596C86.568 59.5543 87.5567 59.578 88.5455 59.6727C91.5588 59.9331 94.5722 60.1462 97.562 60.5251C102.223 61.0933 106.837 61.922 111.357 63.2953C113.241 63.8635 115.077 64.5738 116.772 65.5682C117.643 66.0891 118.467 66.6811 119.079 67.5097C120.28 69.0724 120.256 70.7298 119.056 72.2925C118.255 73.3106 117.172 73.9972 116.042 74.6128C113.853 75.773 111.475 76.507 109.097 77.1226C105.684 77.9986 102.2 78.6616 98.7155 79.0877C95.9847 79.4192 93.2303 79.727 90.4995 79.9875C88.8751 80.1532 87.2272 80.2242 85.5792 80.3189C84.8494 80.3663 84.8259 80.39 84.8024 81.124C84.8024 81.3607 84.8024 81.5975 84.8024 81.8343C84.8024 92.7493 84.8024 103.688 84.8024 114.603C84.8024 115.55 84.3315 116.024 83.3899 116.024C78.1165 116.024 72.8196 116.024 67.5463 116.024C66.2044 116.024 66.2044 116.024 66.2044 114.721C66.2044 103.641 66.2044 92.5599 66.2044 81.4791C66.2044 80.39 66.2044 80.4136 65.1215 80.3426C63.0027 80.2242 60.884 80.0822 58.7652 79.8928C56.5994 79.7033 54.4335 79.5139 52.2677 79.2298C47.1591 78.5669 42.0741 77.7382 37.201 76.0097C35.812 75.5125 34.4702 74.8496 33.1518 74.1866C32.3043 73.7604 31.5745 73.1212 30.9389 72.3872C29.6912 70.9192 29.6441 68.8357 31.0566 67.2967C31.857 66.4206 32.8222 65.7577 33.8581 65.2131C36.1652 64.0056 38.6135 63.2479 41.1089 62.6086C44.5931 61.7326 48.1008 61.0696 51.6556 60.6671C54.41 60.3357 57.1879 60.0279 59.9658 59.7674C61.7315 59.6017 63.5206 59.5306 65.2863 59.4359C66.1809 59.3886 66.1809 59.3886 66.1809 58.5362C66.1809 55.9081 66.1809 53.3036 66.1809 50.6755C66.1809 49.7758 66.1809 49.7521 65.2392 49.7521C57.3998 49.7521 49.5604 49.7521 41.7446 49.7521C41.4621 49.7521 41.156 49.7521 40.8735 49.7521C40.5439 49.7521 40.3791 49.5627 40.3791 49.2549C40.3791 49.0655 40.3791 48.876 40.3791 48.6866C40.3791 43.1936 40.3791 37.6769 40.3791 32.1838C40.3791 32.0181 40.3791 31.8524 40.3791 31.7103C40.4027 31.1894 40.4733 31.1184 40.9912 31.0947C41.2737 31.0947 41.5798 31.0947 41.8623 31.0947C53.0681 31.0947 64.274 31.0947 75.4798 31.0947V31ZM74.9148 77.6198C77.3396 77.6198 79.7409 77.6671 82.1657 77.6198C84.5199 77.5487 86.874 77.3593 89.2282 77.1936C91.347 77.0515 93.4657 76.9095 95.5609 76.6253C98.3153 76.2702 101.07 75.8677 103.801 75.3705C106.837 74.8259 109.827 74.1156 112.699 73.0028C113.9 72.5529 115.053 72.032 116.089 71.2507C117.384 70.2799 117.478 69.4039 116.466 68.1253C116.207 67.8175 115.948 67.5097 115.618 67.273C115.006 66.8468 114.394 66.4206 113.759 66.0655C111.97 65.1184 110.063 64.4791 108.109 63.9582C104.813 63.0585 101.446 62.4192 98.0564 61.922C96.173 61.6379 94.2661 61.4485 92.3828 61.2354C90.9232 61.0696 89.4872 60.9276 88.0276 60.7855C87.1801 60.7145 86.3326 60.6435 85.4851 60.6198C84.8259 60.5961 84.7788 60.6671 84.7553 61.3538C84.7553 61.5669 84.7553 61.7799 84.7553 61.993C84.7553 65.9944 84.7553 69.9958 84.7553 73.9972C84.7553 74.234 84.7553 74.4707 84.7553 74.7075C84.7082 75.3231 84.5905 75.4415 83.9784 75.4889C82.7778 75.5599 81.6007 75.6309 80.4001 75.6309C77.6457 75.6546 74.8678 75.6783 72.1134 75.6546C70.3713 75.6546 68.6057 75.5599 66.8636 75.5125C66.2515 75.5125 66.1809 75.4178 66.1573 74.8022C66.1573 74.5891 66.1573 74.376 66.1573 74.1629C66.1573 70.0195 66.1573 65.876 66.1573 61.7563C66.1573 61.5669 66.1573 61.3774 66.1573 61.188C66.1338 60.6671 66.0632 60.5961 65.5217 60.5961C64.8861 60.5961 64.2504 60.6671 63.6148 60.7382C60.8133 60.9986 58.0119 61.2117 55.234 61.5669C52.15 61.9694 49.0896 62.4666 46.0527 63.0348C43.0864 63.5794 40.1437 64.3607 37.3422 65.5446C36.1652 66.0418 35.0116 66.5863 34.07 67.4861C33.6462 67.8886 33.2695 68.3621 33.0106 68.8593C32.5868 69.6643 32.7516 70.351 33.4343 70.9429C33.7639 71.227 34.0935 71.4638 34.4702 71.7006C36.377 72.8607 38.4723 73.5237 40.591 74.1393C43.9339 75.0863 47.371 75.702 50.8081 76.1992C52.7856 76.4833 54.7631 76.6727 56.7406 76.8858C58.059 77.0279 59.3773 77.1226 60.6956 77.2173C63.0263 77.383 65.3569 77.5724 67.6875 77.6435C70.1123 77.7145 72.5136 77.6435 74.9384 77.6435L74.9148 77.6198Z" fill="white"/>
<circle cx="133.763" cy="34.3349" r="30.7861" fill="white"/>
<path d="M133.716 0.0162676C114.759 -0.0977527 99 14.9757 99 34.4808C99 54.1683 115.048 69.0213 133.473 68.8997C152.134 69.0518 167.977 53.8642 168 34.5416C168.023 15.3938 152.643 0.130288 133.716 0.0162676ZM129.524 45.9284C128.597 47.5475 127.025 48.1556 125.233 48.2088C123.699 48.2545 122.165 48.2164 120.638 48.2164C119.066 48.2164 117.486 48.2545 115.922 48.2164C113.932 48.1632 113.225 47.0002 114.213 45.2595C119.165 36.4876 124.139 27.7308 129.114 18.9664C130.056 17.3169 130.967 15.6522 131.962 14.0256C132.919 12.4597 134.203 12.4141 135.137 13.98C136.868 16.8913 138.532 19.8406 140.172 22.7975C140.962 24.2266 140.97 25.7697 140.172 27.1911C136.656 33.4546 133.109 39.6953 129.532 45.9284H129.524ZM151.306 48.2088C149.362 48.2468 147.418 48.2088 145.466 48.2088C143.522 48.2088 141.577 48.2393 139.625 48.2088C137.453 48.1708 136.777 47.0306 137.848 45.1455C139.77 41.7705 141.729 38.4183 143.711 35.0813C144.79 33.2722 145.982 33.257 147.076 35.0661C149.104 38.4259 151.094 41.8085 153.038 45.2215C154.063 47.0154 153.372 48.1632 151.299 48.2088H151.306Z" fill="#FF0202"/>
</svg>
