<svg width="92" height="97" viewBox="0 0 92 97" fill="none" xmlns="http://www.w3.org/2000/svg">
<path fill-rule="evenodd" clip-rule="evenodd" d="M11.6836 7.46732H46.7346C49.1535 7.46732 51.116 9.4291 51.116 11.8487V29.4697C53.6832 29.6944 56.1363 30.3083 58.4182 31.2539V11.8487C58.4182 5.39573 53.1868 0.165039 46.7346 0.165039H11.6836C5.2314 0.165039 0 5.39573 0 11.8487V57.8531V65.1553H7.30228H26.6391C25.0132 61.8515 24.0975 58.1333 24.0975 54.2019C24.0975 49.0632 25.6578 44.2889 28.3334 40.3276H19.7162V57.8531H7.30228V11.8487C7.30228 9.4291 9.26477 7.46732 11.6836 7.46732ZM17.5255 20.6114C15.5088 20.6114 13.8743 22.2459 13.8743 24.2626C13.8743 26.2793 15.5088 27.9137 17.5255 27.9137H41.623C43.6397 27.9137 45.2741 26.2793 45.2741 24.2626C45.2741 22.2459 43.6397 20.6114 41.623 20.6114H17.5255Z" fill="#3605D3"/>
<path fill-rule="evenodd" clip-rule="evenodd" d="M58.7031 44.1419C63.9788 49.4176 63.9788 57.9711 58.7031 63.2468C53.4274 68.5225 44.8739 68.5225 39.5982 63.2468C34.3225 57.9711 34.3225 49.4176 39.5982 44.1419C44.8739 38.8662 53.4274 38.8662 58.7031 44.1419ZM66.4327 65.2966C71.8779 57.2048 71.0225 46.1343 63.8666 38.9784C55.7392 30.851 42.5621 30.851 34.4347 38.9784C26.3073 47.1058 26.3073 60.2829 34.4347 68.4103C41.7715 75.7471 53.2233 76.4608 61.3606 70.5515L73.2653 82.4561C74.2057 83.3965 76.124 83.0031 77.5499 81.5772C78.9757 80.1513 79.3692 78.2331 78.4288 77.2926L66.4327 65.2966Z" fill="#3605D3"/>
</svg>
