<svg width="51" height="81" viewBox="0 0 51 81" fill="none" xmlns="http://www.w3.org/2000/svg">
<path fill-rule="evenodd" clip-rule="evenodd" d="M37.8756 49.0234C42.0982 41.1279 44.5446 31.8354 44.5446 26.1249C44.5446 15.6067 36.018 7.08011 25.4999 7.08011C14.9817 7.08011 6.45511 15.6067 6.45511 26.1249C6.45511 31.8354 8.90149 41.1279 13.1241 49.0234C15.206 52.9163 17.5353 56.1137 19.8748 58.2575C22.2334 60.4188 24.122 61.0922 25.4999 61.0922C26.8777 61.0922 28.7663 60.4188 31.1249 58.2575C33.4644 56.1137 35.7937 52.9163 37.8756 49.0234ZM25.4999 67.3364C39.4665 67.3364 50.7888 40.0915 50.7888 26.1249C50.7888 12.1582 39.4665 0.835938 25.4999 0.835938C11.5332 0.835938 0.210938 12.1582 0.210938 26.1249C0.210938 40.0915 11.5332 67.3364 25.4999 67.3364Z" fill="#3605D3"/>
<path fill-rule="evenodd" clip-rule="evenodd" d="M29.4355 16.5768C28.6909 12.24 22.313 12.24 21.5684 16.5768C21.1536 18.9925 18.588 20.4399 16.2396 19.5831C12.0239 18.0448 8.83493 23.4421 12.3061 26.2406C14.2397 27.7994 14.2397 30.6943 12.3061 32.2532C8.83493 35.0517 12.0238 40.4489 16.2396 38.9107C18.588 38.0538 21.1536 39.5012 21.5684 41.917C22.313 46.2537 28.6909 46.2537 29.4355 41.917C29.8503 39.5012 32.4158 38.0538 34.7642 38.9107C38.98 40.4489 42.1689 35.0517 38.6978 32.2532C36.7642 30.6943 36.7642 27.7994 38.6978 26.2406C42.1689 23.4421 38.98 18.0448 34.7642 19.5831C32.4158 20.4399 29.8503 18.9925 29.4355 16.5768ZM25.5019 35.8609C29.2105 35.8609 32.217 32.8997 32.217 29.2469C32.217 25.594 29.2105 22.6328 25.5019 22.6328C21.7932 22.6328 18.7867 25.594 18.7867 29.2469C18.7867 32.8997 21.7932 35.8609 25.5019 35.8609Z" fill="#3605D3"/>
<path d="M11.4531 62.6528C11.4531 58.8594 14.5283 55.7842 18.3217 55.7842H33.3077C37.1012 55.7842 40.1763 58.8594 40.1763 62.6528C40.1763 66.4462 37.1012 69.5214 33.3077 69.5214H18.3217C14.5283 69.5214 11.4531 66.4462 11.4531 62.6528Z" fill="#3605D3"/>
<path d="M11.4531 77.0151C11.4531 74.9459 13.1305 73.2686 15.1996 73.2686H36.4298C38.499 73.2686 40.1763 74.9459 40.1763 77.0151C40.1763 79.0842 38.499 80.7616 36.4298 80.7616H15.1996C13.1305 80.7616 11.4531 79.0842 11.4531 77.0151Z" fill="#3605D3"/>
</svg>
