<svg width="74" height="76" viewBox="0 0 74 76" fill="none" xmlns="http://www.w3.org/2000/svg">
<path fill-rule="evenodd" clip-rule="evenodd" d="M18.5 41.0355L7.11538 47.6509V60.8725L18.5 67.4879L29.8846 60.8725V47.6509L18.5 41.0355ZM37 43.5117L18.5 32.7617L0 43.5117V65.0117L18.5 75.7617L37 65.0117V43.5117Z" fill="#3605D3"/>
<path fill-rule="evenodd" clip-rule="evenodd" d="M55.5 41.0355L44.1154 47.6509V60.8725L55.5 67.4879L66.8846 60.8725V47.6509L55.5 41.0355ZM74 43.5117L55.5 32.7617L37 43.5117V65.0117L55.5 75.7617L74 65.0117V43.5117Z" fill="#3605D3"/>
<path fill-rule="evenodd" clip-rule="evenodd" d="M37 9.12404L25.3077 15.8933V29.6302L37 36.3994L48.6923 29.6302V15.8933L37 9.12404ZM56 11.7617L37 0.761719L18 11.7617V33.7617L37 44.7617L56 33.7617V11.7617Z" fill="#3605D3"/>
</svg>
