<svg width="89" height="62" viewBox="0 0 89 62" fill="none" xmlns="http://www.w3.org/2000/svg">
<path fill-rule="evenodd" clip-rule="evenodd" d="M0 26.3592C0 24.3373 1.63906 22.6982 3.66094 22.6982H38.806C40.8279 22.6982 42.467 24.3373 42.467 26.3592C42.467 28.3811 40.8279 30.0201 38.806 30.0201H3.66094C1.63906 30.0201 0 28.3811 0 26.3592Z" fill="#3605D3"/>
<path fill-rule="evenodd" clip-rule="evenodd" d="M0 26.3592C0 24.3373 1.63906 22.6982 3.66094 22.6982H38.806C40.8279 22.6982 42.467 24.3373 42.467 26.3592C42.467 28.3811 40.8279 30.0201 38.806 30.0201H3.66094C1.63906 30.0201 0 28.3811 0 26.3592Z" fill="#3605D3"/>
<path fill-rule="evenodd" clip-rule="evenodd" d="M27.0937 37.3416C27.0937 35.3197 28.7328 33.6807 30.7547 33.6807L79.0792 33.6807C81.101 33.6807 82.7401 35.3197 82.7401 37.3416C82.7401 39.3635 81.101 41.0026 79.0792 41.0026L30.7547 41.0026C28.7328 41.0026 27.0937 39.3635 27.0937 37.3416Z" fill="#3605D3"/>
<path fill-rule="evenodd" clip-rule="evenodd" d="M87.157 1.07227C88.5867 2.50195 88.5867 4.81994 87.157 6.24962L65.369 28.0376C62.2237 31.1829 57.1241 31.1829 53.9788 28.0376L45.7363 19.7951C44.3066 18.3654 44.3066 16.0474 45.7363 14.6178C47.166 13.1881 49.484 13.1881 50.9137 14.6178L59.1562 22.8603C59.4421 23.1462 59.9057 23.1462 60.1917 22.8603L81.9797 1.07227C83.4094 -0.357422 85.7273 -0.357422 87.157 1.07227Z" fill="#3605D3"/>
<path fill-rule="evenodd" clip-rule="evenodd" d="M70.7947 6.56537C68.173 2.60891 63.6806 0 58.5788 0H26.3625C18.275 0 11.7188 6.55624 11.7188 14.6438V46.8601C11.7188 54.9476 18.275 61.5039 26.3625 61.5039H58.5788C66.6664 61.5039 73.2226 54.9476 73.2226 46.8601V25.8823L68.2198 30.8852C67.5069 31.598 66.7272 32.2031 65.9007 32.7006V46.8601C65.9007 50.9039 62.6226 54.182 58.5788 54.182H26.3625C22.3188 54.182 19.0406 50.9039 19.0406 46.8601V14.6438C19.0406 10.6 22.3188 7.32189 26.3625 7.32189H58.5788C61.6771 7.32189 64.3259 9.24622 65.3952 11.9649L70.7947 6.56537Z" fill="#3605D3"/>
</svg>
