<svg width="74" height="80" viewBox="0 0 74 80" fill="none" xmlns="http://www.w3.org/2000/svg">
<path d="M55.7425 36.9453L73.8912 47.4781V68.5435L55.7425 79.0763L37.5938 68.5435V47.4781L55.7425 36.9453Z" fill="#3605D3"/>
<path fill-rule="evenodd" clip-rule="evenodd" d="M3.24084 12.3145C5.03071 12.3145 6.48169 13.7654 6.48169 15.5553V57.0381H53.1498C54.9397 57.0381 56.3907 58.4891 56.3907 60.2789C56.3907 62.0688 54.9397 63.5198 53.1498 63.5198H0V15.5553C0 13.7654 1.45098 12.3145 3.24084 12.3145Z" fill="#3605D3"/>
<path fill-rule="evenodd" clip-rule="evenodd" d="M59.2111 13.0693C60.5397 14.1531 60.6443 16.0049 59.4449 17.2054L34.2126 42.4595L29.3211 37.5638L6.94325 59.9611C5.74381 61.1615 3.6945 61.2561 2.36597 60.1723C1.03745 59.0884 0.9328 57.2366 2.13224 56.0362L29.3211 28.8238L34.2126 33.7195L54.6339 13.2805C55.8333 12.08 57.8826 11.9855 59.2111 13.0693Z" fill="#3605D3"/>
<path d="M63.5618 7.1321L58.3407 26.6174L44.0765 12.3532L63.5618 7.1321Z" fill="#3605D3"/>
</svg>
