<svg width="85" height="68" viewBox="0 0 85 68" fill="none" xmlns="http://www.w3.org/2000/svg">
<path d="M58.456 35.4386C58.456 38.7558 57.3037 41.428 54.9989 43.4551C52.6942 45.4454 49.6761 46.6617 45.9446 47.104V55.4523H38.7012V46.8829C33.6161 46.072 29.2261 44.137 25.5312 41.0778L29.3176 33.5036C31.2565 35.199 33.5429 36.5996 36.1769 37.7053C38.8109 38.7742 41.1522 39.3086 43.2009 39.3086C44.774 39.3086 45.9995 39.0322 46.8775 38.4793C47.7555 37.8896 48.1945 37.0419 48.1945 35.9362C48.1945 34.8673 47.6823 33.9827 46.658 33.2824C45.6702 32.5453 44.4264 32.0108 42.9265 31.6791C41.4266 31.3105 39.7987 30.8314 38.0427 30.2417C36.2867 29.6519 34.6587 29.0069 33.1588 28.3066C31.6589 27.6063 30.3968 26.5006 29.3725 24.9895C28.3847 23.4414 27.8909 21.5986 27.8909 19.4608C27.8909 16.5491 28.842 14.098 30.7443 12.1077C32.6832 10.1174 35.3355 8.80897 38.7012 8.18239V0H45.9446V7.90596C50.737 8.42196 54.8709 9.82255 58.3463 12.1077L54.6697 19.7925C52.6576 18.6131 50.4992 17.6548 48.1945 16.9176C45.8897 16.1436 43.9508 15.7566 42.3778 15.7566C39.5609 15.7566 38.1524 16.6965 38.1524 18.5762C38.1524 19.7925 38.8475 20.7693 40.2377 21.5064C41.6278 22.2436 43.3106 22.8886 45.2861 23.4414C47.2982 23.9574 49.292 24.6025 51.2675 25.3765C53.2795 26.1136 54.9806 27.3299 56.3708 29.0254C57.761 30.7208 58.456 32.8586 58.456 35.4386Z" fill="#3605D3"/>
<path d="M58.456 35.4386C58.456 38.7558 57.3037 41.428 54.9989 43.4551C52.6942 45.4454 49.6761 46.6617 45.9446 47.104V55.4523H38.7012V46.8829C33.6161 46.072 29.2261 44.137 25.5312 41.0778L29.3176 33.5036C31.2565 35.199 33.5429 36.5996 36.1769 37.7053C38.8109 38.7742 41.1522 39.3086 43.2009 39.3086C44.774 39.3086 45.9995 39.0322 46.8775 38.4793C47.7555 37.8896 48.1945 37.0419 48.1945 35.9362C48.1945 34.8673 47.6823 33.9827 46.658 33.2824C45.6702 32.5453 44.4264 32.0108 42.9265 31.6791C41.4266 31.3105 39.7987 30.8314 38.0427 30.2417C36.2867 29.6519 34.6587 29.0069 33.1588 28.3066C31.6589 27.6063 30.3968 26.5006 29.3725 24.9895C28.3847 23.4414 27.8909 21.5986 27.8909 19.4608C27.8909 16.5491 28.842 14.098 30.7443 12.1077C32.6832 10.1174 35.3355 8.80897 38.7012 8.18239V0H45.9446V7.90596C50.737 8.42196 54.8709 9.82255 58.3463 12.1077L54.6697 19.7925C52.6576 18.6131 50.4992 17.6548 48.1945 16.9176C45.8897 16.1436 43.9508 15.7566 42.3778 15.7566C39.5609 15.7566 38.1524 16.6965 38.1524 18.5762C38.1524 19.7925 38.8475 20.7693 40.2377 21.5064C41.6278 22.2436 43.3106 22.8886 45.2861 23.4414C47.2982 23.9574 49.292 24.6025 51.2675 25.3765C53.2795 26.1136 54.9806 27.3299 56.3708 29.0254C57.761 30.7208 58.456 32.8586 58.456 35.4386Z" fill="#3605D3"/>
<path fill-rule="evenodd" clip-rule="evenodd" d="M14.7714 56.6652C14.6004 55.2332 13.3817 54.123 11.9038 54.123C10.3087 54.123 9.01562 55.4161 9.01562 57.0112C9.01562 59.7223 11.2126 61.4184 12.8532 62.3504C14.7211 63.4116 17.2322 64.2714 20.085 64.9569C25.8359 66.3388 33.6322 67.1648 42.14 67.1648C50.6478 67.1648 58.444 66.3388 64.195 64.9569C67.0477 64.2714 69.5588 63.4116 71.4267 62.3504C73.0673 61.4184 75.2643 59.7223 75.2643 57.0112H69.488C69.488 56.7538 69.5554 56.6191 69.5717 56.5911C69.5743 56.5874 69.5753 56.5856 69.5753 56.5856C69.5752 56.5855 69.5739 56.5874 69.5717 56.5911C69.5435 56.6318 69.3367 56.8945 68.5734 57.3281C67.3813 58.0053 65.4643 58.7112 62.8454 59.3405C57.653 60.5882 50.3312 61.3886 42.14 61.3886C33.9488 61.3886 26.6269 60.5882 21.4345 59.3405C18.8156 58.7112 16.8987 58.0053 15.7065 57.3281C15.1388 57.0055 14.8789 56.7775 14.7714 56.6652ZM14.7082 56.5911C14.7057 56.5874 14.7046 56.5856 14.7047 56.5856C14.7048 56.5855 14.7061 56.5874 14.7082 56.5911Z" fill="#3605D3"/>
<path d="M78.8457 51.4621L78.8459 61.0626L62.374 57.0544L78.8457 51.4621Z" fill="#3605D3"/>
<path d="M6.81378 53.2975L6.81365 43.6077L23.4387 47.6531L6.81378 53.2975Z" fill="#3605D3"/>
<path fill-rule="evenodd" clip-rule="evenodd" d="M59.5859 44.4585C61.2934 44.7251 62.868 45.0321 64.2842 45.3724C66.9031 46.0017 68.8201 46.7075 70.0122 47.3848C70.58 47.7074 70.8399 47.9353 70.9474 48.0477C71.1183 49.4797 72.337 50.5898 73.815 50.5898C75.4101 50.5898 76.7031 49.2968 76.7031 47.7017C76.7031 44.9906 74.5061 43.2945 72.8655 42.3625C70.9976 41.3013 68.4865 40.4415 65.6338 39.756C64.5335 39.4916 63.3583 39.2476 62.1176 39.0258C61.6705 41.0166 60.8307 42.8436 59.5859 44.4585ZM47.7457 37.6149C51.4254 37.734 54.919 38.0091 58.1073 38.416C57.6069 40.3959 56.5715 42.0764 55.0013 43.4575C54.8537 43.585 54.7032 43.7093 54.5497 43.8304C51.1804 43.5057 47.4781 43.3243 43.5788 43.3243C38.6846 43.3243 34.1007 43.6101 30.096 44.1062C28.4728 43.2632 26.952 42.2545 25.5336 41.0802L26.6993 38.7485C29.6217 38.2929 32.8567 37.9546 36.297 37.7552C38.8831 38.7924 41.1852 39.311 43.2033 39.311C44.7764 39.311 46.0019 39.0346 46.8799 38.4817C47.244 38.2372 47.5326 37.9482 47.7457 37.6149ZM21.6956 39.715C21.6381 39.7286 21.5808 39.7423 21.5238 39.756C18.671 40.4415 16.16 41.3013 14.292 42.3625C12.6514 43.2945 10.4544 44.9906 10.4544 47.7017H16.2307C16.2307 47.9591 16.1634 48.0938 16.147 48.1218C16.1445 48.1255 16.1434 48.1273 16.1435 48.1273C16.1435 48.1273 16.1437 48.1271 16.144 48.1267C16.1446 48.1259 16.1456 48.1242 16.147 48.1218C16.1752 48.0811 16.3821 47.8184 17.1453 47.3848C18.3375 46.7075 20.2544 46.0017 22.8733 45.3724C23.2692 45.2773 23.6773 45.1848 24.0974 45.095C23.7107 44.8051 23.3299 44.505 22.955 44.1946L20.4805 42.1458L21.6956 39.715ZM71.0105 48.1218C71.0131 48.1255 71.0142 48.1273 71.0141 48.1273C71.014 48.1273 71.0127 48.1255 71.0105 48.1218Z" fill="#3605D3"/>
</svg>
