<svg width="75" height="112" viewBox="0 0 75 112" fill="none" xmlns="http://www.w3.org/2000/svg">
<path d="M37.5035 46.8359L64.9289 63.0673V95.53L37.5035 111.761L10.0781 95.53V63.0673L37.5035 46.8359Z" fill="white"/>
<path fill-rule="evenodd" clip-rule="evenodd" d="M37.5035 53.6137L15.8286 66.4417V92.1556L37.5035 104.984L59.1784 92.1556V66.4417L37.5035 53.6137ZM64.9289 63.0673L37.5035 46.8359L10.0781 63.0673V95.53L37.5035 111.761L64.9289 95.53V63.0673Z" fill="#3605D3"/>
<path d="M37.5035 79.2986L64.9289 63.0673L37.5035 46.8359L10.0781 63.0673L37.5035 79.2986Z" fill="white"/>
<path fill-rule="evenodd" clip-rule="evenodd" d="M64.9289 63.0673L37.5035 46.8359L10.0781 63.0673L37.5035 79.2986L64.9289 63.0673ZM53.4768 63.0673L37.5035 53.6137L21.5302 63.0673L37.5035 72.5209L53.4768 63.0673Z" fill="#3605D3"/>
<path d="M42.5373 50.901L14.7571 66.9843L0 58.4407L27.7802 42.3574L42.5373 50.901Z" fill="white"/>
<path fill-rule="evenodd" clip-rule="evenodd" d="M42.5373 50.901L27.7802 42.3574L0 58.4407L14.7571 66.9843L42.5373 50.901ZM30.911 50.901L27.7802 49.0884L11.6263 58.4407L14.7571 60.2533L30.911 50.901Z" fill="#3605D3"/>
<path d="M74.9982 68.8121L47.218 84.8954L32.4609 76.3518L60.2412 60.2686L74.9982 68.8121Z" fill="white"/>
<path fill-rule="evenodd" clip-rule="evenodd" d="M74.9982 68.8121L60.2412 60.2686L32.4609 76.3518L47.218 84.8954L74.9982 68.8121ZM63.372 68.8121L60.2412 66.9996L44.0872 76.3518L47.218 78.1644L63.372 68.8121Z" fill="#3605D3"/>
<path d="M31.3377 50.1702L59.1179 66.9846L73.875 58.0526L46.0948 41.2383L31.3377 50.1702Z" fill="white"/>
<path fill-rule="evenodd" clip-rule="evenodd" d="M31.3377 50.1702L46.0948 41.2383L73.875 58.0526L59.1179 66.9846L31.3377 50.1702ZM42.964 50.1702L46.0948 48.2752L62.2487 58.0526L59.1179 59.9476L42.964 50.1702Z" fill="#3605D3"/>
<path d="M1.11894 68.8121L28.8992 84.8954L43.6562 76.3518L15.876 60.2686L1.11894 68.8121Z" fill="white"/>
<path fill-rule="evenodd" clip-rule="evenodd" d="M1.11894 68.8121L15.876 60.2686L43.6562 76.3518L28.8992 84.8954L1.11894 68.8121ZM12.7452 68.8121L15.876 66.9996L32.03 76.3518L28.8992 78.1644L12.7452 68.8121Z" fill="#3605D3"/>
<path d="M48 26.2024C48 28.655 47.125 30.6308 45.375 32.1296C43.625 33.6012 41.3333 34.5005 38.5 34.8275V41H33V34.664C29.1389 34.0645 25.8056 32.6338 23 30.3719L25.875 24.7717C27.3472 26.0253 29.0833 27.0608 31.0833 27.8784C33.0833 28.6687 34.8611 29.0638 36.4167 29.0638C37.6111 29.0638 38.5417 28.8594 39.2083 28.4506C39.875 28.0146 40.2083 27.3878 40.2083 26.5703C40.2083 25.78 39.8194 25.126 39.0417 24.6082C38.2917 24.0631 37.3472 23.668 36.2083 23.4227C35.0694 23.1502 33.8333 22.7959 32.5 22.3599C31.1667 21.9239 29.9306 21.447 28.7917 20.9292C27.6528 20.4114 26.6944 19.5939 25.9167 18.4766C25.1667 17.332 24.7917 15.9694 24.7917 14.3888C24.7917 12.236 25.5139 10.4237 26.9583 8.95214C28.4306 7.48056 30.4444 6.51313 33 6.04985V0H38.5V5.84546C42.1389 6.22698 45.2778 7.26254 47.9167 8.95214L45.125 14.6341C43.5972 13.762 41.9583 13.0535 40.2083 12.5085C38.4583 11.9362 36.9861 11.65 35.7917 11.65C33.6528 11.65 32.5833 12.345 32.5833 13.7348C32.5833 14.6341 33.1111 15.3563 34.1667 15.9013C35.2222 16.4463 36.5 16.9232 38 17.332C39.5278 17.7135 41.0417 18.1904 42.5417 18.7627C44.0694 19.3077 45.3611 20.207 46.4167 21.4606C47.4722 22.7142 48 24.2948 48 26.2024Z" fill="#3605D3"/>
</svg>
