<svg width="94" height="104" viewBox="0 0 94 104" fill="none" xmlns="http://www.w3.org/2000/svg">
<path d="M51.789 20.2656C51.789 31.0373 43.0568 39.7694 32.2851 39.7694C21.5134 39.7694 12.7812 31.0373 12.7812 20.2656C12.7812 9.4939 21.5134 0.761719 32.2851 0.761719C43.0568 0.761719 51.789 9.4939 51.789 20.2656Z" fill="#3605D3"/>
<path fill-rule="evenodd" clip-rule="evenodd" d="M42.1864 83.2221C36.2499 79.6279 32.2823 73.1084 32.2823 65.6621C32.2823 57.1149 37.5098 49.7887 44.9421 46.7063C41.0548 45.7041 36.7757 45.1494 32.2823 45.1494C14.4533 45.1494 0 53.8816 0 64.6533C0 75.425 14.4533 84.1571 32.2823 84.1571C35.7373 84.1571 39.0655 83.8292 42.1864 83.2221Z" fill="#3605D3"/>
<path fill-rule="evenodd" clip-rule="evenodd" d="M64.0481 57.4529C68.6801 62.0849 68.6801 69.5948 64.0481 74.2268C59.4161 78.8588 51.9062 78.8588 47.2742 74.2268C42.6422 69.5948 42.6422 62.0849 47.2742 57.4529C51.9062 52.8209 59.4161 52.8209 64.0481 57.4529ZM70.8346 76.0265C75.6154 68.922 74.8644 59.2022 68.5816 52.9194C61.4458 45.7837 49.8765 45.7837 42.7407 52.9194C35.605 60.0552 35.605 71.6245 42.7407 78.7603C49.1823 85.2019 59.2369 85.8285 66.3814 80.6402L76.8335 91.0923C77.6592 91.918 79.3434 91.5725 80.5953 90.3207C81.8472 89.0688 82.1927 87.3845 81.367 86.5588L70.8346 76.0265Z" fill="#3605D3"/>
</svg>
