<?xml version="1.0" encoding="utf-8"?>
<svg version="1.1" xmlns="http://www.w3.org/2000/svg" xmlns:xlink="http://www.w3.org/1999/xlink"
	 x="0px"
	 y="0px"
	 viewBox="0 0 49 41"
	 style="enable-background:new 0 0 49 41;"
	 xml:space="preserve"
>
	<path class="st0" d="M47.8,33.6L47.8,33.6L28.7,3c-0.6-0.9-1.4-1.6-2.6-2c-1.1-0.4-2.3-0.4-3.3,0l0,0c-1.1,0.4-1.9,1-2.6,2
	c0,0,0,0,0,0L1.2,33.6c-0.6,1-0.8,2-0.6,3c0.2,1.1,0.8,2,1.7,2.7c0.9,0.7,2,1.1,3.2,1l0,0v0h38.2c0.8,0,1.6-0.2,2.3-0.5l0,0l0,0
	c0.3-0.1,0.6-0.3,0.9-0.5c0.9-0.7,1.4-1.6,1.6-2.7C48.6,35.5,48.5,34.6,47.8,33.6z M24.5,31.7c-4.1,0-7.5-3.4-7.5-7.5
	s3.4-7.5,7.5-7.5c4.1,0,7.5,3.4,7.5,7.5S28.6,31.7,24.5,31.7z"/>
</svg>