<?xml version="1.0" encoding="utf-8"?>
<!-- Generator: Adobe Illustrator 27.5.0, SVG Export Plug-In . SVG Version: 6.00 Build 0)  -->
<svg version="1.1" id="Capa_1" xmlns="http://www.w3.org/2000/svg" xmlns:xlink="http://www.w3.org/1999/xlink" x="0px" y="0px"
	 viewBox="0 0 345.4 102.4" style="enable-background:new 0 0 345.4 102.4;" xml:space="preserve">
<style type="text/css">
	.st0{fill:#FFFFFF;}
</style>
<path class="st0" d="M12.2,26.3c-0.2,0-0.3,0.3-0.4,0.9c-0.1,0.6-0.1,1.4-0.1,2.4c0,1,0,2,0.1,3.2c0,1.1,0,2.2,0,3.2
	c0,1-0.1,1.8-0.2,2.5c-0.1,0.7-0.3,1.1-0.6,1.2s-0.8,0.2-1.4,0.3c-0.6,0.1-1.4,0.2-2.2,0.2c-0.8,0.1-1.6,0.1-2.5,0.1
	c-0.8,0-1.6-0.1-2.3-0.2C2,40,1.4,39.9,1,39.6c-0.4-0.2-0.7-0.5-0.7-0.8c0-0.3,0-1-0.1-2.1c0-1.2-0.1-2.6-0.1-4.3
	c0-1.7,0-3.6-0.1-5.7c0-2.1-0.1-4.3-0.1-6.4c0-2.2,0-4.3,0-6.4c0-2.1,0.1-3.9,0.1-5.6c0.1-1.6,0.1-3,0.3-4c0.1-1,0.3-1.6,0.5-1.8
	C1.2,2.3,2,2.1,3,1.9c1.1-0.2,2.2-0.2,3.5-0.3c1.2,0,2.4,0,3.4,0.2C11,2,11.7,2.3,12.1,2.7c0.2,0.3,0.6,0.9,0.9,1.8
	c0.4,0.9,0.8,2,1.2,3.3c0.4,1.3,0.9,2.6,1.4,4c0.5,1.4,1,2.7,1.4,3.8c0.4,1.2,0.9,2.1,1.3,2.9s0.7,1.1,1,1.1c0.3,0,0.4-0.4,0.5-1.2
	c0-0.9,0-1.9-0.1-3.3c-0.1-1.3-0.2-2.7-0.4-4.2c-0.2-1.5-0.3-3-0.4-4.3c-0.1-1.3-0.2-2.5-0.2-3.4c0-0.9,0.1-1.4,0.4-1.4
	c0.4-0.1,1.1-0.2,2.1-0.3c1.1-0.1,2.2-0.1,3.3,0c1.2,0.1,2.2,0.2,3.2,0.5c0.9,0.2,1.5,0.6,1.7,1.2c0.1,0.3,0.2,1,0.3,2.2
	C29.9,6.4,30,7.9,30,9.7c0.1,1.8,0.1,3.7,0.2,5.9c0.1,2.2,0.1,4.3,0.2,6.6c0,2.2,0,4.4,0,6.5c0,2.1-0.1,4-0.1,5.6
	c-0.1,1.7-0.2,3-0.3,4c-0.1,1-0.3,1.5-0.5,1.6c-0.4,0.1-1.2,0.2-2.3,0.3c-1.1,0.1-2.3,0.2-3.5,0.2c-1.2,0-2.4-0.1-3.5-0.2
	c-1.1-0.2-1.8-0.5-2.2-1c-0.2-0.3-0.5-0.9-0.8-1.7c-0.3-0.8-0.6-1.6-0.9-2.6c-0.3-0.9-0.6-1.9-1-2.9c-0.3-1-0.7-1.9-1-2.8
	c-0.4-0.8-0.7-1.5-1.1-2.1C12.9,26.6,12.6,26.3,12.2,26.3z"/>
<path class="st0" d="M50.1,0c2.7,0,5.1,0.1,7,0.5C59,0.8,60.6,1.4,62,2.2C63.3,3,64.4,4,65.2,5.3C66,6.5,66.6,8,67.1,9.8
	c0.5,1.8,0.8,3.9,1.1,6.2c0.2,2.4,0.4,5,0.6,8c0.2,3.7,0.1,6.8-0.3,9.1c-0.4,2.3-1.2,4.2-2.4,5.6c-1.2,1.4-2.9,2.4-5,3
	c-2.1,0.6-4.8,1.1-8.1,1.3c-3.2,0.3-6,0.2-8.4-0.1c-2.4-0.3-4.4-1.1-6.1-2.4c-1.7-1.3-3-3-4-5.4c-1-2.3-1.7-5.4-2.2-9.1
	c-0.5-4.2-0.6-7.9-0.3-11.1c0.3-3.2,1.1-5.9,2.5-8.1c1.3-2.2,3.3-3.9,5.8-5C42.9,0.7,46.1,0.1,50.1,0z M47.8,29.9
	c0.1,0.9,0.5,1.5,1.3,1.9c0.8,0.4,1.7,0.5,2.7,0.4c1-0.1,1.8-0.4,2.6-1c0.8-0.5,1.2-1.3,1.2-2.2c0-1.2,0.1-2.4,0-3.4
	c0-1.1-0.1-2.1-0.1-3.2c-0.1-1.1-0.2-2.2-0.3-3.4c-0.1-1.2-0.4-2.6-0.6-4.1c-0.2-0.9-0.7-1.6-1.5-1.9c-0.8-0.4-1.7-0.5-2.7-0.4
	c-1,0.1-1.8,0.4-2.6,0.9c-0.8,0.5-1.2,1.1-1.2,2c0,1.3,0.1,2.7,0.2,4.2c0.1,1.6,0.2,3.1,0.4,4.5c0.2,1.4,0.3,2.7,0.4,3.8
	C47.7,28.9,47.8,29.6,47.8,29.9z"/>
<path class="st0" d="M70.5,1.8c0.3-0.1,1.1-0.2,2.4-0.3c1.3-0.1,2.9-0.1,4.7-0.2c1.8,0,3.7-0.1,5.8-0.1c2.1,0,4,0,5.7,0.1
	s3.3,0.1,4.6,0.2c1.3,0.1,2,0.2,2.3,0.3c0.2,0.1,0.4,0.5,0.6,1c0.2,0.5,0.3,1.1,0.4,1.8C97,5.5,97,6.2,97,7s0,1.6-0.1,2.4
	c0,0.8-0.1,1.4-0.2,2c-0.1,0.6-0.2,1-0.3,1.2c-0.1,0.4-0.6,0.6-1.2,0.7c-0.7,0.1-1.5,0.1-2.3,0.1c-0.8,0-1.7,0-2.5-0.1
	c-0.8,0-1.4,0-1.7,0.1c-0.2,0.1-0.3,0.5-0.3,1.2s-0.1,1.8,0,3c0,1.2,0.1,2.6,0.2,4.2c0.1,1.6,0.2,3.2,0.3,4.8
	c0.1,1.6,0.2,3.2,0.3,4.8c0.1,1.6,0.2,3,0.2,4.2c0,1.3,0,2.3,0,3.1c0,0.8-0.1,1.3-0.3,1.4c-0.3,0.3-1,0.4-2.1,0.5
	c-1.1,0.1-2.3,0.1-3.6,0.1c-1.4,0-2.7-0.1-4.1-0.2c-1.4-0.1-2.5-0.2-3.3-0.3c-0.6-0.1-1-0.7-1.2-2c-0.2-1.3-0.3-2.9-0.4-4.8
	c0-1.9,0.1-4,0.2-6.2c0.2-2.2,0.3-4.3,0.5-6.3c0.2-1.9,0.3-3.6,0.4-5c0.1-1.4,0.1-2.1,0.1-2.3c-0.1-0.3-0.4-0.5-1-0.6
	c-0.6-0.1-1.2-0.1-1.9-0.2c-0.7,0-1.3-0.1-2-0.1c-0.6-0.1-1.1-0.2-1.3-0.4c-0.2-0.2-0.3-0.5-0.3-1.1c-0.1-0.6-0.1-1.2-0.1-2
	c0-0.8,0.1-1.6,0.2-2.4c0.1-0.9,0.2-1.7,0.3-2.4c0.1-0.7,0.3-1.3,0.5-1.9C70.2,2.2,70.3,1.9,70.5,1.8z"/>
<path class="st0" d="M100.7,3.1c0.4-0.5,1.1-0.9,2.1-1.2c1-0.2,2.1-0.4,3.2-0.4c1.2-0.1,2.3,0,3.4,0.1c1.1,0.1,2,0.3,2.6,0.6
	c0.6,0.2,1,0.7,1.2,1.3c0.2,0.7,0.2,1.4,0.2,2.2c0,0.8-0.1,1.6-0.2,2.4s-0.1,1.5,0.1,2c0.2,0.7,0.5,1.2,1.1,1.4
	c0.6,0.2,1.2,0.3,1.8,0.3c0.6-0.1,1.2-0.3,1.8-0.6c0.5-0.3,0.8-0.7,0.9-1.1c0.3-1.2,0.5-2.2,0.6-3.1c0.1-0.9,0.1-1.6,0.1-2.3
	c0-0.6,0.1-1.2,0.2-1.6c0.1-0.4,0.3-0.8,0.7-1c0.4-0.3,1.1-0.6,2-0.7c0.9-0.2,1.9-0.3,2.9-0.3c1.1,0,2.1,0.2,3.1,0.4
	c1,0.3,1.8,0.7,2.5,1.2c0.4,0.4,0.7,0.9,0.8,1.6c0.1,0.7,0.2,1.3,0.2,1.9c0,1.3,0,2.9,0,5c0,2.1,0,4.4-0.1,6.8c0,2.5,0,4.9-0.1,7.4
	c0,2.5-0.1,4.8-0.1,6.9c-0.1,2.1-0.1,3.8-0.2,5.2c-0.1,1.4-0.1,2.1-0.2,2.2c-0.1,0.1-0.3,0.3-0.8,0.4c-0.5,0.1-1.1,0.2-1.8,0.2
	c-0.7,0.1-1.5,0.1-2.4,0.1c-0.8,0-1.7,0.1-2.5,0.1s-1.6,0-2.2-0.1c-0.7,0-1.1-0.1-1.4-0.1c-0.5-0.1-0.9-0.6-1.1-1.5
	c-0.2-0.9-0.3-1.9-0.4-3.1c-0.1-1.2-0.1-2.2-0.1-3.3c0-1,0-1.7-0.1-1.9c0-0.2-0.4-0.4-1-0.5c-0.6-0.2-1.3-0.2-2-0.2
	c-0.7,0-1.4,0.1-2.1,0.3c-0.6,0.2-1,0.6-1.1,1.1s-0.2,1.2-0.2,2.1s0,1.8,0,2.8c0,0.9,0,1.8-0.1,2.5c-0.1,0.8-0.3,1.2-0.6,1.3
	c-0.4,0.2-1.1,0.4-2.1,0.5c-1,0.1-2.1,0.2-3.3,0.2c-1.2,0-2.3,0-3.4-0.2c-1.1-0.1-1.9-0.3-2.5-0.6c-0.4-0.2-0.7-0.9-0.9-2.3
	c-0.2-1.3-0.3-3-0.4-5c-0.1-2-0.1-4.1,0-6.4c0.1-2.3,0.1-4.6,0.2-6.7c0.1-2.2,0.1-4.1,0.2-5.8c0.1-1.7,0.1-2.9,0.2-3.7
	c0.1-1.7,0.2-3.1,0.4-4.2C99.8,4.7,100.2,3.8,100.7,3.1z"/>
<path class="st0" d="M136,7.4c0.1-1.7,0.4-3,0.7-3.8c0.3-0.8,0.7-1.4,1.2-1.8c0.5-0.3,1.1-0.5,1.8-0.5c0.7,0,1.5,0,2.5,0
	c1.6,0,2.8,0,3.7,0.1c0.9,0,1.6,0.3,2.1,0.7c0.5,0.4,0.8,1.1,1,2c0.2,0.9,0.3,2.3,0.4,4.1c0,1.7,0.1,3.5,0.1,5.6
	c0,2.1,0.1,4.2,0.1,6.4c0,2.2,0,4.3,0,6.5s0,4.1,0,5.9c0,2.1,0,3.8-0.1,4.9c-0.1,1.1-0.4,1.9-0.8,2.4s-1.2,0.8-2.1,0.9
	c-0.9,0.1-2.3,0.2-4,0.2c-1.5,0.1-2.6,0-3.5-0.2c-0.9-0.2-1.6-0.6-2.1-1.1c-0.5-0.6-0.8-1.3-1-2.3c-0.2-1-0.3-2.2-0.4-3.8
	c-0.1-1.9-0.2-3.9-0.2-6.2c0-2.3,0-4.6,0.1-7c0.1-2.4,0.1-4.7,0.2-6.9S135.9,9.2,136,7.4z"/>
<path class="st0" d="M165.4,26.3c-0.2,0-0.3,0.3-0.4,0.9c-0.1,0.6-0.1,1.4-0.1,2.4c0,1,0,2,0.1,3.2c0,1.1,0,2.2,0,3.2
	c0,1-0.1,1.8-0.2,2.5c-0.1,0.7-0.3,1.1-0.6,1.2s-0.8,0.2-1.4,0.3c-0.6,0.1-1.4,0.2-2.2,0.2c-0.8,0.1-1.6,0.1-2.5,0.1
	c-0.8,0-1.6-0.1-2.3-0.2c-0.7-0.1-1.3-0.3-1.7-0.5c-0.4-0.2-0.7-0.5-0.7-0.8c0-0.3,0-1-0.1-2.1c0-1.2-0.1-2.6-0.1-4.3
	c0-1.7,0-3.6-0.1-5.7c0-2.1-0.1-4.3-0.1-6.4c0-2.2,0-4.3,0-6.4c0-2.1,0.1-3.9,0.1-5.6c0.1-1.6,0.1-3,0.3-4c0.1-1,0.3-1.6,0.5-1.8
	c0.4-0.2,1.1-0.4,2.2-0.6c1.1-0.2,2.2-0.2,3.5-0.3c1.2,0,2.4,0,3.4,0.2c1.1,0.2,1.8,0.4,2.2,0.8c0.2,0.3,0.6,0.9,0.9,1.8
	c0.4,0.9,0.8,2,1.2,3.3c0.4,1.3,0.9,2.6,1.4,4c0.5,1.4,1,2.7,1.4,3.8s0.9,2.1,1.3,2.9c0.4,0.8,0.7,1.1,1,1.1c0.3,0,0.4-0.4,0.5-1.2
	c0-0.9,0-1.9-0.1-3.3c-0.1-1.3-0.2-2.7-0.4-4.2c-0.2-1.5-0.3-3-0.4-4.3c-0.1-1.3-0.2-2.5-0.2-3.4c0-0.9,0.1-1.4,0.4-1.4
	c0.4-0.1,1.1-0.2,2.1-0.3c1-0.1,2.2-0.1,3.3,0c1.2,0.1,2.2,0.2,3.2,0.5c0.9,0.2,1.5,0.6,1.7,1.2c0.1,0.3,0.2,1,0.3,2.2
	c0.1,1.2,0.2,2.7,0.3,4.4c0.1,1.8,0.1,3.7,0.2,5.9c0.1,2.2,0.1,4.3,0.2,6.6c0,2.2,0,4.4,0,6.5c0,2.1-0.1,4-0.1,5.6
	c-0.1,1.7-0.2,3-0.3,4c-0.1,1-0.3,1.5-0.5,1.6c-0.4,0.1-1.2,0.2-2.3,0.3c-1.1,0.1-2.3,0.2-3.5,0.2c-1.2,0-2.4-0.1-3.5-0.2
	c-1.1-0.2-1.8-0.5-2.2-1c-0.2-0.3-0.5-0.9-0.8-1.7c-0.3-0.8-0.6-1.6-0.9-2.6c-0.3-0.9-0.6-1.9-1-2.9c-0.3-1-0.7-1.9-1-2.8
	c-0.4-0.8-0.7-1.5-1.1-2.1C166.1,26.6,165.8,26.3,165.4,26.3z"/>
<path class="st0" d="M214.5,13.2c-1.3,0.5-2.6,0.7-3.8,0.7c-1.2,0-2.4-0.2-3.6-0.3c-1.1-0.2-2.1-0.3-3.1-0.4c-0.9-0.1-1.7,0-2.4,0.4
	c-0.7,0.3-1.1,1-1.4,2.1c-0.3,1-0.4,2.6-0.3,4.8c0,1.2,0.1,2.4,0.3,3.6c0.1,1.2,0.4,2.2,0.6,3.2c0.3,0.9,0.7,1.7,1.1,2.3
	c0.4,0.6,1,0.9,1.6,0.9c0.7,0,1.1-0.1,1.4-0.5c0.3-0.4,0.5-0.9,0.6-1.5c0.1-0.6,0.1-1.3,0-2c-0.1-0.7-0.1-1.4-0.2-2.1
	c-0.1-0.9,0.1-1.7,0.5-2.2c0.5-0.6,1.1-1,1.9-1.3c0.8-0.3,1.6-0.5,2.6-0.5c0.9-0.1,1.8-0.1,2.6-0.1c0.8,0,1.5,0.1,2.1,0.2
	c0.6,0.1,0.9,0.1,1,0.2c0.2,0.1,0.5,0.5,0.6,1.3c0.2,0.7,0.3,1.6,0.5,2.7c0.1,1.1,0.2,2.3,0.2,3.6c0,1.3,0.1,2.6,0,3.9
	s-0.1,2.4-0.1,3.5c-0.1,1.1-0.2,1.9-0.3,2.6c-0.1,0.4-0.5,0.8-1.3,1.2c-0.8,0.4-1.8,0.7-3,0.9c-1.2,0.3-2.5,0.5-4,0.7
	c-1.5,0.2-3,0.3-4.5,0.4c-1.5,0.1-2.9,0.2-4.3,0.2c-1.4,0-2.6,0-3.5,0c-1.5-0.1-2.7-0.6-3.7-1.5c-1-0.9-1.8-2.1-2.4-3.5
	c-0.6-1.4-1.2-3.1-1.6-5c-0.4-1.9-0.8-3.8-1-5.9c-0.2-1.3-0.4-2.8-0.5-4.4c-0.1-1.6-0.2-3.2-0.1-4.8c0-1.6,0.1-3.2,0.3-4.7
	c0.2-1.5,0.4-2.9,0.7-4.1c0.3-1.2,0.7-2.3,1.2-3.2c0.5-0.9,1.2-1.5,1.9-1.8c0.8-0.3,1.8-0.6,3.1-0.7c1.3-0.2,2.7-0.3,4.3-0.4
	c1.6-0.1,3.2-0.1,4.8-0.1c1.7,0,3.2,0.1,4.6,0.2c1.4,0.1,2.7,0.3,3.7,0.5c1.1,0.2,1.8,0.4,2.2,0.7c0.6,0.4,1,1.2,1.2,2.2
	c0.2,1,0.4,2.1,0.4,3.3c0,1.1-0.1,2.2-0.3,3.2C215,12.4,214.8,13,214.5,13.2z"/>
<path class="st0" d="M255.2,2.4c0,2.7,0,5.3-0.2,7.8c-0.2,2.5-0.3,4.8-0.4,7s-0.1,4.2,0,6.1c0.1,1.9,0.4,3.5,0.9,5
	c0.2,0.5,0.6,0.8,1.4,0.8c0.7,0,1.6,0,2.5-0.1c0.9-0.1,1.9-0.2,2.9-0.3s1.8,0,2.5,0.2c0.1,0.1,0.4,0.5,0.7,1.3
	c0.3,0.8,0.5,1.7,0.7,2.8c0.2,1.1,0.1,2.2-0.1,3.3c-0.2,1.1-0.7,2.1-1.5,2.8c-0.2,0.2-0.9,0.4-2.1,0.6c-1.2,0.2-2.6,0.4-4.2,0.6
	c-1.7,0.2-3.4,0.3-5.3,0.3c-1.9,0.1-3.6,0-5.3-0.1c-1.6-0.2-3-0.4-4.2-0.8s-1.8-1-1.9-1.7c-0.1-0.6-0.2-1.5-0.3-2.8
	s-0.2-2.9-0.3-4.7c-0.1-1.8-0.2-3.7-0.2-5.8c-0.1-2.1-0.1-4.2-0.1-6.3c0-2.1,0-4.1,0.1-6.1c0-2,0.1-3.7,0.2-5.3
	c0.1-1.5,0.2-2.8,0.3-3.8c0.1-1,0.3-1.5,0.5-1.6c0.3-0.1,0.8-0.2,1.6-0.3s1.6-0.2,2.6-0.3c1-0.1,2-0.1,3.1-0.1c1.1,0,2.1,0,3,0.1
	c0.9,0.1,1.6,0.2,2.2,0.5C254.9,1.7,255.2,2,255.2,2.4z"/>
<path class="st0" d="M268.5,7.4c0.1-1.7,0.4-3,0.7-3.8c0.3-0.8,0.7-1.4,1.2-1.8c0.5-0.3,1.1-0.5,1.8-0.5s1.5,0,2.5,0
	c1.6,0,2.8,0,3.7,0.1c0.9,0,1.6,0.3,2.1,0.7c0.5,0.4,0.8,1.1,1,2c0.2,0.9,0.3,2.3,0.4,4.1c0,1.7,0.1,3.5,0.1,5.6
	c0,2.1,0.1,4.2,0.1,6.4c0,2.2,0,4.3,0,6.5s0,4.1,0,5.9c0,2.1,0,3.8-0.1,4.9c-0.1,1.1-0.4,1.9-0.8,2.4c-0.5,0.5-1.2,0.8-2.1,0.9
	c-0.9,0.1-2.3,0.2-4,0.2c-1.5,0.1-2.6,0-3.5-0.2c-0.9-0.2-1.6-0.6-2.1-1.1c-0.5-0.6-0.8-1.3-1-2.3c-0.2-1-0.3-2.2-0.4-3.8
	c-0.1-1.9-0.2-3.9-0.2-6.2c0-2.3,0-4.6,0.1-7c0.1-2.4,0.1-4.7,0.2-6.9C268.2,11.1,268.4,9.2,268.5,7.4z"/>
<path class="st0" d="M287.4,2.2c0.5-0.3,1.3-0.6,2.3-0.7c1-0.2,2.1-0.2,3.2-0.2c1.1,0,2.1,0.1,3,0.4c0.9,0.2,1.6,0.5,1.9,0.9
	c0.2,0.3,0.4,0.9,0.4,1.9c0.1,0.9,0.1,1.9,0.2,2.9c0.1,1,0.2,1.9,0.4,2.6c0.2,0.8,0.5,1.1,1,1.1c0.4,0,0.7-0.2,0.9-0.6
	c0.2-0.4,0.4-0.9,0.6-1.6c0.2-0.6,0.3-1.3,0.3-2c0.1-0.7,0.1-1.4,0.2-2.1c0-0.6,0.1-1.2,0.1-1.7c0-0.5,0.1-0.7,0.1-0.8
	c0.1-0.2,0.5-0.4,1.2-0.6c0.6-0.2,1.4-0.3,2.3-0.4s1.8-0.2,2.7-0.2c1-0.1,1.9,0,2.7,0c0.8,0.1,1.5,0.2,2.1,0.3
	c0.6,0.2,0.9,0.4,0.9,0.7c0.3,2.5,0.5,4.7,0.5,6.7c0,2-0.1,3.7-0.4,5.1c-0.2,1.4-0.6,2.6-1,3.6c-0.4,0.9-0.8,1.6-1.3,2
	c-0.9,0.8-1.6,1.3-2.2,1.7c-0.6,0.3-1,0.7-1.1,0.9c-0.2,0.3,0,0.6,0.4,1c0.4,0.4,1.2,1.1,2.3,1.9c1.5,1.2,2.5,2.9,3.1,5.4
	s0.6,5.5,0.1,9.2c0,0.2-0.3,0.4-0.7,0.5c-0.4,0.1-0.9,0.2-1.6,0.3c-0.6,0.1-1.3,0.1-2.1,0.2c-0.8,0-1.5,0-2.3,0
	c-0.8,0-1.5-0.1-2.2-0.1c-0.7-0.1-1.2-0.2-1.6-0.3c-0.6-0.2-1.1-0.6-1.2-1.4c-0.2-0.7-0.3-1.6-0.4-2.4c-0.1-0.9-0.3-1.7-0.5-2.5
	c-0.2-0.8-0.7-1.3-1.5-1.5c-0.5-0.1-0.9-0.1-1.1,0.1c-0.2,0.2-0.4,0.5-0.5,1s-0.1,1-0.1,1.6c0.1,0.6,0.1,1.2,0.2,1.8
	c0.1,0.6,0.1,1.2,0.1,1.7c0,0.5-0.1,0.9-0.2,1.2c-0.1,0.3-0.5,0.6-1.1,0.7s-1.3,0.3-2.2,0.4c-0.8,0.1-1.8,0.1-2.7,0.1
	c-1,0-1.9-0.1-2.8-0.2c-0.9-0.1-1.6-0.3-2.3-0.5c-0.7-0.2-1.1-0.5-1.3-0.7c-0.2-0.2-0.3-0.9-0.4-2c-0.1-1.2-0.2-2.6-0.2-4.3
	c-0.1-1.7-0.1-3.7-0.1-5.8c0-2.2,0-4.4,0-6.6c0-2.2,0.1-4.4,0.2-6.6c0.1-2.2,0.2-4.1,0.4-5.8c0.1-1.7,0.3-3.2,0.5-4.3
	C286.9,3,287.1,2.3,287.4,2.2z"/>
<path class="st0" d="M343.2,11.9c-0.3,0.2-0.8,0.4-1.4,0.5c-0.6,0.1-1.4,0.2-2.2,0.3c-0.8,0.1-1.7,0.1-2.5,0.2
	c-0.9,0-1.7,0.1-2.5,0.1c-0.8,0-1.4,0.1-2,0.1c-0.5,0-0.9,0.1-1,0.2c-0.2,0.1-0.3,0.4-0.4,0.8c-0.1,0.4-0.1,0.8-0.1,1.2
	c0,0.4,0,0.9,0.1,1.3c0.1,0.4,0.2,0.7,0.3,0.9c0.1,0.2,0.4,0.3,1,0.3c0.6,0,1.2,0,1.8,0c0.7,0,1.3,0,1.9,0c0.6,0,1,0.2,1.3,0.4
	c0.2,0.2,0.4,0.6,0.6,1.1c0.2,0.5,0.3,1.1,0.4,1.7c0.1,0.6,0.1,1.2,0.1,1.9c0,0.6-0.2,1.2-0.4,1.6c-0.1,0.3-0.5,0.5-1.1,0.6
	c-0.6,0.1-1.2,0.2-2,0.3c-0.7,0.1-1.5,0.2-2.2,0.4c-0.7,0.2-1.3,0.5-1.8,1c-0.1,0.1-0.2,0.3-0.2,0.6c0,0.3,0,0.6,0,0.9
	c0,0.3,0.1,0.6,0.2,1s0.1,0.6,0.2,0.9c0,0.3,0.3,0.5,0.9,0.6c0.6,0.1,1.3,0.2,2.1,0.2c0.8,0,1.7,0,2.7-0.1s1.9-0.1,2.8-0.1
	s1.7,0,2.5,0.1c0.7,0.1,1.2,0.2,1.5,0.4c0.3,0.2,0.5,0.7,0.7,1.6c0.2,0.8,0.2,1.7,0.3,2.7s0,1.9-0.1,2.8s-0.2,1.5-0.3,1.7
	c-0.1,0.1-0.5,0.3-1.2,0.4c-0.8,0.1-1.7,0.2-2.9,0.4c-1.2,0.1-2.6,0.2-4.1,0.3c-1.5,0.1-3.1,0.1-4.7,0.2c-1.6,0.1-3.2,0.1-4.7,0.1
	c-1.6,0-3-0.1-4.2-0.2c-1.3-0.1-2.3-0.2-3.2-0.4c-0.9-0.2-1.4-0.4-1.6-0.6c-0.4-0.5-0.8-1.5-1-2.9c-0.2-1.5-0.3-3.2-0.4-5.3
	c-0.1-2.1-0.1-4.4,0-6.9c0.1-2.5,0.2-5.2,0.3-7.8c0.1-2.7,0.2-5,0.3-6.9c0.1-1.9,0.3-3.5,0.7-4.7c0.4-1.2,1-2.1,1.9-2.7
	c0.9-0.6,2.2-0.9,4-1c1.5-0.1,3.2-0.1,5.1-0.2c1.9-0.1,3.7-0.1,5.6-0.1c1.8,0,3.6,0.1,5.2,0.3c1.6,0.2,2.9,0.4,3.8,0.8
	c0.5,0.2,0.8,0.8,1,1.7c0.2,0.9,0.2,1.9,0.2,2.9c-0.1,1.1-0.2,2.1-0.4,3C343.6,10.9,343.4,11.6,343.2,11.9z"/>
<path class="st0" d="M5.3,49.6c0.3-0.5,1.1-0.9,2.3-1.3c1.2-0.4,2.7-0.7,4.4-0.9c1.7-0.2,3.5-0.4,5.4-0.5c1.9-0.1,3.8-0.2,5.5-0.2
	c1.8,0,3.3,0,4.7,0.1c1.4,0.1,2.3,0.1,2.9,0.2c0.6,0.1,1.3,0.9,2,2.3c0.7,1.4,1.4,3.2,2.1,5.5c0.7,2.2,1.3,4.8,2,7.6
	c0.6,2.8,1.2,5.8,1.8,8.8c0.5,3,1,6,1.4,8.9c0.4,2.9,0.7,5.6,0.9,8c0.2,2.4,0.3,4.4,0.3,6c0,1.6-0.2,2.6-0.6,3.1
	c-0.2,0.2-0.9,0.5-2,0.7c-1.1,0.2-2.4,0.4-3.7,0.6c-1.4,0.1-2.7,0.3-4.1,0.3c-1.3,0.1-2.3,0.1-3,0c-0.7,0-1.3-0.4-1.7-1.2
	c-0.5-0.7-0.9-1.6-1.2-2.6c-0.4-1-0.6-1.9-0.8-2.8c-0.2-0.9-0.4-1.5-0.4-1.9c-0.1-0.3-0.4-0.5-0.8-0.7c-0.4-0.2-0.9-0.3-1.5-0.3
	c-0.5,0-1,0.1-1.5,0.4c-0.5,0.3-0.7,0.7-0.8,1.4c-0.1,0.7-0.2,1.4-0.2,2.2c0,0.8-0.1,1.5-0.2,2.3c-0.1,0.7-0.2,1.3-0.4,1.9
	c-0.2,0.6-0.5,0.9-0.8,1.1c-0.5,0.3-1.5,0.6-3,0.9c-1.5,0.3-3,0.5-4.6,0.6c-1.6,0.1-3.1,0-4.5-0.1s-2.2-0.6-2.6-1.2
	c-0.5-0.9-0.8-2.6-1-5.2c-0.2-2.5-0.3-5.5-0.3-8.8c0-3.3,0.2-6.9,0.4-10.6c0.2-3.7,0.5-7.3,0.9-10.6c0.4-3.3,0.8-6.3,1.3-8.8
	C4.2,52.2,4.8,50.5,5.3,49.6z M16.1,76.8c0,0.8,0.5,1.4,1.4,1.7c0.9,0.3,1.8,0.5,2.9,0.4c1-0.1,2-0.4,2.8-0.8
	c0.9-0.5,1.3-1.1,1.3-1.9c0-1.2-0.1-2.2-0.2-3.2C24.2,72,24.1,71,24,70.1c-0.1-0.9-0.3-1.9-0.5-3c-0.2-1.1-0.4-2.3-0.6-3.7
	c-0.1-0.8-0.6-1.4-1.3-1.8c-0.7-0.4-1.4-0.5-2.2-0.4c-0.8,0.1-1.5,0.3-2.1,0.7c-0.6,0.4-1,1-1,1.7c-0.1,1.1-0.1,2.4-0.1,3.8
	c0,1.4-0.1,2.8-0.1,4c0,1.3,0,2.4,0,3.4C16,75.9,16,76.5,16.1,76.8z"/>
<path class="st0" d="M69.9,50.8c0.4-0.5,1.3-0.9,2.4-1.4c1.2-0.5,2.5-0.9,4.1-1.3c1.6-0.4,3.3-0.8,5.2-1.1c1.9-0.3,3.8-0.5,5.7-0.6
	c1.9-0.1,3.7-0.1,5.5,0.1c1.7,0.1,3.3,0.5,4.7,1c2.2,0.8,3.8,2.2,4.9,4.3c1.1,2.1,1.9,4.4,2.2,6.9c0.4,2.8,0.4,5.1-0.1,7
	c-0.5,1.9-1,3.4-1.8,4.5c-0.7,1.1-1.4,2-2,2.5c-0.6,0.5-1,0.8-1,0.8c0.1,0.5,0.5,0.8,1.2,1.1c0.7,0.2,1.4,0.6,2.3,1.3
	c0.8,0.6,1.6,1.7,2.4,3c0.7,1.4,1.2,3.5,1.5,6.3c0.2,1.4,0.2,2.8,0.2,4c0,1.3-0.2,2.4-0.5,3.4c-0.3,1-0.7,1.9-1.3,2.7
	c-0.6,0.7-1.4,1.3-2.5,1.7c-1.2,0.5-2.6,0.8-4.2,1.1c-1.6,0.3-3.3,0.6-5.1,0.8c-1.8,0.2-3.7,0.5-5.6,0.7c-1.9,0.2-3.9,0.4-5.8,0.6
	c-2.4,0.3-4.2,0.1-5.5-0.6c-1.3-0.6-2.2-1.6-2.9-3c-0.6-1.4-1.1-3-1.4-5c-0.3-2-0.6-4.2-0.9-6.7c-0.3-2.1-0.6-4.4-0.8-6.8
	c-0.3-2.4-0.5-4.8-0.8-7.3c-0.2-2.4-0.4-4.8-0.6-7.1c-0.2-2.3-0.3-4.3-0.3-6.1c0-1.8,0-3.3,0.1-4.5C69.4,51.8,69.6,51.1,69.9,50.8z
	 M85.8,59.3c0,0.1,0,0.5,0,1c0,0.5,0,1.1,0,1.8c0,0.7,0.1,1.4,0.2,2.1c0.1,0.7,0.3,1.4,0.4,1.9c0.1,0.4,0.4,0.6,0.8,0.8
	c0.4,0.2,0.8,0.2,1.3,0.2c0.5-0.1,0.9-0.2,1.4-0.4c0.4-0.2,0.7-0.6,0.9-1c0.6-1.3,0.9-2.4,0.9-3.6c-0.1-1.1-0.6-2.1-1.7-3
	c-0.4-0.3-0.9-0.6-1.4-0.7c-0.5-0.2-1-0.2-1.5-0.2c-0.5,0-0.8,0.1-1.1,0.3C85.9,58.6,85.8,58.9,85.8,59.3z M88.9,87.2
	c0,0.4,0.2,0.7,0.5,0.8c0.3,0.1,0.7,0.2,1.1,0.1c0.4-0.1,0.9-0.3,1.4-0.5c0.5-0.3,0.9-0.6,1.2-1c0.8-1.1,1.2-2.2,1-3.3
	c-0.2-1.1-0.7-2.2-1.6-3.3c-0.3-0.4-0.6-0.6-1.1-0.8C90.9,79,90.4,79,90,79.1c-0.5,0.1-0.9,0.2-1.2,0.4c-0.4,0.2-0.6,0.6-0.6,0.9
	c-0.1,0.6-0.1,1.2,0,1.9c0.1,0.7,0.1,1.4,0.3,2.1c0.1,0.7,0.2,1.3,0.4,1.8C88.8,86.8,88.9,87.1,88.9,87.2z"/>
<path class="st0" d="M112,48.9c0.3-0.4,0.7-0.7,1.1-0.9c0.4-0.2,0.9-0.4,1.5-0.5c0.6-0.1,1.4-0.2,2.3-0.2c0.9,0,2.1-0.1,3.4-0.1
	c1.6,0,2.9,0,3.9,0.2c1,0.2,1.7,0.5,2.2,1c0.5,0.5,0.9,1.1,1.1,1.9c0.2,0.8,0.3,1.8,0.4,2.9c0.1,1.6,0.2,3.3,0.3,5.1
	c0.1,1.9,0.1,3.7,0.1,5.6c0,1.9,0,3.7,0,5.5c0,1.8,0,3.4-0.1,4.8c0,1.4,0,2.7,0,3.7c0,1,0.1,1.7,0.2,2.1c0.2,0.9,0.6,1.6,1.1,1.8
	c0.5,0.3,1,0.3,1.5,0.2c0.5-0.1,1-0.4,1.5-0.9c0.5-0.5,0.7-1,0.9-1.5c0.1-0.4,0.2-1.2,0.2-2.4c0.1-1.2,0.1-2.6,0.2-4.2
	c0-1.6,0.1-3.4,0.1-5.3c0-1.9,0-3.9,0-5.8c0-1.9,0-3.8,0-5.6c0-1.8,0.1-3.4,0.1-4.8c0-1,0.3-1.8,0.9-2.4c0.6-0.6,1.3-1,2.2-1.2
	c0.9-0.2,2-0.4,3.2-0.4c1.2,0,2.4-0.1,3.6-0.1c2.3,0,4,0.1,5.1,0.4s1.8,1.1,1.9,2.4c0.1,3.4,0.3,7,0.4,10.8
	c0.2,3.8,0.1,7.5-0.1,11.2c-0.2,3.7-0.7,7.2-1.5,10.6c-0.8,3.3-2,6.3-3.7,8.8c-1.7,2.5-3.9,4.5-6.7,6c-2.8,1.5-6.3,2.2-10.5,2.1
	c-3.2,0-5.9-0.8-8.2-2.1c-2.2-1.4-4.1-3.2-5.6-5.4c-1.5-2.2-2.7-4.8-3.5-7.7c-0.8-2.9-1.4-5.8-1.8-8.9c-0.4-3-0.5-6-0.5-9
	c0-3,0.2-5.7,0.5-8.2c0.3-2.5,0.6-4.5,1.1-6.2C111.2,50.4,111.6,49.3,112,48.9z"/>
<path class="st0" d="M170.5,88c-0.1,0.4-0.1,1-0.1,1.8c0,0.8,0.1,1.6,0.1,2.4c0,0.8-0.1,1.6-0.3,2.3c-0.2,0.7-0.5,1.1-1,1.3
	c-0.5,0.2-1.4,0.3-2.5,0.4c-1.2,0.1-2.4,0.1-3.7,0.1c-1.3,0-2.5-0.1-3.5-0.3c-1.1-0.1-1.8-0.4-2.1-0.8c-0.2-0.2-0.4-1.3-0.5-3.1
	c-0.1-1.9-0.3-4.2-0.4-7c-0.1-2.8-0.2-5.9-0.2-9.3c-0.1-3.4-0.1-6.7-0.1-10c0-3.3,0-6.3,0.1-9.1c0.1-2.8,0.2-4.9,0.3-6.5
	c0.1-0.8,0.7-1.5,1.8-2c1.1-0.5,2.5-0.9,4.2-1.1c1.7-0.3,3.5-0.4,5.5-0.4c2,0,4,0,5.9,0.1c1.9,0.1,3.6,0.3,5.2,0.4
	c1.5,0.2,2.7,0.4,3.4,0.6c1.8,0.5,3.2,1.3,4.4,2.4c1.1,1.1,2,2.3,2.6,3.8c0.6,1.5,1.1,3.1,1.3,4.9c0.2,1.8,0.3,3.8,0.3,5.8
	c0,2-0.1,3.9,0,5.5c0,1.6,0,3.1-0.1,4.4c-0.1,1.3-0.3,2.4-0.5,3.4c-0.2,1-0.6,1.9-1.2,2.7c-0.6,0.8-1,1.3-1.4,1.8
	c-0.4,0.4-0.7,0.7-1,0.9c-0.3,0.2-0.4,0.4-0.5,0.5c-0.1,0.1-0.1,0.4-0.1,0.7c0,0.2,0.2,0.6,0.6,1.1c0.4,0.6,0.9,1.2,1.4,1.9
	c0.6,0.7,1.1,1.5,1.7,2.3c0.6,0.8,1.1,1.6,1.6,2.4c0.4,0.7,0.8,1.4,0.9,2c0.2,0.6,0.1,1-0.2,1.2c-0.5,0.3-1.4,0.6-2.8,0.8
	c-1.4,0.2-2.9,0.3-4.5,0.3c-1.6,0-3.1-0.1-4.5-0.2c-1.4-0.1-2.4-0.3-3-0.5c-0.1,0-0.4-0.3-0.7-0.9c-0.3-0.6-0.7-1.2-1.2-2
	s-0.9-1.5-1.4-2.4c-0.5-0.8-1-1.5-1.5-2.1c-0.5-0.6-0.9-0.9-1.3-1.1C171,87.3,170.7,87.5,170.5,88z M169.7,74.8c0,0.9,0.4,1.6,1.2,2
	c0.8,0.4,1.7,0.6,2.6,0.6c1,0,1.9-0.3,2.7-0.8c0.8-0.5,1.3-1.1,1.4-2c0.1-1.2,0.2-2.4,0.4-3.4c0.1-1.1,0.2-2.1,0.2-3.2
	c0-1.1,0-2.3-0.1-3.5c-0.1-1.2-0.2-2.6-0.3-4.2c-0.1-0.9-0.5-1.6-1.3-2.1c-0.8-0.4-1.7-0.7-2.6-0.7c-1,0-1.8,0.2-2.7,0.7
	c-0.8,0.4-1.3,1.1-1.4,1.9c-0.1,1.3-0.2,2.7-0.2,4.3c0,1.6,0,3.1,0,4.6c0,1.4,0.1,2.7,0.1,3.8C169.7,73.8,169.7,74.5,169.7,74.8z"/>
<path class="st0" d="M210.8,90.8c-0.1,0.4-0.1,1,0,1.9c0.1,0.8,0.1,1.7,0.1,2.6c0,0.9,0,1.7-0.2,2.4c-0.2,0.7-0.5,1.2-1,1.4
	c-0.5,0.2-1.4,0.4-2.7,0.5c-1.3,0.1-2.6,0.2-3.9,0.2c-1.4,0-2.6,0-3.8-0.2c-1.2-0.1-1.9-0.4-2.2-0.8c-0.2-0.2-0.5-1.3-0.7-3.3
	c-0.2-2-0.4-4.5-0.6-7.5c-0.2-3-0.3-6.3-0.5-9.9c-0.2-3.6-0.3-7.2-0.4-10.6c-0.1-3.5-0.1-6.7-0.2-9.7c0-3,0-5.3,0.1-6.9
	c0.1-0.9,0.7-1.6,1.8-2.2c1.2-0.6,2.6-1,4.4-1.3c1.8-0.3,3.7-0.5,5.9-0.6c2.1-0.1,4.2-0.1,6.2-0.1c2,0.1,3.8,0.2,5.5,0.3
	c1.7,0.2,2.9,0.3,3.6,0.5c1.9,0.5,3.5,1.3,4.7,2.4c1.2,1.1,2.2,2.4,2.9,4c0.7,1.5,1.2,3.3,1.5,5.2c0.3,1.9,0.4,4,0.4,6.2
	c0,2.2,0.1,4.1,0.1,5.8c0.1,1.7,0.1,3.3,0,4.6c-0.1,1.4-0.2,2.6-0.4,3.7c-0.2,1.1-0.6,2-1.2,2.9c-0.6,0.8-1,1.5-1.4,1.9
	c-0.4,0.4-0.7,0.8-1,1c-0.3,0.2-0.4,0.4-0.5,0.6c-0.1,0.2-0.1,0.4,0,0.7c0,0.2,0.2,0.6,0.7,1.2c0.4,0.6,1,1.2,1.6,2
	c0.6,0.8,1.2,1.6,1.9,2.4c0.7,0.9,1.2,1.7,1.7,2.5c0.5,0.8,0.8,1.5,1,2.1c0.2,0.6,0.1,1-0.2,1.3c-0.5,0.4-1.5,0.7-3,0.9
	c-1.5,0.2-3.1,0.4-4.8,0.4c-1.7,0-3.3,0-4.8,0c-1.5-0.1-2.6-0.2-3.2-0.4c-0.1,0-0.4-0.4-0.8-0.9c-0.4-0.6-0.8-1.3-1.3-2.1
	c-0.5-0.8-1-1.6-1.6-2.5c-0.5-0.8-1.1-1.6-1.6-2.2c-0.5-0.6-1-1-1.5-1.1C211.3,90,211,90.2,210.8,90.8z M209.5,76.7
	c0,0.9,0.5,1.6,1.3,2.1c0.8,0.5,1.8,0.6,2.8,0.6c1-0.1,2-0.4,2.9-0.9c0.9-0.5,1.4-1.3,1.4-2.2c0.1-1.3,0.2-2.5,0.3-3.7
	c0.1-1.1,0.1-2.3,0.1-3.5c0-1.2-0.1-2.4-0.2-3.7c-0.1-1.3-0.2-2.8-0.4-4.5c-0.1-1-0.6-1.7-1.5-2.2c-0.9-0.5-1.8-0.7-2.8-0.6
	c-1,0-2,0.3-2.8,0.8c-0.9,0.5-1.3,1.2-1.4,2c-0.1,1.4-0.1,2.9-0.1,4.6c0,1.7,0.1,3.3,0.2,4.8c0.1,1.5,0.2,2.9,0.2,4.1
	C209.5,75.6,209.5,76.4,209.5,76.7z"/>
<path class="st0" d="M237.8,55.6c0.1-2.3,0.3-4,0.7-5.1c0.4-1.1,0.9-2,1.5-2.4c0.7-0.5,1.5-0.7,2.4-0.8s2.1-0.1,3.3-0.1
	c2.1-0.1,3.7-0.1,4.9-0.1c1.2,0,2.2,0.3,2.8,0.8c0.7,0.5,1.1,1.4,1.4,2.6c0.3,1.2,0.5,3,0.7,5.4c0.1,2.2,0.3,4.7,0.4,7.4
	c0.1,2.8,0.3,5.6,0.4,8.5c0.1,2.9,0.2,5.8,0.3,8.6c0.1,2.8,0.2,5.5,0.3,7.9c0.1,2.8,0.1,5,0.1,6.5c-0.1,1.5-0.4,2.6-1,3.3
	c-0.6,0.7-1.5,1.1-2.8,1.3c-1.3,0.2-3,0.3-5.3,0.5c-1.9,0.2-3.5,0.1-4.7-0.1c-1.2-0.2-2.1-0.7-2.8-1.4c-0.7-0.7-1.2-1.7-1.5-3
	c-0.3-1.3-0.6-3-0.7-5c-0.2-2.5-0.4-5.2-0.5-8.3c-0.1-3-0.2-6.2-0.2-9.3c0-3.2-0.1-6.2,0-9.2C237.6,60.6,237.7,57.9,237.8,55.6z"/>
<path class="st0" d="M262.2,47.8c0.4-0.2,1.5-0.3,3.3-0.4c1.8-0.1,3.8-0.2,6.2-0.2c2.4,0,5-0.1,7.7-0.1c2.7,0,5.3,0,7.7,0.1
	c2.4,0.1,4.4,0.2,6.1,0.3c1.7,0.1,2.7,0.3,3,0.4c0.3,0.2,0.6,0.6,0.8,1.3c0.2,0.7,0.4,1.5,0.5,2.4c0.1,0.9,0.2,2,0.2,3
	c0,1.1,0,2.1-0.1,3.2c0,1-0.1,1.9-0.2,2.7c-0.1,0.8-0.2,1.3-0.4,1.6c-0.2,0.5-0.7,0.8-1.7,0.9c-0.9,0.1-2,0.2-3.1,0.2
	s-2.2,0-3.3-0.1c-1.1,0-1.8,0-2.3,0.1c-0.2,0.1-0.4,0.6-0.4,1.7c-0.1,1-0.1,2.3,0,4c0,1.6,0.1,3.5,0.2,5.6c0.1,2.1,0.2,4.2,0.4,6.4
	s0.3,4.3,0.4,6.4c0.1,2.1,0.2,4,0.3,5.7c0,1.7,0,3.1,0,4.2c0,1.1-0.2,1.7-0.3,1.9c-0.4,0.4-1.3,0.6-2.7,0.7c-1.4,0.1-3,0.1-4.8,0.1
	c-1.8,0-3.6-0.1-5.5-0.2c-1.8-0.1-3.3-0.3-4.4-0.4c-0.8-0.1-1.3-1-1.6-2.7s-0.5-3.8-0.5-6.4c0-2.6,0.1-5.3,0.3-8.3
	c0.2-3,0.4-5.7,0.6-8.3c0.2-2.6,0.4-4.8,0.5-6.6c0.1-1.8,0.2-2.8,0.1-3.1c-0.1-0.4-0.6-0.7-1.4-0.7c-0.8-0.1-1.6-0.2-2.5-0.2
	c-0.9,0-1.8-0.1-2.6-0.2c-0.8-0.1-1.4-0.3-1.7-0.6c-0.2-0.2-0.4-0.7-0.4-1.5c-0.1-0.8-0.1-1.7-0.1-2.7c0-1,0.1-2.1,0.2-3.3
	c0.1-1.2,0.3-2.2,0.4-3.2c0.2-1,0.4-1.8,0.6-2.5C261.8,48.3,262,47.9,262.2,47.8z"/>
<path class="st0" d="M324.7,47.2c3.5,0.4,6.4,0.9,8.8,1.6c2.4,0.7,4.4,1.7,6,2.8c1.6,1.2,2.8,2.6,3.6,4.3c0.8,1.7,1.4,3.7,1.8,6.1
	c0.4,2.3,0.5,5,0.5,8c0,3-0.1,6.4-0.3,10.2c-0.2,4.8-0.8,8.6-1.6,11.5c-0.8,2.9-2.1,5.2-3.8,6.8c-1.7,1.6-4,2.7-6.8,3.2
	c-2.8,0.5-6.3,0.7-10.4,0.5c-4.1-0.1-7.7-0.5-10.7-1.3c-3-0.7-5.5-2-7.4-3.8c-1.9-1.8-3.4-4.3-4.3-7.4c-0.9-3.1-1.4-7.1-1.5-11.9
	c0-5.4,0.4-10.1,1.2-14.2c0.8-4.1,2.2-7.4,4.3-10c2-2.6,4.7-4.5,8.1-5.6C315.5,47,319.7,46.7,324.7,47.2z M317.6,84.9
	c-0.1,1.1,0.4,2,1.4,2.6c1,0.6,2.1,0.8,3.3,0.8c1.2,0,2.4-0.3,3.5-0.9c1.1-0.6,1.7-1.4,1.8-2.6c0.2-1.6,0.4-3,0.5-4.4
	c0.1-1.4,0.2-2.7,0.3-4.1c0-1.4,0.1-2.8,0-4.4c0-1.6-0.1-3.3-0.2-5.3c-0.1-1.2-0.6-2.1-1.6-2.6c-1-0.6-2.1-0.9-3.4-0.9
	c-1.2,0-2.4,0.2-3.4,0.8c-1,0.5-1.6,1.3-1.8,2.3c-0.2,1.6-0.3,3.4-0.4,5.4c-0.1,2-0.1,3.9-0.1,5.8c0,1.8,0,3.5,0,4.9
	C317.6,83.6,317.6,84.5,317.6,84.9z"/>
</svg>
