<?xml version="1.0" encoding="utf-8"?>
<!-- Generator: Adobe Illustrator 27.5.0, SVG Export Plug-In . SVG Version: 6.00 Build 0)  -->
<svg version="1.1" id="Capa_1" xmlns="http://www.w3.org/2000/svg" xmlns:xlink="http://www.w3.org/1999/xlink" x="0px" y="0px"
	 viewBox="0 0 382.5 142.5" style="enable-background:new 0 0 382.5 142.5;" xml:space="preserve">
<style type="text/css">
	.st0{fill:#FFFFFF;}
</style>
<path class="st0" d="M381.7,80.6c-0.6-3.5-1.5-6.6-2.7-9.6l0.5-1c1.4-2.8,1.9-5.5,2.2-8c0.1-1.3,0.4-3.7,0.1-6.7l0-0.4
	c-0.1-1-0.2-2.7-0.7-4.7c-0.6-2.8-1.7-5.1-2.8-7l1-0.8l1.4-6.4c0.4-2,0.6-3.7,0.8-5.3l0.1-1.7c0-1.5,0-4-0.6-6.9
	c-2.1-9.3-8.2-13.2-11.7-14.7c-1.3-0.6-2.6-1-3.8-1.3c-1.1-1-2.4-1.8-3.7-2.3c-2.5-1.1-5-1.5-7.3-1.8c-2.1-0.3-4.5-0.4-6.8-0.4
	c-2,0-4,0-6.3,0.1C340.5,2,339.8,2,339,2c-1.1,0-2.1,0.1-2.9,0.1c-1.5,0.1-2.9,0.3-4.2,0.6c-0.5-0.2-1-0.4-1.6-0.6l-1-0.3l-1-0.2
	c-0.8-0.1-1.6-0.3-2.6-0.4l-1.9-0.1c-0.7,0-1.7-0.1-3,0c-1.4,0-2.6,0.2-3.5,0.3c-1.3,0.1-2.9,0.3-4.5,0.8c-0.1,0-0.1,0-0.2-0.1
	c-2-0.6-4.1-0.9-6.4-0.9c-1.3,0-3.1,0-5.1,0.3c-1.2,0.2-2.4,0.4-3.5,0.8c-1.6-0.6-3.3-0.9-5-1c-1.4-0.1-2.9-0.1-4.5-0.1h-2.5
	c-3,0-5.9,0.8-8.5,2.4l-1.1,0.7c-1-0.8-2.1-1.4-3.4-1.9c-2.1-0.9-4-1.2-5.7-1.4c-1.6-0.2-3.1-0.2-4.4-0.2c-1.3,0-2.8,0-4.4,0.2
	c-1.1,0.1-2,0.2-2.9,0.3c-1.7,0.2-2.9,0.5-4.1,0.9l-0.9,0.3L249.2,3c-1.8,0.9-4.5,2.8-6.2,6.5c-2.6-1.8-5.2-2.8-7.4-3.3
	c-0.4-0.3-0.7-0.6-1.1-0.8c-2.5-1.8-5.2-2.5-7.2-2.8c-1.2-0.2-3.1-0.6-5.2-0.7c-1.6-0.1-3.4-0.2-5.5-0.2c-1.7,0-3.6,0-5.6,0.1
	c-1.7,0.1-3.3,0.2-5,0.5c-1.9,0.2-3.7,0.6-5.5,1.2c-0.9-0.5-1.9-0.8-3-1.1c-2-0.6-3.8-0.7-5.4-0.9c-1.9-0.2-3.9-0.2-5.8,0
	c-1.7,0.2-2.9,0.4-4,0.6l-1.6,0.4c-0.8-0.2-1.5-0.4-2-0.4c-2.2-0.4-4.3-0.4-5.9-0.4l-1,0c-0.3,0-0.5,0-0.9,0.1
	c-1.1,0.1-2.4,0.1-3.9,0.4c-0.7,0.1-1.3,0.3-1.9,0.4c-1.6-0.6-3.4-1-5.2-1.1c-1.4-0.1-2.9-0.1-4.5-0.1H153c-2.1,0-4.2,0.4-6.1,1.2
	c-0.4-0.2-0.9-0.3-1.3-0.4l-1.2-0.3c-1.3-0.3-3.3-0.7-5.7-0.7c-1.7,0-3.5,0.2-5.1,0.5c-1.5,0.2-2.9,0.6-4.3,1.2
	c-1.6-0.6-3.4-1-5.5-1.1c-1.3-0.1-3-0.3-5.1-0.1c-2,0-3.6,0.3-5.2,0.6l-0.7,0.2c-1.5-0.4-3-0.6-4.9-0.8c-0.9-0.1-1.8-0.1-2.9-0.1
	c-0.6,0-1.3,0-1.9-0.1c-3.2-0.2-6.6-0.2-10-0.1c-0.8,0-1.5,0-2.2,0l-0.7,0c-0.7,0-1.4,0.1-2,0.1c-1.1,0-2.1,0.1-2.9,0.1
	c-2.6,0.2-4,0.4-5.5,0.9l-0.5,0.2c-2-0.9-4.2-1.5-6.4-1.9C70.2,0.2,67.4,0,63.4,0L63,0c-5.6,0.1-10.4,1.1-14.6,2.9l-0.1,0
	c-0.4,0.2-0.8,0.4-1.2,0.6c-0.9-0.4-1.9-0.8-2.9-1c-2-0.6-3.8-0.8-5.4-0.9c-1.9-0.2-3.8-0.2-5.8,0c-1.7,0.2-2.9,0.4-3.9,0.6
	l-1.4,0.4c-0.7-0.2-1.4-0.4-2.1-0.5c-2.2-0.4-4.3-0.4-5.9-0.4l-1,0c-0.3,0-0.5,0-0.9,0.1c-1.1,0.1-2.4,0.1-4,0.4l-0.1,0
	c-2.4,0.5-4,1-5.5,1.7L6.4,4.8L4.9,6.3c-2.3,2.3-3.7,5.4-4.2,9.1c-0.2,1.4-0.3,2.8-0.4,4c0,0.3,0,0.7-0.1,1.1l0,0.8
	c0,0.7,0,1.4,0,2.2c0,1.1-0.1,2.2-0.1,3.4v1.3c0,0.2,0,0.4,0,0.6l0,1.1c0,0.6,0,1.2,0,1.8l0,0.2C0,33.1,0,34.3,0,35.6V42
	c0,1.2,0,2.4,0.1,3.7c0,0.9,0,1.8,0,2.7l0,0.9c0.1,1.7,0.1,3.2,0.1,4.8c0,1.2,0,2.2,0.1,3.2l0,0.2c0,0.3,0,0.6,0,0.9l0.1,1.7
	c0,0.2,0,0.4,0,0.4c0,3.7,1.1,7.3,3.1,10.4C3.3,72.4,3.1,73.8,3,75c-0.4,3.5-0.8,7.4-1,11.5l0,0.3c-0.2,3.8-0.4,7.4-0.4,11
	c0,0.7,0,1.3,0,1.9c-0.1,1.9-0.2,4.3-0.2,6.8c0,3.8,0.1,7.3,0.4,10.2c0.3,3.9,0.9,8.5,3.3,12.8l0.8,1.3c3.6,5.5,9.7,8.9,16.7,9.4
	c1.1,0.1,2.6,0.2,4.4,0.2c0.9,0,1.7,0,2.5-0.1c2.4-0.1,4.7-0.5,7.1-0.9c1.6-0.3,3-0.7,4.2-1.1c1.2,0.3,2.5,0.6,3.8,0.7
	c1.6,0.2,3.4,0.2,5.4,0.1c1.5,0,2.8-0.2,3.8-0.3c0.3,0,0.6-0.1,0.8-0.1l1.5-0.2c1.5-0.2,2.9-0.5,4.2-0.7c4.8-0.9,8.8-2.8,11.8-5.8
	l0.4-0.4l1-1.1c1-1.3,1.8-2.6,2.5-4l0,0.1c2.6,5.1,6.3,8.9,11.2,11.3c4.6,2.3,9.9,3.1,15.8,2.4l5.7-0.6c1.2-0.1,2.4-0.3,3.6-0.4
	c0.7-0.1,1.4-0.2,2.1-0.3c2.4-0.3,4.5-0.6,6.5-1c2.3-0.4,4.9-1,7.5-2.1c0.5-0.2,1-0.4,1.5-0.7l0.2,0.1c5.2,2.9,11,4.5,17.1,4.5
	c7.3,0.1,13.9-1.3,19.5-4.3c0.8-0.4,1.6-0.9,2.4-1.4c2,0.9,4.1,1.5,6.4,1.8c1.9,0.3,4,0.5,6.2,0.5c1.5,0,3.3,0,5.4-0.2
	c1.5-0.1,3.1-0.3,4.8-0.7c1.8,0.5,3.9,0.8,6.1,1c1.7,0.1,3.6,0.2,5.8,0.2c1,0,1.9,0,2.9-0.1c2.6,1.6,5.7,2.6,9,2.9
	c2.4,0.3,4.5,0.3,6.1,0.3c2,0,3.8-0.1,5.3-0.3c2.2-0.2,4.2-0.5,6-1c2,0.5,3.9,0.6,5.8,0.7l6,0c2.8,0,5.2-0.3,7.2-0.6
	c0.8-0.1,1.5-0.2,2.3-0.4c1.4,0.5,2.9,0.9,4.4,1.2c3,0.5,6.3,0.6,9.5,0.3l1.6-0.1c1.7-0.1,3.2-0.3,4.8-0.5c2.1-0.3,4-0.9,5.9-1.6
	c2.3,1,4.3,1.4,5.6,1.6l1.5,0.2c1,0.1,2.5,0.3,4.3,0.4l0.2,0c3.6,0.2,8,0.4,12.4,0.1c1.8-0.1,6.7-0.5,11.3-3.5
	c3.1,1.9,6.4,3.2,10.1,4.1c4.2,1.1,8.9,1.7,14.5,1.8c1.3,0.1,2.5,0.1,3.7,0.1c3.8,0,7.4-0.3,10.6-0.9c6.3-1.1,11.9-3.9,16.2-7.9
	c4.2-4,7.2-9.1,8.9-15.3c1.2-4.5,2-9.8,2.2-15.5c0.2-4.1,0.3-7.8,0.3-11.1C382.5,88.4,382.4,84.5,381.7,80.6z"/>
<g>
	<path d="M373.9,82c-0.6-3.3-1.4-6.2-2.7-8.8c-0.5-1.1-1.1-2.1-1.8-3c0.3-0.3,0.7-0.6,1-0.9l1.2-1.2l0.8-1.5
		c0.9-1.8,1.2-3.6,1.4-5.3c0.1-1.2,0.3-2.9,0.1-5c0-0.2,0-0.4,0-0.6c-0.1-0.9-0.1-2.1-0.5-3.4c-0.3-1.4-1.3-5.4-5.1-8
		c-0.2-0.1-0.4-0.2-0.5-0.3c0-0.5,0-1-0.1-1.6l1.8-1.2l1.2-1.8c0,0,0-0.1,0.1-0.1l1.5-1.2l0.8-3.6c0.3-1.5,0.5-2.9,0.6-4.3l0-1
		c0-1.3,0-3.2-0.5-5.2c-1.3-5.7-4.9-8.1-7.1-9.1c-2.2-1-4.5-1.3-6.7-1.6c-2-0.2-4.2-0.4-6.5-0.4c-2,0-4,0-6.2,0.1
		c-0.8,0-1.6,0.1-2.3,0.1c-1,0-2,0.1-2.9,0.1c-1.3,0.1-2.9,0.2-4.6,0.7c-0.6-0.3-1.3-0.6-2.1-0.9l-0.8-0.3l-0.8-0.1
		c-0.7-0.1-1.6-0.2-2.5-0.4l-0.7-0.1l-0.6,0c-0.1,0-0.3,0-0.4,0c-0.7,0-1.6-0.1-2.8,0c-1.3,0-2.4,0.2-3.4,0.3
		c-1.3,0.1-2.7,0.3-4.2,0.8c-0.2,0.1-0.3,0.1-0.5,0.2c-0.3-0.1-0.6-0.2-0.9-0.3c-1.7-0.5-3.6-0.8-5.8-0.8c-1.3,0-2.9,0-4.8,0.3
		c-1.4,0.2-2.7,0.5-4,1c-1.6-0.7-3.3-1.1-5.1-1.2c-1.3-0.1-2.7-0.1-4.4-0.1h-2.5c-2.5,0-5,0.7-7.2,2l-0.6,0.4l-0.5,0.4
		c-0.4,0.3-0.8,0.7-1.2,1.1c-1.2-1.2-2.6-2.2-4.3-2.9c-2.1-0.9-4-1.1-5.1-1.2c-1.5-0.2-2.8-0.2-4.2-0.2c-1.2,0-2.6,0-4.1,0.2
		c-1.1,0.1-2,0.2-2.9,0.3c-1.5,0.2-2.6,0.4-3.6,0.8l-0.7,0.2l-0.7,0.3c-2.5,1.3-5.7,4-6.3,10c-0.1,1.1-0.2,2.4-0.3,4.2
		c-0.1,1.8-0.2,3.6-0.2,5.7c-0.1,2.2-0.1,4.3-0.1,6.4c0,2.1,0,4.3,0.1,6.5c0,2.2,0.1,4.2,0.2,6.1c0.1,1.9,0.2,3.6,0.3,4.9
		c0.1,1.5,0.2,2.7,0.4,3.6c0,0.2,0.1,0.3,0.1,0.5c-1.2-0.8-2.5-1.4-3.8-1.9c0.1-0.5,0.1-1,0.2-1.5l0-1c0-1,0-1.8,0.1-2.7
		c0.1-1.4,0.1-2.7,0-3.7c0-0.3,0-0.7,0-1c0-1.7-0.1-3.3-0.2-4.6l-0.1-0.9c-0.1-0.3-0.1-0.6-0.1-0.8c-0.1-0.6-0.2-1.4-0.4-2.1
		c-0.3-1.7-0.9-3.3-1.8-4.6c0.2-0.5,0.3-1.1,0.4-1.7c0.3-1.6,0.5-3.3,0.5-5c0-2.1-0.3-3.8-0.6-5.4c-0.7-3.7-2.7-6.8-5.4-8.7
		c-2.1-1.5-4.4-2.1-6.3-2.4c-1.1-0.2-2.9-0.5-4.9-0.7c-1.6-0.1-3.3-0.2-5.3-0.2c-1.7,0-3.5,0-5.5,0.1c-1.6,0.1-3.2,0.2-4.9,0.4
		c-1.9,0.2-3.7,0.6-5.6,1.3l-0.4,0.2c0,0,0,0,0,0c-1.1-0.6-2.2-1.1-3.5-1.4c-1.8-0.5-3.5-0.7-4.9-0.8c-1.8-0.2-3.6-0.2-5.3,0
		c-1.6,0.2-2.7,0.3-3.6,0.6l0,0c-0.6,0.2-1.3,0.4-1.9,0.7c-1.2-0.4-2.2-0.6-2.8-0.7c-2-0.4-3.8-0.4-5.3-0.4l-0.8,0
		c-0.3,0-0.6,0-0.9,0.1c-1,0.1-2.2,0.1-3.6,0.4c-0.9,0.2-1.8,0.4-2.5,0.6c-1.6-0.7-3.3-1.2-5.2-1.2c-1.3-0.1-2.7-0.1-4.4-0.1h-2.5
		c-2.1,0-4.2,0.5-6.1,1.4c-0.7-0.3-1.4-0.5-2.1-0.8l-1-0.2c-1.3-0.3-3-0.6-5.1-0.6c-1.6,0-3.2,0.1-4.7,0.4c-1.7,0.2-3.2,0.8-4.6,1.5
		c-1.6-0.7-3.5-1.2-5.7-1.4c-1.2-0.1-2.9-0.3-4.8-0.1c-1.8,0-3.4,0.3-4.8,0.6l-1,0.2c-0.1,0-0.1,0.1-0.2,0.1l-0.2-0.1
		c-1.4-0.5-2.9-0.7-4.8-0.8c-0.8-0.1-1.8-0.1-2.8-0.1c-0.6,0-1.3,0-2-0.1c-2-0.1-4.1-0.1-6.3-0.1c-1.2,0-2.3,0-3.4,0.1
		c-0.8,0-1.6,0-2.4,0l-0.6,0c-0.7,0-1.4,0.1-2.1,0.1c-1,0-2,0.1-2.8,0.1c-2.1,0.2-3.5,0.3-4.9,0.8l-0.7,0.2l-0.6,0.3
		c-2.1-1.1-4.4-1.8-6.9-2.2c-3-0.6-6.2-0.7-8.9-0.7l-0.3,0c-5.3,0.1-9.8,1-13.6,2.6l-0.1,0.1c-0.7,0.3-1.5,0.7-2.2,1.1
		c-1.1-0.6-2.2-1.1-3.5-1.4c-1.8-0.5-3.5-0.7-4.9-0.8c-1.7-0.2-3.5-0.2-5.3,0c-1.6,0.2-2.7,0.3-3.6,0.6l0,0
		c-0.6,0.2-1.2,0.4-1.8,0.6c-0.9-0.3-1.8-0.6-2.9-0.8c-2-0.4-3.9-0.4-5.4-0.4l-0.8,0c-0.3,0-0.6,0-0.9,0.1c-1,0.1-2.2,0.1-3.6,0.4
		l-0.2,0c-2.2,0.4-3.6,0.9-4.8,1.5l-1.5,0.8L12,16.8c-1.9,1.9-3.1,4.5-3.5,7.7c-0.2,1.3-0.3,2.5-0.3,3.7c0,0.4,0,0.8-0.1,1.2l0,0.7
		c0,0.7,0,1.4,0,2.2C8,33.3,8,34.4,8,35.6V42c0,1.1,0,2.3,0.1,3.4c0,1,0,2,0,3l0,0.5c0.1,1.9,0.1,3.6,0.1,5.2c0,1.1,0,2,0.1,2.9
		c0,0.5,0,1,0,1.4l0,1c0.1,0.6,0.1,1,0.1,1.1c0,3.7,1.8,7,4.9,9.2c-0.5,1.6-0.9,3.3-1.1,5.2c-0.5,2.8-1,6.1-1.3,9.2
		c-0.4,3.5-0.7,7.3-1,11.3l0,0.3c-0.2,3.6-0.4,7.3-0.4,10.8c0,3.6,0.1,6.9,0.3,9.6c0.2,3.2,0.7,6.6,2.3,9.5l0.4,0.7
		c2.3,3.4,6.1,5.5,10.6,5.8c1,0.1,2.4,0.2,3.9,0.2c0.6,0,1.3,0,2-0.1c2-0.1,4-0.4,6-0.8c2.5-0.5,4.2-1.1,5.7-1.8
		c1.4,0.7,3,1.2,4.6,1.3c1.3,0.1,2.7,0.1,4.3,0c1.3,0,2.4-0.1,3.3-0.2c0.4,0,0.8-0.1,1.1-0.1l0.9-0.1c1.4-0.2,2.8-0.4,4-0.6
		c3.2-0.6,5.7-1.8,7.5-3.6l0.4-0.4l0.4-0.5c2.6-3.3,2.9-7.1,2.9-9.7c0-1.9-0.1-4.2-0.3-6.9c-0.2-2.7-0.5-5.5-1-8.6
		c-0.4-3-0.9-6.2-1.4-9.2l-0.1-0.3c-0.6-3-1.2-6.1-1.8-8.9l-0.5-2c-0.4-1.6-0.8-3.2-1.2-4.7c1.3,0.1,2.7,0.2,4,0.2
		c1.5,0,3.1-0.1,4.6-0.2c1.7-0.1,3.3-0.3,4.9-0.5c-0.1,1.4-0.1,2.9-0.1,4.7c0,2.1,0.1,4.4,0.3,7c0.2,2.3,0.4,4.7,0.6,7.1l0,0.4
		c0.1,1.1,0.2,2.2,0.4,3.3c0.1,1.3,0.3,2.6,0.4,3.8c0.2,2.7,0.6,5.2,0.8,7.1c0.3,2.4,0.6,4.7,0.9,6.9c0.4,2.7,1.1,5.2,2.1,7.6
		l0.3,0.6c1.8,3.5,4.3,6.1,7.6,7.7c2.4,1.2,5.1,1.8,8.2,1.8c1,0,2.1-0.1,3.2-0.2l5.7-0.6c1.1-0.1,2.2-0.3,3.3-0.4
		c0.8-0.1,1.6-0.2,2.3-0.3c2.1-0.2,4.1-0.6,5.9-0.9c1.8-0.3,4-0.8,6.1-1.6c1.8-0.7,3.4-1.6,4.8-2.8c1.1,0.9,2.2,1.7,3.4,2.5l0.5,0.3
		c4,2.3,8.5,3.4,13.2,3.5c0.3,0,0.6,0,0.9,0c5.6,0,10.5-1.1,14.7-3.4c2.1-1.1,4.1-2.5,5.8-4.1c1.6,1.6,4.1,3.2,7.9,3.6
		c1.5,0.3,3.2,0.4,5,0.4c1.4,0,2.9,0,4.6-0.1c1.8-0.2,3.6-0.4,5.5-1.1c0.1,0,0.1,0,0.2-0.1c0.4,0.2,0.8,0.3,1.2,0.4
		c1.5,0.5,3.3,0.8,5.4,1c1.6,0.1,3.3,0.2,5.3,0.2c1.8,0,3.5-0.1,5.2-0.3c1.6,1.5,4.1,2.8,7.7,3.2c1.9,0.3,3.6,0.3,5.1,0.3
		c1.7,0,3.3-0.1,4.7-0.2c2.3-0.2,4.2-0.6,5.8-1.2c0.2-0.1,0.4-0.2,0.6-0.2c0.5,0.2,1,0.4,1.6,0.5c1.5,0.4,3.1,0.5,4.9,0.6l5.5,0
		c2.3,0,4.3-0.2,6.2-0.5c1.1-0.2,2.6-0.4,4-0.9c1.5,0.9,3.2,1.5,5,1.8c1.4,0.2,2.9,0.4,4.4,0.4c1,0,2-0.1,3-0.2
		c0.6-0.1,1.1-0.1,1.7-0.1c1.6-0.1,2.9-0.2,4.2-0.4c2.9-0.4,5.3-1.5,7.3-3c2.5,2.2,5.2,2.8,6.4,3l0.4,0c0.3,0,0.6,0.1,0.9,0.1
		c1,0.1,2.3,0.2,3.8,0.3l0.2,0c1.9,0.1,3.8,0.2,5.8,0.2c1.9,0,3.8,0,5.6-0.1c2.8-0.2,6.4-0.8,9.4-3.7l1.2-1.2l0.6-1.3
		c0.2,0.2,0.5,0.5,0.7,0.7c3.3,3.1,7.3,5.2,12.1,6.4c3.6,1,7.8,1.5,12.9,1.6c1.2,0.1,2.3,0.1,3.4,0.1c3.3,0,6.4-0.2,9.2-0.7
		c4.8-0.8,9-2.9,12.2-5.9c3.1-3,5.4-6.9,6.7-11.7c1.1-3.9,1.7-8.6,2-13.8c0.2-3.9,0.3-7.5,0.3-10.7C374.5,88.7,374.4,85.2,373.9,82z
		"/>
	<path d="M363.1,74.2c-0.5-2.8-1.2-5.3-2.2-7.4c-1.1-2.4-2.8-4.5-5.1-6.2l-0.2-0.1c-0.8-0.6-1.7-1.1-2.6-1.5c0.3,0,0.7-0.1,1-0.1
		l0.4-0.1c0.9-0.2,1.6-0.2,2.3-0.3l0.5-0.1c1.2-0.2,2.8-0.6,4-1.8l0.6-0.6l0.4-0.7c0.5-0.9,0.6-1.9,0.8-3.4c0.1-1,0.3-2.3,0.1-3.8
		c0-0.3,0-0.5-0.1-0.8c-0.1-0.8-0.1-1.6-0.3-2.6c-0.2-1-0.8-3.3-2.8-4.6c-1.2-0.8-2.4-1-3.6-1.2c0.3-0.8,0.6-1.8,0.6-3.1
		c0-0.8,0-1.7-0.2-2.7c-0.1-0.8-0.3-1.7-0.7-2.7c0,0,0-0.1,0-0.1c1.2-0.2,2.4-0.7,3.3-1.3l0.8-0.6l0.6-0.8c0.2-0.3,0.3-0.5,0.4-0.7
		l0.8-0.7l0.4-1.7c0.3-1.2,0.4-2.4,0.5-3.6l0-0.5c0-1.2,0-2.5-0.3-4c-0.7-3.2-2.5-4.6-3.9-5.2c-1.5-0.7-3.3-0.9-5.1-1.2
		c-1.8-0.2-3.8-0.3-5.8-0.3c-2,0-3.8,0-5.9,0.1c-0.9,0-1.7,0.1-2.4,0.1c-1,0-1.9,0.1-2.7,0.1c-1.6,0.1-3.8,0.3-5.8,1.4
		c-0.6-0.7-1.6-1.4-3-1.9l-0.4-0.1l-0.4-0.1c-0.7-0.1-1.4-0.2-2.3-0.3l-0.6,0c-0.2,0-0.4,0-0.6,0c-0.6,0-1.4-0.1-2.3,0
		c-1.1,0-2.1,0.1-3,0.2c-1.1,0.1-2.2,0.3-3.2,0.6c-0.5,0.1-1.3,0.4-2.1,0.9c-0.7-0.4-1.5-0.7-2.4-0.9c-1.3-0.4-2.7-0.6-4.3-0.6
		c-1.2,0-2.5,0-3.9,0.3c-1.4,0.2-2.7,0.6-3.8,1.2c-0.5,0.2-0.9,0.5-1.2,0.8c-0.1-0.1-0.2-0.2-0.4-0.3c-1.4-1.1-3.1-1.7-4.9-1.8
		c-1.1-0.1-2.4-0.1-4-0.1h-2.5c-1.5,0-3,0.4-4.4,1.2l-0.6,0.4c-1.2,1-2.1,2.3-2.8,3.9c-0.5,1.4-0.9,3.3-1,5.3l0,0
		c0,0.5-0.1,1-0.1,1.5c-0.1,1.4-0.2,2.9-0.2,4.8c0,1.1-0.1,2.3-0.1,3.4c0,1.1,0,2.2-0.1,3.4c0,1.2-0.1,2.3-0.1,3.5
		c-0.4,0-0.7,0-1.1,0.1c-0.7,0.1-1.5,0.1-2.1,0.2c0-0.3-0.1-0.6-0.1-0.9c-0.1-1.7-0.1-3.6,0-5.6l0-0.3c0.1-2.1,0.2-4.2,0.4-6.5
		c0.2-2.7,0.2-5.4,0.2-8.2c0-2-1.1-4.4-4-5.5c-1.2-0.5-2.4-0.7-3.6-0.8c-1.2-0.1-2.3-0.1-3.6-0.1c-1.2,0-2.4,0-3.6,0.1
		c-1,0.1-1.9,0.2-2.7,0.3c-1.1,0.1-1.9,0.3-2.6,0.5l-0.3,0.1l-0.3,0.2c-2.8,1.4-3.1,4.5-3.2,5.6c-0.1,1-0.2,2.4-0.3,4
		c-0.1,1.4-0.2,3.3-0.2,5.5c-0.1,2.1-0.1,4.1-0.1,6.2c0,2.1,0,4.2,0.1,6.4c0,2.1,0.1,3.9,0.2,6c0.1,1.8,0.2,3.5,0.3,4.8
		c0.1,1.4,0.2,2.4,0.3,3.2c0.1,0.9,0.7,2.7,2.5,4.2c-0.6,0.2-1.3,0.6-2,1c-1.4,1-2.5,2.6-3.4,4.8c-0.1,0.4-0.3,0.8-0.4,1.3
		c-0.8-1.4-1.9-2.7-3.1-3.8c-1.8-1.6-4.1-2.8-6.8-3.5c-0.9-0.3-1.9-0.4-3.2-0.5c0.7-0.8,1.2-1.7,1.4-2.7l0.1-0.5
		c0.1-0.9,0.2-1.8,0.3-2.9l0-0.5c0-1,0-2,0.1-3.1c0.1-1.1,0.1-2.2,0-3.1c0-0.4,0-0.8,0-1.2c0-1.5-0.1-2.8-0.2-4.1l-0.1-0.4
		c-0.1-0.3-0.1-0.7-0.2-1c-0.1-0.6-0.2-1.3-0.4-1.9c-0.3-1.9-1.3-3.5-2.7-4.4c-0.1-0.1-0.2-0.1-0.3-0.2c0.8-1,1.3-2.2,1.6-3.8
		c0.2-1.3,0.4-2.6,0.4-4.1c0-1.7-0.3-3.1-0.5-4.3c-0.6-2.9-2-4.5-3.2-5.3c-1.2-0.9-2.5-1.2-4.1-1.5c-1-0.2-2.5-0.5-4.3-0.6
		c-1.6-0.1-3.1-0.2-5-0.2c-1.7,0-3.4,0-5.1,0.1c-1.6,0.1-3.1,0.2-4.6,0.4c-1.9,0.2-3.4,0.6-4.3,1l-0.2,0.1c-1,0.4-1.9,1-2.6,1.8
		c-1-1.4-2.5-2.5-4.4-2.9c-1.4-0.4-2.7-0.5-4-0.6c-1.4-0.1-2.9-0.1-4.3,0c-1.3,0.1-2.2,0.3-2.8,0.4l0,0c-0.8,0.2-1.9,0.7-2.8,1.7
		c-1.5-1.2-3.3-1.5-4.2-1.7c-1.5-0.3-3-0.3-4.4-0.3l-0.4,0c-0.4,0-0.7,0-1,0.1c-0.9,0.1-1.9,0.1-3,0.3c-1.6,0.3-2.7,0.6-3.5,1
		l-0.5,0.2c0,0,0,0-0.1-0.1c-1.4-1.1-3.1-1.7-4.9-1.8c-1.1-0.1-2.4-0.1-4-0.1H153c-1.5,0-3,0.4-4.4,1.2l-0.6,0.4
		c-0.3,0.2-0.6,0.5-0.8,0.8l0,0c-1.2-0.8-2.5-1.5-4-1.9l-0.5-0.1c-1.1-0.2-2.5-0.5-4.1-0.5c-1.3,0-2.6,0.1-3.7,0.4
		c-1.4,0.2-2.8,0.7-3.8,1.4c-0.6,0.4-1.1,0.8-1.5,1.3c-0.7-0.7-1.5-1.2-2.4-1.6c-1.1-0.5-2.5-0.8-4.1-1c-1.2-0.1-2.5-0.2-4.1-0.1
		c-1.5,0-2.8,0.3-4,0.5l-0.5,0.1c-0.8,0.2-1.5,0.5-2.1,0.9c-0.3-0.2-0.6-0.5-1-0.7l-0.3-0.2l-0.3-0.1c-0.8-0.3-1.7-0.4-3.5-0.5
		c-0.8-0.1-1.6-0.1-2.5-0.1c-0.7,0-1.4,0-2.2-0.1c-1.8-0.1-3.9-0.1-6-0.1c-1.1,0-2.2,0-3.3,0.1c-0.9,0-1.7,0-2.5,0l-0.3,0
		c-0.8,0-1.5,0.1-2.2,0.1c-0.9,0-1.8,0.1-2.6,0.1c-2.1,0.2-2.9,0.3-3.6,0.5l-0.3,0.1l-0.3,0.2c-1,0.5-1.6,1.2-2,1.8
		c-0.5-0.4-1-0.8-1.6-1.1l-0.1-0.1c-2-1.1-4.2-1.9-6.5-2.3c-2-0.4-4.4-0.6-7.9-0.6l-0.1,0c-4.6,0.1-8.4,0.8-11.7,2.2
		c-1.8,0.8-3.4,1.8-4.8,3.1c-0.9-1.5-2.5-2.6-4.5-3.1c-1.4-0.4-2.7-0.5-4-0.6c-1.4-0.1-2.8-0.1-4.3,0c-1.3,0.1-2.2,0.3-2.8,0.4l0,0
		c-0.8,0.2-1.9,0.7-2.8,1.7c-1.1-0.9-2.5-1.5-4.2-1.8c-1.5-0.3-3-0.3-4.4-0.3l-0.4,0c-0.4,0-0.7,0-1,0.1c-0.9,0.1-1.9,0.1-3.1,0.3
		c-1.7,0.3-2.7,0.6-3.5,1l-0.7,0.4L10.5,12c-1.1,1.1-1.7,2.5-1.9,4.6c-0.2,1-0.2,2-0.3,3.1c0,0.4,0,0.8-0.1,1.3l0,0.3
		c0,0.8,0,1.5,0,2.4c0,1-0.1,2.1-0.1,3.2v6.4c0,1.1,0,2.2,0.1,3.3c0,1,0,2.1,0,3.1l0,0.2c0.1,2,0.1,3.8,0.1,5.5c0,1,0,1.9,0.1,2.7
		c0,0.6,0,1.1,0,1.6l0,0.5c0.1,0.9,0.1,1.4,0.1,1.6c0,2.1,1.2,4,3.1,5.1c1.3,0.8,2.6,1,3.4,1.1l0.1,0c0.3,0,0.6,0.1,0.8,0.1
		c-0.7,0.5-1.3,1.1-1.7,1.9l-0.1,0.1c-1,1.7-1.6,4.1-2,6.8c-0.5,2.7-1,5.9-1.3,9c-0.4,3.3-0.7,7-0.9,10.9l0,0.3
		C9.8,91,9.6,94.5,9.6,97.8c0,3.5,0.1,6.6,0.3,9.2c0.3,3.6,0.7,5.7,1.6,7.2l0.2,0.3c0.8,1.2,2.6,3.1,6.4,3.4c1,0.1,2.2,0.2,3.5,0.2
		c0.5,0,1.1,0,1.7-0.1c1.8-0.1,3.5-0.3,5.3-0.7c2.2-0.4,3.6-0.9,4.6-1.5l0.2-0.1c0.8-0.5,1.4-1.2,1.9-1.9c1.2,1.8,3.1,2.8,5.2,3
		c1,0.1,2.1,0.1,3.6,0c1.1,0,2.1-0.1,3-0.2c0.4,0,0.8-0.1,1.3-0.1l0.4,0c1.3-0.2,2.7-0.4,3.8-0.6c3.1-0.6,4.3-1.7,4.6-2.1l0.4-0.4
		c1.5-1.9,1.7-4.3,1.7-6.2c0-1.8-0.1-3.9-0.3-6.4c-0.2-2.6-0.5-5.3-0.9-8.3c-0.4-3-0.9-6.1-1.4-9l0-0.2c-0.6-3-1.2-6-1.8-8.9
		l-0.4-1.8c-0.5-2.2-1.1-4.3-1.7-6.2c-0.8-2.5-1.6-4.6-2.4-6.3c-0.3-0.6-1-1.9-2.1-3.1c0.2,0.2,0.4,0.3,0.6,0.5
		c2.4,1.8,5.3,3,8.5,3.4c1.7,0.2,3.4,0.3,5.2,0.3c1.4,0,2.8-0.1,4.2-0.2c3.3-0.2,6.4-0.7,9.1-1.5c3.1-0.9,5.6-2.4,7.4-4.6
		c0.2-0.2,0.4-0.5,0.6-0.7c0.5,1.3,1.3,2.2,2.1,2.8c-0.8,0.2-1.5,0.5-2.2,0.8l-0.2,0.1c-1.4,0.6-2.9,1.3-4,2.6
		c-1.3,1.4-1.6,3.2-1.9,4.9l0,0.3c-0.1,1.4-0.1,3-0.1,4.9c0,1.9,0.1,4.1,0.3,6.5c0.2,2.3,0.4,4.6,0.6,7.1l0,0.2
		c0.1,1.2,0.3,2.3,0.4,3.4c0.1,1.3,0.3,2.5,0.4,3.8c0.2,2.6,0.6,5.1,0.8,6.9c0.3,2.4,0.6,4.6,0.9,6.8c0.3,2.2,0.9,4.3,1.7,6.2
		l0.1,0.3c1.2,2.4,2.9,4.2,5.1,5.2c1.6,0.8,3.5,1.3,5.7,1.3c0.8,0,1.6-0.1,2.5-0.2l5.8-0.6c1.1-0.1,2.1-0.3,3.2-0.4
		c0.8-0.1,1.7-0.2,2.5-0.3c2-0.2,3.8-0.5,5.5-0.9c1.7-0.3,3.4-0.7,5.1-1.4c1.8-0.7,3.3-1.7,4.5-3.1l0.2-0.3c0.7-0.9,1.2-1.8,1.6-2.9
		c1.8,2.6,4.1,4.7,6.8,6.5l0.2,0.1c3.2,1.8,6.8,2.7,10.6,2.7c0.3,0,0.5,0,0.8,0c4.7,0,8.8-0.9,12.1-2.7c3.5-1.8,6.3-4.4,8.5-7.6
		c0.6-0.9,1.2-1.9,1.7-2.9c0,0.3,0,0.6,0.1,0.9c0.2,2.8,0.5,4.7,1.7,6.1c0.9,1,2.4,2.2,5.2,2.5c1.3,0.2,2.7,0.3,4.2,0.3
		c1.4,0,2.7,0,4.2-0.1c1.5-0.1,2.8-0.3,3.9-0.7c0.7-0.3,1.6-0.8,2.4-1.6c0.9,1.1,1.9,1.6,2.8,1.9c1.1,0.3,2.5,0.6,4.1,0.7
		c1.6,0.1,3.1,0.2,4.9,0.2c1.8,0,3.6-0.1,5.2-0.4c0.8-0.1,1.5-0.3,2.2-0.5c0.2,0.5,0.5,0.9,0.8,1.3c1.2,1.4,3,2.3,5.4,2.5
		c1.5,0.2,2.9,0.2,4.4,0.2c1.5,0,3-0.1,4.3-0.2c1.7-0.1,3.1-0.4,4.2-0.8c0.8-0.3,1.7-0.9,2.6-1.9c0.6,0.7,1.5,1.6,2.9,1.9
		c1,0.3,2.2,0.4,4,0.5l5.1,0c2,0,3.7-0.2,5.5-0.4c2.4-0.3,4.1-0.9,5.3-1.8c1.5,1.4,3.3,2.4,5.4,2.7c1.1,0.2,2.3,0.3,3.5,0.3
		c0.8,0,1.6,0,2.5-0.1c0.6-0.1,1.2-0.1,1.8-0.1c1.5-0.1,2.7-0.2,3.9-0.4c2.5-0.4,4.4-1.4,5.8-3c1.7-2,2.1-4.5,2.2-6.2l0-0.3
		c0-1.5,0-3.8-0.1-6.7c-0.1-2.4-0.2-5.1-0.3-7.9l-0.3-8.6c0-1.4-0.1-2.7-0.2-4c0.3,0.1,0.6,0.1,1,0.2c0.6,0.1,1.3,0.2,2,0.2
		c-0.1,0.9-0.1,1.8-0.2,2.9l-0.2,2.4c-0.2,2.6-0.4,5.3-0.6,8.4c-0.2,3.1-0.3,6-0.3,8.6c0,2.7,0.2,5.1,0.6,7.3c1,5.4,4.1,6.6,5.9,6.8
		l0.2,0c0.3,0,0.6,0.1,1,0.1c1,0.1,2.2,0.2,3.6,0.3l0.3,0c1.9,0.1,3.6,0.2,5.4,0.2c1.8,0,3.6,0,5.2-0.1c2-0.1,4.2-0.5,5.9-2.2
		l0.6-0.6l0.4-0.7c0.5-1.1,0.8-2.5,0.8-4.2V106l0-0.3c-0.1-1.7-0.2-3.6-0.3-5.6c-0.1-2.1-0.2-4.3-0.4-6.6c-0.2-2.1-0.3-4.2-0.4-6.2
		l0-0.7c-0.1-1.8-0.2-3.4-0.2-4.7l0-0.3c0-0.1,0-0.3,0-0.4c1,0,2,0,2.9-0.1c-0.3,3-0.5,6.2-0.5,9.7l0,0.1c0.1,5.2,0.7,9.7,1.7,13.2
		c1.1,3.9,3.1,7.2,5.7,9.6c2.6,2.4,5.8,4.1,9.6,5c3.2,0.9,7.1,1.3,11.7,1.4c1.1,0.1,2.2,0.1,3.3,0.1c3,0,5.8-0.2,8.2-0.7
		c3.8-0.7,6.9-2.2,9.3-4.5c2.4-2.3,4.1-5.3,5.2-9.1c1-3.5,1.6-7.8,1.8-12.6c0.2-3.9,0.3-7.4,0.3-10.5
		C363.7,79.1,363.5,76.5,363.1,74.2z M315.3,61.5c-0.1-0.2-0.1-0.4-0.2-0.6c-0.4-1.3-1-2.3-1.6-3c0.3-0.1,0.5-0.3,0.8-0.4
		c0.4,0.2,0.8,0.4,1.2,0.5l0.4,0.1c0.6,0.2,1.3,0.3,2.1,0.4l0.4,0.1h0.4c0.1,0,0.2,0,0.3,0C317.6,59.4,316.4,60.3,315.3,61.5z
		 M336.7,87.8c0,0.4,0,0.9,0,1.3l-0.3,3.9c-0.1,1-0.2,2-0.3,3.1l0,0.1c-0.1,0-0.1,0-0.2,0c0-0.3,0-0.7-0.1-1.2v-4.7
		c0-1.9,0-3.7,0.1-5.6c0.1-1.4,0.1-2.6,0.2-3.7c0.1,0,0.3,0,0.4,0c0.1,1.4,0.1,2.7,0.1,3.8l0,0.3C336.7,86.1,336.7,86.9,336.7,87.8z
		 M202.5,56.9c0.9,0.8,1.8,1.4,2.9,1.9c-0.5,0.4-0.9,0.9-1.2,1.4c-0.2-0.2-0.3-0.3-0.5-0.5l-0.2-0.1c-1.3-1.2-2.8-2.2-4.5-2.9
		c0.7-0.6,1.1-1.2,1.4-1.9C201.2,55.6,201.8,56.3,202.5,56.9z M144.6,58.6c-0.2,0.2-0.3,0.3-0.4,0.5c-0.2-0.3-0.5-0.6-0.7-0.8
		c0.5-0.1,0.9-0.1,1.3-0.2c0.3-0.1,0.5-0.1,0.8-0.2C145.2,58,144.9,58.3,144.6,58.6z M121.6,58.5c0,0-0.1,0.1-0.1,0.1
		c-0.7,0.8-1.2,1.8-1.7,3.3c-0.7-1.3-1.6-2.4-2.7-3.4c0.7,0,1.5,0,2.2,0C120.1,58.6,120.9,58.6,121.6,58.5z M102.9,96.9
		c0,0-0.1,0-0.1,0c-0.1,0-0.2-0.1-0.4-0.2c0-0.1,0-0.1,0-0.1c0.1-0.1,0.1-0.1,0.1-0.2L102.9,96.9z M102,75.7
		c-0.1,0.1-0.2,0.1-0.3,0.2v-0.4l0.1,0L102,75.7z M100.3,76.1l0.5-0.6l0.1,0l0.1,0.6c-0.2,0-0.3,0.1-0.4,0.1c0,0-0.1,0-0.1,0
		C100.3,76.1,100.3,76.1,100.3,76.1z M100.1,75.9c0,0,0-0.1-0.1-0.1c0.1-0.1,0.3-0.2,0.4-0.3l0,0L100.1,75.9z M104.2,96.3
		c0.2,0.1,0.5,0.2,0.7,0.3c-0.1,0.1-0.2,0.2-0.3,0.2c-0.2,0.1-0.4,0.2-0.5,0.2c-0.1,0-0.3,0-0.4,0l-0.4-0.9
		C103.8,96.1,104.2,96.2,104.2,96.3z M107.3,32.2c-0.1,1.1-0.1,2.3-0.1,3.5c0,0.9,0,1.7-0.1,2.6l-0.3-4.4c-0.1-0.9-0.1-1.7-0.1-2.5
		c0.2,0,0.4,0,0.6,0C107.3,31.6,107.3,31.9,107.3,32.2z M107.7,52c0.1,0.8,0.4,1.8,0.9,2.7c-0.5-0.1-0.9-0.1-1.4-0.2
		C107.5,53.8,107.6,53,107.7,52z M166.7,57.7c0.3,0.1,0.6,0.2,0.9,0.2c-0.1,0.1-0.2,0.2-0.4,0.3C167.1,58,166.9,57.9,166.7,57.7z
		 M46.8,55.9C46.8,55.9,46.8,55.8,46.8,55.9c0.3,0.1,0.4,0.3,0.6,0.5C47.2,56.2,47,56,46.8,55.9z"/>
	<g>
		<path class="st0" d="M25.5,39.3c-0.2,0-0.3,0.3-0.4,0.9C25,40.8,25,41.6,25,42.6s0,2,0.1,3.2c0,1.1,0,2.2,0,3.2s-0.1,1.8-0.2,2.5
			s-0.3,1.1-0.6,1.2c-0.3,0.1-0.8,0.2-1.4,0.3s-1.4,0.2-2.2,0.2c-0.8,0.1-1.6,0.1-2.5,0.1c-0.8,0-1.6-0.1-2.3-0.2
			c-0.6-0.1-1.2-0.2-1.6-0.5c-0.4-0.2-0.7-0.5-0.7-0.8s0-1-0.1-2.1c0-1.2-0.1-2.6-0.1-4.3s0-3.6-0.1-5.7c0-2.1-0.1-4.3-0.1-6.4
			c0-2.2,0-4.3,0-6.4s0.1-3.9,0.1-5.6c0.1-1.6,0.1-3,0.3-4c0.1-1,0.3-1.6,0.5-1.8c0.4-0.2,1.2-0.4,2.2-0.6c1.1-0.2,2.2-0.2,3.5-0.3
			c1.2,0,2.4,0,3.4,0.2c1.1,0.2,1.8,0.5,2.2,0.9c0.2,0.3,0.6,0.9,0.9,1.8c0.4,0.9,0.8,2,1.2,3.3c0.4,1.3,0.9,2.6,1.4,4
			c0.5,1.4,1,2.7,1.4,3.8c0.4,1.2,0.9,2.1,1.3,2.9s0.7,1.1,1,1.1s0.4-0.4,0.5-1.2c0-0.9,0-1.9-0.1-3.3c-0.1-1.3-0.2-2.7-0.4-4.2
			c-0.2-1.5-0.3-3-0.4-4.3c-0.1-1.3-0.2-2.5-0.2-3.4c0-0.9,0.1-1.4,0.4-1.4c0.4-0.1,1.1-0.2,2.1-0.3c1.1-0.1,2.2-0.1,3.3,0
			C39,14.6,40,14.7,41,15c0.9,0.2,1.5,0.6,1.7,1.2c0.1,0.3,0.2,1,0.3,2.2c0.2,1,0.3,2.5,0.3,4.3c0.1,1.8,0.1,3.7,0.2,5.9
			c0.1,2.2,0.1,4.3,0.2,6.6c0,2.2,0,4.4,0,6.5c0,2.1-0.1,4-0.1,5.6c-0.1,1.7-0.2,3-0.3,4s-0.3,1.5-0.5,1.6c-0.4,0.1-1.2,0.2-2.3,0.3
			s-2.3,0.2-3.5,0.2s-2.4-0.1-3.5-0.2c-1.1-0.2-1.8-0.5-2.2-1c-0.2-0.3-0.5-0.9-0.8-1.7s-0.6-1.6-0.9-2.6C29.3,47,29,46,28.6,45
			c-0.3-1-0.7-1.9-1-2.8c-0.4-0.8-0.7-1.5-1.1-2.1C26.2,39.6,25.9,39.3,25.5,39.3z"/>
		<path class="st0" d="M63.4,13c2.7,0,5.1,0.1,7,0.5c1.9,0.3,3.5,0.9,4.9,1.7c1.3,0.8,2.4,1.8,3.2,3.1c0.8,1.2,1.4,2.7,1.9,4.5
			c0.5,1.8,0.8,3.9,1.1,6.2c0.2,2.4,0.4,5,0.6,8c0.2,3.7,0.1,6.8-0.3,9.1s-1.2,4.2-2.4,5.6c-1.2,1.4-2.9,2.4-5,3s-4.8,1.1-8.1,1.3
			c-3.2,0.3-6,0.2-8.4-0.1s-4.4-1.1-6.1-2.4c-1.7-1.3-3-3-4-5.4c-1-2.3-1.7-5.4-2.2-9.1c-0.5-4.2-0.6-7.9-0.3-11.1
			c0.3-3.2,1.1-5.9,2.5-8.1c1.3-2.2,3.3-3.9,5.8-5C56.2,13.7,59.4,13.1,63.4,13z M61.1,42.9c0.1,0.9,0.5,1.5,1.3,1.9
			c0.8,0.4,1.7,0.5,2.7,0.4s1.8-0.4,2.6-1c0.8-0.5,1.2-1.3,1.2-2.2c0-1.2,0.1-2.4,0-3.4c0-1.1-0.1-2.1-0.1-3.2
			c-0.1-1.1-0.2-2.2-0.3-3.4s-0.4-2.6-0.6-4.1c-0.2-0.9-0.7-1.6-1.5-1.9c-0.8-0.4-1.7-0.5-2.7-0.4c-1,0.1-1.8,0.4-2.6,0.9
			s-1.2,1.1-1.2,2c0,1.3,0.1,2.7,0.2,4.2c0.1,1.6,0.2,3.1,0.4,4.5c0.2,1.4,0.3,2.7,0.4,3.8C61,41.9,61.1,42.6,61.1,42.9z"/>
		<path class="st0" d="M83.8,14.8c0.3-0.1,1.1-0.2,2.4-0.3c1.3-0.1,2.9-0.1,4.7-0.2c1.8,0,3.7-0.1,5.8-0.1c2.1,0,4,0,5.7,0.1
			c1.7,0.1,3.3,0.1,4.6,0.2c1.3,0.1,2,0.2,2.3,0.3c0.2,0.1,0.4,0.5,0.6,1s0.3,1.1,0.4,1.8c0,0.9,0,1.6,0,2.4c0,0.8,0,1.6-0.1,2.4
			c0,0.8-0.1,1.4-0.2,2s-0.2,1-0.3,1.2c-0.1,0.4-0.6,0.6-1.2,0.7c-0.7,0.1-1.5,0.1-2.3,0.1s-1.7,0-2.5-0.1c-0.8,0-1.4,0-1.7,0.1
			c-0.2,0.1-0.3,0.5-0.3,1.2c0,0.7-0.1,1.8,0,3c0,1.2,0.1,2.6,0.2,4.2c0.1,1.6,0.2,3.2,0.3,4.8c0.1,1.6,0.2,3.2,0.3,4.8
			c0.1,1.6,0.2,3,0.2,4.2c0,1.3,0,2.3,0,3.1s-0.1,1.3-0.3,1.4c-0.3,0.3-1,0.4-2.1,0.5s-2.3,0.1-3.6,0.1c-1.4,0-2.7-0.1-4.1-0.2
			c-1.4-0.1-2.5-0.2-3.3-0.3c-0.6-0.1-1-0.7-1.2-2s-0.3-2.9-0.4-4.8c0-1.9,0.1-4,0.2-6.2c0.2-2.2,0.3-4.3,0.5-6.3
			c0.2-1.9,0.3-3.6,0.4-5s0.1-2.1,0.1-2.3c-0.1-0.3-0.4-0.5-1-0.6s-1.2-0.1-1.9-0.2c-0.7,0-1.3-0.1-2-0.1c-0.6-0.1-1.1-0.2-1.3-0.4
			c-0.2-0.2-0.3-0.5-0.3-1.1c-0.1-0.6-0.1-1.2-0.1-2c0-0.8,0.1-1.6,0.2-2.4c0.1-0.9,0.2-1.7,0.3-2.4c0.1-0.7,0.3-1.3,0.5-1.9
			C83.5,15.2,83.6,14.9,83.8,14.8z"/>
		<path class="st0" d="M114,16.1c0.4-0.5,1.1-0.9,2.1-1.2c1-0.2,2.1-0.4,3.2-0.4c1.2-0.1,2.3,0,3.4,0.1c1.1,0.1,2,0.3,2.6,0.6
			c0.6,0.2,1,0.7,1.2,1.3c0.2,0.7,0.2,1.4,0.2,2.2c0,0.8-0.1,1.6-0.2,2.4c-0.1,0.8-0.1,1.5,0.1,2c0.2,0.7,0.5,1.2,1.1,1.4
			c0.6,0.2,1.2,0.3,1.8,0.3c0.6-0.1,1.2-0.3,1.8-0.6c0.5-0.3,0.8-0.7,0.9-1.1c0.3-1.2,0.5-2.2,0.6-3.1c0.1-0.9,0.1-1.6,0.1-2.3
			c0-0.6,0.1-1.2,0.2-1.6c0.1-0.4,0.3-0.8,0.7-1c0.4-0.3,1.1-0.6,2-0.7c0.9-0.2,1.9-0.3,2.9-0.3c1.1,0,2.1,0.2,3.1,0.4
			c1,0.3,1.8,0.7,2.5,1.2c0.4,0.4,0.7,0.9,0.8,1.6c0.1,0.7,0.2,1.3,0.2,1.9c0,1.3,0,2.9,0,5s0,4.4-0.1,6.8c0,2.5,0,4.9-0.1,7.4
			c0,2.5-0.1,4.8-0.1,6.9c-0.1,2.1-0.1,3.8-0.2,5.2c-0.1,1.4-0.1,2.1-0.2,2.2c-0.1,0.1-0.3,0.3-0.8,0.4c-0.5,0.1-1.1,0.2-1.8,0.2
			c-0.7,0.1-1.5,0.1-2.4,0.1c-0.8,0-1.7,0.1-2.5,0.1s-1.6,0-2.2-0.1c-0.7,0-1.1-0.1-1.4-0.1c-0.5-0.1-0.9-0.6-1.1-1.5
			s-0.3-1.9-0.4-3.1c-0.1-1.2-0.1-2.2-0.1-3.3c0-1,0-1.7-0.1-1.9c0-0.2-0.4-0.4-1-0.5c-0.6-0.2-1.3-0.2-2-0.2s-1.4,0.1-2.1,0.3
			c-0.6,0.2-1,0.6-1.1,1.1s-0.2,1.2-0.2,2.1s0,1.8,0,2.8c0,0.9,0,1.8-0.1,2.5c-0.1,0.8-0.3,1.2-0.6,1.3c-0.4,0.2-1.1,0.4-2.1,0.5
			s-2.1,0.2-3.3,0.2c-1.2,0-2.3,0-3.4-0.2c-1.1-0.1-1.9-0.3-2.5-0.6c-0.4-0.2-0.7-0.9-0.9-2.3c-0.2-1.3-0.3-3-0.4-5s-0.1-4.1,0-6.4
			s0.1-4.6,0.2-6.7c0.1-2.2,0.1-4.1,0.2-5.8c0.1-1.7,0.1-2.9,0.2-3.7c0.1-1.7,0.2-3.1,0.4-4.2C113.1,17.7,113.5,16.8,114,16.1z"/>
		<path class="st0" d="M149.3,20.4c0.1-1.7,0.4-3,0.7-3.8c0.3-0.8,0.7-1.4,1.2-1.8c0.5-0.3,1.1-0.5,1.8-0.5s1.5,0,2.5,0
			c1.6,0,2.8,0,3.7,0.1c0.9,0,1.6,0.3,2.1,0.7c0.5,0.4,0.8,1.1,1,2c0.2,0.9,0.3,2.3,0.4,4.1c0,1.7,0.1,3.5,0.1,5.6s0.1,4.2,0.1,6.4
			s0,4.3,0,6.5s0,4.1,0,5.9c0,2.1,0,3.8-0.1,4.9c-0.1,1.1-0.4,1.9-0.8,2.4s-1.2,0.8-2.1,0.9c-0.9,0.1-2.3,0.2-4,0.2
			c-1.5,0.1-2.6,0-3.5-0.2s-1.6-0.6-2.1-1.1c-0.5-0.6-0.8-1.3-1-2.3s-0.3-2.2-0.4-3.8c-0.1-1.9-0.2-3.9-0.2-6.2c0-2.3,0-4.6,0.1-7
			s0.1-4.7,0.2-6.9S149.2,22.2,149.3,20.4z"/>
		<path class="st0" d="M178.7,39.3c-0.2,0-0.3,0.3-0.4,0.9c-0.1,0.6-0.1,1.4-0.1,2.4s0,2,0.1,3.2c0,1.1,0,2.2,0,3.2
			s-0.1,1.8-0.2,2.5c-0.1,0.7-0.3,1.1-0.6,1.2s-0.8,0.2-1.4,0.3c-0.6,0.1-1.4,0.2-2.2,0.2c-0.8,0.1-1.6,0.1-2.5,0.1
			c-0.8,0-1.6-0.1-2.3-0.2c-0.7-0.1-1.3-0.3-1.7-0.5s-0.7-0.5-0.7-0.8s0-1-0.1-2.1c0-1.2-0.1-2.6-0.1-4.3s0-3.6-0.1-5.7
			c0-2.1-0.1-4.3-0.1-6.4c0-2.2,0-4.3,0-6.4s0.1-3.9,0.1-5.6c0.1-1.6,0.1-3,0.3-4c0.1-1,0.3-1.6,0.5-1.8c0.4-0.2,1.1-0.4,2.2-0.6
			c1.1-0.2,2.2-0.2,3.5-0.3c1.2,0,2.4,0,3.4,0.2c1.1,0.2,1.8,0.4,2.2,0.8c0.2,0.3,0.6,0.9,0.9,1.8c0.4,0.9,0.8,2,1.2,3.3
			c0.4,1.3,0.9,2.6,1.4,4s1,2.7,1.4,3.8s0.9,2.1,1.3,2.9c0.4,0.8,0.7,1.1,1,1.1s0.4-0.4,0.5-1.2c0-0.9,0-1.9-0.1-3.3
			c-0.1-1.3-0.2-2.7-0.4-4.2s-0.3-3-0.4-4.3c-0.1-1.3-0.2-2.5-0.2-3.4c0-0.9,0.1-1.4,0.4-1.4c0.4-0.1,1.1-0.2,2.1-0.3s2.2-0.1,3.3,0
			c1.2,0.1,2.2,0.2,3.2,0.5c0.9,0.2,1.5,0.6,1.7,1.2c0.1,0.3,0.2,1,0.3,2.2c0.1,1.2,0.2,2.7,0.3,4.4c0.1,1.8,0.1,3.7,0.2,5.9
			c0.1,2.2,0.1,4.3,0.2,6.6c0,2.2,0,4.4,0,6.5c0,2.1-0.1,4-0.1,5.6c-0.1,1.7-0.2,3-0.3,4s-0.3,1.5-0.5,1.6c-0.4,0.1-1.2,0.2-2.3,0.3
			s-2.3,0.2-3.5,0.2s-2.4-0.1-3.5-0.2c-1.1-0.2-1.8-0.5-2.2-1c-0.2-0.3-0.5-0.9-0.8-1.7s-0.6-1.6-0.9-2.6c-0.3-0.9-0.6-1.9-1-2.9
			c-0.3-1-0.7-1.9-1-2.8c-0.4-0.8-0.7-1.5-1.1-2.1C179.4,39.6,179.1,39.3,178.7,39.3z"/>
		<path class="st0" d="M227.8,26.2c-1.3,0.5-2.6,0.7-3.8,0.7s-2.4-0.2-3.6-0.3c-1.1-0.2-2.1-0.3-3.1-0.4c-0.9-0.1-1.7,0-2.4,0.4
			c-0.7,0.3-1.1,1-1.4,2.1c-0.3,1-0.4,2.6-0.3,4.8c0,1.2,0.1,2.4,0.3,3.6c0.1,1.2,0.4,2.2,0.6,3.2c0.3,0.9,0.7,1.7,1.1,2.3
			c0.4,0.6,1,0.9,1.6,0.9c0.7,0,1.1-0.1,1.4-0.5c0.3-0.4,0.5-0.9,0.6-1.5c0.1-0.6,0.1-1.3,0-2s-0.1-1.4-0.2-2.1
			c-0.1-0.9,0.1-1.7,0.5-2.2c0.5-0.6,1.1-1,1.9-1.3c0.8-0.3,1.6-0.5,2.6-0.5c0.9-0.1,1.8-0.1,2.6-0.1s1.5,0.1,2.1,0.2
			c0.6,0.1,0.9,0.1,1,0.2c0.2,0.1,0.5,0.5,0.6,1.3c0.2,0.7,0.3,1.6,0.5,2.7c0.1,1.1,0.2,2.3,0.2,3.6c0,1.3,0.1,2.6,0,3.9
			s-0.1,2.4-0.1,3.5c-0.1,1.1-0.2,1.9-0.3,2.6c-0.1,0.4-0.5,0.8-1.3,1.2s-1.8,0.7-3,0.9c-1.2,0.3-2.5,0.5-4,0.7s-3,0.3-4.5,0.4
			c-1.5,0.1-2.9,0.2-4.3,0.2c-1.4,0-2.6,0-3.5,0c-1.5-0.1-2.7-0.6-3.7-1.5s-1.8-2.1-2.4-3.5c-0.6-1.4-1.2-3.1-1.6-5
			c-0.4-1.9-0.8-3.8-1-5.9c-0.2-1.3-0.4-2.8-0.5-4.4c-0.1-1.6-0.2-3.2-0.1-4.8c0-1.6,0.1-3.2,0.3-4.7s0.4-2.9,0.7-4.1
			c0.3-1.2,0.7-2.3,1.2-3.2c0.5-0.9,1.2-1.5,1.9-1.8c0.8-0.3,1.8-0.6,3.1-0.7c1.3-0.2,2.7-0.3,4.3-0.4c1.6-0.1,3.2-0.1,4.8-0.1
			c1.7,0,3.2,0.1,4.6,0.2c1.4,0.1,2.7,0.3,3.7,0.5c1.1,0.2,1.8,0.4,2.2,0.7c0.6,0.4,1,1.2,1.2,2.2s0.4,2.1,0.4,3.3
			c0,1.1-0.1,2.2-0.3,3.2C228.3,25.4,228.1,26,227.8,26.2z"/>
		<path class="st0" d="M268.5,15.4c0,2.7,0,5.3-0.2,7.8c-0.2,2.5-0.3,4.8-0.4,7c-0.1,2.2-0.1,4.2,0,6.1c0.1,1.9,0.4,3.5,0.9,5
			c0.2,0.5,0.6,0.8,1.4,0.8c0.7,0,1.6,0,2.5-0.1c0.9-0.1,1.9-0.2,2.9-0.3s1.8,0,2.5,0.2c0.1,0.1,0.4,0.5,0.7,1.3
			c0.3,0.8,0.5,1.7,0.7,2.8s0.1,2.2-0.1,3.3s-0.7,2.1-1.5,2.8c-0.2,0.2-0.9,0.4-2.1,0.6c-1.2,0.2-2.6,0.4-4.2,0.6
			c-1.7,0.2-3.4,0.3-5.3,0.3c-1.9,0.1-3.6,0-5.3-0.1c-1.6-0.2-3-0.4-4.2-0.8c-1.2-0.4-1.8-1-1.9-1.7c-0.1-0.6-0.2-1.5-0.3-2.8
			s-0.2-2.9-0.3-4.7s-0.2-3.7-0.2-5.8c-0.1-2.1-0.1-4.2-0.1-6.3s0-4.1,0.1-6.1c0-2,0.1-3.7,0.2-5.3c0.1-1.5,0.2-2.8,0.3-3.8
			c0.1-1,0.3-1.5,0.5-1.6c0.3-0.1,0.8-0.2,1.6-0.3c0.8-0.1,1.6-0.2,2.6-0.3c1-0.1,2-0.1,3.1-0.1s2.1,0,3,0.1
			c0.9,0.1,1.6,0.2,2.2,0.5C268.2,14.7,268.5,15,268.5,15.4z"/>
		<path class="st0" d="M281.8,20.4c0.1-1.7,0.4-3,0.7-3.8c0.3-0.8,0.7-1.4,1.2-1.8c0.5-0.3,1.1-0.5,1.8-0.5s1.5,0,2.5,0
			c1.6,0,2.8,0,3.7,0.1c0.9,0,1.6,0.3,2.1,0.7c0.5,0.4,0.8,1.1,1,2c0.2,0.9,0.3,2.3,0.4,4.1c0,1.7,0.1,3.5,0.1,5.6s0.1,4.2,0.1,6.4
			s0,4.3,0,6.5s0,4.1,0,5.9c0,2.1,0,3.8-0.1,4.9c-0.1,1.1-0.4,1.9-0.8,2.4c-0.5,0.5-1.2,0.8-2.1,0.9c-0.9,0.1-2.3,0.2-4,0.2
			c-1.5,0.1-2.6,0-3.5-0.2s-1.6-0.6-2.1-1.1c-0.5-0.6-0.8-1.3-1-2.3s-0.3-2.2-0.4-3.8c-0.1-1.9-0.2-3.9-0.2-6.2c0-2.3,0-4.6,0.1-7
			s0.1-4.7,0.2-6.9C281.5,24.1,281.7,22.2,281.8,20.4z"/>
		<path class="st0" d="M300.7,15.2c0.5-0.3,1.3-0.6,2.3-0.7c1-0.2,2.1-0.2,3.2-0.2s2.1,0.1,3,0.4c0.9,0.2,1.6,0.5,1.9,0.9
			c0.2,0.3,0.4,0.9,0.4,1.9c0.1,0.9,0.1,1.9,0.2,2.9c0.1,1,0.2,1.9,0.4,2.6c0.2,0.8,0.5,1.1,1,1.1c0.4,0,0.7-0.2,0.9-0.6
			c0.2-0.4,0.4-0.9,0.6-1.6c0.2-0.6,0.3-1.3,0.3-2c0.1-0.7,0.1-1.4,0.2-2.1c0-0.6,0.1-1.2,0.1-1.7s0.1-0.7,0.1-0.8
			c0.1-0.2,0.5-0.4,1.2-0.6c0.6-0.2,1.4-0.3,2.3-0.4c0.9-0.1,1.8-0.2,2.7-0.2c1-0.1,1.9,0,2.7,0c0.8,0.1,1.5,0.2,2.1,0.3
			c0.6,0.2,0.9,0.4,0.9,0.7c0.3,2.5,0.5,4.7,0.5,6.7s-0.1,3.7-0.4,5.1c-0.2,1.4-0.6,2.6-1,3.6c-0.4,0.9-0.8,1.6-1.3,2
			c-0.9,0.8-1.6,1.3-2.2,1.7c-0.6,0.3-1,0.7-1.1,0.9c-0.2,0.3,0,0.6,0.4,1c0.4,0.4,1.2,1.1,2.3,1.9c1.5,1.2,2.5,2.9,3.1,5.4
			s0.6,5.5,0.1,9.2c0,0.2-0.3,0.4-0.7,0.5c-0.4,0.1-0.9,0.2-1.6,0.3c-0.6,0.1-1.3,0.1-2.1,0.2c-0.8,0-1.5,0-2.3,0s-1.5-0.1-2.2-0.1
			c-0.7-0.1-1.2-0.2-1.6-0.3c-0.6-0.2-1.1-0.6-1.2-1.4c-0.2-0.7-0.3-1.6-0.4-2.4c-0.1-0.9-0.3-1.7-0.5-2.5s-0.7-1.3-1.5-1.5
			c-0.5-0.1-0.9-0.1-1.1,0.1c-0.2,0.2-0.4,0.5-0.5,1s-0.1,1-0.1,1.6c0.1,0.6,0.1,1.2,0.2,1.8s0.1,1.2,0.1,1.7s-0.1,0.9-0.2,1.2
			s-0.5,0.6-1.1,0.7s-1.3,0.3-2.2,0.4c-0.8,0.1-1.8,0.1-2.7,0.1c-1,0-1.9-0.1-2.8-0.2c-0.9-0.1-1.6-0.3-2.3-0.5
			c-0.7-0.2-1.1-0.5-1.3-0.7c-0.2-0.2-0.3-0.9-0.4-2c-0.1-1.2-0.2-2.6-0.2-4.3c-0.1-1.7-0.1-3.7-0.1-5.8c0-2.2,0-4.4,0-6.6
			s0.1-4.4,0.2-6.6s0.2-4.1,0.4-5.8c0.1-1.7,0.3-3.2,0.5-4.3C300.2,16,300.4,15.3,300.7,15.2z"/>
		<path class="st0" d="M356.5,24.9c-0.3,0.2-0.8,0.4-1.4,0.5s-1.4,0.2-2.2,0.3c-0.8,0.1-1.7,0.1-2.5,0.2c-0.9,0-1.7,0.1-2.5,0.1
			s-1.4,0.1-2,0.1c-0.5,0-0.9,0.1-1,0.2c-0.2,0.1-0.3,0.4-0.4,0.8s-0.1,0.8-0.1,1.2s0,0.9,0.1,1.3s0.2,0.7,0.3,0.9
			c0.1,0.2,0.4,0.3,1,0.3s1.2,0,1.8,0c0.7,0,1.3,0,1.9,0s1,0.2,1.3,0.4c0.2,0.2,0.4,0.6,0.6,1.1s0.3,1.1,0.4,1.7
			c0.1,0.6,0.1,1.2,0.1,1.9c0,0.6-0.2,1.2-0.4,1.6c-0.1,0.3-0.5,0.5-1.1,0.6c-0.6,0.1-1.2,0.2-2,0.3c-0.7,0.1-1.5,0.2-2.2,0.4
			c-0.7,0.2-1.3,0.5-1.8,1c-0.1,0.1-0.2,0.3-0.2,0.6c0,0.3,0,0.6,0,0.9s0.1,0.6,0.2,1c0.1,0.4,0.1,0.6,0.2,0.9
			c0,0.3,0.3,0.5,0.9,0.6c0.6,0.1,1.3,0.2,2.1,0.2c0.8,0,1.7,0,2.7-0.1c1-0.1,1.9-0.1,2.8-0.1s1.7,0,2.5,0.1
			c0.7,0.1,1.2,0.2,1.5,0.4c0.3,0.2,0.5,0.7,0.7,1.6c0.2,0.8,0.2,1.7,0.3,2.7s0,1.9-0.1,2.8s-0.2,1.5-0.3,1.7
			c-0.1,0.1-0.5,0.3-1.2,0.4c-0.8,0.1-1.7,0.2-2.9,0.4c-1.2,0.1-2.6,0.2-4.1,0.3s-3.1,0.1-4.7,0.2c-1.6,0.1-3.2,0.1-4.7,0.1
			c-1.6,0-3-0.1-4.2-0.2c-1.3-0.1-2.3-0.2-3.2-0.4c-0.9-0.2-1.4-0.4-1.6-0.6c-0.4-0.5-0.8-1.5-1-2.9c-0.2-1.5-0.3-3.2-0.4-5.3
			s-0.1-4.4,0-6.9s0.2-5.2,0.3-7.8c0.1-2.7,0.2-5,0.3-6.9c0.1-1.9,0.3-3.5,0.7-4.7c0.4-1.2,1-2.1,1.9-2.7c0.9-0.6,2.2-0.9,4-1
			c1.5-0.1,3.2-0.1,5.1-0.2c1.9-0.1,3.7-0.1,5.6-0.1c1.8,0,3.6,0.1,5.2,0.3c1.6,0.2,2.9,0.4,3.8,0.8c0.5,0.2,0.8,0.8,1,1.7
			c0.2,0.9,0.2,1.9,0.2,2.9c-0.1,1.1-0.2,2.1-0.4,3C356.9,23.9,356.7,24.6,356.5,24.9z"/>
		<path class="st0" d="M18.6,62.6c0.3-0.5,1.1-0.9,2.3-1.3c1.2-0.4,2.7-0.7,4.4-0.9c1.7-0.2,3.5-0.4,5.4-0.5
			c1.9-0.1,3.8-0.2,5.5-0.2c1.8,0,3.3,0,4.7,0.1c1.4,0.1,2.3,0.1,2.9,0.2c0.6,0.1,1.3,0.9,2,2.3c0.7,1.4,1.4,3.2,2.1,5.5
			c0.7,2.2,1.3,4.8,2,7.6c0.6,2.8,1.2,5.8,1.8,8.8c0.5,3,1,6,1.4,8.9s0.7,5.6,0.9,8s0.3,4.4,0.3,6s-0.2,2.6-0.6,3.1
			c-0.2,0.2-0.9,0.5-2,0.7s-2.4,0.4-3.7,0.6c-1.4,0.1-2.7,0.3-4.1,0.3c-1.3,0.1-2.3,0.1-3,0c-0.7,0-1.3-0.4-1.7-1.2
			c-0.5-0.7-0.9-1.6-1.2-2.6c-0.4-1-0.6-1.9-0.8-2.8s-0.4-1.5-0.4-1.9c-0.1-0.3-0.4-0.5-0.8-0.7c-0.4-0.2-0.9-0.3-1.5-0.3
			c-0.5,0-1,0.1-1.5,0.4s-0.7,0.7-0.8,1.4c-0.1,0.7-0.2,1.4-0.2,2.2c0,0.8-0.1,1.5-0.2,2.3c-0.1,0.7-0.2,1.3-0.4,1.9
			c-0.2,0.6-0.5,0.9-0.8,1.1c-0.5,0.3-1.5,0.6-3,0.9s-3,0.5-4.6,0.6s-3.1,0-4.5-0.1s-2.2-0.6-2.6-1.2c-0.5-0.9-0.8-2.6-1-5.2
			c-0.2-2.5-0.3-5.5-0.3-8.8s0.2-6.9,0.4-10.6c0.2-3.7,0.5-7.3,0.9-10.6s0.8-6.3,1.3-8.8C17.5,65.2,18.1,63.5,18.6,62.6z M29.4,89.8
			c0,0.8,0.5,1.4,1.4,1.7c0.9,0.3,1.8,0.5,2.9,0.4c1-0.1,2-0.4,2.8-0.8c0.9-0.5,1.3-1.1,1.3-1.9c0-1.2-0.1-2.2-0.2-3.2
			c-0.1-1-0.2-2-0.3-2.9c-0.1-0.9-0.3-1.9-0.5-3s-0.4-2.3-0.6-3.7c-0.1-0.8-0.6-1.4-1.3-1.8s-1.4-0.5-2.2-0.4
			c-0.8,0.1-1.5,0.3-2.1,0.7s-1,1-1,1.7c-0.1,1.1-0.1,2.4-0.1,3.8s-0.1,2.8-0.1,4c0,1.3,0,2.4,0,3.4C29.3,88.9,29.3,89.5,29.4,89.8z
			"/>
		<path class="st0" d="M83.2,63.8c0.4-0.5,1.3-0.9,2.4-1.4c1.2-0.5,2.5-0.9,4.1-1.3c1.6-0.4,3.3-0.8,5.2-1.1
			c1.9-0.3,3.8-0.5,5.7-0.6c1.9-0.1,3.7-0.1,5.5,0.1c1.7,0.1,3.3,0.5,4.7,1c2.2,0.8,3.8,2.2,4.9,4.3c1.1,2.1,1.9,4.4,2.2,6.9
			c0.4,2.8,0.4,5.1-0.1,7c-0.5,1.9-1,3.4-1.8,4.5c-0.7,1.1-1.4,2-2,2.5s-1,0.8-1,0.8c0.1,0.5,0.5,0.8,1.2,1.1
			c0.7,0.2,1.4,0.6,2.3,1.3c0.8,0.6,1.6,1.7,2.4,3c0.7,1.4,1.2,3.5,1.5,6.3c0.2,1.4,0.2,2.8,0.2,4c0,1.3-0.2,2.4-0.5,3.4
			s-0.7,1.9-1.3,2.7c-0.6,0.7-1.4,1.3-2.5,1.7c-1.2,0.5-2.6,0.8-4.2,1.1c-1.6,0.3-3.3,0.6-5.1,0.8c-1.8,0.2-3.7,0.5-5.6,0.7
			s-3.9,0.4-5.8,0.6c-2.4,0.3-4.2,0.1-5.5-0.6c-1.3-0.6-2.2-1.6-2.9-3c-0.6-1.4-1.1-3-1.4-5s-0.6-4.2-0.9-6.7
			c-0.3-2.1-0.6-4.4-0.8-6.8c-0.3-2.4-0.5-4.8-0.8-7.3c-0.2-2.4-0.4-4.8-0.6-7.1s-0.3-4.3-0.3-6.1c0-1.8,0-3.3,0.1-4.5
			C82.7,64.8,82.9,64.1,83.2,63.8z M99.1,72.3c0,0.1,0,0.5,0,1s0,1.1,0,1.8c0,0.7,0.1,1.4,0.2,2.1s0.3,1.4,0.4,1.9
			c0.1,0.4,0.4,0.6,0.8,0.8c0.4,0.2,0.8,0.2,1.3,0.2c0.5-0.1,0.9-0.2,1.4-0.4c0.4-0.2,0.7-0.6,0.9-1c0.6-1.3,0.9-2.4,0.9-3.6
			c-0.1-1.1-0.6-2.1-1.7-3c-0.4-0.3-0.9-0.6-1.4-0.7c-0.5-0.2-1-0.2-1.5-0.2s-0.8,0.1-1.1,0.3C99.2,71.6,99.1,71.9,99.1,72.3z
			 M102.2,100.2c0,0.4,0.2,0.7,0.5,0.8c0.3,0.1,0.7,0.2,1.1,0.1s0.9-0.3,1.4-0.5c0.5-0.3,0.9-0.6,1.2-1c0.8-1.1,1.2-2.2,1-3.3
			c-0.2-1.1-0.7-2.2-1.6-3.3c-0.3-0.4-0.6-0.6-1.1-0.8c-0.5-0.2-1-0.2-1.4-0.1c-0.5,0.1-0.9,0.2-1.2,0.4c-0.4,0.2-0.6,0.6-0.6,0.9
			c-0.1,0.6-0.1,1.2,0,1.9c0.1,0.7,0.1,1.4,0.3,2.1c0.1,0.7,0.2,1.3,0.4,1.8C102.1,99.8,102.2,100.1,102.2,100.2z"/>
		<path class="st0" d="M125.3,61.9c0.3-0.4,0.7-0.7,1.1-0.9s0.9-0.4,1.5-0.5c0.6-0.1,1.4-0.2,2.3-0.2c0.9,0,2.1-0.1,3.4-0.1
			c1.6,0,2.9,0,3.9,0.2s1.7,0.5,2.2,1s0.9,1.1,1.1,1.9s0.3,1.8,0.4,2.9c0.1,1.6,0.2,3.3,0.3,5.1c0.1,1.9,0.1,3.7,0.1,5.6
			c0,1.9,0,3.7,0,5.5s0,3.4-0.1,4.8c0,1.4,0,2.7,0,3.7s0.1,1.7,0.2,2.1c0.2,0.9,0.6,1.6,1.1,1.8c0.5,0.3,1,0.3,1.5,0.2
			c0.5-0.1,1-0.4,1.5-0.9s0.7-1,0.9-1.5c0.1-0.4,0.2-1.2,0.2-2.4c0.1-1.2,0.1-2.6,0.2-4.2c0-1.6,0.1-3.4,0.1-5.3s0-3.9,0-5.8
			c0-1.9,0-3.8,0-5.6c0-1.8,0.1-3.4,0.1-4.8c0-1,0.3-1.8,0.9-2.4c0.6-0.6,1.3-1,2.2-1.2s2-0.4,3.2-0.4s2.4-0.1,3.6-0.1
			c2.3,0,4,0.1,5.1,0.4s1.8,1.1,1.9,2.4c0.1,3.4,0.3,7,0.4,10.8c0.2,3.8,0.1,7.5-0.1,11.2c-0.2,3.7-0.7,7.2-1.5,10.6
			c-0.8,3.3-2,6.3-3.7,8.8s-3.9,4.5-6.7,6s-6.3,2.2-10.5,2.1c-3.2,0-5.9-0.8-8.2-2.1c-2.2-1.4-4.1-3.2-5.6-5.4
			c-1.5-2.2-2.7-4.8-3.5-7.7c-0.8-2.9-1.4-5.8-1.8-8.9c-0.4-3-0.5-6-0.5-9s0.2-5.7,0.5-8.2s0.6-4.5,1.1-6.2
			C124.5,63.4,124.9,62.3,125.3,61.9z"/>
		<path class="st0" d="M183.8,101c-0.1,0.4-0.1,1-0.1,1.8s0.1,1.6,0.1,2.4s-0.1,1.6-0.3,2.3c-0.2,0.7-0.5,1.1-1,1.3
			c-0.5,0.2-1.4,0.3-2.5,0.4c-1.2,0.1-2.4,0.1-3.7,0.1s-2.5-0.1-3.5-0.3c-1.1-0.1-1.8-0.4-2.1-0.8c-0.2-0.2-0.4-1.3-0.5-3.1
			c-0.1-1.9-0.3-4.2-0.4-7c-0.1-2.8-0.2-5.9-0.2-9.3c-0.1-3.4-0.1-6.7-0.1-10c0-3.3,0-6.3,0.1-9.1c0.1-2.8,0.2-4.9,0.3-6.5
			c0.1-0.8,0.7-1.5,1.8-2s2.5-0.9,4.2-1.1c1.7-0.3,3.5-0.4,5.5-0.4s4,0,5.9,0.1s3.6,0.3,5.2,0.4c1.5,0.2,2.7,0.4,3.4,0.6
			c1.8,0.5,3.2,1.3,4.4,2.4c1.1,1.1,2,2.3,2.6,3.8s1.1,3.1,1.3,4.9c0.2,1.8,0.3,3.8,0.3,5.8s-0.1,3.9,0,5.5c0,1.6,0,3.1-0.1,4.4
			s-0.3,2.4-0.5,3.4s-0.6,1.9-1.2,2.7c-0.6,0.8-1,1.3-1.4,1.8c-0.4,0.4-0.7,0.7-1,0.9c-0.3,0.2-0.4,0.4-0.5,0.5s-0.1,0.4-0.1,0.7
			c0,0.2,0.2,0.6,0.6,1.1c0.4,0.6,0.9,1.2,1.4,1.9c0.6,0.7,1.1,1.5,1.7,2.3c0.6,0.8,1.1,1.6,1.6,2.4c0.4,0.7,0.8,1.4,0.9,2
			c0.2,0.6,0.1,1-0.2,1.2c-0.5,0.3-1.4,0.6-2.8,0.8c-1.4,0.2-2.9,0.3-4.5,0.3s-3.1-0.1-4.5-0.2s-2.4-0.3-3-0.5
			c-0.1,0-0.4-0.3-0.7-0.9s-0.7-1.2-1.2-2s-0.9-1.5-1.4-2.4c-0.5-0.8-1-1.5-1.5-2.1s-0.9-0.9-1.3-1.1
			C184.3,100.3,184,100.5,183.8,101z M183,87.8c0,0.9,0.4,1.6,1.2,2s1.7,0.6,2.6,0.6c1,0,1.9-0.3,2.7-0.8s1.3-1.1,1.4-2
			c0.1-1.2,0.2-2.4,0.4-3.4c0.1-1.1,0.2-2.1,0.2-3.2s0-2.3-0.1-3.5s-0.2-2.6-0.3-4.2c-0.1-0.9-0.5-1.6-1.3-2.1
			c-0.8-0.4-1.7-0.7-2.6-0.7c-1,0-1.8,0.2-2.7,0.7c-0.8,0.4-1.3,1.1-1.4,1.9c-0.1,1.3-0.2,2.7-0.2,4.3s0,3.1,0,4.6
			c0,1.4,0.1,2.7,0.1,3.8C183,86.8,183,87.5,183,87.8z"/>
		<path class="st0" d="M224.1,103.8c-0.1,0.4-0.1,1,0,1.9c0.1,0.8,0.1,1.7,0.1,2.6s0,1.7-0.2,2.4c-0.2,0.7-0.5,1.2-1,1.4
			c-0.5,0.2-1.4,0.4-2.7,0.5s-2.6,0.2-3.9,0.2c-1.4,0-2.6,0-3.8-0.2c-1.2-0.1-1.9-0.4-2.2-0.8c-0.2-0.2-0.5-1.3-0.7-3.3
			s-0.4-4.5-0.6-7.5c-0.2-3-0.3-6.3-0.5-9.9s-0.3-7.2-0.4-10.6c-0.1-3.5-0.1-6.7-0.2-9.7c0-3,0-5.3,0.1-6.9c0.1-0.9,0.7-1.6,1.8-2.2
			c1.2-0.6,2.6-1,4.4-1.3c1.8-0.3,3.7-0.5,5.9-0.6c2.1-0.1,4.2-0.1,6.2-0.1c2,0.1,3.8,0.2,5.5,0.3c1.7,0.2,2.9,0.3,3.6,0.5
			c1.9,0.5,3.5,1.3,4.7,2.4c1.2,1.1,2.2,2.4,2.9,4c0.7,1.5,1.2,3.3,1.5,5.2s0.4,4,0.4,6.2s0.1,4.1,0.1,5.8c0.1,1.7,0.1,3.3,0,4.6
			c-0.1,1.4-0.2,2.6-0.4,3.7s-0.6,2-1.2,2.9c-0.6,0.8-1,1.5-1.4,1.9s-0.7,0.8-1,1s-0.4,0.4-0.5,0.6s-0.1,0.4,0,0.7
			c0,0.2,0.2,0.6,0.7,1.2c0.4,0.6,1,1.2,1.6,2s1.2,1.6,1.9,2.4c0.7,0.9,1.2,1.7,1.7,2.5s0.8,1.5,1,2.1s0.1,1-0.2,1.3
			c-0.5,0.4-1.5,0.7-3,0.9c-1.5,0.2-3.1,0.4-4.8,0.4s-3.3,0-4.8,0c-1.5-0.1-2.6-0.2-3.2-0.4c-0.1,0-0.4-0.4-0.8-0.9
			c-0.4-0.6-0.8-1.3-1.3-2.1c-0.5-0.8-1-1.6-1.6-2.5c-0.5-0.8-1.1-1.6-1.6-2.2s-1-1-1.5-1.1C224.6,103,224.3,103.2,224.1,103.8z
			 M222.8,89.7c0,0.9,0.5,1.6,1.3,2.1s1.8,0.6,2.8,0.6c1-0.1,2-0.4,2.9-0.9s1.4-1.3,1.4-2.2c0.1-1.3,0.2-2.5,0.3-3.7
			c0.1-1.1,0.1-2.3,0.1-3.5s-0.1-2.4-0.2-3.7c-0.1-1.3-0.2-2.8-0.4-4.5c-0.1-1-0.6-1.7-1.5-2.2s-1.8-0.7-2.8-0.6c-1,0-2,0.3-2.8,0.8
			c-0.9,0.5-1.3,1.2-1.4,2c-0.1,1.4-0.1,2.9-0.1,4.6s0.1,3.3,0.2,4.8c0.1,1.5,0.2,2.9,0.2,4.1S222.8,89.4,222.8,89.7z"/>
		<path class="st0" d="M251.1,68.6c0.1-2.3,0.3-4,0.7-5.1s0.9-2,1.5-2.4c0.7-0.5,1.5-0.7,2.4-0.8c0.9-0.1,2.1-0.1,3.3-0.1
			c2.1-0.1,3.7-0.1,4.9-0.1c1.2,0,2.2,0.3,2.8,0.8c0.7,0.5,1.1,1.4,1.4,2.6c0.3,1.2,0.5,3,0.7,5.4c0.1,2.2,0.3,4.7,0.4,7.4
			c0.1,2.8,0.3,5.6,0.4,8.5s0.2,5.8,0.3,8.6c0.1,2.8,0.2,5.5,0.3,7.9c0.1,2.8,0.1,5,0.1,6.5c-0.1,1.5-0.4,2.6-1,3.3
			c-0.6,0.7-1.5,1.1-2.8,1.3c-1.3,0.2-3,0.3-5.3,0.5c-1.9,0.2-3.5,0.1-4.7-0.1c-1.2-0.2-2.1-0.7-2.8-1.4c-0.7-0.7-1.2-1.7-1.5-3
			s-0.6-3-0.7-5c-0.2-2.5-0.4-5.2-0.5-8.3c-0.1-3-0.2-6.2-0.2-9.3c0-3.2-0.1-6.2,0-9.2C250.9,73.6,251,70.9,251.1,68.6z"/>
		<path class="st0" d="M275.5,60.8c0.4-0.2,1.5-0.3,3.3-0.4c1.8-0.1,3.8-0.2,6.2-0.2c2.4,0,5-0.1,7.7-0.1s5.3,0,7.7,0.1
			c2.4,0.1,4.4,0.2,6.1,0.3s2.7,0.3,3,0.4c0.3,0.2,0.6,0.6,0.8,1.3c0.2,0.7,0.4,1.5,0.5,2.4s0.2,2,0.2,3c0,1.1,0,2.1-0.1,3.2
			c0,1-0.1,1.9-0.2,2.7c-0.1,0.8-0.2,1.3-0.4,1.6c-0.2,0.5-0.7,0.8-1.7,0.9c-0.9,0.1-2,0.2-3.1,0.2s-2.2,0-3.3-0.1
			c-1.1,0-1.8,0-2.3,0.1c-0.2,0.1-0.4,0.6-0.4,1.7c-0.1,1-0.1,2.3,0,4c0,1.6,0.1,3.5,0.2,5.6s0.2,4.2,0.4,6.4s0.3,4.3,0.4,6.4
			s0.2,4,0.3,5.7c0,1.7,0,3.1,0,4.2s-0.2,1.7-0.3,1.9c-0.4,0.4-1.3,0.6-2.7,0.7c-1.4,0.1-3,0.1-4.8,0.1s-3.6-0.1-5.5-0.2
			c-1.8-0.1-3.3-0.3-4.4-0.4c-0.8-0.1-1.3-1-1.6-2.7s-0.5-3.8-0.5-6.4s0.1-5.3,0.3-8.3c0.2-3,0.4-5.7,0.6-8.3
			c0.2-2.6,0.4-4.8,0.5-6.6c0.1-1.8,0.2-2.8,0.1-3.1c-0.1-0.4-0.6-0.7-1.4-0.7c-0.8-0.1-1.6-0.2-2.5-0.2s-1.8-0.1-2.6-0.2
			c-0.8-0.1-1.4-0.3-1.7-0.6c-0.2-0.2-0.4-0.7-0.4-1.5c-0.1-0.8-0.1-1.7-0.1-2.7s0.1-2.1,0.2-3.3c0.1-1.2,0.3-2.2,0.4-3.2
			c0.2-1,0.4-1.8,0.6-2.5C275.1,61.3,275.3,60.9,275.5,60.8z"/>
		<path class="st0" d="M338,60.2c3.5,0.4,6.4,0.9,8.8,1.6c2.4,0.7,4.4,1.7,6,2.8c1.6,1.2,2.8,2.6,3.6,4.3c0.8,1.7,1.4,3.7,1.8,6.1
			c0.4,2.3,0.5,5,0.5,8s-0.1,6.4-0.3,10.2c-0.2,4.8-0.8,8.6-1.6,11.5c-0.8,2.9-2.1,5.2-3.8,6.8c-1.7,1.6-4,2.7-6.8,3.2
			s-6.3,0.7-10.4,0.5c-4.1-0.1-7.7-0.5-10.7-1.3c-3-0.7-5.5-2-7.4-3.8s-3.4-4.3-4.3-7.4s-1.4-7.1-1.5-11.9c0-5.4,0.4-10.1,1.2-14.2
			c0.8-4.1,2.2-7.4,4.3-10c2-2.6,4.7-4.5,8.1-5.6C328.8,60,333,59.7,338,60.2z M330.9,97.9c-0.1,1.1,0.4,2,1.4,2.6s2.1,0.8,3.3,0.8
			c1.2,0,2.4-0.3,3.5-0.9s1.7-1.4,1.8-2.6c0.2-1.6,0.4-3,0.5-4.4s0.2-2.7,0.3-4.1c0-1.4,0.1-2.8,0-4.4c0-1.6-0.1-3.3-0.2-5.3
			c-0.1-1.2-0.6-2.1-1.6-2.6c-1-0.6-2.1-0.9-3.4-0.9c-1.2,0-2.4,0.2-3.4,0.8c-1,0.5-1.6,1.3-1.8,2.3c-0.2,1.6-0.3,3.4-0.4,5.4
			s-0.1,3.9-0.1,5.8c0,1.8,0,3.5,0,4.9C330.9,96.6,330.9,97.5,330.9,97.9z"/>
	</g>
</g>
</svg>
