<?xml version="1.0" encoding="utf-8"?>
<!-- Generator: Adobe Illustrator 27.5.0, SVG Export Plug-In . SVG Version: 6.00 Build 0)  -->
<svg version="1.1" id="Capa_1" xmlns="http://www.w3.org/2000/svg" xmlns:xlink="http://www.w3.org/1999/xlink" x="0px"
	 y="0px"
	 viewBox="0 0 471.5 25.9" style="enable-background:new 0 0 471.5 25.9;" xml:space="preserve">
<style type="text/css">
</style>
	<path class="st0" d="M14.9,6.9c-0.2,0.2-0.6,0.3-0.9,0.3c-0.4,0-0.8,0-1.2-0.1c-0.4-0.1-0.8-0.1-1.3-0.2c-0.4-0.1-0.8-0.1-1.2,0
	c-0.4,0-0.7,0.2-1,0.4C9,7.4,8.8,7.8,8.7,8.3c-0.2,0.5-0.1,1,0.2,1.4c0.3,0.4,0.7,0.7,1.2,1.1c0.5,0.3,1.1,0.7,1.8,1
	c0.7,0.4,1.3,0.8,1.9,1.3c0.6,0.5,1.1,1.1,1.5,1.9c0.4,0.7,0.6,1.7,0.7,2.8c0,1.2-0.3,2.3-1,3.3c-0.7,0.9-1.7,1.6-2.9,2.1
	s-2.8,0.8-4.7,0.8c-1.8,0-3.9-0.2-6.1-0.7c-0.5-0.1-0.8-0.4-1-1C0.1,21.7,0,21.2,0,20.5c0-0.6,0.1-1.3,0.3-1.8c0.2-0.6,0.5-1,1-1.2
	c0.3-0.1,0.6-0.2,0.9-0.2c0.4,0,0.7,0,1.1,0.1c0.4,0,0.8,0,1.2,0c0.4,0,0.8-0.2,1.2-0.5c0.3-0.2,0.4-0.4,0.5-0.7
	c0.1-0.3,0.1-0.5,0.1-0.8c0-0.3-0.1-0.5-0.3-0.7c-0.1-0.2-0.3-0.4-0.5-0.5c-0.8-0.5-1.6-0.9-2.2-1.4c-0.6-0.4-1.2-0.9-1.6-1.3
	C1.4,11,1,10.5,0.7,10C0.5,9.5,0.3,9,0.2,8.4C-0.1,7,0,5.8,0.5,4.8C1,3.9,1.7,3.1,2.6,2.6c0.9-0.6,2-0.9,3.1-1.1
	c1.2-0.2,2.4-0.2,3.5-0.1c1.2,0.1,2.3,0.3,3.3,0.7c1,0.4,1.8,0.8,2.3,1.3c0.4,0.4,0.6,1,0.6,1.6C15.5,5.6,15.3,6.3,14.9,6.9z"/>
	<path class="st0" d="M18.1,6c0.1-0.9,0.2-1.7,0.4-2.1s0.4-0.8,0.7-1c0.3-0.2,0.6-0.3,1-0.3c0.4,0,0.9,0,1.4,0c0.9,0,1.6,0,2.1,0
	c0.5,0,0.9,0.1,1.2,0.4c0.3,0.2,0.5,0.6,0.6,1.1c0.1,0.5,0.2,1.3,0.2,2.3c0,0.9,0,2,0.1,3.1c0,1.2,0,2.3,0,3.5c0,1.2,0,2.4,0,3.6
	s0,2.3,0,3.3c0,1.2,0,2.1-0.1,2.7c0,0.6-0.2,1.1-0.5,1.4c-0.3,0.3-0.6,0.5-1.2,0.5s-1.3,0.1-2.2,0.1c-0.8,0-1.5,0-2-0.1
	s-0.9-0.3-1.1-0.6c-0.3-0.3-0.5-0.7-0.6-1.3c-0.1-0.5-0.2-1.2-0.2-2.1c-0.1-1-0.1-2.2-0.1-3.5s0-2.6,0-3.9s0.1-2.6,0.1-3.9
	C18,8.1,18,7,18.1,6z"/>
	<path class="st0" d="M38.8,10.1c0.2,0,0.3-0.2,0.6-0.6c0.2-0.4,0.5-0.9,0.7-1.4c0.3-0.6,0.5-1.2,0.8-1.9c0.3-0.7,0.6-1.3,0.8-1.9
	c0.3-0.6,0.5-1.1,0.8-1.5c0.2-0.4,0.5-0.7,0.7-0.7c0.3-0.1,0.7-0.2,1.3-0.2c0.6-0.1,1.2-0.1,1.8-0.1c0.6,0,1.2,0.1,1.7,0.2
	c0.5,0.1,0.9,0.3,1.2,0.6c0.1,0.2,0.2,0.5,0.3,1.2c0.1,0.6,0.2,1.4,0.2,2.3c0.1,0.9,0.1,2,0.2,3.1c0,1.2,0.1,2.3,0.1,3.5
	c0,1.2,0,2.4,0,3.5c0,1.1,0,2.2-0.1,3.1c0,0.9-0.1,1.7-0.2,2.3c-0.1,0.6-0.1,1-0.2,1.1c-0.2,0.2-0.6,0.4-1.1,0.5
	c-0.5,0.1-1.1,0.2-1.8,0.2s-1.2,0-1.8-0.1c-0.5-0.1-0.9-0.2-1.1-0.3c-0.1-0.1-0.2-0.4-0.2-0.9c0-0.5,0-1.1,0-1.8
	c0-0.7,0.1-1.4,0.1-2.2c0-0.8,0.1-1.5,0.1-2.2s0-1.2-0.1-1.7c0-0.4-0.2-0.7-0.3-0.7c-0.2,0-0.3,0.1-0.5,0.4
	c-0.2,0.3-0.3,0.7-0.5,1.2c-0.2,0.5-0.3,1-0.5,1.6c-0.2,0.6-0.3,1.1-0.5,1.6c-0.2,0.5-0.3,1-0.5,1.4c-0.2,0.4-0.3,0.6-0.5,0.7
	c-0.5,0.3-1,0.4-1.6,0.4s-1.1-0.1-1.6-0.4c-0.2-0.1-0.3-0.3-0.5-0.7c-0.2-0.4-0.3-0.8-0.5-1.4c-0.2-0.5-0.3-1.1-0.5-1.6
	c-0.2-0.6-0.3-1.1-0.5-1.6c-0.2-0.5-0.3-0.9-0.5-1.2c-0.2-0.3-0.3-0.4-0.5-0.4c-0.2,0-0.3,0.3-0.3,0.7c0,0.4-0.1,1-0.1,1.7
	c0,0.7,0,1.4,0.1,2.2c0,0.8,0.1,1.5,0.1,2.2c0,0.7,0,1.3,0,1.8c0,0.5-0.1,0.8-0.2,0.9c-0.2,0.2-0.6,0.3-1.1,0.3
	c-0.5,0.1-1.1,0.1-1.8,0.1s-1.2-0.1-1.8-0.2c-0.5-0.1-0.9-0.3-1.1-0.5c-0.1-0.1-0.2-0.5-0.2-1.1c-0.1-0.6-0.1-1.4-0.2-2.3
	c0-0.9-0.1-2-0.1-3.1c0-1.1,0-2.3,0-3.5c0-1.2,0-2.4,0.1-3.5c0-1.2,0.1-2.2,0.2-3.1s0.1-1.7,0.2-2.3c0.1-0.6,0.2-1,0.3-1.2
	c0.2-0.3,0.6-0.5,1.2-0.6c0.5-0.1,1.1-0.2,1.7-0.2c0.6,0,1.2,0,1.8,0.1c0.6,0.1,1,0.1,1.3,0.2c0.2,0.1,0.4,0.3,0.7,0.7
	s0.5,0.9,0.8,1.5c0.3,0.6,0.6,1.2,0.8,1.9c0.3,0.7,0.6,1.3,0.8,1.9c0.3,0.6,0.5,1.1,0.7,1.4S38.7,10.1,38.8,10.1z"/>
	<path class="st0" d="M58.8,19.8c-0.1,0.2-0.1,0.4-0.1,0.8c0,0.4,0,0.7,0,1.1s0,0.7-0.1,1c-0.1,0.3-0.2,0.5-0.5,0.6
	c-0.1,0-0.2,0.1-0.3,0.1c-0.1,0-0.2,0.1-0.4,0.1s-0.4,0-0.7,0c-0.3,0-0.7,0-1.2,0c-0.8,0-1.5-0.1-2-0.1c-0.6-0.1-0.9-0.2-1-0.3
	c-0.1-0.1-0.1-0.4-0.2-0.8c-0.1-0.5-0.1-1.1-0.1-1.9c0-0.8-0.1-1.7-0.1-2.7s0-2-0.1-3.1c0-1.1,0-2.2,0-3.3c0-1.1,0-2.2,0-3.2
	c0-1,0-1.9,0.1-2.7s0.1-1.5,0.1-2c0-0.4,0.3-0.8,0.8-1c0.5-0.3,1.1-0.4,1.8-0.6c0.7-0.1,1.6-0.2,2.4-0.2c0.9,0,1.7,0,2.6,0.1
	c0.8,0,1.6,0.1,2.2,0.2c0.7,0.1,1.2,0.2,1.5,0.3c0.8,0.2,1.5,0.6,2,1c0.5,0.5,1,1,1.3,1.6c0.3,0.6,0.5,1.3,0.7,2.1
	c0.1,0.8,0.2,1.6,0.2,2.6c0,0.9,0,1.7,0,2.4c0,0.7,0,1.4-0.1,1.9c0,0.6-0.1,1.1-0.2,1.5c-0.1,0.4-0.3,0.8-0.5,1.2
	c-0.3,0.4-0.7,0.8-1.2,1s-1,0.5-1.6,0.7s-1.1,0.3-1.7,0.4c-0.6,0.1-1.1,0.2-1.6,0.3c-0.5,0.1-0.9,0.2-1.3,0.4
	C59.1,19.5,58.9,19.6,58.8,19.8z M58.4,13.1c0,0.3,0.2,0.6,0.5,0.8c0.4,0.2,0.7,0.2,1.2,0.2c0.4,0,0.8-0.1,1.2-0.3
	c0.4-0.2,0.6-0.4,0.6-0.8c0.1-0.5,0.1-0.9,0.1-1.3s0.1-0.8,0.1-1.2c0-0.4,0-0.8,0-1.3c0-0.5-0.1-1-0.1-1.6c0-0.3-0.2-0.6-0.6-0.8
	s-0.8-0.3-1.2-0.2c-0.4,0-0.8,0.1-1.2,0.3c-0.4,0.2-0.6,0.4-0.6,0.7c-0.1,0.5-0.1,1-0.1,1.6c0,0.6,0,1.1,0,1.7c0,0.5,0,1,0,1.4
	C58.4,12.7,58.4,13,58.4,13.1z"/>
	<path class="st0" d="M77.7,2.2c0,1.5,0,3-0.1,4.3c-0.1,1.4-0.2,2.7-0.2,3.9s-0.1,2.4,0,3.4c0,1,0.2,2,0.5,2.8
	c0.1,0.3,0.4,0.4,0.8,0.5c0.4,0,0.9,0,1.4-0.1c0.5-0.1,1.1-0.1,1.6-0.2c0.6-0.1,1,0,1.4,0.1c0.1,0,0.2,0.3,0.4,0.7
	c0.2,0.4,0.3,1,0.4,1.6c0.1,0.6,0.1,1.2,0,1.9c-0.1,0.6-0.4,1.2-0.8,1.5c-0.1,0.1-0.5,0.2-1.2,0.4c-0.7,0.1-1.4,0.2-2.4,0.3
	c-0.9,0.1-1.9,0.1-3,0.2s-2,0-2.9-0.1c-0.9-0.1-1.7-0.2-2.3-0.5c-0.6-0.2-1-0.5-1.1-1c-0.1-0.3-0.1-0.9-0.2-1.6
	c-0.1-0.7-0.1-1.6-0.2-2.6c0-1-0.1-2.1-0.1-3.3s0-2.3,0-3.5c0-1.2,0-2.3,0-3.4c0-1.1,0-2.1,0.1-2.9c0-0.9,0.1-1.6,0.2-2.1
	s0.2-0.8,0.3-0.9c0.2-0.1,0.4-0.1,0.9-0.2c0.4-0.1,0.9-0.1,1.5-0.2c0.6,0,1.1-0.1,1.7-0.1s1.2,0,1.7,0.1c0.5,0,0.9,0.1,1.2,0.3
	C77.5,1.8,77.7,2,77.7,2.2z"/>
	<path class="st0" d="M86.2,5c0.1-0.9,0.2-1.7,0.4-2.1s0.4-0.8,0.7-1c0.3-0.2,0.6-0.3,1-0.3c0.4,0,0.9,0,1.4,0c0.9,0,1.6,0,2.1,0
	c0.5,0,0.9,0.1,1.2,0.4c0.3,0.2,0.5,0.6,0.6,1.1c0.1,0.5,0.2,1.3,0.2,2.3c0,0.9,0,2,0.1,3.1c0,1.2,0,2.3,0,3.5c0,1.2,0,2.4,0,3.6
	s0,2.3,0,3.3c0,1.2,0,2.1-0.1,2.7c0,0.6-0.2,1.1-0.5,1.4c-0.3,0.3-0.6,0.5-1.2,0.5s-1.3,0.1-2.2,0.1c-0.8,0-1.5,0-2-0.1
	S87,23.3,86.8,23c-0.3-0.3-0.5-0.7-0.6-1.3c-0.1-0.5-0.2-1.2-0.2-2.1c-0.1-1-0.1-2.2-0.1-3.5s0-2.6,0-3.9s0.1-2.6,0.1-3.9
	C86.1,7.1,86.2,6,86.2,5z"/>
	<path class="st0" d="M97,2.2c0.2-0.1,0.6-0.2,1.2-0.3c0.6-0.1,1.3-0.1,2-0.2c0.8,0,1.6-0.1,2.4-0.1c0.9,0,1.7,0,2.4,0
	c0.8,0,1.4,0,2,0.1c0.6,0,0.9,0.1,1.1,0.1c0.2,0,0.3,0.2,0.4,0.4c0.1,0.2,0.2,0.5,0.3,0.9c0.1,0.4,0.1,0.7,0.1,1.1
	c0,0.4,0,0.8,0,1.2c0,0.4-0.1,0.7-0.3,1c-0.1,0.3-0.3,0.5-0.5,0.6c-0.3,0.2-0.7,0.3-1.2,0.3c-0.5,0.1-1,0.1-1.5,0.1
	c-0.5,0-1,0-1.4,0c-0.5,0-0.8,0-1,0.1c-0.1,0-0.2,0.2-0.3,0.4c-0.1,0.2-0.1,0.5-0.1,0.8c0,0.3,0,0.5,0.1,0.8
	c0.1,0.2,0.1,0.4,0.3,0.5c0.3,0.1,0.7,0.2,1.2,0.2c0.5,0,1,0,1.5,0s1,0,1.4,0c0.4,0,0.7,0.1,0.8,0.2c0.2,0.2,0.3,0.4,0.4,0.8
	c0.1,0.4,0.1,0.7,0.2,1.1c0,0.4,0,0.8-0.1,1.3c-0.1,0.4-0.2,0.8-0.3,1.1c-0.2,0.3-0.4,0.5-0.8,0.7c-0.4,0.1-0.9,0.2-1.3,0.3
	c-0.5,0.1-1,0.1-1.4,0.1s-0.8,0.1-1,0.2c-0.2,0.1-0.3,0.2-0.3,0.5c0,0.3-0.1,0.6-0.1,1.1c0,0.4,0,0.9,0,1.3s0,1,0,1.4s0,0.9-0.1,1.2
	c-0.1,0.4-0.2,0.7-0.4,0.9c-0.3,0.3-0.7,0.5-1.3,0.7c-0.6,0.1-1.1,0.2-1.8,0.2s-1.2,0-1.8-0.1c-0.6-0.1-1-0.2-1.3-0.3
	c-0.1-0.1-0.2-0.4-0.3-1c-0.1-0.6-0.2-1.4-0.2-2.3c0-1-0.1-2-0.1-3.3c0-1.2,0-2.4,0.1-3.7c0-1.3,0.1-2.5,0.2-3.7
	c0.1-1.2,0.1-2.3,0.2-3.3c0.1-1,0.2-1.8,0.3-2.5C96.7,2.7,96.9,2.3,97,2.2z"/>
	<path class="st0" d="M111.7,2.1c0.3-0.2,0.8-0.3,1.4-0.4c0.6-0.1,1.1-0.1,1.7-0.1c0.6,0,1.1,0.1,1.5,0.2c0.4,0.1,0.7,0.2,0.8,0.4
	c0.2,0.3,0.3,0.8,0.3,1.2c0,0.5,0,1,0,1.5c0,0.5-0.1,1.1-0.1,1.6c0,0.5,0,1,0.1,1.5c0.1,0.4,0.3,0.8,0.6,1.1
	c0.3,0.3,0.7,0.5,1.3,0.6c0.3,0,0.5-0.1,0.7-0.4c0.2-0.3,0.3-0.8,0.4-1.3c0.1-0.5,0.1-1.1,0.2-1.7c0-0.6,0.1-1.2,0.1-1.8
	c0-0.6,0.1-1.1,0.1-1.5s0.1-0.7,0.2-0.8c0.2-0.2,0.5-0.3,1-0.4c0.5-0.1,1.1-0.1,1.6-0.1c0.6,0,1.1,0,1.7,0c0.5,0,0.9,0.1,1.1,0.2
	c0.1,0,0.2,0.3,0.3,0.8c0.1,0.5,0.1,1.1,0.1,1.9s0,1.7,0,2.7c0,1,0,2.1,0,3.1c0,2.7-0.2,4.9-0.6,6.6c-0.4,1.7-0.9,3-1.6,4
	c-0.7,1-1.6,1.6-2.6,2c-1,0.4-2.2,0.6-3.5,0.6c-1.1,0-2.2-0.1-3.2-0.3c-1-0.3-2-0.6-2.8-1.2c-0.8-0.5-1.4-1.2-1.9-2
	c-0.5-0.8-0.7-1.7-0.7-2.8c0-0.3,0.1-0.5,0.3-0.7c0.2-0.2,0.5-0.3,0.8-0.5c0.3-0.1,0.7-0.2,1.1-0.3c0.4,0,0.8-0.1,1.2-0.1
	c0.4,0,0.7,0,1,0.1s0.5,0.1,0.6,0.2c0.1,0.2,0.2,0.3,0.2,0.5s0.1,0.4,0.1,0.6c0,0.2,0.2,0.4,0.3,0.5c0.2,0.1,0.4,0.2,0.8,0.3
	c0.6,0,1.1,0,1.5-0.1c0.4,0,0.6-0.1,0.7-0.3c0-0.1,0.1-0.2,0.1-0.4c0-0.2,0.1-0.5,0.1-0.8c0-0.3,0.1-0.6,0.1-1s0-0.7,0-0.9
	c0-0.3-0.1-0.5-0.1-0.7s-0.2-0.2-0.3-0.2c-1.5,0.3-2.7,0.3-3.8,0.1c-1-0.2-1.9-0.6-2.5-1.2c-0.7-0.6-1.2-1.3-1.5-2.1
	c-0.3-0.8-0.5-1.6-0.6-2.5C110,7.4,110,6.8,110,6.3c0-0.6,0.1-1.1,0.2-1.6c0.1-0.5,0.3-1,0.5-1.4C111,2.8,111.3,2.4,111.7,2.1z"/>
	<path class="st0" d="M129.2,6c0.1-0.9,0.2-1.7,0.4-2.1s0.4-0.8,0.7-1c0.3-0.2,0.6-0.3,1-0.3c0.4,0,0.9,0,1.4,0c0.9,0,1.6,0,2.1,0
	c0.5,0,0.9,0.1,1.2,0.4c0.3,0.2,0.5,0.6,0.6,1.1c0.1,0.5,0.2,1.3,0.2,2.3c0,0.9,0,2,0.1,3.1c0,1.2,0,2.3,0,3.5c0,1.2,0,2.4,0,3.6
	s0,2.3,0,3.3c0,1.2,0,2.1-0.1,2.7c0,0.6-0.2,1.1-0.5,1.4c-0.3,0.3-0.6,0.5-1.2,0.5s-1.3,0.1-2.2,0.1c-0.8,0-1.5,0-2-0.1
	s-0.9-0.3-1.1-0.6c-0.3-0.3-0.5-0.7-0.6-1.3c-0.1-0.5-0.2-1.2-0.2-2.1c-0.1-1-0.1-2.2-0.1-3.5s0-2.6,0-3.9s0.1-2.6,0.1-3.9
	C129.1,8.1,129.2,7,129.2,6z"/>
	<path class="st0" d="M145.7,15.5c-0.1,0-0.2,0.2-0.2,0.5c0,0.4,0,0.8,0,1.3s0,1.1,0,1.8c0,0.6,0,1.2,0,1.8c0,0.6-0.1,1-0.1,1.4
	c-0.1,0.4-0.2,0.6-0.4,0.7s-0.4,0.1-0.8,0.2s-0.8,0.1-1.2,0.1c-0.4,0-0.9,0-1.4,0c-0.5,0-0.9,0-1.3-0.1c-0.4-0.1-0.7-0.1-1-0.3
	c-0.2-0.1-0.4-0.3-0.4-0.5c0-0.2,0-0.5,0-1.2c0-0.6,0-1.4,0-2.4c0-1,0-2,0-3.2c0-1.2,0-2.4,0-3.6c0-1.2,0-2.4,0-3.6
	c0-1.2,0-2.2,0.1-3.1c0-0.9,0.1-1.7,0.1-2.2c0.1-0.6,0.2-0.9,0.3-1c0.2-0.1,0.6-0.2,1.2-0.3c0.6-0.1,1.2-0.1,1.9-0.2
	c0.7,0,1.3,0,1.9,0.1c0.6,0.1,1,0.2,1.2,0.5c0.1,0.2,0.3,0.5,0.5,1s0.4,1.1,0.7,1.8s0.5,1.4,0.8,2.2c0.3,0.8,0.5,1.5,0.8,2.1
	c0.2,0.7,0.5,1.2,0.7,1.6c0.2,0.4,0.4,0.6,0.6,0.6c0.2,0,0.2-0.2,0.3-0.7c0-0.5,0-1.1-0.1-1.8c-0.1-0.7-0.1-1.5-0.2-2.4
	c-0.1-0.9-0.2-1.7-0.2-2.4s-0.1-1.4-0.1-1.9c0-0.5,0.1-0.8,0.2-0.8c0.2-0.1,0.6-0.1,1.2-0.1c0.6,0,1.2,0,1.8,0s1.2,0.1,1.8,0.3
	c0.5,0.1,0.9,0.4,1,0.7c0.1,0.2,0.1,0.6,0.2,1.2s0.1,1.5,0.1,2.5c0,1,0.1,2.1,0.1,3.3s0.1,2.4,0.1,3.7c0,1.2,0,2.4,0,3.6
	c0,1.2,0,2.2-0.1,3.2c0,0.9-0.1,1.7-0.2,2.2c-0.1,0.6-0.2,0.9-0.3,0.9c-0.2,0.1-0.7,0.1-1.3,0.2c-0.6,0.1-1.3,0.1-2,0.1
	c-0.7,0-1.3,0-1.9-0.1c-0.6-0.1-1-0.3-1.2-0.6c-0.1-0.2-0.3-0.5-0.4-0.9c-0.2-0.4-0.3-0.9-0.5-1.4c-0.2-0.5-0.4-1.1-0.5-1.6
	c-0.2-0.6-0.4-1.1-0.6-1.5c-0.2-0.5-0.4-0.8-0.6-1.1S145.8,15.5,145.7,15.5z"/>
	<path class="st0" d="M173.5,9.1c-0.8,0.2-1.5,0.2-2.2,0.1c-0.7-0.1-1.3-0.2-1.9-0.4c-0.6-0.2-1.2-0.3-1.7-0.4c-0.5-0.1-1-0.1-1.3,0
	c-0.4,0.2-0.7,0.5-0.9,1.1c-0.2,0.6-0.4,1.4-0.5,2.6c-0.1,0.7-0.1,1.4-0.1,2c0,0.7,0.1,1.3,0.2,1.8c0.1,0.5,0.3,1,0.5,1.3
	c0.2,0.4,0.5,0.6,0.9,0.6c0.4,0.1,0.6,0,0.8-0.2c0.2-0.2,0.3-0.5,0.4-0.8c0.1-0.3,0.1-0.7,0.2-1.1c0-0.4,0-0.8,0-1.1
	c0-0.5,0.1-0.9,0.4-1.2c0.3-0.3,0.7-0.5,1.1-0.6c0.4-0.1,0.9-0.2,1.5-0.1c0.5,0,1,0.1,1.5,0.1c0.5,0.1,0.8,0.1,1.1,0.2
	c0.3,0.1,0.5,0.1,0.5,0.2c0.1,0.1,0.2,0.3,0.3,0.7c0.1,0.4,0.1,0.9,0.1,1.5c0,0.6,0,1.3-0.1,2c-0.1,0.7-0.1,1.4-0.2,2.1
	c-0.1,0.7-0.2,1.3-0.3,1.9c-0.1,0.6-0.2,1.1-0.3,1.4c-0.1,0.2-0.4,0.4-0.8,0.6c-0.5,0.1-1,0.3-1.7,0.3c-0.7,0.1-1.4,0.1-2.3,0.1
	c-0.8,0-1.7,0-2.5-0.1c-0.8,0-1.6-0.1-2.4-0.2c-0.8-0.1-1.4-0.2-1.9-0.2c-0.8-0.1-1.5-0.5-2-1.1c-0.5-0.6-0.9-1.3-1.1-2.1
	c-0.3-0.8-0.4-1.8-0.6-2.9c-0.1-1.1-0.2-2.2-0.2-3.3c0-0.8,0-1.6,0-2.5c0-0.9,0.1-1.8,0.2-2.7c0.1-0.9,0.3-1.7,0.5-2.6
	c0.2-0.8,0.4-1.6,0.7-2.2c0.3-0.7,0.6-1.2,0.9-1.7c0.3-0.5,0.7-0.7,1.2-0.9c0.4-0.1,1-0.2,1.8-0.2c0.7,0,1.5,0,2.4,0
	c0.9,0.1,1.8,0.1,2.7,0.3c0.9,0.1,1.8,0.3,2.6,0.4c0.8,0.2,1.5,0.3,2,0.5c0.6,0.2,1,0.4,1.2,0.5c0.3,0.3,0.5,0.7,0.5,1.3
	c0.1,0.6,0.1,1.2,0,1.8c-0.1,0.6-0.2,1.2-0.4,1.7C173.9,8.6,173.7,9,173.5,9.1z"/>
	<path class="st0" d="M202.1,8.9C202,9,201.8,9,201.5,9s-0.6,0-1,0c-0.4,0-0.8,0-1.2-0.1c-0.4,0-0.9-0.1-1.3-0.1
	c-0.6,0-1.1,0.1-1.5,0.3c-0.4,0.2-0.7,0.6-1,1c-0.3,0.4-0.4,0.9-0.5,1.4c-0.1,0.5-0.1,1.1-0.1,1.6c0.1,0.9,0.2,1.7,0.4,2.2
	c0.2,0.5,0.5,0.8,0.9,1.1c0.4,0.2,0.8,0.3,1.2,0.4c0.5,0,1,0,1.6,0s1.2,0,1.8,0c0.6,0,1.3,0.1,2,0.3c0.3,0.1,0.6,0.3,0.9,0.7
	s0.4,0.8,0.5,1.3c0.1,0.5,0,1.1-0.2,1.6c-0.2,0.6-0.6,1.1-1.2,1.5c-0.6,0.5-1.4,0.8-2.4,1.1c-1,0.3-2.4,0.4-3.9,0.4
	c-1.1,0-2.2-0.2-3.2-0.6c-1-0.4-1.9-0.9-2.8-1.7c-0.8-0.8-1.5-1.8-2.1-3c-0.5-1.2-0.9-2.8-1.1-4.7c-0.2-1.8-0.1-3.5,0.3-5
	c0.4-1.5,0.9-2.8,1.7-3.9c0.8-1.1,1.7-1.9,2.8-2.5s2.3-1,3.7-1.1c0.9,0,1.8,0,2.6,0.2c0.9,0.2,1.6,0.5,2.3,0.8
	c0.7,0.4,1.3,0.8,1.8,1.3s0.9,1.1,1,1.6c0.2,0.6,0.2,1.2,0,1.8S202.8,8.3,202.1,8.9z"/>
	<path class="st0" d="M212,19.8c0,0.2,0,0.4,0,0.8c0,0.4,0,0.7,0,1.1s0,0.7-0.1,1c-0.1,0.3-0.2,0.5-0.5,0.6c-0.2,0.1-0.6,0.1-1.1,0.2
	c-0.5,0-1.1,0.1-1.6,0.1c-0.6,0-1.1,0-1.6-0.1c-0.5-0.1-0.8-0.2-0.9-0.4c-0.1-0.1-0.2-0.6-0.2-1.4c-0.1-0.8-0.1-1.9-0.2-3.1
	c0-1.3-0.1-2.6-0.1-4.2c0-1.5,0-3,0-4.5s0-2.8,0-4c0-1.2,0.1-2.2,0.1-2.9c0-0.4,0.3-0.7,0.8-0.9c0.5-0.2,1.1-0.4,1.9-0.5
	c0.7-0.1,1.6-0.2,2.5-0.2c0.9,0,1.8,0,2.6,0c0.8,0,1.6,0.1,2.3,0.2c0.7,0.1,1.2,0.2,1.5,0.3c0.8,0.2,1.4,0.6,1.9,1.1
	c0.5,0.5,0.9,1,1.2,1.7c0.3,0.7,0.5,1.4,0.6,2.2c0.1,0.8,0.1,1.7,0.1,2.6c0,0.9,0,1.7,0,2.4c0,0.7,0,1.4-0.1,1.9
	c0,0.6-0.1,1.1-0.2,1.5c-0.1,0.4-0.3,0.8-0.5,1.2c-0.2,0.3-0.5,0.6-0.6,0.8c-0.2,0.2-0.3,0.3-0.4,0.4s-0.2,0.2-0.2,0.2
	c0,0.1,0,0.2,0,0.3c0,0.1,0.1,0.3,0.3,0.5c0.2,0.2,0.4,0.5,0.6,0.9c0.2,0.3,0.5,0.7,0.8,1c0.3,0.4,0.5,0.7,0.7,1.1s0.3,0.6,0.4,0.9
	c0.1,0.3,0,0.4-0.1,0.5c-0.2,0.2-0.6,0.3-1.2,0.3c-0.6,0.1-1.3,0.1-2,0.1s-1.4,0-2-0.1c-0.6,0-1.1-0.1-1.3-0.2
	c-0.1,0-0.2-0.2-0.3-0.4c-0.2-0.2-0.3-0.5-0.5-0.9s-0.4-0.7-0.6-1.1c-0.2-0.4-0.4-0.7-0.7-0.9c-0.2-0.3-0.4-0.4-0.6-0.5
	C212.3,19.5,212.1,19.6,212,19.8z M211.7,13.9c0,0.4,0.2,0.7,0.5,0.9c0.4,0.2,0.7,0.3,1.2,0.3c0.4,0,0.8-0.1,1.2-0.3
	c0.4-0.2,0.6-0.5,0.6-0.9c0.1-0.5,0.1-1.1,0.2-1.5c0-0.5,0.1-1,0.1-1.4c0-0.5,0-1,0-1.6c0-0.5-0.1-1.2-0.1-1.9
	c0-0.4-0.2-0.7-0.6-0.9c-0.4-0.2-0.8-0.3-1.2-0.3c-0.4,0-0.8,0.1-1.2,0.3s-0.6,0.5-0.6,0.8c-0.1,0.6-0.1,1.2-0.1,1.9
	c0,0.7,0,1.4,0,2c0,0.6,0,1.2,0,1.7C211.7,13.5,211.7,13.8,211.7,13.9z"/>
	<path class="st0" d="M224.3,2.4c0.3-0.2,0.8-0.4,1.3-0.5c0.6-0.1,1.1-0.2,1.7-0.2c0.6,0,1.1,0,1.5,0.1c0.4,0.1,0.7,0.2,0.8,0.3
	c0.2,0.3,0.3,0.7,0.4,1.2c0,0.5,0,1,0,1.5c0,0.5,0,1.1-0.1,1.6c0,0.5,0,1,0.1,1.5c0.1,0.4,0.3,0.8,0.6,1.1c0.3,0.3,0.8,0.5,1.4,0.5
	c0.3,0,0.5-0.1,0.7-0.5c0.2-0.3,0.3-0.8,0.4-1.3c0.1-0.5,0.1-1.1,0.1-1.7c0-0.6,0-1.2,0-1.8c0-0.6,0-1.1,0-1.5s0.1-0.7,0.2-0.8
	c0.2-0.2,0.5-0.3,1-0.4c0.5-0.1,1.1-0.2,1.6-0.2c0.6,0,1.1,0,1.7,0c0.5,0,0.9,0.1,1.1,0.2c0.1,0,0.2,0.3,0.3,0.8s0.1,1.1,0.2,1.9
	c0.1,0.8,0.1,1.7,0.1,2.7c0,1,0.1,2.1,0.1,3.1c0.1,2.7-0.1,4.9-0.4,6.6c-0.3,1.7-0.8,3.1-1.5,4c-0.7,1-1.5,1.7-2.5,2.1
	c-1,0.4-2.2,0.6-3.5,0.7c-1.1,0.1-2.2,0-3.2-0.2c-1-0.2-2-0.6-2.8-1.1c-0.8-0.5-1.5-1.1-2-1.9c-0.5-0.8-0.8-1.7-0.8-2.8
	c0-0.3,0.1-0.5,0.3-0.7c0.2-0.2,0.5-0.4,0.8-0.5c0.3-0.1,0.7-0.2,1.1-0.3c0.4-0.1,0.8-0.1,1.2-0.1c0.4,0,0.7,0,1,0.1
	c0.3,0.1,0.5,0.1,0.6,0.2c0.1,0.1,0.2,0.3,0.2,0.5c0,0.2,0.1,0.4,0.1,0.6c0.1,0.2,0.2,0.3,0.3,0.5c0.2,0.1,0.4,0.2,0.8,0.2
	c0.6,0,1.1-0.1,1.5-0.1c0.4-0.1,0.6-0.2,0.7-0.3c0-0.1,0-0.2,0.1-0.4c0-0.2,0.1-0.5,0.1-0.8c0-0.3,0-0.6,0.1-1s0-0.7,0-0.9
	c0-0.3-0.1-0.5-0.2-0.7c-0.1-0.2-0.2-0.2-0.3-0.2c-1.5,0.3-2.7,0.4-3.8,0.2c-1-0.2-1.9-0.6-2.6-1.1c-0.7-0.5-1.2-1.2-1.6-2
	c-0.4-0.8-0.6-1.6-0.7-2.5c-0.1-0.6-0.1-1.1-0.1-1.7c0-0.6,0-1.1,0.1-1.6c0.1-0.5,0.3-1,0.5-1.4C223.6,3.1,223.9,2.7,224.3,2.4z"/>
	<path class="st0" d="M248.6,19.8c-0.1,0.2-0.1,0.4-0.1,0.8c0,0.4,0,0.7,0,1.1s0,0.7-0.1,1c-0.1,0.3-0.2,0.5-0.5,0.6
	c-0.1,0-0.2,0.1-0.3,0.1c-0.1,0-0.2,0.1-0.4,0.1c-0.2,0-0.4,0-0.7,0c-0.3,0-0.7,0-1.2,0c-0.8,0-1.5-0.1-2-0.1
	c-0.6-0.1-0.9-0.2-1-0.3c-0.1-0.1-0.1-0.4-0.2-0.8c-0.1-0.5-0.1-1.1-0.1-1.9c0-0.8-0.1-1.7-0.1-2.7c0-1,0-2-0.1-3.1
	c0-1.1,0-2.2,0-3.3c0-1.1,0-2.2,0-3.2c0-1,0-1.9,0.1-2.7s0.1-1.5,0.1-2c0-0.4,0.3-0.8,0.8-1c0.5-0.3,1.1-0.4,1.8-0.6
	c0.7-0.1,1.6-0.2,2.4-0.2c0.9,0,1.7,0,2.6,0.1c0.8,0,1.6,0.1,2.2,0.2s1.2,0.2,1.5,0.3c0.8,0.2,1.5,0.6,2,1c0.5,0.5,1,1,1.3,1.6
	c0.3,0.6,0.5,1.3,0.7,2.1c0.1,0.8,0.2,1.6,0.2,2.6c0,0.9,0,1.7,0,2.4c0,0.7,0,1.4-0.1,1.9c0,0.6-0.1,1.1-0.2,1.5s-0.3,0.8-0.5,1.2
	c-0.3,0.4-0.7,0.8-1.2,1c-0.5,0.3-1,0.5-1.6,0.7c-0.6,0.2-1.1,0.3-1.7,0.4c-0.6,0.1-1.1,0.2-1.6,0.3c-0.5,0.1-0.9,0.2-1.3,0.4
	C248.9,19.5,248.7,19.6,248.6,19.8z M248.2,13.1c0,0.3,0.2,0.6,0.5,0.8c0.4,0.2,0.7,0.2,1.2,0.2c0.4,0,0.8-0.1,1.2-0.3
	s0.6-0.4,0.6-0.8c0.1-0.5,0.1-0.9,0.1-1.3c0-0.4,0.1-0.8,0.1-1.2c0-0.4,0-0.8,0-1.3c0-0.5-0.1-1-0.1-1.6c0-0.3-0.2-0.6-0.6-0.8
	c-0.4-0.2-0.8-0.3-1.2-0.2c-0.4,0-0.8,0.1-1.2,0.3c-0.4,0.2-0.6,0.4-0.6,0.7c-0.1,0.5-0.1,1-0.1,1.6c0,0.6,0,1.1,0,1.7
	c0,0.5,0,1,0,1.4C248.2,12.7,248.2,13,248.2,13.1z"/>
	<path class="st0" d="M258.8,1.9c0.2-0.1,0.6-0.1,1.4-0.2c0.7,0,1.6-0.1,2.6-0.1c1,0,2.1,0,3.2,0s2.2,0,3.2,0c1,0,1.8,0.1,2.5,0.1
	c0.7,0,1.1,0.1,1.3,0.2c0.1,0.1,0.2,0.3,0.3,0.5c0.1,0.3,0.2,0.6,0.2,1c0,0.4,0.1,0.8,0.1,1.3c0,0.5,0,0.9,0,1.3
	c0,0.4-0.1,0.8-0.1,1.1c0,0.3-0.1,0.5-0.2,0.7c-0.1,0.2-0.3,0.3-0.7,0.4c-0.4,0-0.8,0.1-1.3,0.1s-0.9,0-1.4,0c-0.4,0-0.8,0-1,0.1
	c-0.1,0-0.2,0.3-0.2,0.7c0,0.4,0,1,0,1.7c0,0.7,0.1,1.5,0.1,2.3c0,0.9,0.1,1.8,0.2,2.7c0.1,0.9,0.1,1.8,0.2,2.7
	c0.1,0.9,0.1,1.7,0.1,2.4c0,0.7,0,1.3,0,1.7c0,0.5-0.1,0.7-0.1,0.8c-0.2,0.2-0.6,0.2-1.2,0.3c-0.6,0-1.3,0.1-2,0
	c-0.8,0-1.5,0-2.3-0.1s-1.4-0.1-1.9-0.2c-0.3,0-0.5-0.4-0.7-1.1c-0.1-0.7-0.2-1.6-0.2-2.7c0-1.1,0-2.2,0.1-3.5
	c0.1-1.2,0.2-2.4,0.3-3.5c0.1-1.1,0.2-2,0.2-2.8s0.1-1.2,0-1.3c-0.1-0.2-0.2-0.3-0.6-0.3c-0.3,0-0.7-0.1-1.1-0.1
	c-0.4,0-0.7,0-1.1-0.1c-0.4,0-0.6-0.1-0.7-0.2c-0.1-0.1-0.2-0.3-0.2-0.6c0-0.3,0-0.7,0-1.1s0-0.9,0.1-1.4c0-0.5,0.1-0.9,0.2-1.3
	c0.1-0.4,0.2-0.8,0.3-1C258.6,2.1,258.7,1.9,258.8,1.9z"/>
	<path class="st0" d="M284.4,1.7c1.4,0.1,2.6,0.2,3.6,0.5c1,0.2,1.8,0.6,2.4,1s1.2,1,1.5,1.7c0.4,0.7,0.6,1.5,0.8,2.4s0.3,2,0.4,3.2
	c0,1.2,0.1,2.6,0.1,4.1c0,1.9-0.1,3.5-0.4,4.6c-0.3,1.2-0.7,2.1-1.4,2.8s-1.5,1.2-2.7,1.4c-1.1,0.3-2.5,0.4-4.2,0.4
	c-1.6,0-3.1-0.1-4.3-0.3c-1.2-0.2-2.2-0.7-3-1.4c-0.8-0.7-1.4-1.6-1.9-2.9s-0.7-2.8-0.8-4.7c-0.1-2.2,0-4.1,0.2-5.7
	c0.2-1.6,0.7-3,1.5-4.1c0.8-1.1,1.8-1.9,3.1-2.4S282.4,1.7,284.4,1.7z M282.3,17c0,0.5,0.2,0.8,0.6,1c0.4,0.2,0.9,0.3,1.3,0.3
	c0.5,0,0.9-0.2,1.4-0.4c0.4-0.3,0.6-0.6,0.7-1.1c0.1-0.6,0.1-1.2,0.1-1.8c0-0.5,0-1.1,0-1.6c0-0.5,0-1.1-0.1-1.8
	c0-0.6-0.1-1.3-0.2-2.1c-0.1-0.5-0.3-0.8-0.7-1c-0.4-0.2-0.9-0.3-1.4-0.3s-0.9,0.1-1.3,0.4c-0.4,0.2-0.6,0.5-0.7,1
	c0,0.6-0.1,1.4,0,2.2s0,1.6,0.1,2.3c0,0.7,0.1,1.4,0.1,1.9C282.3,16.5,282.3,16.8,282.3,17z"/>
	<path class="st0" d="M305.8,1.7c0.2-0.2,0.5-0.4,1.1-0.6c0.6-0.2,1.3-0.3,2.1-0.4c0.8-0.1,1.7-0.1,2.6-0.2s1.8,0,2.6,0
	c0.8,0,1.6,0,2.2,0.1c0.7,0,1.1,0.1,1.4,0.1c0.3,0.1,0.6,0.5,0.9,1.1s0.6,1.6,0.9,2.6c0.3,1.1,0.6,2.3,0.9,3.7
	c0.3,1.4,0.5,2.8,0.8,4.2c0.2,1.4,0.4,2.9,0.6,4.3c0.2,1.4,0.3,2.7,0.3,3.8c0.1,1.1,0.1,2.1,0.1,2.9c0,0.8-0.1,1.3-0.3,1.5
	c-0.1,0.1-0.4,0.2-1,0.3c-0.5,0.1-1.1,0.2-1.8,0.2c-0.7,0.1-1.3,0.1-1.9,0.1c-0.6,0-1.1,0-1.4,0c-0.3,0-0.6-0.2-0.8-0.6
	c-0.2-0.4-0.4-0.8-0.6-1.2c-0.2-0.5-0.3-0.9-0.4-1.3c-0.1-0.4-0.2-0.7-0.2-0.9c0-0.1-0.2-0.2-0.4-0.3c-0.2-0.1-0.4-0.1-0.7-0.2
	c-0.3,0-0.5,0.1-0.7,0.2c-0.2,0.1-0.4,0.3-0.4,0.7c-0.1,0.3-0.1,0.7-0.1,1.1c0,0.4-0.1,0.7-0.1,1.1c-0.1,0.3-0.1,0.6-0.2,0.9
	c-0.1,0.3-0.2,0.4-0.4,0.5c-0.3,0.1-0.7,0.3-1.4,0.4c-0.7,0.1-1.4,0.2-2.2,0.2s-1.5,0-2.1-0.1c-0.7-0.1-1.1-0.3-1.2-0.6
	c-0.2-0.4-0.4-1.3-0.4-2.5c-0.1-1.2-0.1-2.6,0-4.2c0-1.6,0.1-3.3,0.3-5.1c0.1-1.8,0.3-3.5,0.6-5.1s0.5-3,0.7-4.2
	C305.2,2.9,305.5,2.1,305.8,1.7z M310.6,14.8c0,0.4,0.2,0.7,0.6,0.8c0.4,0.2,0.9,0.2,1.4,0.2c0.5,0,1-0.2,1.4-0.4
	c0.4-0.2,0.6-0.5,0.6-0.9c0-0.6,0-1.1,0-1.5c0-0.5-0.1-0.9-0.1-1.4c0-0.5-0.1-0.9-0.2-1.4c-0.1-0.5-0.2-1.1-0.3-1.8
	c-0.1-0.4-0.3-0.7-0.6-0.9c-0.3-0.2-0.7-0.3-1.1-0.2c-0.4,0-0.7,0.1-1,0.3c-0.3,0.2-0.5,0.5-0.5,0.8c0,0.5-0.1,1.2-0.1,1.8
	c0,0.7-0.1,1.3-0.1,1.9c0,0.6,0,1.2,0,1.6C310.6,14.4,310.6,14.7,310.6,14.8z"/>
	<path class="st0" d="M324.4,4.1c0-1.1,0.2-1.9,0.3-2.4c0.2-0.5,0.4-0.9,0.7-1.2c0.3-0.2,0.7-0.4,1.2-0.4c0.5,0,1,0,1.6-0.1
	c1,0,1.8-0.1,2.4-0.1c0.6,0,1,0.1,1.4,0.4c0.3,0.2,0.5,0.7,0.7,1.3c0.1,0.6,0.2,1.5,0.3,2.6c0.1,1.1,0.1,2.2,0.2,3.6
	c0.1,1.3,0.1,2.7,0.2,4.1c0.1,1.4,0.1,2.8,0.2,4.1c0.1,1.4,0.1,2.6,0.1,3.8c0.1,1.4,0.1,2.4,0,3.1c0,0.7-0.2,1.2-0.5,1.6
	c-0.3,0.3-0.7,0.5-1.3,0.6c-0.6,0.1-1.5,0.2-2.6,0.2c-0.9,0.1-1.7,0.1-2.2,0c-0.6-0.1-1-0.3-1.3-0.7c-0.3-0.3-0.6-0.8-0.7-1.5
	c-0.2-0.6-0.3-1.4-0.4-2.4c-0.1-1.2-0.2-2.5-0.2-4c-0.1-1.5-0.1-2.9-0.1-4.5c0-1.5,0-3,0-4.4S324.3,5.2,324.4,4.1z"/>
	<path class="st0" d="M353.5,10.1c0.2,0,0.3-0.2,0.6-0.6c0.2-0.4,0.5-0.9,0.7-1.4c0.3-0.6,0.5-1.2,0.8-1.9c0.3-0.7,0.6-1.3,0.8-1.9
	c0.3-0.6,0.5-1.1,0.8-1.5s0.5-0.7,0.7-0.7c0.3-0.1,0.7-0.2,1.3-0.2c0.6-0.1,1.2-0.1,1.8-0.1c0.6,0,1.2,0.1,1.7,0.2
	c0.5,0.1,0.9,0.3,1.2,0.6c0.1,0.2,0.2,0.5,0.3,1.2c0.1,0.6,0.2,1.4,0.2,2.3s0.1,2,0.2,3.1c0,1.2,0.1,2.3,0.1,3.5s0,2.4,0,3.5
	c0,1.1,0,2.2-0.1,3.1c0,0.9-0.1,1.7-0.2,2.3c-0.1,0.6-0.1,1-0.2,1.1c-0.2,0.2-0.6,0.4-1.1,0.5c-0.5,0.1-1.1,0.2-1.8,0.2
	s-1.2,0-1.8-0.1c-0.5-0.1-0.9-0.2-1.1-0.3c-0.1-0.1-0.2-0.4-0.2-0.9c0-0.5,0-1.1,0-1.8c0-0.7,0.1-1.4,0.1-2.2c0-0.8,0.1-1.5,0.1-2.2
	s0-1.2-0.1-1.7c0-0.4-0.2-0.7-0.3-0.7c-0.2,0-0.3,0.1-0.5,0.4c-0.2,0.3-0.3,0.7-0.5,1.2c-0.2,0.5-0.3,1-0.5,1.6s-0.3,1.1-0.5,1.6
	c-0.2,0.5-0.3,1-0.5,1.4c-0.2,0.4-0.3,0.6-0.5,0.7c-0.5,0.3-1,0.4-1.6,0.4s-1.1-0.1-1.6-0.4c-0.2-0.1-0.3-0.3-0.5-0.7
	c-0.2-0.4-0.3-0.8-0.5-1.4c-0.2-0.5-0.3-1.1-0.5-1.6s-0.3-1.1-0.5-1.6c-0.2-0.5-0.3-0.9-0.5-1.2c-0.2-0.3-0.3-0.4-0.5-0.4
	c-0.2,0-0.3,0.3-0.3,0.7c0,0.4-0.1,1-0.1,1.7s0,1.4,0.1,2.2c0,0.8,0.1,1.5,0.1,2.2c0,0.7,0,1.3,0,1.8c0,0.5-0.1,0.8-0.2,0.9
	c-0.2,0.2-0.6,0.3-1.1,0.3c-0.5,0.1-1.1,0.1-1.8,0.1c-0.6,0-1.2-0.1-1.8-0.2c-0.5-0.1-0.9-0.3-1.1-0.5c-0.1-0.1-0.2-0.5-0.2-1.1
	c-0.1-0.6-0.1-1.4-0.2-2.3c0-0.9-0.1-2-0.1-3.1c0-1.1,0-2.3,0-3.5s0-2.4,0.1-3.5c0-1.2,0.1-2.2,0.2-3.1s0.1-1.7,0.2-2.3
	c0.1-0.6,0.2-1,0.3-1.2c0.2-0.3,0.6-0.5,1.2-0.6c0.5-0.1,1.1-0.2,1.7-0.2c0.6,0,1.2,0,1.8,0.1c0.6,0.1,1,0.1,1.3,0.2
	c0.2,0.1,0.4,0.3,0.7,0.7s0.5,0.9,0.8,1.5c0.3,0.6,0.6,1.2,0.8,1.9s0.6,1.3,0.8,1.9c0.3,0.6,0.5,1.1,0.7,1.4S353.4,10.1,353.5,10.1z
	"/>
	<path class="st0" d="M369.1,2.5c0.1-0.2,0.5-0.4,1-0.5c0.5-0.1,1.1-0.2,1.8-0.3c0.7-0.1,1.5-0.1,2.3-0.2c0.8,0,1.6,0,2.3,0
	c0.7,0,1.4,0,2,0.1c0.6,0,1,0.1,1.2,0.1c0.3,0.1,0.5,0.4,0.8,1s0.5,1.4,0.8,2.3c0.3,0.9,0.5,2,0.8,3.2c0.2,1.2,0.5,2.4,0.7,3.7
	c0.2,1.3,0.4,2.5,0.5,3.7c0.1,1.2,0.2,2.4,0.3,3.4c0.1,1,0.1,1.8,0,2.5c0,0.7-0.1,1.1-0.3,1.3c-0.1,0.1-0.4,0.2-0.8,0.3
	c-0.5,0.1-1,0.1-1.6,0.2c-0.6,0-1.1,0.1-1.7,0.1c-0.6,0-1,0-1.3,0c-0.3,0-0.5-0.2-0.7-0.5c-0.2-0.3-0.4-0.7-0.5-1.1
	c-0.1-0.4-0.2-0.8-0.3-1.2c-0.1-0.4-0.1-0.6-0.2-0.8c0-0.1-0.2-0.2-0.3-0.3c-0.2-0.1-0.4-0.1-0.6-0.1c-0.2,0-0.4,0-0.6,0.1
	c-0.2,0.1-0.3,0.3-0.4,0.6c0,0.3-0.1,0.6-0.1,0.9c0,0.3-0.1,0.6-0.1,0.9c0,0.3-0.1,0.6-0.2,0.8c-0.1,0.2-0.2,0.4-0.4,0.5
	c-0.2,0.1-0.6,0.2-1.3,0.3c-0.6,0.1-1.3,0.2-1.9,0.2c-0.7,0-1.3,0-1.9-0.1c-0.6-0.1-0.9-0.3-1.1-0.5c-0.2-0.4-0.3-1.1-0.4-2.2
	c-0.1-1.1-0.1-2.3,0-3.7c0-1.4,0.1-2.9,0.3-4.5s0.3-3.1,0.5-4.5s0.4-2.6,0.7-3.7C368.6,3.6,368.9,2.9,369.1,2.5z M373.4,14
	c0,0.3,0.2,0.6,0.6,0.7c0.4,0.1,0.8,0.2,1.2,0.2c0.4,0,0.8-0.1,1.2-0.3c0.4-0.2,0.5-0.5,0.6-0.8c0-0.5,0-0.9,0-1.3
	c0-0.4-0.1-0.8-0.1-1.2c0-0.4-0.1-0.8-0.2-1.3c-0.1-0.4-0.1-1-0.2-1.5c-0.1-0.3-0.2-0.6-0.5-0.7c-0.3-0.2-0.6-0.2-0.9-0.2
	c-0.3,0-0.6,0.1-0.9,0.3c-0.3,0.2-0.4,0.4-0.4,0.7c0,0.5-0.1,1-0.1,1.6c0,0.6,0,1.2-0.1,1.7c0,0.5,0,1,0,1.4
	C373.4,13.6,373.4,13.9,373.4,14z"/>
	<path class="st0" d="M391.7,19.8c0,0.2,0,0.4,0,0.8c0,0.4,0,0.7,0,1.1s0,0.7-0.1,1c-0.1,0.3-0.2,0.5-0.5,0.6
	c-0.2,0.1-0.6,0.1-1.1,0.2c-0.5,0-1.1,0.1-1.6,0.1c-0.6,0-1.1,0-1.6-0.1c-0.5-0.1-0.8-0.2-0.9-0.4c-0.1-0.1-0.2-0.6-0.2-1.4
	c-0.1-0.8-0.1-1.9-0.2-3.1c0-1.3-0.1-2.6-0.1-4.2c0-1.5,0-3,0-4.5s0-2.8,0-4c0-1.2,0.1-2.2,0.1-2.9c0-0.4,0.3-0.7,0.8-0.9
	c0.5-0.2,1.1-0.4,1.9-0.5c0.7-0.1,1.6-0.2,2.5-0.2c0.9,0,1.8,0,2.6,0c0.8,0,1.6,0.1,2.3,0.2c0.7,0.1,1.2,0.2,1.5,0.3
	c0.8,0.2,1.4,0.6,1.9,1.1c0.5,0.5,0.9,1,1.2,1.7c0.3,0.7,0.5,1.4,0.6,2.2c0.1,0.8,0.1,1.7,0.1,2.6s0,1.7,0,2.4c0,0.7,0,1.4-0.1,1.9
	c0,0.6-0.1,1.1-0.2,1.5c-0.1,0.4-0.3,0.8-0.5,1.2c-0.2,0.3-0.5,0.6-0.6,0.8c-0.2,0.2-0.3,0.3-0.4,0.4s-0.2,0.2-0.2,0.2
	c0,0.1,0,0.2,0,0.3c0,0.1,0.1,0.3,0.3,0.5c0.2,0.2,0.4,0.5,0.6,0.9s0.5,0.7,0.8,1c0.3,0.4,0.5,0.7,0.7,1.1c0.2,0.3,0.3,0.6,0.4,0.9
	c0.1,0.3,0,0.4-0.1,0.5c-0.2,0.2-0.6,0.3-1.2,0.3c-0.6,0.1-1.3,0.1-2,0.1s-1.4,0-2-0.1c-0.6,0-1.1-0.1-1.3-0.2
	c-0.1,0-0.2-0.2-0.3-0.4c-0.2-0.2-0.3-0.5-0.5-0.9c-0.2-0.3-0.4-0.7-0.6-1.1c-0.2-0.4-0.4-0.7-0.7-0.9c-0.2-0.3-0.4-0.4-0.6-0.5
	C391.9,19.5,391.8,19.6,391.7,19.8z M391.3,13.9c0,0.4,0.2,0.7,0.5,0.9s0.7,0.3,1.2,0.3c0.4,0,0.8-0.1,1.2-0.3
	c0.4-0.2,0.6-0.5,0.6-0.9c0.1-0.5,0.1-1.1,0.2-1.5c0-0.5,0.1-1,0.1-1.4c0-0.5,0-1,0-1.6c0-0.5-0.1-1.2-0.1-1.9
	c0-0.4-0.2-0.7-0.6-0.9c-0.4-0.2-0.8-0.3-1.2-0.3s-0.8,0.1-1.2,0.3s-0.6,0.5-0.6,0.8c-0.1,0.6-0.1,1.2-0.1,1.9s0,1.4,0,2
	c0,0.6,0,1.2,0,1.7C391.3,13.5,391.3,13.8,391.3,13.9z"/>
	<path class="st0" d="M404.5,2.1c0.3-0.2,0.7-0.3,1.3-0.4c0.6-0.1,1.2-0.1,1.8-0.1c0.6,0,1.2,0.1,1.7,0.2c0.5,0.1,0.9,0.3,1,0.5
	c0.1,0.2,0.2,0.5,0.2,1c0,0.5,0.1,1.1,0.1,1.6c0,0.6,0.1,1.1,0.2,1.5c0.1,0.4,0.3,0.6,0.6,0.6c0.2,0,0.4-0.1,0.5-0.3
	c0.1-0.2,0.2-0.5,0.3-0.9c0.1-0.4,0.1-0.7,0.2-1.1c0-0.4,0.1-0.8,0.1-1.2c0-0.4,0-0.7,0-0.9s0-0.4,0.1-0.4c0.1-0.1,0.3-0.2,0.7-0.3
	s0.8-0.2,1.3-0.2c0.5-0.1,1-0.1,1.5-0.1c0.5,0,1,0,1.5,0c0.5,0,0.8,0.1,1.2,0.2c0.3,0.1,0.5,0.2,0.5,0.4c0.2,1.4,0.3,2.6,0.3,3.7
	c0,1.1-0.1,2-0.2,2.9c-0.1,0.8-0.3,1.5-0.5,2c-0.2,0.5-0.5,0.9-0.7,1.1c-0.5,0.4-0.9,0.7-1.2,0.9s-0.5,0.4-0.6,0.5
	c-0.1,0.2,0,0.4,0.2,0.6c0.2,0.2,0.7,0.6,1.3,1.1c0.8,0.6,1.4,1.6,1.7,3c0.3,1.4,0.4,3.1,0.1,5.1c0,0.1-0.1,0.2-0.4,0.3
	c-0.2,0.1-0.5,0.1-0.9,0.2c-0.4,0-0.7,0.1-1.2,0.1c-0.4,0-0.9,0-1.3,0c-0.4,0-0.8,0-1.2-0.1c-0.4,0-0.7-0.1-0.9-0.2
	c-0.4-0.1-0.6-0.4-0.7-0.8c-0.1-0.4-0.2-0.9-0.2-1.4s-0.2-1-0.3-1.4c-0.1-0.4-0.4-0.7-0.8-0.8c-0.3-0.1-0.5-0.1-0.6,0.1
	c-0.1,0.1-0.2,0.3-0.3,0.6c0,0.3-0.1,0.5,0,0.9c0,0.3,0.1,0.7,0.1,1c0,0.3,0,0.6,0,0.9c0,0.3,0,0.5-0.1,0.7
	c-0.1,0.2-0.3,0.3-0.6,0.4c-0.3,0.1-0.7,0.2-1.2,0.2c-0.5,0-1,0-1.5,0c-0.5,0-1.1-0.1-1.5-0.1c-0.5-0.1-0.9-0.2-1.3-0.3
	s-0.6-0.3-0.7-0.4c-0.1-0.1-0.2-0.5-0.2-1.1c-0.1-0.6-0.1-1.4-0.1-2.4c0-1,0-2.1-0.1-3.3c0-1.2,0-2.4,0-3.7c0-1.2,0.1-2.5,0.1-3.7
	c0.1-1.2,0.1-2.3,0.2-3.3c0.1-1,0.2-1.8,0.3-2.4C404.2,2.5,404.4,2.2,404.5,2.1z"/>
	<path class="st0" d="M436.8,7.5c-0.2,0.1-0.4,0.2-0.8,0.3c-0.4,0.1-0.8,0.1-1.2,0.1c-0.5,0-0.9,0.1-1.4,0.1s-1,0-1.4,0.1
	c-0.4,0-0.8,0-1.1,0.1c-0.3,0-0.5,0.1-0.6,0.1c-0.1,0.1-0.2,0.2-0.2,0.4c0,0.2-0.1,0.4-0.1,0.7c0,0.2,0,0.5,0.1,0.7
	c0,0.2,0.1,0.4,0.2,0.5c0.1,0.1,0.2,0.2,0.6,0.2c0.3,0,0.7,0,1,0c0.4,0,0.7,0,1.1,0c0.3,0,0.6,0.1,0.7,0.2c0.1,0.1,0.2,0.3,0.3,0.6
	c0.1,0.3,0.2,0.6,0.2,0.9c0,0.3,0,0.7,0,1.1c0,0.4-0.1,0.7-0.2,0.9c-0.1,0.2-0.3,0.3-0.6,0.3s-0.7,0.1-1.1,0.1
	c-0.4,0-0.8,0.1-1.2,0.2c-0.4,0.1-0.7,0.3-1,0.5c-0.1,0.1-0.1,0.2-0.1,0.3c0,0.2,0,0.3,0,0.5s0,0.4,0.1,0.5c0,0.2,0.1,0.4,0.1,0.5
	c0,0.2,0.2,0.3,0.5,0.3s0.7,0.1,1.2,0.1s1,0,1.5,0c0.5,0,1.1,0,1.6,0c0.5,0,1,0,1.4,0.1c0.4,0,0.7,0.1,0.9,0.2
	c0.2,0.1,0.3,0.4,0.4,0.9c0.1,0.5,0.1,1,0.2,1.5c0,0.5,0,1.1,0,1.5c0,0.5-0.1,0.8-0.2,1c0,0.1-0.3,0.1-0.7,0.2
	c-0.4,0.1-1,0.1-1.6,0.2c-0.7,0.1-1.4,0.1-2.3,0.2c-0.9,0-1.7,0.1-2.6,0.1c-0.9,0-1.8,0-2.6,0c-0.9,0-1.7,0-2.4-0.1
	c-0.7,0-1.3-0.1-1.8-0.2c-0.5-0.1-0.8-0.2-0.9-0.3c-0.2-0.3-0.4-0.8-0.5-1.6c-0.1-0.8-0.2-1.8-0.2-3c0-1.2,0-2.5,0-3.9
	c0-1.4,0.1-2.9,0.1-4.4c0.1-1.5,0.1-2.8,0.1-3.8c0-1.1,0.2-1.9,0.4-2.6c0.2-0.7,0.6-1.2,1.1-1.5c0.5-0.3,1.2-0.5,2.2-0.5
	c0.9,0,1.8-0.1,2.9-0.1c1.1,0,2.1,0,3.1,0c1,0,2,0.1,2.9,0.2c0.9,0.1,1.6,0.2,2.1,0.5c0.3,0.1,0.4,0.4,0.5,0.9
	c0.1,0.5,0.1,1.1,0.1,1.6c0,0.6-0.1,1.2-0.2,1.7C437,7,436.9,7.3,436.8,7.5z"/>
	<path class="st0" d="M440,1.9c0.2-0.1,0.6-0.1,1.4-0.2c0.7,0,1.6-0.1,2.6-0.1c1,0,2.1,0,3.2,0s2.2,0,3.2,0c1,0,1.8,0.1,2.5,0.1
	c0.7,0,1.1,0.1,1.3,0.2c0.1,0.1,0.2,0.3,0.3,0.5c0.1,0.3,0.2,0.6,0.2,1c0,0.4,0.1,0.8,0.1,1.3c0,0.5,0,0.9,0,1.3
	c0,0.4-0.1,0.8-0.1,1.1c0,0.3-0.1,0.5-0.2,0.7c-0.1,0.2-0.3,0.3-0.7,0.4c-0.4,0-0.8,0.1-1.3,0.1s-0.9,0-1.4,0c-0.4,0-0.8,0-1,0.1
	c-0.1,0-0.2,0.3-0.2,0.7c0,0.4,0,1,0,1.7c0,0.7,0.1,1.5,0.1,2.3c0,0.9,0.1,1.8,0.2,2.7c0.1,0.9,0.1,1.8,0.2,2.7
	c0.1,0.9,0.1,1.7,0.1,2.4c0,0.7,0,1.3,0,1.7c0,0.5-0.1,0.7-0.1,0.8c-0.2,0.2-0.6,0.2-1.2,0.3c-0.6,0-1.3,0.1-2,0
	c-0.8,0-1.5,0-2.3-0.1s-1.4-0.1-1.9-0.2c-0.3,0-0.5-0.4-0.7-1.1c-0.1-0.7-0.2-1.6-0.2-2.7c0-1.1,0-2.2,0.1-3.5
	c0.1-1.2,0.2-2.4,0.3-3.5c0.1-1.1,0.2-2,0.2-2.8s0.1-1.2,0-1.3c-0.1-0.2-0.2-0.3-0.6-0.3c-0.3,0-0.7-0.1-1.1-0.1
	c-0.4,0-0.7,0-1.1-0.1c-0.4,0-0.6-0.1-0.7-0.2c-0.1-0.1-0.2-0.3-0.2-0.6c0-0.3,0-0.7,0-1.1s0-0.9,0.1-1.4c0-0.5,0.1-0.9,0.2-1.3
	c0.1-0.4,0.2-0.8,0.3-1C439.8,2.1,439.9,1.9,440,1.9z"/>
	<path class="st0" d="M470.7,7.5c-0.3,0.1-0.6,0.2-0.9,0.2c-0.4,0-0.8-0.1-1.2-0.2c-0.4-0.1-0.8-0.2-1.2-0.3
	c-0.4-0.1-0.8-0.2-1.2-0.1c-0.4,0-0.7,0.1-1,0.3c-0.3,0.2-0.5,0.5-0.7,1c-0.2,0.5-0.2,1,0.1,1.4c0.3,0.4,0.6,0.8,1.1,1.2
	c0.5,0.4,1.1,0.8,1.7,1.2c0.6,0.4,1.2,0.9,1.8,1.5c0.5,0.6,1,1.2,1.3,2c0.3,0.8,0.5,1.7,0.4,2.8c-0.1,1.2-0.5,2.3-1.3,3.1
	c-0.8,0.8-1.8,1.5-3.1,1.8c-1.3,0.4-2.9,0.5-4.7,0.4c-1.8-0.1-3.8-0.6-6-1.3c-0.4-0.2-0.8-0.5-0.9-1.1c-0.2-0.5-0.2-1.1-0.2-1.8
	c0.1-0.6,0.2-1.2,0.5-1.8c0.3-0.6,0.6-0.9,1.1-1.1c0.3-0.1,0.6-0.1,0.9-0.1c0.4,0.1,0.7,0.1,1.1,0.2c0.4,0.1,0.8,0.1,1.2,0.1
	c0.4,0,0.8-0.1,1.3-0.4c0.3-0.2,0.5-0.4,0.6-0.6s0.2-0.5,0.2-0.8c0-0.3-0.1-0.5-0.2-0.7c-0.1-0.2-0.3-0.4-0.5-0.5
	c-0.8-0.6-1.5-1.1-2.1-1.6c-0.6-0.5-1.1-1-1.5-1.5c-0.4-0.5-0.7-1-0.9-1.5c-0.2-0.5-0.4-1.1-0.4-1.7c-0.1-1.4,0.1-2.6,0.7-3.5
	s1.3-1.6,2.3-2.1c1-0.5,2-0.7,3.2-0.8c1.2-0.1,2.4,0,3.5,0.2s2.2,0.5,3.2,1c1,0.4,1.7,1,2.2,1.6c0.4,0.5,0.5,1,0.5,1.7
	C471.4,6.4,471.2,7,470.7,7.5z"/>
</svg>
